<svg preserveAspectRatio="xMidYMid meet" width="100%" height="100%" overflow="visible" viewBox="-2 -2 24 24" fill="none" xmlns="http://www.w3.org/2000/svg">
<path id="Vector" d="M10 11C7.79 11 6 9.21 6 7C6 4.79 7.79 3 10 3C12.21 3 14 4.79 14 7C14 9.21 12.21 11 10 11ZM10 4C8.35 4 7 5.35 7 7C7 8.65 8.35 10 10 10C11.65 10 13 8.65 13 7C13 5.35 11.65 4 10 4ZM10 0C4.49 0 0 4.49 0 10C0 12.55 0.96 14.87 2.54 16.63C2.78 16.9 3.03 17.15 3.3 17.39C5.08 19 7.43 20 10.01 20C12.59 20 14.94 19.01 16.72 17.39C16.99 17.15 17.24 16.9 17.48 16.63C19.05 14.86 20.02 12.54 20.02 10C20.02 4.49 15.53 0 10.02 0H10ZM10 19C7.48 19 5.21 17.96 3.57 16.29C3.9 14.7 5.31 13.5 7 13.5H13C14.69 13.5 16.1 14.7 16.43 16.29C14.8 17.96 12.52 19 10 19ZM17.19 15.39C16.54 13.7 14.91 12.5 13 12.5H7C5.09 12.5 3.46 13.7 2.81 15.39C1.68 13.89 1 12.02 1 10C1 5.04 5.04 1 10 1C14.96 1 19 5.04 19 10C19 12.02 18.32 13.89 17.19 15.39Z" fill="currentColor"/>
</svg>
