<svg preserveAspectRatio="xMidYMid meet" width="100%" height="100%" overflow="visible" viewBox="-3 -3 24 24" fill="none" xmlns="http://www.w3.org/2000/svg">
<path id="Vector" d="M16 0H2C0.9 0 0 0.9 0 2V16C0 17.1 0.9 18 2 18H16C17.1 18 18 17.1 18 16V2C18 0.9 17.1 0 16 0ZM2 1H16C16.55 1 17 1.45 17 2V4.3L9.51 12.26L5.37 7.66C5.28 7.56 5.15 7.5 5.01 7.49C4.88 7.49 4.74 7.54 4.64 7.64L0.99 11.29V2C0.99 1.45 1.44 1 1.99 1H2ZM16 17H2C1.45 17 1 16.55 1 16V12.71L4.98 8.73L9.13 13.34C9.22 13.44 9.36 13.5 9.5 13.51C9.64 13.51 9.77 13.45 9.86 13.35L17 5.77V16.01C17 16.56 16.55 17.01 16 17.01V17Z" fill="currentColor"/>
</svg>
