<svg preserveAspectRatio="xMidYMid meet" width="100%" height="100%" overflow="visible" viewBox="-3 -3 24 24" fill="none" xmlns="http://www.w3.org/2000/svg">
<g id="Union">
<path d="M7 3.5C7.27614 3.5 7.5 3.72386 7.5 4V6C7.5 6.27614 7.27614 6.5 7 6.5C6.72386 6.5 6.5 6.27614 6.5 6V4C6.5 3.72386 6.72386 3.5 7 3.5Z" fill="currentColor"/>
<path d="M7.5 8C7.5 7.72386 7.27614 7.5 7 7.5C6.72386 7.5 6.5 7.72386 6.5 8V10C6.5 10.2761 6.72386 10.5 7 10.5C7.27614 10.5 7.5 10.2761 7.5 10V8Z" fill="currentColor"/>
<path d="M7 11.5C7.27614 11.5 7.5 11.7239 7.5 12V14C7.5 14.2761 7.27614 14.5 7 14.5C6.72386 14.5 6.5 14.2761 6.5 14V12C6.5 11.7239 6.72386 11.5 7 11.5Z" fill="currentColor"/>
<path fill-rule="evenodd" clip-rule="evenodd" d="M16 0C17.1 0 18 0.9 18 2V6.56C17.84 6.52 17.67 6.5 17.5 6.5C17.33 6.5 17.16 6.52 17 6.55C15.86 6.78 15 7.79 15 9C15 10.21 15.86 11.22 17 11.45C17.16 11.48 17.33 11.5 17.5 11.5C17.67 11.5 17.84 11.47 18 11.44V16C18 17.1 17.1 18 16 18H2C0.9 18 0 17.1 0 16V2C0 0.9 0.9 0 2 0H16ZM7.5 17V16C7.5 15.7239 7.27614 15.5 7 15.5C6.72386 15.5 6.5 15.7239 6.5 16V17H2C1.45 17 1 16.55 1 16V2C1 1.45 1.45 1 2 1H6.5V2C6.5 2.27614 6.72386 2.5 7 2.5C7.27614 2.5 7.5 2.27614 7.5 2V1H16C16.55 1 17 1.45 17 2V5.55C15.31 5.8 14 7.24 14 9C14 10.76 15.31 12.2 17 12.45V16C17 16.55 16.55 17 16 17H7.5Z" fill="currentColor"/>
</g>
</svg>
