<svg width="18" height="20" viewBox="0 0 18 20" fill="none" xmlns="http://www.w3.org/2000/svg">
  <path fill-rule="evenodd" clip-rule="evenodd" d="M11.0279 1.63769L10.8989 1.99095C10.1508 1.96556 9.41792 2.06035 8.72066 2.28571C7.25785 2.75851 5.99553 3.79226 5.10073 5.40162C4.12098 7.16381 3.60805 8.03237 3.25976 8.48523C3.09118 8.70443 2.98566 8.79267 2.91246 8.83755C2.84122 8.88123 2.7684 8.90513 2.60007 8.94434C2.26154 9.0232 1.9706 9.10084 1.74114 9.23812C1.4742 9.39783 1.33005 9.61049 1.21345 9.84779C1.00572 10.2706 0.739424 10.9731 0.424889 11.8029C0.334701 12.0409 0.240547 12.2893 0.142669 12.5445C-0.151875 13.3127 0.0561469 13.9301 0.346423 14.3373C0.48593 14.533 0.641353 14.6777 0.760279 14.7731C0.820389 14.8214 0.873021 14.8585 0.912444 14.8846C0.932212 14.8977 0.94882 14.9082 0.96158 14.916L0.97781 14.9257L0.98364 14.9291L0.986967 14.931L0.987872 14.9315L1.02411 14.952L4.76394 16.3091C4.67396 17.8076 5.57019 19.2493 7.05726 19.789C8.54433 20.3287 10.1603 19.7986 11.0574 18.5931L14.7973 19.9502L14.8382 19.9578L14.9288 19.4685C14.8382 19.9578 14.8393 19.958 14.8393 19.958L14.843 19.9586L14.8497 19.9598L14.8684 19.9627C14.8832 19.965 14.9026 19.9676 14.9262 19.9702C14.9733 19.9755 15.0375 19.9808 15.1147 19.9823C15.2673 19.9855 15.4796 19.9742 15.7127 19.9137C16.1976 19.7878 16.7549 19.4482 17.0245 18.671C17.1139 18.4132 17.2017 18.1631 17.2859 17.9235C17.5801 17.0856 17.8293 16.3761 17.9427 15.9189C18.0056 15.6655 18.0349 15.4104 17.9339 15.116C17.847 14.8626 17.6733 14.616 17.4621 14.3369C17.3573 14.1983 17.3167 14.1332 17.2903 14.0544C17.2632 13.9735 17.2393 13.8388 17.2517 13.563C17.2775 12.9931 17.4457 11.9998 17.8313 10.0215C18.1834 8.21482 17.882 6.61359 17.0655 5.31375C16.6768 4.69498 16.1769 4.15322 15.5882 3.69354L15.7174 3.33953C16.1888 2.04835 15.5211 0.620669 14.2261 0.150718C12.9311 -0.319234 11.4992 0.346504 11.0279 1.63769ZM13.8847 1.08587C13.1077 0.803903 12.2486 1.20335 11.9658 1.97805L11.9219 2.09827C12.4043 2.18231 12.8891 2.31314 13.3712 2.48809C13.8543 2.66339 14.3109 2.87441 14.7355 3.11984L14.7795 2.99916C15.0623 2.22445 14.6617 1.36784 13.8847 1.08587ZM15.0487 18.9824C15.0696 18.9845 15.0991 18.9867 15.135 18.9874C15.2228 18.9892 15.3395 18.9823 15.4611 18.9507C15.6857 18.8924 15.9403 18.7519 16.0812 18.3457C16.1781 18.0664 16.2709 17.8021 16.3579 17.5542C16.6471 16.7302 16.8728 16.0871 16.9739 15.6798C17.0137 15.5191 17.0034 15.4786 16.9895 15.438C16.9615 15.3563 16.8865 15.2286 16.6653 14.9362C16.5539 14.789 16.4253 14.6136 16.3436 14.3697C16.2626 14.1278 16.2393 13.8574 16.2546 13.5183C16.2844 12.8585 16.4713 11.7825 16.8515 9.83169C17.16 8.24881 16.8895 6.90835 16.2196 5.842C15.5462 4.77007 14.4447 3.93671 13.0299 3.42325C11.6149 2.90975 10.2345 2.84256 9.02844 3.23239C7.82857 3.6202 6.75776 4.47388 5.97368 5.88413C5.00708 7.62264 4.45523 8.56625 4.05181 9.0908C3.84455 9.3603 3.65249 9.55208 3.43531 9.68525C3.21619 9.81961 3.00584 9.87179 2.82714 9.91342C2.47164 9.99623 2.33067 10.046 2.2547 10.0915C2.21619 10.1145 2.18136 10.1399 2.10977 10.2856C1.92474 10.6622 1.68348 11.2984 1.3741 12.1142C1.28071 12.3604 1.18109 12.6231 1.07497 12.8999C0.921032 13.3014 1.02557 13.5722 1.15998 13.7608C1.23281 13.8629 1.31776 13.943 1.38612 13.9979C1.41412 14.0204 1.43809 14.0376 1.45544 14.0495L15.0487 18.9824ZM5.76102 16.671L10.0604 18.2312C9.39713 18.9256 8.36014 19.2028 7.39863 18.8538C6.43712 18.5049 5.82143 17.628 5.76102 16.671ZM1.23394 14.4986L0.987872 14.9315C0.987872 14.9315 0.987872 14.9315 1.23394 14.4986Z" fill="currentColor"/>
</svg>
