<svg preserveAspectRatio="xMidYMid meet" width="100%" height="100%" overflow="visible" viewBox="-2 -3 24 24" fill="none" xmlns="http://www.w3.org/2000/svg">
<g id="Union">
<path d="M10 9C10.5523 9 11 8.55229 11 8C11 7.44772 10.5523 7 10 7C9.44771 7 9 7.44772 9 8C9 8.55229 9.44771 9 10 9Z" fill="currentColor"/>
<path d="M7 8C7 8.55229 6.55228 9 6 9C5.44772 9 5 8.55229 5 8C5 7.44772 5.44772 7 6 7C6.55228 7 7 7.44772 7 8Z" fill="currentColor"/>
<path d="M14 9C14.5523 9 15 8.55229 15 8C15 7.44772 14.5523 7 14 7C13.4477 7 13 7.44772 13 8C13 8.55229 13.4477 9 14 9Z" fill="currentColor"/>
<path fill-rule="evenodd" clip-rule="evenodd" d="M18 16H3L0.853554 18.1464C0.538571 18.4614 0 18.2383 0 17.7929V2C0 0.895431 0.895431 0 2 0H18C19.1046 0 20 0.895431 20 2V14C20 15.1046 19.1046 16 18 16ZM3 15C2.73478 15 2.48043 15.1054 2.29289 15.2929L1 16.5858V2C1 1.44772 1.44772 1 2 1H18C18.5523 1 19 1.44772 19 2V14C19 14.5523 18.5523 15 18 15H3Z" fill="currentColor"/>
</g>
</svg>
