<svg preserveAspectRatio="xMidYMid meet" width="100%" height="100%" overflow="visible" viewBox="-1.5 -1.5 24 24" fill="none" xmlns="http://www.w3.org/2000/svg">
<g id="Union">
<path d="M3.85355 0.853553L0.853553 3.85355C0.658291 4.04882 0.341709 4.04882 0.146447 3.85355C-0.0488155 3.65829 -0.0488155 3.34171 0.146447 3.14645L3.14645 0.146447C3.34171 -0.0488155 3.65829 -0.0488155 3.85355 0.146447C4.04882 0.341709 4.04882 0.658291 3.85355 0.853553Z" fill="currentColor"/>
<path d="M17.1464 0.146447C17.3417 -0.0488155 17.6583 -0.0488155 17.8536 0.146447L20.8536 3.14645C21.0488 3.34171 21.0488 3.65829 20.8536 3.85355C20.6583 4.04882 20.3417 4.04882 20.1464 3.85355L17.1464 0.853553C16.9512 0.658291 16.9512 0.341709 17.1464 0.146447Z" fill="currentColor"/>
<path d="M11 3C11 2.72386 10.7761 2.5 10.5 2.5C10.2239 2.5 10 2.72386 10 3V10.5C10 10.7761 10.2239 11 10.5 11H16C16.2761 11 16.5 10.7761 16.5 10.5C16.5 10.2239 16.2761 10 16 10H11V3Z" fill="currentColor"/>
<path fill-rule="evenodd" clip-rule="evenodd" d="M20.5 10.5C20.5 16.0228 16.0228 20.5 10.5 20.5C4.97715 20.5 0.5 16.0228 0.5 10.5C0.5 4.97715 4.97715 0.5 10.5 0.5C16.0228 0.5 20.5 4.97715 20.5 10.5ZM10.5 19.5C15.4706 19.5 19.5 15.4706 19.5 10.5C19.5 5.52944 15.4706 1.5 10.5 1.5C5.52944 1.5 1.5 5.52944 1.5 10.5C1.5 15.4706 5.52944 19.5 10.5 19.5Z" fill="currentColor"/>
</g>
</svg>
