<svg preserveAspectRatio="xMidYMid meet" width="100%" height="100%" overflow="visible" viewBox="-4.5 -4.5 24 24" fill="none" xmlns="http://www.w3.org/2000/svg">
<path id="Union" d="M0.853553 0.146447C0.658291 -0.0488155 0.341709 -0.0488155 0.146447 0.146447C-0.0488155 0.341709 -0.0488155 0.658291 0.146447 0.853553L6.79289 7.5L0.146447 14.1464C-0.0488155 14.3417 -0.0488155 14.6583 0.146447 14.8536C0.341709 15.0488 0.658291 15.0488 0.853553 14.8536L7.5 8.20711L14.1464 14.8536C14.3417 15.0488 14.6583 15.0488 14.8536 14.8536C15.0488 14.6583 15.0488 14.3417 14.8536 14.1464L8.20711 7.5L14.8536 0.853553C15.0488 0.658291 15.0488 0.341709 14.8536 0.146447C14.6583 -0.0488155 14.3417 -0.0488155 14.1464 0.146447L7.5 6.79289L0.853553 0.146447Z" fill="currentColor"/>
</svg>
