<svg preserveAspectRatio="xMidYMid meet" width="100%" height="100%" overflow="visible" viewBox="0 0 24 24" fill="none" xmlns="http://www.w3.org/2000/svg">
<g id="Union">
<path d="M9.00001 0.5C9.00001 0.223858 8.77615 0 8.50001 0C8.22387 0 8.00001 0.223858 8.00001 0.5V3.5C8.00001 3.77614 8.22387 4 8.50001 4C8.77615 4 9.00001 3.77614 9.00001 3.5V0.5Z" fill="currentColor"/>
<path d="M4.10942 1.86132C3.95624 1.63156 3.64581 1.56947 3.41605 1.72265C3.18628 1.87582 3.12419 2.18626 3.27737 2.41602L4.94147 4.91217C5.09465 5.14194 5.40508 5.20402 5.63485 5.05085C5.86461 4.89767 5.9267 4.58724 5.77352 4.35747L4.10942 1.86132Z" fill="currentColor"/>
<path d="M0.271442 5.5801C0.421356 5.34819 0.730883 5.28172 0.962788 5.43164L3.4822 7.06031C3.71411 7.21022 3.78057 7.51975 3.63066 7.75165C3.48075 7.98356 3.17122 8.05002 2.93931 7.90011L0.419899 6.27144C0.187994 6.12153 0.121527 5.812 0.271442 5.5801Z" fill="currentColor"/>
<path fill-rule="evenodd" clip-rule="evenodd" d="M6.71601 10.6601C6.71601 8.28976 11.1604 7 15.3744 7C19.5554 7 24.0328 8.28976 23.9999 10.6601V18.573C23.9999 20.9434 19.5554 22.2331 15.3415 22.2331C14.9793 22.2331 14.5843 22.2331 14.2221 22.1983C12.6419 22.7211 10.6008 23 8.65839 23C4.47734 23 0 21.7102 0 19.3399V15.4009C0 13.3094 3.39093 12.0893 7.07815 11.7756C6.78185 11.3573 6.71601 10.9739 6.71601 10.6601ZM8.2304 12.7865C4.04936 12.8562 0.987649 14.2157 0.987649 15.4009C0.987649 16.6558 4.24689 17.9455 8.62546 17.9455C13.004 17.9455 16.2962 16.5861 16.2962 15.3312C16.2962 14.9826 15.9999 14.634 15.539 14.2854L15.4073 14.2157C15.2427 14.1111 15.0452 14.0065 14.8476 13.902C14.7983 13.8845 14.7571 13.8671 14.716 13.8497C14.6748 13.8322 14.6337 13.8148 14.5843 13.7974C13.6625 13.3791 12.4444 13.0654 10.9958 12.8911H10.8971C10.8477 12.8911 10.7983 12.8824 10.7489 12.8736C10.6995 12.8649 10.6501 12.8562 10.6008 12.8562C10.5349 12.8562 10.4691 12.8475 10.4032 12.8388C10.3374 12.8301 10.2715 12.8214 10.2057 12.8214H10.074C9.97525 12.7865 9.84356 12.7865 9.7448 12.7865H8.2304ZM0.987649 17.1786V19.3399C0.987649 20.5599 4.27981 21.9542 8.65839 21.9542C13.037 21.9542 16.3291 20.5948 16.3291 19.3399V17.1786C14.7818 18.3987 11.6543 19.061 8.65839 19.061C5.66252 19.061 2.53496 18.4336 0.987649 17.1786ZM16.2962 21.1525C20.2139 20.9782 23.0451 19.6885 23.0451 18.5381V16.3769C21.827 17.3878 19.6213 17.9804 17.3497 18.1895V19.3399C17.3497 20.037 16.9546 20.6296 16.2962 21.1525ZM17.3497 17.1089C20.8723 16.7952 23.0451 15.5752 23.0451 14.5991V12.4031C21.7941 13.4488 19.4567 14.0763 16.9876 14.2505C17.218 14.5991 17.3497 14.9477 17.3497 15.366V17.1089ZM15.7201 13.2222C15.7695 13.2484 15.8188 13.2745 15.8682 13.3094C20.1151 13.2048 23.0451 11.8453 23.0122 10.6601C23.0122 9.44009 19.753 8.04575 15.3415 8.04575C10.9629 8.04575 7.67074 9.40523 7.67074 10.6601C7.67074 10.9739 7.93411 11.3573 8.42793 11.7059H9.51435C11.6872 11.8105 13.6625 12.1939 15.0781 12.8562C15.0946 12.8562 15.111 12.8649 15.1275 12.8736C15.1439 12.8824 15.1604 12.8911 15.1769 12.8911C15.202 12.9044 15.2224 12.9126 15.2397 12.9196C15.2679 12.931 15.2882 12.9392 15.3086 12.9608C15.3589 13.014 15.4284 13.047 15.4877 13.0751C15.5061 13.0838 15.5235 13.092 15.539 13.1002C15.539 13.1351 15.5719 13.1351 15.5719 13.1351C15.6213 13.1699 15.6707 13.1961 15.7201 13.2222Z" fill="currentColor"/>
</g>
</svg>
