<svg preserveAspectRatio="xMidYMid meet" width="100%" height="100%" overflow="visible" viewBox="-2 -2 24 24" fill="none" xmlns="http://www.w3.org/2000/svg">
<g id="Vector">
<path fill-rule="evenodd" clip-rule="evenodd" d="M10 19C14.9706 19 19 14.9706 19 10C19 5.02944 14.9706 1 10 1C5.02944 1 1 5.02944 1 10C1 14.9706 5.02944 19 10 19ZM10 20C15.5228 20 20 15.5228 20 10C20 4.47715 15.5228 0 10 0C4.47715 0 0 4.47715 0 10C0 15.5228 4.47715 20 10 20Z" fill="currentColor"/>
<path fill-rule="evenodd" clip-rule="evenodd" d="M14.0966 14.4122C14.267 14.6295 14.2291 14.9438 14.0118 15.1142C12.8715 16.0087 11.4651 16.4964 10.0159 16.5C8.56666 16.5035 7.15783 16.0226 6.01323 15.1338C5.79513 14.9644 5.75562 14.6503 5.925 14.4322C6.09437 14.2141 6.40848 14.1746 6.62658 14.344C7.59509 15.0961 8.78717 15.503 10.0134 15.5C11.2397 15.497 12.4298 15.0843 13.3946 14.3274C13.6119 14.157 13.9262 14.195 14.0966 14.4122Z" fill="currentColor"/>
<path fill-rule="evenodd" clip-rule="evenodd" d="M3.96048 7.19941C4.23528 7.17221 4.4801 7.37293 4.50729 7.64773C4.54355 8.01407 4.71326 8.35429 4.9841 8.60361C5.25495 8.85293 5.60803 8.99395 5.97611 8.99981C6.34419 9.00567 6.70158 8.87598 6.98023 8.63541C7.25888 8.39484 7.43934 8.0602 7.48724 7.6952C7.52318 7.42141 7.77427 7.22859 8.04806 7.26452C8.32185 7.30046 8.51468 7.55155 8.47874 7.82534C8.3989 8.43367 8.09813 8.9914 7.63372 9.39235C7.1693 9.79329 6.57365 10.0095 5.96018 9.99968C5.34671 9.98991 4.75825 9.75488 4.30684 9.33935C3.85543 8.92381 3.57258 8.35679 3.51215 7.74622C3.48496 7.47142 3.68568 7.22661 3.96048 7.19941Z" fill="currentColor"/>
<path fill-rule="evenodd" clip-rule="evenodd" d="M11.9605 7.19941C12.2353 7.17221 12.4801 7.37293 12.5073 7.64773C12.5435 8.01407 12.7133 8.35429 12.9841 8.60361C13.255 8.85293 13.608 8.99395 13.9761 8.99981C14.3442 9.00567 14.7016 8.87598 14.9802 8.63541C15.2589 8.39484 15.4393 8.0602 15.4872 7.6952C15.5232 7.42141 15.7743 7.22859 16.0481 7.26452C16.3219 7.30046 16.5147 7.55155 16.4787 7.82534C16.3989 8.43367 16.0981 8.9914 15.6337 9.39235C15.1693 9.79329 14.5737 10.0095 13.9602 9.99968C13.3467 9.98991 12.7583 9.75488 12.3068 9.33935C11.8554 8.92381 11.5726 8.35679 11.5122 7.74622C11.485 7.47142 11.6857 7.22661 11.9605 7.19941Z" fill="currentColor"/>
</g>
</svg>
