<svg preserveAspectRatio="xMidYMid meet" width="100%" height="100%" overflow="visible" viewBox="-1.3 -2.1 24 24" fill="none" xmlns="http://www.w3.org/2000/svg">
<path id="Vector" d="M11.7912 20.0766C9.49121 20.0766 7.69121 19.3766 7.09121 19.1766C6.49121 19.3766 4.69121 19.7766 3.29121 19.4766C1.39121 19.2766 0.391215 16.8766 0.0912146 14.8766C-0.208785 12.6766 0.191215 10.1766 1.89121 9.47664C3.99121 8.57664 5.89121 9.77664 6.79121 10.6766C8.59121 9.77664 10.2912 9.57664 11.6912 10.0766C12.1912 10.2766 12.5912 10.4766 12.9912 10.7766C13.3912 9.37664 13.3912 8.17664 12.8912 7.27664C12.3912 6.17664 11.4912 5.67664 11.0912 5.47664C10.5912 5.67664 9.89121 5.87664 9.19121 5.97664C7.79121 6.17664 6.49121 5.27664 6.09121 3.87664C5.69121 2.77664 5.99121 1.57664 6.99121 0.776641L7.29121 0.576641C7.89121 0.0766407 8.79121 -0.123359 9.69121 0.0766407C11.6912 0.576641 13.2912 1.57664 14.5912 2.97664C15.1912 3.67664 16.0912 4.57664 17.1912 5.77664C21.7912 10.4766 21.3912 14.9766 21.3912 15.1766C21.3912 15.2766 21.3912 15.2766 21.3912 15.3766C21.3912 15.4766 20.2912 17.4766 15.8912 19.2766C14.3912 19.8766 12.9912 20.0766 11.7912 20.0766ZM7.09121 18.1766C7.19121 18.1766 7.19121 18.1766 7.29121 18.1766C7.29121 18.1766 11.3912 19.9766 15.4912 18.3766C18.9912 16.8766 20.1912 15.3766 20.3912 14.9766C20.3912 14.2766 20.3912 10.3766 16.4912 6.47664C15.3912 5.27664 14.5912 4.37664 13.8912 3.67664C12.6912 2.47664 11.1912 1.57664 9.49121 1.07664C8.99121 0.976641 8.39121 1.07664 7.89121 1.37664L7.59121 1.57664C6.99121 2.07664 6.79121 2.87664 6.99121 3.57664C7.29121 4.57664 8.19121 5.17664 8.99121 5.07664C9.69121 4.97664 10.2912 4.77664 10.7912 4.57664C10.8912 4.47664 11.0912 4.47664 11.1912 4.57664C11.2912 4.57664 12.8912 5.17664 13.6912 6.97664C14.2912 8.27664 14.2912 9.87664 13.6912 11.6766C14.4912 12.5766 14.8912 13.5766 14.8912 13.6766C14.9912 13.9766 14.8912 14.1766 14.5912 14.2766C14.2912 14.3766 14.0912 14.2766 13.9912 13.9766C13.9912 13.9766 13.5912 12.9766 12.7912 12.1766C12.7912 12.1766 12.7912 12.1766 12.6912 12.0766C12.2912 11.6766 11.7912 11.3766 11.1912 11.0766C10.0912 10.6766 8.59121 10.8766 6.89121 11.8766C6.69121 11.9766 6.39121 11.8766 6.19121 11.6766C6.09121 11.5766 4.49121 9.47664 2.29121 10.4766C1.29121 10.8766 0.791215 12.7766 1.09121 14.7766C1.29121 16.4766 2.19121 18.2766 3.39121 18.4766C4.89121 18.7766 6.89121 18.1766 6.89121 18.1766C6.99121 18.1766 6.99121 18.1766 7.09121 18.1766Z" fill="currentColor"/>
</svg>
