<svg preserveAspectRatio="xMidYMid meet" width="100%" height="100%" overflow="visible" viewBox="-1.5 -2.5 24 24" fill="none" xmlns="http://www.w3.org/2000/svg">
<path id="Vector" d="M19.14 1.87C17.94 0.66 16.34 0 14.64 0C13.1 0 11.65 0.54 10.5 1.54C9.35 0.54 7.9 0 6.36 0C4.66 0 3.06 0.67 1.86 1.87C-0.62 4.36 -0.62 8.42 1.86 10.91L9.48 18.57C9.75 18.84 10.11 18.99 10.5 18.99C10.89 18.99 11.25 18.84 11.52 18.57L19.14 10.91C21.62 8.42 21.62 4.36 19.14 1.87ZM18.43 10.21L10.81 17.87C10.64 18.04 10.35 18.04 10.19 17.87L2.57 10.21C0.48 8.11 0.48 4.69 2.57 2.58C3.58 1.56 4.93 1 6.36 1C7.79 1 9.14 1.56 10.15 2.58C10.34 2.77 10.67 2.77 10.86 2.58C11.87 1.56 13.22 1 14.65 1C16.08 1 17.43 1.56 18.44 2.58C20.53 4.68 20.53 8.1 18.44 10.21H18.43ZM17.37 9.65C17.24 9.65 17.12 9.6 17.02 9.5C16.82 9.31 16.82 8.99 17.02 8.79C18.34 7.46 18.34 5.31 17.02 3.98C16.39 3.34 15.54 2.99 14.65 2.99C14.37 2.99 14.15 2.77 14.15 2.49C14.15 2.21 14.37 1.99 14.65 1.99C15.81 1.99 16.9 2.45 17.73 3.27C19.43 4.98 19.43 7.77 17.73 9.49C17.63 9.59 17.5 9.64 17.38 9.64L17.37 9.65Z" fill="currentColor"/>
</svg>
