<svg preserveAspectRatio="xMidYMid meet" width="100%" height="100%" overflow="visible" viewBox="-2 -2 24 24" fill="none" xmlns="http://www.w3.org/2000/svg">
<g id="Vector">
<path fill-rule="evenodd" clip-rule="evenodd" d="M10 19C14.9706 19 19 14.9706 19 10C19 5.02944 14.9706 1 10 1C5.02944 1 1 5.02944 1 10C1 14.9706 5.02944 19 10 19ZM10 20C15.5228 20 20 15.5228 20 10C20 4.47715 15.5228 0 10 0C4.47715 0 0 4.47715 0 10C0 15.5228 4.47715 20 10 20Z" fill="currentColor"/>
<path d="M10.3569 14.3563C10.2614 14.4521 10.1427 14.5 10.0008 14.5C9.85895 14.5 9.74004 14.4521 9.64409 14.3563C9.54812 14.2605 9.50014 14.1417 9.50014 14V9.50004C9.50014 9.35837 9.5479 9.23962 9.64342 9.14379C9.73892 9.04796 9.8576 9.00004 9.99946 9.00004C10.1413 9.00004 10.2602 9.04796 10.3562 9.14379C10.4522 9.23962 10.5001 9.35837 10.5001 9.50004V14C10.5001 14.1417 10.4524 14.2605 10.3569 14.3563Z" fill="currentColor"/>
<path d="M10.4386 7.40004C10.3207 7.51799 10.1745 7.57697 10.0001 7.57697C9.82577 7.57697 9.67962 7.51799 9.56167 7.40004C9.44373 7.28209 9.38477 7.13593 9.38477 6.96157C9.38477 6.78722 9.44373 6.64107 9.56167 6.52312C9.67962 6.40517 9.82577 6.34619 10.0001 6.34619C10.1745 6.34619 10.3207 6.40517 10.4386 6.52312C10.5565 6.64107 10.6155 6.78722 10.6155 6.96157C10.6155 7.13593 10.5565 7.28209 10.4386 7.40004Z" fill="currentColor"/>
</g>
</svg>
