<svg preserveAspectRatio="xMidYMid meet" width="100%" height="100%" overflow="visible" viewBox="-3 -3 24 24" fill="none" xmlns="http://www.w3.org/2000/svg">
<path id="Vector" d="M16 18H2C0.9 18 0 17.1 0 16V2C0 0.9 0.9 0 2 0H16C17.1 0 18 0.9 18 2V4.75C18 5.03 17.78 5.25 17.5 5.25C17.22 5.25 17 5.03 17 4.75V2C17 1.45 16.55 1 16 1H2C1.45 1 1 1.45 1 2V16C1 16.55 1.45 17 2 17H16C16.55 17 17 16.55 17 16V13.25C17 12.97 17.22 12.75 17.5 12.75C17.78 12.75 18 12.97 18 13.25V16C18 17.1 17.1 18 16 18ZM13.31 13.39L18.3 9.4C18.3 9.4 18.33 9.37 18.35 9.36C18.39 9.32 18.42 9.27 18.45 9.22C18.45 9.21 18.46 9.19 18.47 9.18C18.49 9.13 18.49 9.08 18.49 9.03C18.49 8.98 18.49 8.93 18.47 8.88C18.47 8.88 18.46 8.85 18.45 8.84C18.43 8.79 18.39 8.74 18.35 8.7C18.33 8.68 18.32 8.67 18.3 8.66L13.31 4.67C13.1 4.5 12.78 4.53 12.61 4.75C12.44 4.97 12.47 5.28 12.69 5.45L16.58 8.56H6.51C6.23 8.56 6.01 8.78 6.01 9.06C6.01 9.34 6.23 9.56 6.51 9.56H16.58L12.69 12.67C12.47 12.84 12.44 13.16 12.61 13.37C12.71 13.49 12.85 13.56 13 13.56C13.11 13.56 13.22 13.52 13.31 13.45V13.39Z" fill="currentColor"/>
</svg>
