<svg preserveAspectRatio="xMidYMid meet" width="100%" height="100%" overflow="visible" viewBox="-2.047 -4 24 24" fill="none" xmlns="http://www.w3.org/2000/svg">
<g id="icon_meal">
<path d="M6.95264 0C7.22878 0 7.45264 0.223858 7.45264 0.5V0.894449C7.45264 1.38801 7.30654 1.87053 7.03276 2.2812L6.70456 2.7735C6.54029 3.0199 6.45264 3.30941 6.45264 3.60555V4.5C6.45264 4.77614 6.22878 5 5.95264 5C5.67649 5 5.45264 4.77614 5.45264 4.5V3.60555C5.45264 3.11199 5.59873 2.62947 5.87251 2.2188L6.20071 1.7265C6.36498 1.4801 6.45264 1.19059 6.45264 0.894449V0.5C6.45264 0.223858 6.67649 0 6.95264 0Z" fill="currentColor"/>
<path d="M10.9526 0C11.2288 0 11.4526 0.223858 11.4526 0.5V0.894449C11.4526 1.38801 11.3065 1.87053 11.0328 2.2812L10.7046 2.7735C10.5403 3.0199 10.4526 3.30941 10.4526 3.60555V4.5C10.4526 4.77614 10.2288 5 9.95264 5C9.67649 5 9.45264 4.77614 9.45264 4.5V3.60555C9.45264 3.11199 9.59873 2.62947 9.87251 2.2188L10.2007 1.7265C10.365 1.4801 10.4526 1.19059 10.4526 0.894449V0.5C10.4526 0.223858 10.6765 0 10.9526 0Z" fill="currentColor"/>
<path d="M14.9526 0C15.2288 0 15.4526 0.223858 15.4526 0.5V0.894449C15.4526 1.38801 15.3065 1.87053 15.0328 2.2812L14.7046 2.7735C14.5403 3.0199 14.4526 3.30941 14.4526 3.60555V4.5C14.4526 4.77614 14.2288 5 13.9526 5C13.6765 5 13.4526 4.77614 13.4526 4.5V3.60555C13.4526 3.11199 13.5987 2.62947 13.8725 2.2188L14.2007 1.7265C14.365 1.4801 14.4526 1.19059 14.4526 0.894449V0.5C14.4526 0.223858 14.6765 0 14.9526 0Z" fill="currentColor"/>
<path fill-rule="evenodd" clip-rule="evenodd" d="M1.45271 7C0.640255 7 -0.0849028 7.67081 0.00806227 8.5507C0.108714 9.50335 0.345931 10.4384 0.713916 11.3268C1.21646 12.5401 1.95306 13.6425 2.88164 14.5711C3.76586 15.4553 4.80766 16.1654 5.95271 16.6652V16.8044C5.95271 17.4647 6.48802 18 7.14835 18H12.7571C13.4174 18 13.9527 17.4647 13.9527 16.8044V16.6652C15.0978 16.1654 16.1396 15.4553 17.0238 14.5711C17.9524 13.6425 18.689 12.5401 19.1915 11.3268C19.5595 10.4384 19.7967 9.50335 19.8974 8.5507C19.9903 7.67081 19.2652 7 18.4527 7H1.45271ZM1.00253 8.44563C0.979434 8.22706 1.1606 8 1.45271 8H18.4527C18.7448 8 18.926 8.22706 18.9029 8.44563C18.8123 9.30301 18.5988 10.1446 18.2676 10.9442C17.8153 12.0361 17.1524 13.0282 16.3167 13.864C15.4809 14.6997 14.4888 15.3626 13.3969 15.8149C13.1326 15.9244 12.9527 16.1831 12.9527 16.478V16.8044C12.9527 16.9124 12.8651 17 12.7571 17H7.14835C7.0403 17 6.95271 16.9124 6.95271 16.8044V16.478C6.95271 16.1831 6.77283 15.9244 6.50856 15.8149C5.41663 15.3626 4.42448 14.6997 3.58875 13.864C2.75302 13.0282 2.09009 12.0361 1.6378 10.9442C1.30661 10.1446 1.09311 9.30301 1.00253 8.44563Z" fill="currentColor"/>
</g>
</svg>
