<svg xmlns="http://www.w3.org/2000/svg" width="24" height="24" viewBox="0 0 24 24" fill="none">
  <path d="M6.6 10.8C7.8 13.2 9.8 15.2 12.2 16.4L14 14.6C14.2 14.4 14.5 14.3 14.8 14.4C15.7 14.7 16.7 14.9 17.7 14.9C18.1 14.9 18.5 15.1 18.7 15.3C19 15.6 19 16 18.8 16.4L17.4 19.2C17.2 19.6 16.8 19.9 16.4 19.9C8.5 19.9 2.1 13.5 2.1 5.6C2.1 5.2 2.3 4.8 2.8 4.6L5.6 3.2C6 3 6.4 3.1 6.7 3.3C6.9 3.5 7.1 3.9 7.1 4.3C7.1 5.3 7.3 6.3 7.6 7.2C7.7 7.5 7.6 7.8 7.4 8L6.6 10.8Z" stroke="currentColor" stroke-width="2" stroke-linecap="round" stroke-linejoin="round"/>
</svg>
