<svg preserveAspectRatio="xMidYMid meet" width="100%" height="100%" overflow="visible" viewBox="-1.51 -1.578 24 24" fill="none" xmlns="http://www.w3.org/2000/svg">
<g id="Vector">
<path d="M15.98 20.8518C14.88 20.8518 13.98 19.9518 13.98 18.8518V17.8318C13.69 17.8718 13.39 17.9118 13.09 17.9118H10.49C10.31 17.9118 10.14 17.9018 9.98 17.8818V18.8518C9.98 19.9518 9.08 20.8518 7.98 20.8518C6.88 20.8518 5.98 19.9518 5.98 18.8518V16.4618C5.75 16.2818 5.54 16.0618 5.33 15.8518L5.24 15.7618C4.84 15.3618 4.3 14.6418 3.9 13.9918L2.47 13.9118C1.12 13.9118 0 12.7918 0 11.4118V9.4118C0 8.0318 1.12 6.9118 2.5 6.9118H3.89C4.29 6.1918 4.98 5.4218 5.25 5.1618C5.49 4.9218 5.74 4.6718 6 4.4618V1.4118C6 0.971795 6.19 0.561796 6.51 0.301796C6.82 0.0517956 7.21 -0.0482046 7.59 0.0217954C8.61 0.221795 9.52 0.731795 10.35 1.5618C10.79 1.9118 11.11 2.3618 11.4 2.9118H13C17.21 2.9118 20.5 6.2018 20.5 10.4118C20.5 12.5818 19.59 14.6018 17.99 15.9818V18.8518C17.99 19.9518 17.09 20.8518 15.99 20.8518H15.98ZM14.48 16.7318C14.6 16.7318 14.71 16.7718 14.8 16.8418C14.92 16.9418 14.98 17.0818 14.98 17.2318V18.8518C14.98 19.4018 15.43 19.8518 15.98 19.8518C16.53 19.8518 16.98 19.4018 16.98 18.8518V15.7518C16.98 15.6018 17.05 15.4618 17.17 15.3618C18.65 14.1618 19.5 12.3618 19.5 10.4118C19.5 6.7618 16.64 3.9118 13 3.9118H11.1C10.91 3.9118 10.74 3.8018 10.65 3.6318C10.36 3.0518 10.1 2.6318 9.68 2.3018C8.94 1.5718 8.23 1.1718 7.39 1.0018C7.27 0.981795 7.18 1.0318 7.14 1.0718C7.08 1.1118 6.99 1.2218 6.99 1.4118V4.7118C6.99 4.8818 6.91 5.0318 6.77 5.1318C6.51 5.3018 6.22 5.5918 5.95 5.8718C5.64 6.1818 4.91 7.02179 4.66 7.61179C4.58 7.79179 4.4 7.9118 4.2 7.9118H2.5C1.67 7.9118 1 8.5818 1 9.4118V11.4118C1 12.2418 1.67 12.9118 2.5 12.9118L4.23 13.0118C4.4 13.0118 4.55 13.1118 4.63 13.2618C5.04 13.9818 5.62 14.7218 5.95 15.0518L6.04 15.1418C6.29 15.3918 6.53 15.6418 6.76 15.7918C6.9 15.8818 6.98 16.0418 6.98 16.2118V18.8518C6.98 19.4018 7.43 19.8518 7.98 19.8518C8.53 19.8518 8.98 19.4018 8.98 18.8518V17.3018C8.98 17.1518 9.05 17.0118 9.16 16.9218C9.27 16.8318 9.43 16.7918 9.57 16.8118C9.83 16.8618 10.16 16.9118 10.49 16.9118H13.09C13.51 16.9118 13.94 16.8318 14.38 16.7418C14.41 16.7418 14.44 16.7418 14.48 16.7418V16.7318Z" fill="currentColor"/>
<path d="M7.49 8.1718C7.49 8.58601 7.15421 8.9218 6.74 8.9218C6.32579 8.9218 5.99 8.58601 5.99 8.1718C5.99 7.75758 6.32579 7.4218 6.74 7.4218C7.15421 7.4218 7.49 7.75758 7.49 8.1718Z" fill="currentColor"/>
<path d="M16.46 7.5618C16.56 7.6818 16.71 7.7418 16.85 7.7418L16.84 7.7318C16.95 7.7318 17.07 7.7018 17.16 7.6218C17.38 7.4518 17.41 7.1318 17.23 6.9218C16.18 5.6518 14.63 4.9218 12.99 4.9218H11.49C11.21 4.9218 10.99 5.1418 10.99 5.4218C10.99 5.7018 11.21 5.9218 11.49 5.9218H12.99C14.34 5.9218 15.6 6.5218 16.46 7.5618Z" fill="currentColor"/>
</g>
</svg>
