<svg preserveAspectRatio="xMidYMid meet" width="100%" height="100%" overflow="visible" viewBox="-4 -3 24 24" fill="none" xmlns="http://www.w3.org/2000/svg">
<path id="icon_plant" fill-rule="evenodd" clip-rule="evenodd" d="M3.25 0H0V2.07C0 5.38614 2.69386 8.08 6.01 8.08H7V10H2V17C2 18.1061 2.89386 19 4 19H12C13.1061 19 14 18.1061 14 17V10H8V9.16H9.68C13.1767 9.16 16 6.32558 16 2.84V1H13.32C11.4885 1 9.84176 1.7776 8.68868 3.01908C7.66732 1.15057 5.43291 0 3.25 0ZM8.00189 3.90362C7.31409 2.19142 5.31257 1 3.25 1H1V2.07C1 4.83386 3.24614 7.08 6.01 7.08H7.00448C7.04806 5.91311 7.40816 4.82626 8.00189 3.90362ZM8 7.32C8 4.38558 10.3767 2 13.32 2H15V2.84C15 5.77442 12.6233 8.16 9.68 8.16H8V7.32ZM3 17V11H13V17C13 17.5539 12.5539 18 12 18H4C3.44614 18 3 17.5539 3 17Z" fill="currentColor"/>
</svg>
