<svg preserveAspectRatio="xMidYMid meet" width="100%" height="100%" overflow="visible" viewBox="-1.5 -2.745 24 24" fill="none" xmlns="http://www.w3.org/2000/svg">
<g id="icon_plastic">
<path fill-rule="evenodd" clip-rule="evenodd" d="M6.09057 0.0515881C5.24728 -0.174371 4.38995 0.364777 4.22829 1.22272L2.8566 8.50214C2.08929 8.47169 1.37311 8.22818 0.773369 7.83669C0.542133 7.68574 0.232314 7.75083 0.081368 7.98206C-0.0695776 8.2133 -0.00448948 8.52312 0.226746 8.67406C1.02461 9.19489 1.98899 9.50537 3.02006 9.50537C3.84085 9.50537 4.62713 9.30586 5.31366 8.96259L5.31977 8.95948C5.46569 8.88401 5.61442 8.88401 5.76035 8.95948L5.76645 8.96259C6.45299 9.30586 7.23927 9.50537 8.06006 9.50537C8.88085 9.50537 9.66713 9.30586 10.3537 8.96259L10.3598 8.95948C10.5057 8.88401 10.6544 8.88401 10.8003 8.95948L10.8064 8.96259C11.493 9.30586 12.2793 9.50537 13.1001 9.50537C13.9208 9.50537 14.7071 9.30586 15.3937 8.96259L15.3998 8.95948C15.5457 8.88401 15.6944 8.88401 15.8403 8.95948L15.8465 8.96259C16.533 9.30586 17.3193 9.50537 18.1401 9.50537C19.1676 9.50537 20.1343 9.20682 20.9374 8.6714C21.1672 8.51822 21.2293 8.20779 21.0761 7.97802C20.9229 7.74826 20.6125 7.68617 20.3827 7.83935C19.7458 8.26393 18.9726 8.50537 18.1401 8.50537C17.4819 8.50537 16.8492 8.34541 16.2963 8.0695C15.8643 7.84733 15.3759 7.84733 14.9438 8.0695C14.3909 8.34541 13.7582 8.50537 13.1001 8.50537C12.7603 8.50537 12.4273 8.46274 12.1086 8.38354L13.7275 3.76803C14.0165 2.9442 13.5436 2.04862 12.7003 1.82266L6.09057 0.0515881ZM11.173 8.02969L12.7839 3.43704C12.8802 3.16243 12.7226 2.8639 12.4415 2.78858L5.83175 1.01751C5.55066 0.942194 5.26488 1.12191 5.21099 1.40789L3.89127 8.41153C4.23347 8.33722 4.56062 8.2208 4.86375 8.06951C5.29586 7.84733 5.78426 7.84733 6.21636 8.06951C6.76919 8.34541 7.40192 8.50537 8.06006 8.50537C8.7182 8.50537 9.35094 8.34541 9.90377 8.0695C10.3083 7.86151 10.7622 7.84824 11.173 8.02969Z" fill="currentColor"/>
<path d="M11.043 11.4209C11.1344 11.1603 10.9973 10.875 10.7367 10.7836C10.4761 10.6922 10.1908 10.8293 10.0994 11.0899L9.06236 14.0465C8.97581 14.2932 8.71373 14.4316 8.46113 14.3639L2.59523 12.7922C2.32849 12.7207 2.05432 12.879 1.98285 13.1457C1.91138 13.4124 2.06967 13.6866 2.33641 13.7581L8.20231 15.3299C8.96009 15.5329 9.74633 15.1177 10.006 14.3774L11.043 11.4209Z" fill="currentColor"/>
<path fill-rule="evenodd" clip-rule="evenodd" d="M11.8186 14.471C11.255 13.753 11.458 12.7023 12.2485 12.2458L15.4476 10.3988C16.2381 9.94244 17.2496 10.292 17.5896 11.1391L19.471 15.8264C19.7491 16.5192 19.4755 17.311 18.829 17.6842L16.8671 18.8169C16.2206 19.1901 15.3981 19.0312 14.9372 18.444L11.8186 14.471ZM12.7485 13.1119C12.485 13.264 12.4173 13.6143 12.6052 13.8536L15.7238 17.8266C15.8774 18.0223 16.1516 18.0753 16.3671 17.9509L18.329 16.8182C18.5445 16.6938 18.6357 16.4298 18.543 16.1989L16.6616 11.5116C16.5483 11.2293 16.2111 11.1127 15.9476 11.2649L12.7485 13.1119Z" fill="currentColor"/>
</g>
</svg>
