<svg preserveAspectRatio="xMidYMid meet" width="100%" height="100%" overflow="visible" viewBox="-2 -2 24 24" fill="none" xmlns="http://www.w3.org/2000/svg">
<g id="Vector">
<path fill-rule="evenodd" clip-rule="evenodd" d="M10 19C14.9706 19 19 14.9706 19 10C19 5.02944 14.9706 1 10 1C5.02944 1 1 5.02944 1 10C1 14.9706 5.02944 19 10 19ZM10 20C15.5228 20 20 15.5228 20 10C20 4.47715 15.5228 0 10 0C4.47715 0 0 4.47715 0 10C0 15.5228 4.47715 20 10 20Z" fill="currentColor"/>
<path d="M10.5877 15.0017C10.4358 15.1544 10.2493 15.2307 10.0282 15.2307C9.80717 15.2307 9.62032 15.1548 9.46767 15.0028C9.31502 14.8509 9.23869 14.6644 9.23869 14.4433C9.23869 14.2223 9.31466 14.0354 9.46659 13.8828C9.61851 13.7301 9.80501 13.6538 10.0261 13.6538C10.2472 13.6538 10.434 13.7298 10.5867 13.8817C10.7393 14.0336 10.8156 14.2201 10.8156 14.4412C10.8156 14.6622 10.7397 14.8491 10.5877 15.0017Z" fill="currentColor"/>
<path d="M11.3704 6.20984C11.0044 5.89554 10.5683 5.73839 10.0622 5.73839C9.69782 5.73839 9.3653 5.8307 9.06467 6.01532C8.76403 6.19993 8.50282 6.43007 8.28102 6.70572C8.17845 6.82367 8.05986 6.90123 7.92524 6.93839C7.79062 6.97558 7.65751 6.95925 7.52589 6.88942C7.42246 6.8283 7.35899 6.73882 7.33549 6.62097C7.31199 6.5031 7.33293 6.38904 7.39832 6.27879C7.6855 5.81853 8.06852 5.45827 8.54737 5.19802C9.0262 4.93775 9.54382 4.80762 10.1002 4.80762C10.8502 4.80762 11.5038 5.0464 12.0608 5.52397C12.6179 6.00153 12.8964 6.60763 12.8964 7.34224C12.8964 7.84139 12.7621 8.29374 12.4935 8.69929C12.2249 9.10486 11.9179 9.47953 11.5723 9.82332C11.332 10.0577 11.1111 10.306 10.9099 10.5682C10.7086 10.8304 10.5746 11.1301 10.5079 11.4672C10.4836 11.589 10.4256 11.6948 10.3339 11.7846C10.2422 11.8743 10.1291 11.9192 9.99447 11.9192C9.86883 11.9192 9.7589 11.8753 9.66467 11.7874C9.57043 11.6996 9.52972 11.5903 9.54254 11.4596C9.58101 11.0108 9.7306 10.6 9.99132 10.2272C10.252 9.85434 10.5537 9.51257 10.8964 9.20187C11.1669 8.95187 11.405 8.67879 11.6108 8.38264C11.8166 8.08648 11.9195 7.75506 11.9195 7.38839C11.9195 6.91698 11.7365 6.52413 11.3704 6.20984Z" fill="currentColor"/>
</g>
</svg>
