<svg preserveAspectRatio="xMidYMid meet" width="100%" height="100%" overflow="visible" viewBox="-2 -2 24 24" fill="none" xmlns="http://www.w3.org/2000/svg">
<path id="Vector" d="M19.97 8.86C19.96 8.7 19.93 8.58 19.89 8.49C19.8 8.31 19.67 8.16 19.51 8.07C19.42 8.01 19.31 7.97 19.14 7.94C19 7.92 18.82 7.9 18.54 7.87L17.13 7.74C17 7.33 16.83 6.94 16.64 6.57L17.54 5.48C17.72 5.26 17.84 5.12 17.92 5.01C18.01 4.88 18.06 4.78 18.09 4.67C18.14 4.48 18.13 4.28 18.06 4.09C18.02 3.99 17.96 3.89 17.86 3.76C17.77 3.66 17.65 3.54 17.44 3.32L16.66 2.54C16.47 2.35 16.34 2.22 16.24 2.13C16.11 2.02 16.02 1.96 15.92 1.93C15.73 1.86 15.53 1.85 15.34 1.9C15.24 1.93 15.13 1.98 15 2.07C14.89 2.15 14.75 2.26 14.53 2.44L13.44 3.34C13.07 3.15 12.68 2.98 12.27 2.85L12.14 1.44C12.11 1.16 12.09 0.98 12.07 0.84C12.04 0.68 12.01 0.58 11.95 0.48C11.85 0.31 11.7 0.17 11.52 0.0899999C11.42 0.0499999 11.31 0.02 11.15 0.00999999C11.01 -9.31323e-09 10.83 0 10.55 0H9.46C9.18 0 9 -9.31323e-09 8.86 0.00999999C8.7 0.02 8.59 0.0499999 8.49 0.0899999C8.31 0.18 8.16 0.31 8.06 0.49C8.01 0.58 7.97 0.69 7.94 0.85C7.92 0.99 7.9 1.17 7.87 1.45L7.74 2.86C7.33 2.99 6.94 3.16 6.57 3.35L5.48 2.45C5.26 2.27 5.12 2.16 5.01 2.08C4.88 1.99 4.78 1.94 4.67 1.91C4.48 1.86 4.28 1.87 4.1 1.94C4 1.98 3.9 2.04 3.77 2.14C3.66 2.23 3.53 2.36 3.33 2.56L2.56 3.33C2.36 3.53 2.23 3.66 2.14 3.77C2.04 3.89 1.98 3.99 1.94 4.09C1.87 4.28 1.86 4.48 1.91 4.67C1.94 4.78 1.99 4.88 2.08 5.01C2.16 5.12 2.27 5.26 2.45 5.48L3.35 6.57C3.16 6.94 2.99 7.33 2.86 7.74L1.45 7.87C1.17 7.9 0.99 7.92 0.85 7.94C0.69 7.97 0.58 8 0.49 8.06C0.32 8.16 0.18 8.31 0.0999999 8.49C0.0499999 8.59 0.03 8.7 0.00999999 8.86C-9.31323e-09 9 0 9.18 0 9.46V10.55C0 10.83 -9.31323e-09 11.01 0.00999999 11.15C0.02 11.31 0.0499999 11.43 0.0899999 11.52C0.18 11.7 0.31 11.85 0.49 11.95C0.58 12 0.69 12.04 0.85 12.07C0.99 12.09 1.17 12.11 1.45 12.14L2.86 12.27C2.99 12.68 3.16 13.07 3.35 13.44L2.45 14.53C2.27 14.75 2.16 14.89 2.08 15C1.98 15.13 1.93 15.24 1.91 15.34C1.86 15.53 1.87 15.73 1.94 15.93C1.98 16.03 2.04 16.13 2.14 16.25C2.23 16.36 2.36 16.49 2.56 16.69L3.34 17.47C3.53 17.66 3.66 17.79 3.76 17.87C3.88 17.97 3.97 18.03 4.08 18.07C4.27 18.14 4.47 18.15 4.66 18.1C4.76 18.07 4.87 18.02 5 17.93C5.11 17.85 5.25 17.74 5.47 17.55L6.56 16.65C6.93 16.84 7.32 17.01 7.73 17.14L7.86 18.55C7.89 18.83 7.9 19.01 7.93 19.15C7.96 19.31 7.99 19.41 8.05 19.51C8.15 19.68 8.3 19.82 8.48 19.9C8.58 19.95 8.69 19.97 8.85 19.99C8.99 19.99 9.17 20 9.45 20H10.54C10.82 20 11 20 11.14 19.99C11.3 19.98 11.42 19.95 11.51 19.91C11.69 19.83 11.84 19.69 11.94 19.51C11.99 19.42 12.03 19.31 12.06 19.15C12.08 19.01 12.1 18.83 12.13 18.55L12.26 17.14C12.67 17.01 13.06 16.84 13.43 16.65L14.55 17.58C14.75 17.75 14.89 17.85 14.99 17.93C15.12 18.02 15.22 18.07 15.33 18.1C15.52 18.15 15.72 18.14 15.92 18.07C16.02 18.03 16.11 17.97 16.23 17.87C16.33 17.78 16.45 17.66 16.67 17.45L17.44 16.68C17.64 16.48 17.77 16.35 17.86 16.25C17.97 16.12 18.03 16.03 18.06 15.93C18.13 15.74 18.14 15.54 18.09 15.35C18.06 15.25 18.01 15.14 17.92 15.01C17.84 14.9 17.73 14.76 17.54 14.54L16.64 13.45C16.83 13.08 17 12.69 17.13 12.28L18.54 12.15C18.82 12.12 19 12.1 19.14 12.08C19.3 12.05 19.41 12.02 19.5 11.96C19.67 11.86 19.8 11.71 19.89 11.53C19.94 11.43 19.96 11.32 19.97 11.16C19.98 11.02 19.98 10.84 19.98 10.56V9.47C19.98 9.19 19.98 9 19.97 8.87V8.86ZM18.98 10.56C18.98 10.81 18.98 10.96 18.96 11.1C18.84 11.12 18.68 11.14 18.44 11.16L17.37 11.26L16.86 11.31L16.34 11.36C16.26 11.72 16.16 12.06 16.02 12.4C15.99 12.47 15.96 12.54 15.93 12.61C15.79 12.94 15.61 13.26 15.42 13.56L15.76 13.97L16.09 14.36L16.77 15.19C16.93 15.38 17.03 15.5 17.1 15.62C17.02 15.71 16.91 15.82 16.74 16L15.95 16.79C15.79 16.95 15.68 17.06 15.57 17.13C15.48 17.06 15.36 16.97 15.16 16.8L14.33 16.12L13.94 15.79L13.53 15.45C13.23 15.65 12.91 15.82 12.58 15.96C12.51 15.99 12.44 16.02 12.36 16.05C12.03 16.18 11.68 16.29 11.32 16.37L11.27 16.89L11.22 17.4L11.12 18.47C11.1 18.72 11.08 18.87 11.05 19C10.93 19 10.77 19 10.52 19H9.43C9.18 19 9.02 19 8.89 18.98C8.87 18.86 8.85 18.7 8.83 18.46L8.73 17.39L8.68 16.88L8.63 16.36C8.27 16.28 7.93 16.18 7.6 16.04C7.53 16.01 7.46 15.98 7.38 15.95C7.05 15.8 6.73 15.63 6.43 15.44L6.02 15.78L5.63 16.11L4.79 16.81C4.61 16.96 4.49 17.06 4.37 17.12C4.28 17.04 4.17 16.94 3.99 16.76L3.22 15.99C3.05 15.82 2.94 15.71 2.85 15.6C2.92 15.5 3.02 15.38 3.18 15.19L3.86 14.36L4.19 13.97L4.53 13.56C4.33 13.26 4.16 12.94 4.02 12.61C3.99 12.54 3.96 12.47 3.93 12.4C3.8 12.07 3.69 11.72 3.61 11.36L3.09 11.31L2.58 11.26L1.51 11.16C1.26 11.14 1.11 11.12 0.98 11.09C0.98 10.97 0.98 10.81 0.98 10.57V9.48C0.98 9.23 0.98 9.08 1 8.94C1.12 8.92 1.28 8.9 1.52 8.88L2.59 8.78L3.1 8.73L3.62 8.68C3.7 8.32 3.8 7.98 3.94 7.65C3.97 7.58 4 7.51 4.03 7.43C4.18 7.1 4.35 6.78 4.54 6.48L4.2 6.07L3.87 5.68L3.19 4.85C3.03 4.66 2.93 4.54 2.86 4.42C2.94 4.33 3.05 4.22 3.22 4.04L3.99 3.27C4.16 3.1 4.28 2.98 4.39 2.9C4.49 2.97 4.61 3.07 4.8 3.23L5.63 3.91L6.02 4.24L6.43 4.58C6.73 4.38 7.05 4.21 7.38 4.07C7.45 4.04 7.52 4.01 7.6 3.98C7.93 3.85 8.28 3.74 8.63 3.66L8.68 3.14L8.73 2.63L8.83 1.56C8.85 1.32 8.87 1.16 8.9 1.03C9.02 1.03 9.18 1.03 9.42 1.03H10.51C10.76 1.03 10.91 1.03 11.05 1.05C11.07 1.17 11.09 1.33 11.11 1.57L11.21 2.64L11.26 3.15L11.31 3.67C11.67 3.75 12.01 3.85 12.35 3.99C12.42 4.02 12.49 4.05 12.56 4.08C12.89 4.23 13.21 4.4 13.51 4.59L13.92 4.25L14.31 3.92L15.14 3.24C15.33 3.08 15.45 2.98 15.57 2.91C15.66 2.99 15.77 3.1 15.95 3.28L16.74 4.07C16.9 4.23 17.01 4.34 17.08 4.44C17.01 4.54 16.91 4.66 16.75 4.85L16.07 5.68L15.74 6.07L15.4 6.48C15.6 6.78 15.77 7.1 15.91 7.43C15.94 7.5 15.97 7.57 16 7.64C16.13 7.97 16.24 8.32 16.32 8.67L16.84 8.72L17.35 8.77L18.42 8.87C18.67 8.89 18.82 8.91 18.95 8.95C18.95 9.07 18.95 9.23 18.95 9.47V10.56H18.98ZM9.98 13.51C8.05 13.51 6.48 11.94 6.48 10.01C6.48 8.08 8.05 6.51 9.98 6.51C11.91 6.51 13.48 8.08 13.48 10.01C13.48 11.94 11.91 13.51 9.98 13.51ZM9.98 7.51C8.6 7.51 7.48 8.63 7.48 10.01C7.48 11.39 8.6 12.51 9.98 12.51C11.36 12.51 12.48 11.39 12.48 10.01C12.48 8.63 11.36 7.51 9.98 7.51Z" fill="currentColor"/>
</svg>
