<svg preserveAspectRatio="xMidYMid meet" width="100%" height="100%" overflow="visible" viewBox="-1.5 -2.5 24 24" fill="none" xmlns="http://www.w3.org/2000/svg">
<g id="Vector">
<path d="M20.27 11.76C19.86 11.04 18.94 10.8 18.22 11.21L14.97 13.06C14.84 12.36 14.23 11.84 13.5 11.84H10.92C10.29 11.23 9.44 10.84 8.49 10.84H1C0.45 10.84 0 11.29 0 11.84V17.34C0 17.89 0.45 18.34 1 18.34H4C4.52 18.34 4.94 17.93 4.98 17.42L10.77 18.33C10.9 18.35 11.03 18.36 11.16 18.36C11.6 18.36 12.03 18.25 12.41 18.03L19.72 13.81C20.07 13.61 20.32 13.29 20.42 12.9C20.52 12.51 20.47 12.11 20.27 11.76ZM4 17.34H1V11.84H4V17.34ZM19.46 12.64C19.42 12.77 19.34 12.88 19.23 12.94L11.92 17.16C11.62 17.33 11.28 17.4 10.94 17.34L5.01 16.41V11.84H8.5C9.24 11.84 9.91 12.16 10.36 12.67C10.47 12.8 10.57 12.83 10.8 12.84H13.51C13.79 12.84 14.01 13.06 14.01 13.34C14.01 13.52 13.91 13.66 13.78 13.75C13.75 13.77 13.72 13.79 13.69 13.8C13.64 13.82 13.58 13.84 13.52 13.84H9.52C9.24 13.84 9.02 14.06 9.02 14.34C9.02 14.62 9.24 14.84 9.52 14.84H13.52C13.74 14.84 13.95 14.79 14.13 14.71L14.38 14.57L18.74 12.08C18.86 12.01 18.99 12 19.12 12.03C19.25 12.07 19.36 12.15 19.42 12.26C19.49 12.38 19.5 12.51 19.47 12.64H19.46Z" fill="currentColor"/>
<path fill-rule="evenodd" clip-rule="evenodd" d="M16 4C14.8954 4 14 4.89543 14 6C14 7.10457 14.8954 8 16 8C17.1046 8 18 7.10457 18 6C18 4.89543 17.1046 4 16 4ZM13 6C13 4.34315 14.3431 3 16 3C17.6569 3 19 4.34315 19 6C19 7.65685 17.6569 9 16 9C14.3431 9 13 7.65685 13 6Z" fill="currentColor"/>
<path fill-rule="evenodd" clip-rule="evenodd" d="M9 1C7.89543 1 7 1.89543 7 3C7 4.10457 7.89543 5 9 5C10.1046 5 11 4.10457 11 3C11 1.89543 10.1046 1 9 1ZM6 3C6 1.34315 7.34315 0 9 0C10.6569 0 12 1.34315 12 3C12 4.65685 10.6569 6 9 6C7.34315 6 6 4.65685 6 3Z" fill="currentColor"/>
</g>
</svg>
