<svg preserveAspectRatio="xMidYMid meet" width="100%" height="100%" overflow="visible" viewBox="-1.99 -2.5 24 24" fill="none" xmlns="http://www.w3.org/2000/svg">
<path id="Union" d="M10.4861 0.345491C10.4192 0.13948 10.2272 0 10.0106 0C9.79399 0 9.60201 0.13948 9.53507 0.345491L7.40219 6.90983H0.500034C0.283421 6.90983 0.091443 7.04931 0.0245059 7.25532C-0.0424313 7.46133 0.0308978 7.68702 0.206141 7.81434L5.7901 11.8713L3.65722 18.4357C3.59028 18.6417 3.66361 18.8674 3.83885 18.9947C4.0141 19.122 4.2514 19.122 4.42664 18.9947L10.0106 14.9377L15.5946 18.9947C15.7698 19.122 16.0071 19.122 16.1823 18.9947C16.3576 18.8674 16.4309 18.6417 16.364 18.4357L14.2311 11.8713L19.8151 7.81434C19.9903 7.68702 20.0636 7.46133 19.9967 7.25532C19.9298 7.04931 19.7378 6.90983 19.5212 6.90983H12.619L10.4861 0.345491Z" fill="currentColor"/>
</svg>
