<svg preserveAspectRatio="xMidYMid meet" width="100%" height="100%" overflow="visible" viewBox="-1 -1 24 24" fill="none" xmlns="http://www.w3.org/2000/svg">
<g id="Subtract">
<path fill-rule="evenodd" clip-rule="evenodd" d="M22 11C22 17.0751 17.0751 22 11 22C4.92487 22 0 17.0751 0 11C0 4.92487 4.92487 0 11 0C17.0751 0 22 4.92487 22 11ZM10.9922 8.80245C11.4574 8.80245 11.8295 9.16998 11.8295 9.6294V16.173C11.8295 16.6325 11.4574 17 10.9922 17C10.5271 17 10.155 16.6325 10.155 16.173V9.6294C10.155 9.16998 10.5271 8.80245 10.9922 8.80245ZM12 6.01072C12 6.60796 11.6434 6.9755 10.9922 6.9755C10.3566 6.9755 10 6.60796 10 6.01072C10 5.30628 10.3566 5 10.9922 5C11.6434 5 12 5.30628 12 6.01072Z" fill="currentColor"/>
</g>
</svg>
