<svg preserveAspectRatio="xMidYMid meet" width="100%" height="100%" overflow="visible" viewBox="-1 -1 24 24" fill="none" xmlns="http://www.w3.org/2000/svg">
<path id="Subtract" fill-rule="evenodd" clip-rule="evenodd" d="M22 11C22 17.0751 17.0751 22 11 22C4.92487 22 0 17.0751 0 11C0 4.92487 4.92487 0 11 0C17.0751 0 22 4.92487 22 11ZM10.9922 5C11.6434 5 12 5.37127 12 6.07692C12 6.78257 11.6434 7.15385 10.9922 7.15385C10.3566 7.15385 10 6.78257 10 6.07692C10 5.37127 10.3566 5 10.9922 5ZM11.8295 9.6294C11.8295 9.16998 11.4574 8.80245 10.9922 8.80245C10.5271 8.80245 10.155 9.16998 10.155 9.6294V16.173C10.155 16.6325 10.5271 17 10.9922 17C11.4574 17 11.8295 16.6325 11.8295 16.173V9.6294Z" fill="currentColor"/>
</svg>
