<svg preserveAspectRatio="xMidYMid meet" width="100%" height="100%" overflow="visible" viewBox="-1 -1 24 24" fill="none" xmlns="http://www.w3.org/2000/svg">
<path id="Subtract" fill-rule="evenodd" clip-rule="evenodd" d="M9.31432 2.28832C10.0802 0.903893 12.0802 0.903893 12.846 2.28832L21.5168 18.1123C22.2698 19.4751 21.2824 21.1377 19.7507 21.1377H2.40914C0.877429 21.1377 -0.109994 19.4751 0.643061 18.1123L9.31432 2.28832ZM11.08 6.99756C11.08 6.44528 10.6323 5.99756 10.08 5.99756C9.52772 5.99756 9.08 6.44528 9.08 6.99756V13.9976C9.08 14.5498 9.52772 14.9976 10.08 14.9976C10.6323 14.9976 11.08 14.5498 11.08 13.9976V6.99756ZM10.08 17.9976C10.6323 17.9976 11.08 17.5498 11.08 16.9976C11.08 16.4453 10.6323 15.9976 10.08 15.9976C9.52772 15.9976 9.08 16.4453 9.08 16.9976C9.08 17.5498 9.52772 17.9976 10.08 17.9976Z" fill="currentColor"/>
</svg>
