<svg preserveAspectRatio="xMidYMid meet" width="100%" height="100%" overflow="visible" viewBox="0 0 24 24" fill="none" xmlns="http://www.w3.org/2000/svg">
<g id="Vector">
<path fill-rule="evenodd" clip-rule="evenodd" d="M12.003 20.722C16.8199 20.722 20.7247 16.8172 20.7247 12.0003C20.7247 7.18339 16.8199 3.27853 12.003 3.27853C7.18611 3.27853 3.28125 7.18339 3.28125 12.0003C3.28125 16.8172 7.18611 20.722 12.003 20.722ZM12.003 21.722C17.3722 21.722 21.7247 17.3695 21.7247 12.0003C21.7247 6.63111 17.3722 2.27853 12.003 2.27853C6.63382 2.27853 2.28125 6.63111 2.28125 12.0003C2.28125 17.3695 6.63382 21.722 12.003 21.722Z" fill="currentColor"/>
<path d="M6.55782 11.9976C6.55782 13.8085 5.0898 15.2766 3.27891 15.2766C1.46802 15.2766 0 13.8085 0 11.9976C0 10.1867 1.46802 8.71872 3.27891 8.71872C5.0898 8.71872 6.55782 10.1867 6.55782 11.9976Z" fill="white"/>
<path fill-rule="evenodd" clip-rule="evenodd" d="M3.27891 14.2766C4.53752 14.2766 5.55782 13.2563 5.55782 11.9976C5.55782 10.739 4.53752 9.71872 3.27891 9.71872C2.0203 9.71872 1 10.739 1 11.9976C1 13.2563 2.0203 14.2766 3.27891 14.2766ZM3.27891 15.2766C5.0898 15.2766 6.55782 13.8085 6.55782 11.9976C6.55782 10.1867 5.0898 8.71872 3.27891 8.71872C1.46802 8.71872 0 10.1867 0 11.9976C0 13.8085 1.46802 15.2766 3.27891 15.2766Z" fill="currentColor"/>
<path d="M24.0012 11.9976C24.0012 13.8085 22.5332 15.2765 20.7223 15.2765C18.9114 15.2765 17.4434 13.8085 17.4434 11.9976C17.4434 10.1867 18.9114 8.7187 20.7223 8.7187C22.5332 8.7187 24.0012 10.1867 24.0012 11.9976Z" fill="white"/>
<path fill-rule="evenodd" clip-rule="evenodd" d="M20.7223 14.2765C21.9809 14.2765 23.0012 13.2562 23.0012 11.9976C23.0012 10.739 21.9809 9.7187 20.7223 9.7187C19.4637 9.7187 18.4434 10.739 18.4434 11.9976C18.4434 13.2562 19.4637 14.2765 20.7223 14.2765ZM20.7223 15.2765C22.5332 15.2765 24.0012 13.8085 24.0012 11.9976C24.0012 10.1867 22.5332 8.7187 20.7223 8.7187C18.9114 8.7187 17.4434 10.1867 17.4434 11.9976C17.4434 13.8085 18.9114 15.2765 20.7223 15.2765Z" fill="currentColor"/>
<path d="M11.9984 6.55783C10.1875 6.55783 8.71952 5.08981 8.71952 3.27892C8.71952 1.46802 10.1875 -7.58588e-08 11.9984 0C13.8093 7.58588e-08 15.2773 1.46802 15.2773 3.27892C15.2773 5.08981 13.8093 6.55783 11.9984 6.55783Z" fill="white"/>
<path fill-rule="evenodd" clip-rule="evenodd" d="M9.71952 3.27892C9.71952 4.53753 10.7398 5.55783 11.9984 5.55783C13.257 5.55783 14.2773 4.53753 14.2773 3.27892C14.2773 2.0203 13.257 1 11.9984 1C10.7398 1 9.71952 2.0203 9.71952 3.27892ZM8.71952 3.27892C8.71952 5.08981 10.1875 6.55783 11.9984 6.55783C13.8093 6.55783 15.2773 5.08981 15.2773 3.27892C15.2773 1.46802 13.8093 7.58588e-08 11.9984 0C10.1875 -7.58588e-08 8.71952 1.46802 8.71952 3.27892Z" fill="currentColor"/>
<path d="M11.9984 24.0014C10.1875 24.0014 8.71952 22.5334 8.71952 20.7225C8.71952 18.9116 10.1875 17.4436 11.9984 17.4436C13.8093 17.4436 15.2773 18.9116 15.2773 20.7225C15.2773 22.5334 13.8093 24.0014 11.9984 24.0014Z" fill="white"/>
<path fill-rule="evenodd" clip-rule="evenodd" d="M9.71952 20.7225C9.71952 21.9811 10.7398 23.0014 11.9984 23.0014C13.257 23.0014 14.2773 21.9811 14.2773 20.7225C14.2773 19.4639 13.257 18.4436 11.9984 18.4436C10.7398 18.4436 9.71952 19.4639 9.71952 20.7225ZM8.71952 20.7225C8.71952 22.5334 10.1875 24.0014 11.9984 24.0014C13.8093 24.0014 15.2773 22.5334 15.2773 20.7225C15.2773 18.9116 13.8093 17.4436 11.9984 17.4436C10.1875 17.4436 8.71952 18.9116 8.71952 20.7225Z" fill="currentColor"/>
</g>
</svg>
