<svg preserveAspectRatio="xMidYMid meet" width="100%" height="100%" overflow="visible" viewBox="-5.5 -8.5 24 24" fill="none" xmlns="http://www.w3.org/2000/svg">
<g id="Vector">
<path fill-rule="evenodd" clip-rule="evenodd" d="M0.146447 6.85355C-0.0488156 6.65829 -0.0488155 6.34171 0.146447 6.14645L6.14645 0.146447C6.34171 -0.0488156 6.65829 -0.0488156 6.85355 0.146447C7.04882 0.341709 7.04882 0.658292 6.85355 0.853553L0.853553 6.85355C0.658291 7.04881 0.341709 7.04882 0.146447 6.85355Z" fill="currentColor"/>
<path fill-rule="evenodd" clip-rule="evenodd" d="M6.14645 0.146447C6.34171 -0.0488156 6.65829 -0.0488156 6.85355 0.146447L12.8536 6.14645C13.0488 6.34171 13.0488 6.65829 12.8536 6.85355C12.6583 7.04882 12.3417 7.04882 12.1464 6.85355L6.14645 0.853553C5.95119 0.658291 5.95119 0.341709 6.14645 0.146447Z" fill="currentColor"/>
</g>
</svg>
