<svg preserveAspectRatio="xMidYMid meet" width="100%" height="100%" overflow="visible" viewBox="-3 -2 24 24" fill="none" xmlns="http://www.w3.org/2000/svg">
<g id="Union">
<path fill-rule="evenodd" clip-rule="evenodd" d="M3.5 5.5C3.5 2.46243 5.96243 0 9 0C12.0376 0 14.5 2.46243 14.5 5.5C14.5 8.53757 12.0376 11 9 11C5.96243 11 3.5 8.53757 3.5 5.5ZM9 1C6.51472 1 4.5 3.01472 4.5 5.5C4.5 7.98528 6.51472 10 9 10C11.4853 10 13.5 7.98528 13.5 5.5C13.5 3.01472 11.4853 1 9 1Z" fill="currentColor"/>
<path d="M0 17C0 14.5147 2.01472 12.5 4.5 12.5H9C9.27614 12.5 9.5 12.7239 9.5 13C9.5 13.2761 9.27614 13.5 9 13.5H4.5C2.567 13.5 1 15.067 1 17V20C1 20.2761 0.776142 20.5 0.5 20.5C0.223858 20.5 0 20.2761 0 20V17Z" fill="currentColor"/>
<path fill-rule="evenodd" clip-rule="evenodd" d="M14.1945 13.659C14.2057 13.6478 14.217 13.6367 14.2284 13.6258C15.1095 12.7805 16.509 12.7915 17.3765 13.659C18.2552 14.5377 18.2552 15.9623 17.3765 16.841L14.0178 20.1997L10.659 16.841C9.78032 15.9623 9.78032 14.5377 10.659 13.659C11.5289 12.7891 12.9339 12.7804 13.8145 13.6329C13.8234 13.6415 13.8322 13.6502 13.841 13.659L14.017 13.836L14.1945 13.659ZM16.6694 16.1339L14.0178 18.7855L11.3661 16.1339C10.878 15.6457 10.878 14.8543 11.3661 14.3661C11.854 13.8782 12.6448 13.878 13.1331 14.3653L14.014 15.2512L14.9006 14.3671L14.9016 14.3661C15.3898 13.878 16.1812 13.878 16.6694 14.3661C17.1576 14.8543 17.1576 15.6457 16.6694 16.1339Z" fill="currentColor"/>
</g>
</svg>
