<svg preserveAspectRatio="xMidYMid meet" width="100%" height="100%" overflow="visible" viewBox="-2 -2 24 24" fill="none" xmlns="http://www.w3.org/2000/svg">
<path id="Union" fill-rule="evenodd" clip-rule="evenodd" d="M10 20C15.5228 20 20 15.5228 20 10C20 4.47715 15.5228 0 10 0C4.47715 0 0 4.47715 0 10C0 15.5228 4.47715 20 10 20ZM6.47552 13.5C6.97613 15.4394 7.82501 17.3232 8.7921 18.9196C5.59014 18.4901 2.92144 16.377 1.70591 13.5H6.47552ZM7.51047 13.5C8.05216 15.4694 8.97172 17.3903 10.0064 18.9718C11.0811 17.3764 11.9918 15.477 12.5173 13.5H7.51047ZM12.7482 12.5H7.26972C7.0968 11.6591 7.00023 10.8183 7.00023 9.99999C7.00023 9.17792 7.0943 8.33783 7.26369 7.5H12.7487C12.911 8.33163 13 9.17038 13 10.0001C13 10.8293 12.9107 11.6681 12.7482 12.5ZM13.55 13.5C13.0657 15.4444 12.2293 17.3095 11.2328 18.9163C14.4237 18.4792 17.0817 16.3695 18.2941 13.5H13.55ZM18.6482 12.5H13.7659C13.9172 11.6709 14 10.8331 14 10.0001C14 9.16671 13.9174 8.32892 13.7664 7.5H18.6482C18.8773 8.29373 19 9.13253 19 10C19 10.8675 18.8773 11.7063 18.6482 12.5ZM6.25013 12.5H1.35177C1.12273 11.7063 1 10.8675 1 10C1 9.13253 1.12273 8.29373 1.35177 7.5H6.24472C6.08734 8.33396 6.00023 9.17281 6.00023 9.99999C6.00023 10.8241 6.08957 11.6635 6.25013 12.5ZM6.46692 6.5H1.70591C2.92039 3.62553 5.58553 1.51351 8.7838 1.08148C7.80684 2.68139 6.96206 4.55891 6.46692 6.5ZM7.50109 6.5H12.5182C11.9929 4.52119 11.0815 2.62122 10.0044 1.02477C8.95527 2.61176 8.03773 4.5268 7.50109 6.5ZM13.5508 6.5H18.2941C17.0818 3.63074 14.4241 1.52118 11.2336 1.08384C12.2312 2.69102 13.0671 4.55548 13.5508 6.5Z" fill="currentColor"/>
</svg>
