<svg preserveAspectRatio="none" width="100%" height="100%" overflow="visible" style="display: block;" viewBox="0 0 20.1406 18.15" fill="none" xmlns="http://www.w3.org/2000/svg">
<g id="Hearth icon">
<path id="Vector" d="M18.7791 10.795C17.0124 13.8431 12.8275 16.6885 10.9238 17.877C10.3219 18.2527 9.58529 18.2396 8.99472 17.8441C7.15607 16.6129 3.13716 13.6993 1.19347 10.5687C-0.372565 8.0463 -0.524202 3.70471 1.50197 1.58288C3.52818 -0.545406 6.7862 -0.524885 8.78854 1.62877L9.75644 2.66981C9.91471 2.84005 10.1729 2.84167 10.333 2.67344L11.3124 1.64467C13.3387 -0.483614 16.5967 -0.463093 18.599 1.69056C20.5893 3.83769 20.6259 7.6088 18.7791 10.795Z" fill="var(--fill-0, #FB4848)"/>
<path id="Vector 266" d="M20.1021 6.71028C19.7699 12.151 13.6967 16.1974 11.0818 17.8173C10.4 18.2397 9.53469 18.2469 8.8661 17.8012C7.22635 16.6199 6.25967 15.8484 5.5922 15.3034C6.93343 15.8445 8.66138 15.6875 9.80955 15.2572C12.6288 14.2007 16.9841 10.4938 17.8687 6.95818C18.841 3.07227 16.9933 0.520549 16.9933 0.520549C16.9933 0.520549 20.5468 1.90532 20.1021 6.71028Z" fill="var(--fill-0, #DE1F1F)"/>
</g>
</svg>
