<svg preserveAspectRatio="none" width="100%" height="100%" overflow="visible" style="display: block;" viewBox="0 0 17.9847 20.172" fill="none" xmlns="http://www.w3.org/2000/svg">
<g id="Bell Active Icon">
<path id="ringer" d="M11.2834 18.7697C10.3161 19.9741 8.66063 20.5 7.11962 19.9602C5.57862 19.4205 4.61303 17.9767 4.60866 16.4319L11.2834 18.7697Z" fill="var(--fill-0, #FFE200)"/>
<path id="ringer shadow" d="M11.2824 18.7693C11.042 19.0686 10.7581 19.3261 10.445 19.5356C9.49861 20.1689 8.27722 20.3657 7.11961 19.9602C6.87721 19.8753 6.64907 19.7679 6.43663 19.6413C7.36124 19.7684 8.28038 19.5398 9.02836 19.0394L4.78409 17.5529C4.67012 17.1938 4.61072 16.8161 4.60957 16.4322L11.2824 18.7693Z" fill="var(--fill-0, #FFB803)"/>
<path id="bell body" fill-rule="evenodd" clip-rule="evenodd" d="M10.8259 1.83597C10.8408 1.78208 10.8566 1.72781 10.8753 1.67426C11.3318 0.371302 12.7582 -0.31518 14.0612 0.141188C15.3642 0.597572 16.0505 2.02401 15.5943 3.32704C15.5754 3.3808 15.5519 3.43289 15.5298 3.48451L15.5264 3.4823C16.9655 4.46116 17.8226 6.14596 17.7039 7.94513L17.3633 13.0978C17.3469 13.3463 17.3771 13.5962 17.4523 13.8336L17.8911 15.2217C18.0217 15.6341 18.0155 16.0776 17.8726 16.4859L17.1011 18.6887C16.7359 19.731 15.5948 20.2802 14.5524 19.9151L1.33938 15.2873C0.296961 14.9222 -0.252084 13.7811 0.11292 12.7386L0.884434 10.5359C1.02752 10.1276 1.29938 9.77723 1.65873 9.53641L2.86781 8.72546C3.07469 8.58682 3.25416 8.41036 3.3964 8.20594L6.34527 3.96683C7.37398 2.48839 9.09252 1.70516 10.8259 1.83597Z" fill="var(--fill-0, #FFE200)"/>
<path id="bell body shadow" fill-rule="evenodd" clip-rule="evenodd" d="M14.0614 0.140571C15.3644 0.596942 16.0507 2.02341 15.5945 3.32643C15.5755 3.3806 15.5519 3.43281 15.5297 3.48481L15.5263 3.4826C16.9653 4.46164 17.8225 6.14638 17.7038 7.94544L17.3635 13.0972C17.3471 13.3456 17.3773 13.5956 17.4525 13.833L17.8913 15.2211C18.0219 15.6336 18.0154 16.0779 17.8725 16.4862L17.1013 18.6881C16.7362 19.7305 15.5951 20.2796 14.5526 19.9145L13.1369 19.4187C14.1794 19.7838 15.3205 19.2347 15.6856 18.1922L16.4568 15.9904C16.5997 15.582 16.6062 15.1377 16.4756 14.7253L16.0368 13.3371C15.9617 13.0997 15.9315 12.8498 15.9479 12.6013L16.2881 7.4496C16.436 5.2086 15.7939 3.6662 14.1788 2.83059C14.5487 1.77417 14.1677 0.636359 13.3158 0.000488282C13.5638 0.00857813 13.8148 0.0542194 14.0614 0.140571Z" fill="var(--fill-0, #FFB803)"/>
</g>
</svg>
