<svg preserveAspectRatio="none" width="100%" height="100%" overflow="visible" style="display: block;" viewBox="0 0 11 12.2839" fill="none" xmlns="http://www.w3.org/2000/svg">
<g id="User">
<path id="Vector (Stroke)" fill-rule="evenodd" clip-rule="evenodd" d="M1 9.92834C1 7.21757 3.25107 5.05267 6 5.05267C8.74893 5.05267 11 7.21757 11 9.92834C11 10.4237 10.7632 10.8268 10.4355 11.1287C10.1164 11.4227 9.6926 11.6412 9.23791 11.8041C8.32589 12.1308 7.1482 12.2839 6 12.2839C4.8518 12.2839 3.67411 12.1308 2.76209 11.8041C2.30741 11.6412 1.88365 11.4227 1.56447 11.1287C1.23677 10.8268 1 10.4237 1 9.92834Z" fill="var(--fill-0, #69DD86)"/>
<path id="Vector (Stroke)_2" fill-rule="evenodd" clip-rule="evenodd" d="M0 9.92834C0 7.21757 2.25107 5.05267 5 5.05267C7.74893 5.05267 10 7.21757 10 9.92834C10 10.4237 9.76323 10.8268 9.43553 11.1287C9.11635 11.4227 8.6926 11.6412 8.23791 11.8041C7.32589 12.1308 6.1482 12.2839 5 12.2839C3.8518 12.2839 2.67411 12.1308 1.76209 11.8041C1.30741 11.6412 0.883645 11.4227 0.564467 11.1287C0.236771 10.8268 0 10.4237 0 9.92834Z" fill="var(--fill-0, #8EEDA6)"/>
<path id="Vector (Stroke)_3" fill-rule="evenodd" clip-rule="evenodd" d="M3 3C3 1.34315 4.34315 0 6 0C7.65685 0 9 1.34315 9 3C9 4.65685 7.65685 6 6 6C4.34315 6 3 4.65685 3 3Z" fill="var(--fill-0, #46C566)"/>
<path id="Vector (Stroke)_4" fill-rule="evenodd" clip-rule="evenodd" d="M2 3C2 1.34315 3.34315 0 5 0C6.65685 0 8 1.34315 8 3C8 4.65685 6.65685 6 5 6C3.34315 6 2 4.65685 2 3Z" fill="var(--fill-0, #69DD86)"/>
</g>
</svg>
