<svg preserveAspectRatio="none" width="100%" height="100%" overflow="visible" style="display: block;" viewBox="0 0 16 20" fill="none" xmlns="http://www.w3.org/2000/svg">
<g id="Sheet">
<path id="Vector" d="M2 20C0.895431 20 0 19.1046 0 18V2C0 0.895431 0.895431 0 2 0H11L16 5V18C16 19.1046 15.1046 20 14 20H2Z" fill="var(--fill-0, #B7FFC9)"/>
<path id="Vector 71" d="M11 0L16 5H13C11.8954 5 11 4.10457 11 3V0Z" fill="var(--fill-0, #69DD86)"/>
<path id="Vector (Stroke)" fill-rule="evenodd" clip-rule="evenodd" d="M5.25018 3.5C4.8604 3.5 4.54443 3.81598 4.54443 4.20575V5.54402H3.20575C2.81598 5.54402 2.5 5.85999 2.5 6.24977C2.5 6.63955 2.81598 6.95552 3.20575 6.95552H4.54443V8.29425C4.54443 8.68402 4.8604 9 5.25018 9C5.63995 9 5.95593 8.68402 5.95593 8.29425V6.95552L7.29425 6.95552C7.68402 6.95552 8 6.63955 8 6.24977C8 5.85999 7.68402 5.54402 7.29425 5.54402L5.95593 5.54402V4.20575C5.95593 3.81598 5.63995 3.5 5.25018 3.5Z" fill="var(--fill-0, #69DD86)"/>
</g>
</svg>
