<svg preserveAspectRatio="none" width="100%" height="100%" overflow="visible" style="display: block;" viewBox="0 0 18 3" fill="none" xmlns="http://www.w3.org/2000/svg">
<g id="Group 6101">
<path id="Rectangle 11002" d="M0 1H2V2C2 2.55228 1.55228 3 1 3V3C0.447715 3 0 2.55228 0 2V1Z" fill="var(--fill-0, #FF6CAC)"/>
<path id="Rectangle 11007" d="M2 1C2 0.447715 2.44772 0 3 0V0C3.55228 0 4 0.447715 4 1V2H2V1Z" fill="var(--fill-0, #FFEF99)"/>
<path id="Rectangle 11008" d="M6 1C6 0.447715 6.44772 0 7 0V0C7.55228 0 8 0.447715 8 1V2H6V1Z" fill="var(--fill-0, #FFEF99)"/>
<path id="Rectangle 11009" d="M10 1C10 0.447715 10.4477 0 11 0V0C11.5523 0 12 0.447715 12 1V2H10V1Z" fill="var(--fill-0, #FFEF99)"/>
<path id="Rectangle 11010" d="M14 1C14 0.447715 14.4477 0 15 0V0C15.5523 0 16 0.447715 16 1V2H14V1Z" fill="var(--fill-0, #FFEF99)"/>
<path id="Rectangle 11003" d="M4 1H6V2C6 2.55228 5.55228 3 5 3V3C4.44772 3 4 2.55228 4 2V1Z" fill="var(--fill-0, #FF6CAC)"/>
<path id="Rectangle 11004" d="M8 1H10V2C10 2.55228 9.55228 3 9 3V3C8.44772 3 8 2.55228 8 2V1Z" fill="var(--fill-0, #FF6CAC)"/>
<path id="Rectangle 11005" d="M12 1H14V2C14 2.55228 13.5523 3 13 3V3C12.4477 3 12 2.55228 12 2V1Z" fill="var(--fill-0, #FF6CAC)"/>
<path id="Rectangle 11006" d="M16 1H18V2C18 2.55228 17.5523 3 17 3V3C16.4477 3 16 2.55228 16 2V1Z" fill="var(--fill-0, #FF6CAC)"/>
</g>
</svg>
