<svg preserveAspectRatio="none" width="100%" height="100%" overflow="visible" style="display: block;" viewBox="0 0 10.5 8.5" fill="none" xmlns="http://www.w3.org/2000/svg">
<g id="Controles">
<path id="Union" d="M2.25 0.5C2.25 0.223858 2.02614 0 1.75 0C1.47386 0 1.25 0.223858 1.25 0.5V1.25H0.5C0.223858 1.25 0 1.47386 0 1.75C0 2.02614 0.223858 2.25 0.5 2.25H1.25V3C1.25 3.27614 1.47386 3.5 1.75 3.5C2.02614 3.5 2.25 3.27614 2.25 3V2.25H3C3.27614 2.25 3.5 2.02614 3.5 1.75C3.5 1.47386 3.27614 1.25 3 1.25H2.25V0.5Z" fill="var(--fill-0, #A0A09B)"/>
<path id="Vector 3440 (Stroke)" fill-rule="evenodd" clip-rule="evenodd" d="M10.5 1.75C10.5 2.02614 10.2761 2.25 10 2.25L7.5 2.25C7.22386 2.25 7 2.02614 7 1.75C7 1.47386 7.22386 1.25 7.5 1.25L10 1.25C10.2761 1.25 10.5 1.47386 10.5 1.75Z" fill="var(--fill-0, #A0A09B)"/>
<path id="Union_2" d="M2.98761 6.21354C3.18287 6.01828 3.18287 5.70169 2.98761 5.50643C2.79234 5.31117 2.47576 5.31117 2.2805 5.50643L1.75011 6.03682L1.21976 5.50647C1.0245 5.31121 0.70792 5.31121 0.512658 5.50647C0.317395 5.70173 0.317395 6.01832 0.512658 6.21358L1.043 6.74393L0.512733 7.2742C0.317471 7.46946 0.317471 7.78604 0.512733 7.98131C0.707995 8.17657 1.02458 8.17657 1.21984 7.98131L1.75011 7.45103L2.28042 7.98135C2.47569 8.17661 2.79227 8.17661 2.98753 7.98135C3.18279 7.78608 3.18279 7.4695 2.98753 7.27424L2.45722 6.74393L2.98761 6.21354Z" fill="var(--fill-0, #A0A09B)"/>
<g id="Union_3">
<path d="M9.25 5.5C9.25 5.77614 9.02614 6 8.75 6C8.47386 6 8.25 5.77614 8.25 5.5C8.25 5.22386 8.47386 5 8.75 5C9.02614 5 9.25 5.22386 9.25 5.5Z" fill="var(--fill-0, #A0A09B)"/>
<path d="M10.25 6.75C10.25 7.02614 10.0261 7.25 9.75 7.25H7.75C7.47386 7.25 7.25 7.02614 7.25 6.75C7.25 6.47386 7.47386 6.25 7.75 6.25L9.75 6.25C10.0261 6.25 10.25 6.47386 10.25 6.75Z" fill="var(--fill-0, #A0A09B)"/>
<path d="M8.75 8.5C9.02614 8.5 9.25 8.27614 9.25 8C9.25 7.72386 9.02614 7.5 8.75 7.5C8.47386 7.5 8.25 7.72386 8.25 8C8.25 8.27614 8.47386 8.5 8.75 8.5Z" fill="var(--fill-0, #A0A09B)"/>
</g>
</g>
</svg>
