<svg preserveAspectRatio="none" width="100%" height="100%" overflow="visible" style="display: block;" viewBox="0 0 18 20" fill="none" xmlns="http://www.w3.org/2000/svg">
<g id="Calculator">
<path id="Rectangle 10567" d="M0 2C0 0.895431 0.895431 0 2 0L16 0C17.1046 0 18 0.895431 18 2L18 18C18 19.1046 17.1046 20 16 20L2 20C0.89543 20 0 19.1046 0 18L0 2Z" fill="var(--fill-0, #A0A09B)"/>
<path id="Rectangle 10566" d="M0 2C0 0.895431 0.895431 0 2 0L14 0C15.1046 0 16 0.895431 16 2L16 18C16 19.1046 15.1046 20 14 20L2 20C0.895431 20 0 19.1046 0 18L0 2Z" fill="var(--fill-0, #D9D9D7)"/>
<rect id="Rectangle 10568" x="2" y="2" width="12" height="5" rx="1" fill="var(--fill-0, #6DC694)"/>
</g>
</svg>
