<svg preserveAspectRatio="none" width="100%" height="100%" overflow="visible" style="display: block;" viewBox="0 0 18 17" fill="none" xmlns="http://www.w3.org/2000/svg">
<g id="Group 5424">
<path id="Rectangle 10568" d="M0 2C0 0.89543 0.895431 0 2 0L16 0C17.1046 0 18 0.895431 18 2V5L0 5L0 2Z" fill="var(--fill-0, #7B46FE)"/>
<rect id="Rectangle 10567" width="16" height="17" rx="2" fill="var(--fill-0, #ECE4FF)"/>
<path id="Rectangle 10569" d="M0 2C0 0.89543 0.895431 0 2 0L14 0C15.1046 0 16 0.895431 16 2V5L0 5L0 2Z" fill="var(--fill-0, #A682FF)"/>
<g id="30">
<path d="M5.69 8.06002H3.68C3.4 8.06002 3.17 7.83002 3.17 7.55002C3.17 7.27002 3.4 7.04002 3.68 7.04002H6.88C7.16 7.04002 7.39 7.27002 7.39 7.55002C7.39 7.66002 7.36 7.78002 7.26 7.89002L5.8 9.54002C7.21 9.70002 7.64 10.68 7.64 11.74C7.64 13.11 6.81 13.9 5.18 13.9C4.14 13.9 3.32 13.4 2.89 12.79C2.83 12.7 2.8 12.6 2.8 12.49C2.8 12.2 3.04 11.96 3.33 11.96C3.51 11.96 3.64 12.03 3.81 12.22C4.15 12.61 4.53 12.9 5.18 12.9C6.08 12.9 6.5 12.45 6.5 11.74C6.5 11.04 6.21 10.54 5.31 10.54H4.69C4.38 10.54 4.15 10.31 4.15 10.02C4.15 9.86002 4.2 9.77002 4.28 9.67002L5.69 8.06002Z" fill="var(--fill-0, #A682FF)"/>
<path d="M10.9748 12.9C12.0048 12.9 12.4448 12.16 12.4448 10.4C12.4448 8.66002 12.0048 7.90002 10.9748 7.90002C9.94477 7.90002 9.49477 8.66002 9.49477 10.4C9.49477 12.16 9.94477 12.9 10.9748 12.9ZM10.9748 6.90002C12.7548 6.90002 13.5848 8.01002 13.5848 10.4C13.5848 12.8 12.7548 13.91 10.9748 13.91C9.17477 13.91 8.35477 12.8 8.35477 10.4C8.35477 8.01002 9.17477 6.90002 10.9748 6.90002Z" fill="var(--fill-0, #A682FF)"/>
</g>
</g>
</svg>
