<svg preserveAspectRatio="none" width="100%" height="100%" overflow="visible" style="display: block;" viewBox="0 0 17 21" fill="none" xmlns="http://www.w3.org/2000/svg">
<g id="Cancel policy icon">
<path id="Vector" d="M2 20C0.9 20 0 19.1 0 18V2C0 0.9 0.9 0 2 0H11L16 5V18C16 19.1 15.1 20 14 20H2Z" fill="var(--fill-0, #B7FFC9)"/>
<path id="Vector_2" d="M11 0L16 5H13C11.9 5 11 4.1 11 3V0Z" fill="var(--fill-0, #58C871)"/>
<path id="Vector (Stroke)" fill-rule="evenodd" clip-rule="evenodd" d="M3.2499 10C3.2499 9.64102 3.54092 9.35 3.8999 9.35H10.8999C11.2589 9.35 11.5499 9.64102 11.5499 10C11.5499 10.359 11.2589 10.65 10.8999 10.65H3.8999C3.54092 10.65 3.2499 10.359 3.2499 10Z" fill="var(--fill-0, #58C871)"/>
<path id="Vector (Stroke)_2" fill-rule="evenodd" clip-rule="evenodd" d="M3.2499 7C3.2499 6.64101 3.54092 6.35 3.8999 6.35H10.9999C11.3589 6.35 11.6499 6.64101 11.6499 7C11.6499 7.35898 11.3589 7.65 10.9999 7.65H3.8999C3.54092 7.65 3.2499 7.35898 3.2499 7Z" fill="var(--fill-0, #58C871)"/>
<path id="Vector (Stroke)_3" fill-rule="evenodd" clip-rule="evenodd" d="M3.2499 12.8999C3.2499 12.5409 3.54092 12.2499 3.8999 12.2499H5.9999C6.35889 12.2499 6.6499 12.5409 6.6499 12.8999C6.6499 13.2589 6.35889 13.5499 5.9999 13.5499H3.8999C3.54092 13.5499 3.2499 13.2589 3.2499 12.8999Z" fill="var(--fill-0, #58C871)"/>
<g id="Group 6086">
<path id="Vector_3" d="M16.0476 21H9.95238C9.47619 21 9 20.619 9 20.0476V13.9524C9 13.4762 9.38095 13 9.95238 13H16.0476C16.5238 13 17 13.381 17 13.9524V20.0476C17 20.619 16.619 21 16.0476 21Z" fill="var(--fill-0, #F7540D)"/>
</g>
<g id="Group 6087">
<path id="Vector (Stroke)_4" fill-rule="evenodd" clip-rule="evenodd" d="M11.1737 15.1937C11.4112 14.9417 11.8031 14.9347 12.049 15.1779L14.8109 17.9096C15.0569 18.1529 15.0638 18.5544 14.8263 18.8063C14.5888 19.0583 14.1969 19.0653 13.951 18.8221L11.1891 16.0904C10.9431 15.8471 10.9362 15.4456 11.1737 15.1937Z" fill="var(--fill-0, white)"/>
<path id="Vector (Stroke)_5" fill-rule="evenodd" clip-rule="evenodd" d="M14.8263 15.1937C15.0638 15.4456 15.0569 15.8471 14.8109 16.0904L12.049 18.8221C11.8031 19.0653 11.4112 19.0583 11.1737 18.8063C10.9362 18.5544 10.9431 18.1529 11.1891 17.9096L13.951 15.1779C14.1969 14.9347 14.5888 14.9417 14.8263 15.1937Z" fill="var(--fill-0, white)"/>
</g>
</g>
</svg>
