<svg preserveAspectRatio="none" width="100%" height="100%" overflow="visible" style="display: block;" viewBox="0 0 18.5005 21" fill="none" xmlns="http://www.w3.org/2000/svg">
<g id="Certificate icon">
<g id="Group 1573">
<path id="Vector" d="M2 20.0001C0.895431 20.0001 0 19.1047 0 18.0001V2.00009C0 0.895522 0.895431 9.07183e-05 2 9.07183e-05H11L16 5V18.0001C16 19.1047 15.1046 20.0001 14 20.0001H2Z" fill="var(--fill-0, #FFE8ED)"/>
<path id="Vector 71" d="M11 0L16 5H13C11.8954 5 11 4.10457 11 3V0Z" fill="var(--fill-0, #FF7DB6)"/>
<g id="Group 981">
<path id="Vector (Stroke)" fill-rule="evenodd" clip-rule="evenodd" d="M2.35 9.99999C2.35 9.641 2.64101 9.34999 3 9.34999H10C10.359 9.34999 10.65 9.641 10.65 9.99999C10.65 10.359 10.359 10.65 10 10.65H3C2.64101 10.65 2.35 10.359 2.35 9.99999Z" fill="var(--fill-0, #FFAAC7)"/>
<path id="Vector (Stroke)_2" fill-rule="evenodd" clip-rule="evenodd" d="M2.35 6.99999C2.35 6.641 2.64101 6.34999 3 6.34999H13C13.359 6.34999 13.65 6.641 13.65 6.99999C13.65 7.35897 13.359 7.64999 13 7.64999H3C2.64101 7.64999 2.35 7.35897 2.35 6.99999Z" fill="var(--fill-0, #FFAAC7)"/>
<path id="Vector (Stroke)_3" fill-rule="evenodd" clip-rule="evenodd" d="M2.53892 12.9137C2.54787 12.5548 2.84604 12.2712 3.20492 12.2801L6.0162 12.3502C6.37507 12.3591 6.65874 12.6573 6.6498 13.0162C6.64085 13.3751 6.34268 13.6587 5.9838 13.6498L3.17253 13.5797C2.81365 13.5708 2.52998 13.2726 2.53892 12.9137Z" fill="var(--fill-0, #FFAAC7)"/>
</g>
</g>
<path id="Vector 107" d="M11.0005 21V15H16.0005V21L13.5005 20.024L11.0005 21Z" fill="var(--fill-0, #F43E8E)"/>
<g id="Group 6088">
<path id="Vector 105" d="M14.8829 10.104L14.6171 9.88555C13.9844 9.36533 13.0748 9.37227 12.4499 9.90208L12.2313 10.0874C11.9787 10.3015 11.67 10.4369 11.3426 10.477L10.9402 10.5263C10.1968 10.6174 9.59997 11.1888 9.47028 11.9334L9.38909 12.3996C9.34403 12.6583 9.24076 12.9032 9.08724 13.1153L8.828 13.4734C8.37418 14.1005 8.3937 14.957 8.8756 15.5622L9.03798 15.7662C9.22318 15.9988 9.34513 16.2762 9.3918 16.5709L9.47605 17.103C9.60061 17.8897 10.2448 18.4866 11.0318 18.5444L11.3129 18.5651C11.6589 18.5906 11.9889 18.7222 12.2586 18.9424L12.4738 19.1181C13.09 19.6212 13.9687 19.6279 14.5923 19.1342L14.8548 18.9264C15.1201 18.7163 15.4413 18.5907 15.7775 18.5653L15.9933 18.5491C16.7932 18.4888 17.4427 17.8723 17.5516 17.0699L17.6163 16.5928C17.6582 16.2842 17.7824 15.9929 17.9757 15.7501L18.1253 15.5622C18.6072 14.957 18.6267 14.1005 18.1729 13.4734L17.9266 13.1332C17.7648 12.9096 17.659 12.6499 17.6181 12.376L17.557 11.9669C17.4434 11.2058 16.8419 10.614 16.0854 10.519L15.7467 10.4764C15.4298 10.4366 15.1305 10.3076 14.8829 10.104Z" fill="var(--fill-0, #FF7DB6)"/>
<path id="Vector 106" d="M14.2766 11.656L14.0738 11.4892C13.6941 11.1771 13.1484 11.1813 12.7734 11.4992L12.6002 11.646C12.4487 11.7745 12.2634 11.8557 12.067 11.8798L11.7717 11.916C11.3256 11.9706 10.9675 12.3134 10.8897 12.7602L10.8318 13.0928C10.8047 13.248 10.7428 13.3949 10.6507 13.5222L10.4636 13.7807C10.1913 14.1569 10.203 14.6708 10.4921 15.0339L10.6211 15.1959C10.7322 15.3355 10.8054 15.5019 10.8334 15.6788L10.8932 16.0561C10.9679 16.5282 11.3544 16.8863 11.8266 16.921L12.0491 16.9374C12.2567 16.9526 12.4547 17.0316 12.6166 17.1638L12.7878 17.3035C13.1575 17.6054 13.6847 17.6094 14.0589 17.3131L14.2597 17.1541C14.4189 17.0281 14.6116 16.9527 14.8134 16.9375L14.9954 16.9238C15.4754 16.8876 15.865 16.5177 15.9304 16.0363L15.9771 15.6919C16.0022 15.5067 16.0768 15.332 16.1927 15.1863L16.3141 15.0339C16.6032 14.6708 16.6149 14.1569 16.3426 13.7807L16.1633 13.5329C16.0662 13.3988 16.0027 13.2429 15.9782 13.0786L15.9336 12.7803C15.8655 12.3236 15.5046 11.9686 15.0507 11.9116L14.7949 11.8794C14.6047 11.8555 14.4251 11.7781 14.2766 11.656Z" fill="var(--fill-0, #FFE8ED)"/>
</g>
</g>
</svg>
