<svg preserveAspectRatio="none" width="100%" height="100%" overflow="visible" style="display: block;" viewBox="0 0 21.857 18" fill="none" xmlns="http://www.w3.org/2000/svg">
<g id="Change Armour icon">
<path id="Union" d="M6.44392 18C5.3914 18 4.52789 17.1665 4.49064 16.1147L4.3092 10.9911L3.44519 2.16629L7.36394 0.951395L11.0005 2.74055L14.644 0.951395L18.5522 2.18762L17.6363 10.9911L17.4548 16.1147C17.4176 17.1665 16.554 18 15.5015 18H6.44392Z" fill="var(--fill-0, #CFBCFF)"/>
<path id="Vector 231" d="M10.2736 4.12038L7.17522 0.85051C6.988 0.652932 7.01733 0.335753 7.23759 0.175844C7.56754 -0.0636981 8.01721 -0.0519017 8.33415 0.20461L10.3565 1.84136C10.7174 2.13348 11.234 2.13129 11.5925 1.83613L13.5507 0.223628C13.8792 -0.046882 14.3447 -0.0746441 14.7031 0.154901C14.9637 0.321839 15.0063 0.685488 14.7914 0.908215L11.6863 4.12674C11.2996 4.52754 10.6567 4.52464 10.2736 4.12038Z" fill="var(--fill-0, #A380FF)"/>
<path id="Vector 234" d="M17.5743 10.9071L18.5511 2.1799L21.7493 8.32551C21.9822 8.78003 21.8259 9.33727 21.3905 9.60429L18.8665 11.1523C18.4471 11.4094 17.9019 11.3148 17.5938 10.9313L17.5743 10.9071Z" fill="var(--fill-0, #A380FF)"/>
<path id="Vector 235" d="M4.30953 10.7997L3.44241 2.17074L0.109178 8.33176C-0.128729 8.79225 0.034259 9.35838 0.480601 9.62187L3.03258 11.1284C3.47599 11.3902 4.04763 11.243 4.30953 10.7997Z" fill="var(--fill-0, #A380FF)"/>
</g>
</svg>
