<svg preserveAspectRatio="none" width="100%" height="100%" overflow="visible" style="display: block;" viewBox="0 0 20 16" fill="none" xmlns="http://www.w3.org/2000/svg">
<g id="Chest icon">
<path id="Rectangle 10616" d="M0 7H20V15C20 15.5523 19.5523 16 19 16H1C0.447716 16 0 15.5523 0 15V7Z" fill="var(--fill-0, #FFE242)"/>
<path id="Rectangle 10179" d="M0 6.5H6.5V9.53674e-07H5.07624C2.27271 9.53674e-07 0 2.37217 0 5.29839V6.5Z" fill="var(--fill-0, #FFE200)"/>
<path id="Rectangle 10174" d="M2 6.5H14V0H7.06145C4.26609 0 2 2.53743 2 5.6675L2 6.5Z" fill="var(--fill-0, #956AFF)"/>
<path id="Rectangle 10175" d="M9 8.5H15.5V9.53674e-07H14.0762C11.2727 9.53674e-07 9 2.37217 9 5.29839V8.5Z" fill="var(--fill-0, #FFE200)"/>
<path id="Rectangle 10617" d="M11 4.5C11 2.01472 13.0147 9.53674e-07 15.5 9.53674e-07C17.9853 9.53674e-07 20 2.01472 20 4.5V15C20 15.5523 19.5523 16 19 16H11V4.5Z" fill="var(--fill-0, #FFB803)"/>
<path id="Rectangle 10177" d="M13 14H18V4.86735C18 3.28375 16.8807 2 15.5 2C14.1193 2 13 3.28376 13 4.86735V14Z" fill="var(--fill-0, #692EFB)"/>
<path id="Rectangle 10179_2" d="M11 6.5H20V8.5H11V6.5Z" fill="var(--fill-0, #FFB803)"/>
<path id="Rectangle 10619" d="M2 8H9V14H2V8Z" fill="var(--fill-0, #956AFF)"/>
<rect id="Rectangle 10620" x="9" y="13" width="2" height="3" fill="var(--fill-0, #FFB803)"/>
<path id="Rectangle 10618" d="M9 8H11V15C11 15.5523 10.5523 16 10 16H9V8Z" fill="var(--fill-0, #FFE242)"/>
<path id="Rectangle 10621" d="M0 6.5H11V8.5H0V6.5Z" fill="var(--fill-0, #FFE200)"/>
<path id="Rectangle 10622" d="M0 8.5H2V9.5H0V8.5Z" fill="var(--fill-0, #FFB803)"/>
<path id="Rectangle 10623" d="M9 8.5H11V9.5H9V8.5Z" fill="var(--fill-0, #FFB803)"/>
<g id="Group 5274">
<path id="Rectangle 10158" d="M3 7.67758C3 7.30337 3.30336 7 3.67758 7H6.3226C6.69682 7 7.00019 7.30337 7.00019 7.67758V10.3226C7.00019 10.6968 6.69682 11.0002 6.3226 11.0002H3.67758C3.30336 11.0002 3 10.6968 3 10.3226V7.67758Z" fill="var(--fill-0, #FFE200)"/>
<path id="Union" d="M5 7.2C5.5523 7.2 5.99996 7.64771 6 8.2C6 8.57 5.7987 8.89226 5.5 9.06524V9.7C5.5 9.97616 5.27616 10.2 5 10.2C4.72385 10.2 4.5 9.97615 4.5 9.7V9.06524C4.20136 8.89224 4 8.56996 4 8.2C4.00004 7.64773 4.44773 7.20004 5 7.2Z" fill="var(--fill-0, #55535B)"/>
</g>
</g>
</svg>
