<svg preserveAspectRatio="none" width="100%" height="100%" overflow="visible" style="display: block;" viewBox="0 0 20 20" fill="none" xmlns="http://www.w3.org/2000/svg">
<g id="Compare Cover Icon">
<path id="Epic" d="M8 1C8 0.447715 8.44772 0 9 0H19C19.5523 0 20 0.447715 20 1V11C20 11.5523 19.5523 12 19 12H9C8.44772 12 8 11.5523 8 11V1Z" fill="var(--fill-0, #956AFF)"/>
<path id="Rare" d="M4 5C4 4.44772 4.44772 4 5 4H15C15.5523 4 16 4.44772 16 5V15C16 15.5523 15.5523 16 15 16H5C4.44772 16 4 15.5523 4 15V5Z" fill="var(--fill-0, #569DE9)"/>
<path id="Common" d="M0 9C0 8.44772 0.447715 8 1 8H11C11.5523 8 12 8.44772 12 9V19C12 19.5523 11.5523 20 11 20H1C0.447715 20 0 19.5523 0 19V9Z" fill="var(--fill-0, #00ED9D)"/>
</g>
</svg>
