<svg preserveAspectRatio="none" width="100%" height="100%" overflow="visible" style="display: block;" viewBox="0 0 16 20" fill="none" xmlns="http://www.w3.org/2000/svg">
<g id="Sheet">
<path id="Vector" d="M2 20C0.895431 20 0 19.1046 0 18V2C0 0.895431 0.895431 0 2 0H11L16 5V18C16 19.1046 15.1046 20 14 20H2Z" fill="var(--fill-0, #BDF2FF)"/>
<path id="Vector 71" d="M11 0L16 5H13C11.8954 5 11 4.10457 11 3V0Z" fill="var(--fill-0, #1FB18E)"/>
<g id="Lines">
<path id="Vector (Stroke)" fill-rule="evenodd" clip-rule="evenodd" d="M8.59961 12.6503C8.59961 13.0093 8.30859 13.3003 7.94961 13.3003L2.41094 13.3003C2.05195 13.3003 1.76094 13.0093 1.76094 12.6503C1.76094 12.2913 2.05195 12.0003 2.41094 12.0003L7.94961 12.0003C8.30859 12.0003 8.59961 12.2913 8.59961 12.6503Z" fill="var(--fill-0, #1FB18E)"/>
<path id="Vector (Stroke)_2" fill-rule="evenodd" clip-rule="evenodd" d="M7.06152 15.6511C7.06152 16.0101 6.77051 16.3011 6.41152 16.3011L2.41152 16.3011C2.05254 16.3011 1.76152 16.0101 1.76152 15.6511C1.76152 15.2921 2.05254 15.0011 2.41152 15.0011L6.41152 15.0011C6.77051 15.0011 7.06152 15.2921 7.06152 15.6511Z" fill="var(--fill-0, #1FB18E)"/>
<path id="Vector (Stroke)_3" fill-rule="evenodd" clip-rule="evenodd" d="M11.5 9.65072C11.5 10.0097 11.209 10.3007 10.85 10.3007L2.41131 10.3007C2.05232 10.3007 1.76131 10.0097 1.76131 9.65072C1.76131 9.29173 2.05232 9.00072 2.41131 9.00072L10.85 9.00072C11.209 9.00072 11.5 9.29173 11.5 9.65072Z" fill="var(--fill-0, #1FB18E)"/>
<path id="Vector (Stroke)_4" fill-rule="evenodd" clip-rule="evenodd" d="M13.25 6.64993C13.25 7.00891 12.959 7.29993 12.6 7.29993L2.60001 7.29992C2.24102 7.29992 1.95001 7.00891 1.95001 6.64992C1.95001 6.29094 2.24102 5.99992 2.60001 5.99992L12.6 5.99993C12.959 5.99993 13.25 6.29094 13.25 6.64993Z" fill="var(--fill-0, #1FB18E)"/>
</g>
</g>
</svg>
