<svg preserveAspectRatio="none" width="100%" height="100%" overflow="visible" style="display: block;" viewBox="0 0 14.8 17.0582" fill="none" xmlns="http://www.w3.org/2000/svg">
<g id="Group 1598">
<path id="Vector (Stroke)" fill-rule="evenodd" clip-rule="evenodd" d="M1 13.9516C1 10.2207 4.0998 7.2299 7.9 7.2299C11.7002 7.2299 14.8 10.2207 14.8 13.9516C14.8 14.5677 14.5073 15.0777 14.0781 15.4732C13.6569 15.8612 13.0862 16.159 12.4528 16.386C11.1834 16.8407 9.52759 17.0582 7.9 17.0582C6.27241 17.0582 4.61661 16.8407 3.34724 16.386C2.71382 16.159 2.14305 15.8612 1.72194 15.4732C1.29268 15.0777 1 14.5677 1 13.9516Z" fill="var(--fill-0, #F791BF)"/>
<path id="Vector (Stroke)_2" fill-rule="evenodd" clip-rule="evenodd" d="M0 13.9516C0 10.2207 3.0998 7.2299 6.9 7.2299C10.7002 7.2299 13.8 10.2207 13.8 13.9516C13.8 14.5677 13.5073 15.0777 13.0781 15.4732C12.6569 15.8612 12.0862 16.159 11.4528 16.386C10.1834 16.8407 8.52759 17.0582 6.9 17.0582C5.27241 17.0582 3.61661 16.8407 2.34724 16.386C1.71382 16.159 1.14305 15.8612 0.721938 15.4732C0.292675 15.0777 0 14.5677 0 13.9516Z" fill="var(--fill-0, #F7B7D6)"/>
<path id="Vector" fill-rule="evenodd" clip-rule="evenodd" d="M4 4C4 1.79086 5.79086 0 8 0C10.2091 0 12 1.79086 12 4C12 6.20914 10.2091 8 8 8C5.79086 8 4 6.20914 4 4Z" fill="var(--fill-0, #E30D76)"/>
<path id="Vector_2" fill-rule="evenodd" clip-rule="evenodd" d="M3 4C3 1.79086 4.79086 0 7 0C9.20914 0 11 1.79086 11 4C11 6.20914 9.20914 8 7 8C4.79086 8 3 6.20914 3 4Z" fill="var(--fill-0, #FF7DB6)"/>
</g>
</svg>
