<svg preserveAspectRatio="none" width="100%" height="100%" overflow="visible" style="display: block;" viewBox="0 0 19 24" fill="none" xmlns="http://www.w3.org/2000/svg">
<g id="Saguaro">
<path id="Vector" d="M8.3125 21.3998V24H6.62515V21.3998C6.62515 21.0951 6.57892 20.7904 6.48646 20.506C6.37089 20.1403 6.16286 19.795 5.93172 19.5106C5.9086 19.4903 5.88549 19.4496 5.86238 19.4293C5.81615 19.3684 5.7468 19.3278 5.70057 19.2668C5.67746 19.2465 5.65435 19.2262 5.60812 19.1856C5.51566 19.1043 5.4232 19.0434 5.33074 18.9621C5.46943 18.8605 5.60812 18.759 5.70057 18.6371C5.76992 18.5761 5.83926 18.4949 5.9086 18.4136C6.00106 18.312 6.0704 18.2105 6.13975 18.1089C6.20909 18.0073 6.27843 17.8854 6.34777 17.7636C6.53269 17.3776 6.62515 16.951 6.62515 16.5041V7.50493C6.62515 7.24084 6.57892 6.99707 6.53269 6.7533C6.48646 6.63142 6.46335 6.50953 6.39401 6.38765C6.20909 5.96105 5.93172 5.5954 5.585 5.29069C5.46943 5.18912 5.33075 5.08755 5.16895 4.98597C5.16895 4.98597 5.16894 4.98597 5.14583 4.98597C5.40009 4.82346 5.67746 4.70158 5.95483 4.60001C5.95483 4.60001 5.95483 4.60001 5.97795 4.60001C6.46335 4.76252 6.90252 5.0266 7.24924 5.33131C7.27235 5.35163 7.29547 5.37194 7.3417 5.41257C7.91956 5.98137 8.28939 6.73299 8.28939 7.54556V16.5447C8.3125 17.5198 7.80398 18.3933 6.99498 18.9621C7.08744 19.023 7.17989 19.1043 7.27235 19.1856C7.91955 19.7543 8.3125 20.5466 8.3125 21.3998Z" fill="var(--fill-0, #54642A)"/>
<path id="Vector_2" d="M5.73833 4.80186C5.47833 4.90278 5.21833 5.02389 5.01833 5.20556C4.71833 4.98352 4.35833 4.80186 3.95833 4.70093C4.19833 4.64038 4.43833 4.60001 4.67833 4.60001C5.05833 4.60001 5.41833 4.68075 5.73833 4.80186Z" fill="var(--fill-0, #94B041)"/>
<path id="Vector_3" d="M5.73958 5.10521C5.73958 5.10521 5.73958 5.12542 5.73958 5.10521C5.52497 5.24667 5.33182 5.42855 5.1816 5.61042C5.09575 5.71146 5.00991 5.81251 4.94553 5.91355C4.60215 6.39855 4.40901 7.0048 4.40901 7.63126V16.5835C4.40901 17.2908 4.43047 17.9375 4.83822 18.4831C4.98845 18.6852 5.1816 18.8671 5.37474 19.0085C5.16013 19.15 4.98845 19.3319 4.83822 19.534C4.70946 19.6956 4.62362 19.8775 4.55923 20.0594C4.51631 20.1806 4.49485 20.3221 4.47339 20.4433C4.43046 20.7465 4.43047 21.0698 4.43047 21.4133V24H2.17708V21.4133C2.17708 20.706 2.41315 20.0594 2.84237 19.5138C2.99259 19.3117 3.18574 19.1298 3.37889 18.9883C3.16428 18.8469 2.99259 18.665 2.84237 18.4629C2.43461 17.9375 2.17708 17.2908 2.17708 16.5633V7.61105C2.17708 7.18667 2.26292 6.78251 2.43461 6.41876C2.79944 5.57001 3.55057 4.92334 4.47339 4.64042C4.53777 4.62021 4.60216 4.60001 4.66654 4.60001C4.66654 4.60001 4.68799 4.60001 4.70946 4.60001C5.05283 4.72126 5.41767 4.88292 5.73958 5.10521Z" fill="var(--fill-0, #94B041)"/>
<path id="Vector_4" d="M6.71047 7.65569V16.5726C6.71047 17.0154 6.63567 17.4381 6.48606 17.8206C6.44866 17.9413 6.39256 18.042 6.33646 18.1628C6.28036 18.2634 6.22425 18.364 6.14945 18.4647C6.09335 18.5452 6.03725 18.6056 5.98114 18.6861C5.88764 18.8069 5.77543 18.9075 5.68193 19.0081C5.75673 19.0685 5.83154 19.149 5.90634 19.2296C5.92504 19.2497 5.94374 19.2698 5.98114 19.3101C6.01855 19.3705 6.07464 19.4107 6.11205 19.4711C6.13075 19.4912 6.14945 19.5315 6.16815 19.5516C6.37386 19.8535 6.52347 20.1756 6.61697 20.5379C6.69177 20.8197 6.72918 21.1216 6.72918 21.4236V24H4.37288V21.4236C4.37288 21.0814 4.37288 20.7593 4.41028 20.4574C4.42898 20.3165 4.44768 20.1957 4.48508 20.075C4.54119 19.8938 4.61599 19.7126 4.72819 19.5516C4.8591 19.3503 5.0274 19.1692 5.19571 19.0283C5.0087 18.8874 4.8591 18.7062 4.72819 18.5049C4.37288 17.9816 4.35418 17.3375 4.35418 16.6129V7.69594C4.35418 7.07196 4.52248 6.48824 4.82169 5.98502C4.8778 5.88438 4.9526 5.76361 5.0274 5.6831C5.17701 5.50194 5.32662 5.34091 5.51363 5.20001C5.51363 5.20001 5.51363 5.20001 5.53233 5.20001C5.55103 5.22014 5.56973 5.22014 5.56973 5.24027C5.58843 5.2604 5.60713 5.2604 5.62583 5.28053C5.71933 5.36104 5.79414 5.42143 5.86894 5.50194C6.14945 5.80387 6.37386 6.18631 6.52347 6.58888C6.56087 6.70965 6.59827 6.83042 6.63567 6.95119C6.69177 7.15248 6.71047 7.39402 6.71047 7.65569Z" fill="var(--fill-0, #668930)"/>
<path id="Vector_5" d="M4.36001 20.4271C4.46001 20.4271 4.56001 20.3464 4.56001 20.2253C4.56001 20.1042 4.48001 20.0234 4.36001 20.0234C4.26001 20.0234 4.16001 20.1042 4.16001 20.2253C4.16001 20.3464 4.26001 20.4271 4.36001 20.4271Z" fill="var(--fill-0, #94B041)"/>
<path id="Vector_6" d="M4.26002 15.5222C4.36002 15.5222 4.46002 15.4415 4.46002 15.3204C4.46002 15.2195 4.38002 15.1185 4.26002 15.1185C4.16002 15.1185 4.06002 15.1993 4.06002 15.3204C4.08002 15.4415 4.16002 15.5222 4.26002 15.5222Z" fill="var(--fill-0, #94B041)"/>
<path id="Vector_7" d="M4.26002 11.3439C4.36002 11.3439 4.46002 11.2632 4.46002 11.1421C4.46002 11.0411 4.38002 10.9402 4.26002 10.9402C4.16002 10.9402 4.06002 11.021 4.06002 11.1421C4.08002 11.243 4.16002 11.3439 4.26002 11.3439Z" fill="var(--fill-0, #94B041)"/>
<path id="Vector_8" d="M4.26002 9.02266C4.36002 9.02266 4.46002 8.94192 4.46002 8.82081C4.46002 8.71988 4.38002 8.61896 4.26002 8.61896C4.16002 8.61896 4.06002 8.6997 4.06002 8.82081C4.08002 8.94192 4.16002 9.02266 4.26002 9.02266Z" fill="var(--fill-0, #94B041)"/>
<path id="Vector_9" d="M4.92001 5.95457C5.02001 5.95457 5.12001 5.87383 5.12001 5.75272C5.12001 5.6518 5.04001 5.55087 4.92001 5.55087C4.82001 5.55087 4.72001 5.63161 4.72001 5.75272C4.72001 5.85365 4.80001 5.95457 4.92001 5.95457Z" fill="var(--fill-0, #94B041)"/>
<path id="Vector_10" d="M4.26002 16.37C4.36002 16.37 4.46002 16.2893 4.46002 16.1682C4.46002 16.047 4.38002 15.9663 4.26002 15.9663C4.16002 15.9663 4.06002 16.047 4.06002 16.1682C4.06002 16.2893 4.16002 16.37 4.26002 16.37Z" fill="var(--fill-0, #94B041)"/>
<path id="Vector_11" d="M6.78 21.8199C6.88 21.8199 6.98 21.7392 6.98 21.618C6.98 21.5171 6.9 21.4162 6.78 21.4162C6.68 21.4162 6.58 21.4969 6.58 21.618C6.6 21.7392 6.68 21.8199 6.78 21.8199Z" fill="var(--fill-0, #668930)"/>
<path id="Vector_12" d="M6.4 18.1261C6.5 18.1261 6.6 18.0454 6.6 17.9243C6.6 17.8234 6.52 17.7224 6.4 17.7224C6.3 17.7224 6.2 17.8032 6.2 17.9243C6.2 18.0454 6.3 18.1261 6.4 18.1261Z" fill="var(--fill-0, #668930)"/>
<path id="Vector_13" d="M6.78 14.6342C6.88 14.6342 6.98 14.5534 6.98 14.4323C6.98 14.3314 6.9 14.2305 6.78 14.2305C6.68 14.2305 6.58 14.3112 6.58 14.4323C6.6 14.5534 6.68 14.6342 6.78 14.6342Z" fill="var(--fill-0, #668930)"/>
<path id="Vector_14" d="M6.78 13.6854C6.88 13.6854 6.98 13.6047 6.98 13.4836C6.98 13.3827 6.9 13.2817 6.78 13.2817C6.68 13.2817 6.58 13.3625 6.58 13.4836C6.6 13.6047 6.68 13.6854 6.78 13.6854Z" fill="var(--fill-0, #668930)"/>
<path id="Vector_15" d="M6.78 10.4559C6.88 10.4559 6.98 10.3751 6.98 10.254C6.98 10.1531 6.9 10.0522 6.78 10.0522C6.68 10.0522 6.58 10.1329 6.58 10.254C6.6 10.3751 6.68 10.4559 6.78 10.4559Z" fill="var(--fill-0, #668930)"/>
<path id="Vector_16" d="M6.78 8.84102C6.88 8.84102 6.98 8.76028 6.98 8.63917C6.98 8.51806 6.9 8.43732 6.78 8.43732C6.68 8.43732 6.58 8.51806 6.58 8.63917C6.58 8.76028 6.68 8.84102 6.78 8.84102Z" fill="var(--fill-0, #668930)"/>
<path id="Vector_17" d="M6.59999 6.88301C6.69999 6.88301 6.79999 6.80227 6.79999 6.68116C6.79999 6.58023 6.71999 6.47931 6.59999 6.47931C6.49999 6.47931 6.39999 6.56005 6.39999 6.68116C6.39999 6.78208 6.47999 6.88301 6.59999 6.88301Z" fill="var(--fill-0, #668930)"/>
<path id="Vector_18" d="M14.0521 10.3477C13.9047 10.4491 13.7994 10.5506 13.6731 10.6723C13.1046 11.2403 12.7467 12.0111 12.7467 12.8834V24H10.0937V12.8834C10.0937 11.362 11.2307 10.084 12.7256 9.79999C12.7677 9.82027 12.8098 9.82027 12.8519 9.84056C12.8941 9.86084 12.9362 9.86084 12.9993 9.88113C13.0414 9.90142 13.1257 9.9217 13.1678 9.9217C13.2099 9.94199 13.2309 9.94199 13.273 9.96227C13.3152 9.98256 13.3573 10.0028 13.3994 10.0028C13.4415 10.0231 13.5047 10.0434 13.5468 10.0637C13.5889 10.084 13.5889 10.1043 13.631 10.1043C13.6731 10.1246 13.7152 10.1448 13.7573 10.1651C13.7994 10.1854 13.7994 10.2057 13.8415 10.2057C13.9047 10.2463 13.9889 10.3071 14.0521 10.3477Z" fill="var(--fill-0, #94B041)"/>
<path id="Vector_19" d="M12.62 23.9596V12.8982C12.62 12.0303 12.96 11.2632 13.5 10.6981C13.62 10.5769 13.72 10.476 13.86 10.3751L13.88 10.3953C13.92 10.4155 13.96 10.4558 14 10.4962C14.02 10.5164 14.04 10.5164 14.04 10.5366C14.04 10.5366 14.04 10.5568 14.06 10.5568C14.06 10.5568 14.06 10.5568 14.08 10.5769C14.1 10.5769 14.1 10.5971 14.12 10.6173C14.12 10.6173 14.12 10.6375 14.14 10.6375L14.16 10.6577C14.2 10.6981 14.2 10.698 14.24 10.7384L14.26 10.7586L14.3 10.799C14.38 10.8999 14.46 11.0008 14.54 11.1018C14.56 11.1219 14.56 11.1421 14.58 11.1421C14.6 11.1825 14.62 11.1825 14.62 11.2229C14.66 11.2632 14.66 11.3036 14.7 11.3642C14.72 11.4045 14.74 11.4247 14.74 11.4651C14.76 11.5055 14.78 11.5256 14.78 11.566C14.82 11.6467 14.86 11.7275 14.9 11.8082C14.92 11.8486 14.92 11.8486 14.94 11.889C14.96 11.9293 14.96 11.9293 14.98 11.9697C15 12.0101 15 12.0303 15.02 12.0706C15.04 12.111 15.04 12.1514 15.06 12.1917V12.2119C15.08 12.2523 15.08 12.2927 15.08 12.333C15.08 12.3734 15.1 12.4138 15.1 12.4541C15.1 12.4743 15.1 12.4743 15.1 12.4945C15.1 12.4945 15.1 12.5147 15.1 12.5349C15.1 12.5551 15.12 12.5954 15.12 12.6156C15.12 12.656 15.12 12.7166 15.14 12.7569V24H12.62V23.9596Z" fill="var(--fill-0, #668930)"/>
<path id="Vector_20" d="M16.2292 12.9309V24H15.1281V12.7491C15.1073 12.7087 15.1073 12.6683 15.1073 12.6077C15.1073 12.5875 15.1073 12.5471 15.0865 12.5269C15.0865 12.5067 15.0865 12.5067 15.0865 12.4865C15.0865 12.4663 15.0865 12.4663 15.0865 12.4461C15.0865 12.4057 15.0657 12.3653 15.0657 12.3249C15.0657 12.2845 15.0657 12.2441 15.045 12.2037V12.1835C15.0242 12.1431 15.0242 12.1027 15.0034 12.0623C14.9826 12.0219 14.9826 12.0017 14.9618 11.9613C14.9411 11.9209 14.9411 11.9209 14.9203 11.8805C14.8995 11.8401 14.8995 11.8401 14.8787 11.7997C14.8372 11.7189 14.7956 11.6381 14.7541 11.5573C14.7333 11.5169 14.7125 11.4967 14.7125 11.4563C14.6918 11.4159 14.671 11.3957 14.671 11.3553C14.6294 11.3149 14.6294 11.2745 14.5879 11.2139C14.5671 11.1735 14.5463 11.1735 14.5463 11.1331C14.5256 11.1129 14.5256 11.0927 14.5048 11.0927C14.4217 10.9917 14.3386 10.8907 14.2555 10.7897C14.2139 10.7695 14.2139 10.7493 14.1724 10.7089C14.1308 10.6686 14.1308 10.6685 14.0893 10.6282C14.0893 10.608 14.0685 10.608 14.0477 10.5878C14.0269 10.5878 14.0269 10.5676 14.0062 10.5676C14.0062 10.5474 13.9854 10.5474 13.9854 10.5272C13.9646 10.5272 13.9646 10.507 13.9438 10.507C13.9023 10.4666 13.84 10.4262 13.7984 10.406C13.7984 10.406 13.7776 10.406 13.7776 10.3858C13.7153 10.3454 13.653 10.305 13.5699 10.2444C13.5283 10.2242 13.5283 10.204 13.4868 10.204C13.4452 10.1838 13.4244 10.1636 13.3621 10.1434C13.3206 10.1434 13.3206 10.1232 13.279 10.103C13.2375 10.0828 13.1751 10.0626 13.1336 10.0424C13.092 10.0222 13.0505 10.002 13.0089 10.002C12.9674 9.98178 12.9466 9.98178 12.905 9.96158C12.8635 9.94138 12.7804 9.92118 12.7388 9.92118C12.6973 9.90098 12.6557 9.90098 12.5934 9.88078C12.5519 9.86058 12.5103 9.86058 12.4688 9.84039C12.635 9.79999 12.8427 9.79999 13.0297 9.79999C13.4868 9.79999 13.9231 9.90098 14.3178 10.0828C15.4605 10.5676 16.2292 11.6785 16.2292 12.9309Z" fill="var(--fill-0, #54642A)"/>
<path id="Vector_21" d="M12.6 22.4255C12.7 22.4255 12.8 22.3448 12.8 22.2236C12.8 22.1227 12.72 22.0218 12.6 22.0218C12.5 22.0218 12.4 22.1025 12.4 22.2236C12.42 22.3448 12.5 22.4255 12.6 22.4255Z" fill="var(--fill-0, #94B041)"/>
<path id="Vector_22" d="M12.6 20.5686C12.7 20.5686 12.8 20.4878 12.8 20.3667C12.8 20.2658 12.72 20.1649 12.6 20.1649C12.5 20.1649 12.4 20.2456 12.4 20.3667C12.42 20.4878 12.5 20.5686 12.6 20.5686Z" fill="var(--fill-0, #94B041)"/>
<path id="Vector_23" d="M12.6 17.8638C12.7 17.8638 12.8 17.783 12.8 17.6619C12.8 17.561 12.72 17.4601 12.6 17.4601C12.5 17.4601 12.4 17.5408 12.4 17.6619C12.42 17.7628 12.5 17.8638 12.6 17.8638Z" fill="var(--fill-0, #94B041)"/>
<path id="Vector_24" d="M12.6 16.8948C12.7 16.8948 12.8 16.8141 12.8 16.693C12.8 16.592 12.72 16.4911 12.6 16.4911C12.5 16.4911 12.4 16.5719 12.4 16.693C12.42 16.7939 12.5 16.8948 12.6 16.8948Z" fill="var(--fill-0, #94B041)"/>
<path id="Vector_25" d="M12.6 15.5425C12.7 15.5425 12.8 15.4617 12.8 15.3406C12.8 15.2195 12.72 15.1388 12.6 15.1388C12.5 15.1388 12.4 15.2195 12.4 15.3406C12.4 15.4617 12.5 15.5425 12.6 15.5425Z" fill="var(--fill-0, #94B041)"/>
<path id="Vector_26" d="M12.72 11.5054C12.82 11.5054 12.92 11.4247 12.92 11.3036C12.92 11.2027 12.84 11.1017 12.72 11.1017C12.62 11.1017 12.52 11.1825 12.52 11.3036C12.52 11.4247 12.62 11.5054 12.72 11.5054Z" fill="var(--fill-0, #94B041)"/>
<path id="Vector_27" d="M15.12 21.8401C15.22 21.8401 15.32 21.7594 15.32 21.6383C15.32 21.5374 15.24 21.4364 15.12 21.4364C15.02 21.4364 14.92 21.5172 14.92 21.6383C14.94 21.7392 15.02 21.8401 15.12 21.8401Z" fill="var(--fill-0, #668930)"/>
<path id="Vector_28" d="M15.12 15.9259C15.22 15.9259 15.32 15.8452 15.32 15.7241C15.32 15.603 15.24 15.5222 15.12 15.5222C15.02 15.5222 14.92 15.603 14.92 15.7241C14.92 15.8452 15.02 15.9259 15.12 15.9259Z" fill="var(--fill-0, #668930)"/>
<path id="Vector_29" d="M15.12 12.9184C15.22 12.9184 15.32 12.8377 15.32 12.7166C15.32 12.6157 15.24 12.5147 15.12 12.5147C15.02 12.5147 14.92 12.5955 14.92 12.7166C14.94 12.8175 15.02 12.9184 15.12 12.9184Z" fill="var(--fill-0, #668930)"/>
<path id="Vector_30" d="M3.53999 6.27748C2.81999 6.68118 1.9 6.39859 1.52 5.65174L1.35999 5.34897C0.979994 4.60212 3.6 3.1488 4 3.89564L4.15999 4.19842C4.53999 4.94527 4.25999 5.87378 3.53999 6.27748Z" fill="var(--fill-0, #668930)"/>
<path id="Vector_31" d="M1.46 5.51039L0 5.02594L0.739996 4.48095L0.659997 3.41114L1.54 3.71392L1.58 2.70466L2.3 3.26985L2.76 2.24041L3.22 3.068L3.94 2.34133V3.93595L1.46 5.51039Z" fill="var(--fill-0, #AB3B61)"/>
<path id="Vector_32" d="M6.12 5.42971C5.1 5.02601 4.58 3.85527 4.98 2.78547L5.13999 2.36158C5.51999 1.31196 9.21999 2.78547 8.83999 3.8149L8.68 4.23879C8.3 5.3086 7.14 5.83341 6.12 5.42971Z" fill="var(--fill-0, #54642A)"/>
<path id="Vector_33" d="M5.08 2.62406L4.3 0.706477L5.45999 1.00925L6.43999 0L6.9 1.15055L7.93999 0.322962L8.02 1.57443L9.43999 1.15055L9.02 2.36165L10.36 2.44239L8.8 3.83516L5.08 2.62406Z" fill="var(--fill-0, #AB3B61)"/>
<g id="Vector_34">
</g>
<g id="Vector_35">
</g>
<g id="Vector_36">
</g>
</g>
</svg>
