<svg preserveAspectRatio="none" width="100%" height="100%" overflow="visible" style="display: block;" viewBox="0 0 10.9967 13.0712" fill="none" xmlns="http://www.w3.org/2000/svg">
<g id="Group 1567">
<path id="Vector 107" d="M4.79245 13.0712C7.5189 13.0712 8.95431 12.1674 9.96717 9.09762C10.7198 6.81662 11.0523 4.12667 9.71225 2.16524C8.49994 0.39077 6.61089 -0.0539397 5.51607 0.00502196C4.12843 -0.0323438 3.03079 0.378682 2.17911 0.998404C-0.305575 2.80638 -0.222276 6.59071 0.731875 9.60293C1.6614 12.5374 2.84567 13.0712 4.79245 13.0712Z" fill="var(--fill-0, #AAC658)"/>
<path id="Subtract" d="M4.04662 0.1622C4.04662 0.1622 0.947991 4.51929 4.36076 13.0354C2.63298 12.9373 1.52819 12.2599 0.644407 9.5878C-0.349788 6.58184 -0.436582 2.80538 2.15238 1.00115C2.68732 0.628363 3.31538 0.331247 4.04662 0.1622Z" fill="var(--fill-0, #84AB47)"/>
<path id="Subtract_2" d="M5.30874 13.0353C7.83583 12.8813 9.24649 11.8898 10.2686 9.11262C11.102 6.84819 11.4701 4.17778 9.98629 2.2306C9.2271 1.23434 8.14864 0.561286 7.20473 0.261139C8.82758 2.80343 8.44295 6.28664 7.62529 9.03554C7.0306 11.0349 6.30542 12.2924 5.30874 13.0353Z" fill="var(--fill-0, #6F9239)"/>
</g>
</svg>
