<svg preserveAspectRatio="none" width="100%" height="100%" overflow="visible" style="display: block;" viewBox="0 0 16.4748 9.29678" fill="none" xmlns="http://www.w3.org/2000/svg">
<g id="Group 1532">
<path id="Vector" d="M5.25135 9.2948C5.25135 9.2948 2.57725 9.42603 0.782556 7.55133C-0.635255 6.08907 0.172358 4.68305 0.87229 3.95192C3.56434 3.25828 5.21546 9.10733 5.25135 9.2948Z" fill="var(--fill-0, #84AB47)"/>
<path id="Vector_2" d="M5.25137 9.29466C5.19753 9.12594 3.56435 3.25814 0.854358 3.93303C1.05178 3.72682 1.23125 3.57684 1.35687 3.48311C1.91323 3.05193 3.70793 2.67699 4.7668 4.77665C5.82567 6.85756 5.25137 9.29466 5.25137 9.29466Z" fill="var(--fill-0, #AAC658)"/>
<path id="Vector_3" d="M14.9966 6.61391C12.5737 8.86354 9.16379 8.86354 9.16379 8.86354C11.3533 1.25228 14.9068 0.764862 14.9068 0.764862C15.176 0.952332 15.4093 1.12105 15.5529 1.23354C16.3067 1.90843 17.4194 4.36428 14.9966 6.61391Z" fill="var(--fill-0, #6F9239)"/>
<path id="Vector_4" d="M14.9068 0.764913C14.9068 0.764913 11.3533 1.25233 9.18174 8.86359C9.18174 8.86359 8.08697 5.03922 9.9714 1.796C11.4789 -0.847324 13.7044 -0.00371155 14.9068 0.764913Z" fill="var(--fill-0, #AAC658)"/>
</g>
</svg>
