<svg preserveAspectRatio="none" width="100%" height="100%" overflow="visible" style="display: block;" viewBox="0 0 10.2329 9.14109" fill="none" xmlns="http://www.w3.org/2000/svg">
<g id="Heart">
<path id="Vector" d="M9.55024 4.63451C8.35018 6.62387 5.12712 9.14109 5.12712 9.14109C5.12712 9.14109 2.0476 6.67768 0.707143 4.63451C-0.110394 3.3884 -0.335068 1.85509 0.707143 0.796407C1.74935 -0.265469 3.4351 -0.265469 4.47731 0.796407L5.13026 1.46168L5.78321 0.796407C6.82542 -0.265469 8.51117 -0.265469 9.55338 0.796407C10.5893 1.85509 10.3206 3.35755 9.55024 4.63451Z" fill="var(--fill-0, #FF6CAC)"/>
<path id="Vector 268" d="M2.64672 1.97364C3.72659 1.02822 3.23417 0.0558978 2.48311 0.0115237C1.64011 0.00451172 0.258004 0.658277 0.0305499 2.17522C-0.281717 4.13282 1.88842 6.10031 2.50758 6.76863C0.191779 3.94998 0.700184 2.68725 0.90672 2.20736C0.886103 2.38496 1.7781 2.73411 2.64672 1.97364Z" fill="var(--fill-0, #FFB4D8)"/>
<path id="Vector 270" d="M6.6132 6.43997C8.71172 5.02122 11.124 2.06382 8.70984 0.216014C9.81846 0.682502 10.6931 1.9882 9.95068 3.77058C9.41163 5.50114 6.44932 8.0857 5.13355 9.12838C5.13355 9.12838 4.94611 7.51902 6.6132 6.43997Z" fill="var(--fill-0, #F44892)"/>
</g>
</svg>
