<svg preserveAspectRatio="none" width="100%" height="100%" overflow="visible" style="display: block;" viewBox="0 0 10.4301 16.4257" fill="none" xmlns="http://www.w3.org/2000/svg">
<g id="RightHand">
<g id="Group 1618">
<path id="Rectangle 10213" d="M7.12981 9.45316L4.40225 5.68464C4.18647 5.38652 4.20955 4.97789 4.45751 4.70595C4.75782 4.3766 5.2731 4.36701 5.58546 4.68496L9.03853 8.19982C9.40187 8.56966 9.61006 9.06443 9.62046 9.58279L9.65006 11.0576V16.2633L5.43138 16.1851V12.2093L1.78796 8.39287C1.51967 8.11183 1.33759 7.75975 1.26332 7.37837L0.0152305 0.969157C-0.0788898 0.485831 0.27452 0.0303308 0.766075 0.00141483C1.12623 -0.0197715 1.45733 0.198748 1.57945 0.53823L3.83572 6.81037L7.12981 9.45316Z" fill="var(--fill-0, #F5B586)"/>
<path id="Vector 236" d="M2.10019 7.63131L0.0806015 0.884087C0.387155 2.93068 1.0511 7.18484 1.25443 7.82874C1.45777 8.47264 4.10613 11.0195 5.42021 12.1848L5.35905 16.1227L6.55244 16.2604L6.41474 11.3951L2.10019 7.63131Z" fill="var(--fill-0, #E79C65)"/>
</g>
<path id="Rectangle 10218" d="M4.49824 14.5106C4.55224 13.9871 4.99715 13.5915 5.52337 13.5992L9.42901 13.6558C10.0215 13.6644 10.4809 14.1763 10.4256 14.7663L10.2702 16.424L4.30069 16.4257L4.49824 14.5106Z" fill="var(--fill-0, #956AFF)"/>
</g>
</svg>
