<svg preserveAspectRatio="none" width="100%" height="100%" overflow="visible" style="display: block;" viewBox="0 0 10.4301 16.4258" fill="none" xmlns="http://www.w3.org/2000/svg">
<g id="Left Hand">
<g id="Group 1618">
<path id="Rectangle 10213" d="M7.1298 9.45316L4.40224 5.68464C4.18647 5.38652 4.20954 4.97789 4.4575 4.70595C4.75782 4.3766 5.2731 4.36701 5.58545 4.68496L9.03853 8.19982C9.40187 8.56966 9.61006 9.06443 9.62046 9.58279L9.65005 11.0576V16.2633L5.43138 16.1851V12.2093L1.78796 8.39287C1.51966 8.11183 1.33759 7.75975 1.26332 7.37837L0.0152268 0.969157C-0.0788935 0.485831 0.274516 0.0303308 0.766072 0.00141483C1.12623 -0.0197715 1.45733 0.198748 1.57945 0.53823L3.83571 6.81037L7.1298 9.45316Z" fill="var(--fill-0, #F5B586)"/>
<path id="Vector 236" d="M2.10022 7.63131L0.080628 0.884083C0.387181 2.93068 1.05112 7.18484 1.25446 7.82874C1.4578 8.47264 4.10811 11.0305 5.4222 12.1958L5.35908 16.1227L6.55246 16.2604L6.41476 11.3951L2.10022 7.63131Z" fill="var(--fill-0, #E79C65)"/>
</g>
<path id="Rectangle 10218" d="M4.49824 14.5107C4.55224 13.9872 4.99714 13.5916 5.52337 13.5992L9.42901 13.6558C10.0215 13.6644 10.4809 14.1763 10.4256 14.7663L10.2702 16.424L4.30068 16.4258L4.49824 14.5107Z" fill="var(--fill-0, #956AFF)"/>
</g>
</svg>
