<svg preserveAspectRatio="none" width="100%" height="100%" overflow="visible" style="display: block;" viewBox="0 0 14.3113 13.1435" fill="none" xmlns="http://www.w3.org/2000/svg">
<g id="Group 1315">
<path id="Vector" d="M14.3113 6.52078C14.3113 10.181 11.1104 13.1435 7.15565 13.1435C3.20092 13.1435 0 10.181 0 6.52078C0 6.19723 0.0546233 5.82312 0.16387 5.39845C1.38743 5.00412 3.3211 4.73112 4.68668 5.66134C6.77329 7.087 7.29767 8.02733 9.89774 8.02733C11.7222 8.02733 13.4155 6.814 14.2676 5.98489C14.3004 6.177 14.3113 6.359 14.3113 6.52078Z" fill="var(--fill-0, #E30D76)"/>
<path id="Vector_2" d="M14.2672 5.99587C13.4042 6.82498 11.7218 8.03831 9.89739 8.03831C7.28639 8.03831 6.77293 7.08787 4.68633 5.67232C3.30982 4.73199 1.38708 5.0151 0.163518 5.39932C0.524031 3.9231 1.47448 1.95144 2.56694 0H11.7437C12.9891 2.22444 14.0488 4.47921 14.2672 5.99587Z" fill="var(--fill-0, #CAEFF9)"/>
</g>
</svg>
