<svg preserveAspectRatio="none" width="100%" height="100%" overflow="visible" style="display: block;" viewBox="0 0 10.2668 10.7335" fill="none" xmlns="http://www.w3.org/2000/svg">
<path id="Vector" d="M9.33346 8.96012C6.20002 8.96012 5.97341 5.50674 5.97341 4.38672C5.97341 2.80004 6.90676 1.40002 8.49345 0.373338C7.74677 0.0933346 6.90676 0 6.06675 0C4.76006 0 3.45338 0.186669 2.33336 0.560007C3.54671 1.58669 4.29339 2.89337 4.29339 4.29339C4.29339 5.50674 4.20006 8.86678 0.933346 8.86678C0.373338 8.86678 0 9.24012 0 9.80013C0 10.3601 0.373338 10.7335 0.933346 10.7335H9.33346C9.89346 10.7335 10.2668 10.3601 10.2668 9.80013C10.2668 9.24012 9.89346 8.96012 9.33346 8.96012Z" fill="var(--fill-0, #CAEFF9)"/>
</svg>
