<svg preserveAspectRatio="none" width="100%" height="100%" overflow="visible" style="display: block;" viewBox="0 0 21.0936 17.0991" fill="none" xmlns="http://www.w3.org/2000/svg">
<g id="Front Shoe">
<path id="Vector" d="M5.78026 0.25141C4.51828 0.978381 4.06944 1.61596 2.86519 3.1777C5.94287 4.72861 7.43134 8.27575 7.79086 9.85537C7.79086 9.85537 13.6393 14.1157 14.6581 14.3072C15.6768 14.4986 18.0665 14.7595 19.4759 14.2713C20.8853 13.7831 21.0219 12.7515 20.914 12.2968L16.0963 9.64003L14.0109 3.07003C12.7454 2.46689 11.9735 3.75216 11.7458 4.47019C7.48885 4.26915 7.59102 1.33306 7.5916 0.834063C7.59219 0.335065 6.81976 -0.347399 5.78026 0.25141Z" fill="var(--fill-0, #4291FF)"/>
<path id="Vector_2" d="M13.3268 9.43666L12.7963 7.75137C10.913 7.44724 7.39439 6.57283 6.51028 6.37431C7.14683 7.31809 7.54801 8.55389 7.63641 9.05151C9.59151 9.22783 12.0116 9.35497 13.3268 9.43666Z" fill="var(--fill-0, #70B5FF)"/>
<path id="Vector_3" d="M7.89978 10.0591C10.9271 10.0197 12.7526 10.0983 16.017 10.116C16.7193 10.1197 19.2105 11.8386 19.2458 12.2263C19.2816 12.6182 18.7792 13.4697 15.3638 13.7945C12.77 14.0411 9.9996 11.2572 7.89978 10.0591Z" fill="var(--fill-0, #70B5FF)"/>
<path id="Vector_4" d="M11.7767 4.45503L12.5834 7.0756C10.7543 6.58871 6.58019 5.48597 5.35299 4.87587C4.42649 3.96817 3.39325 3.37991 2.86518 3.17882C3.36514 2.53137 4.42491 0.969706 5.51874 0.305794C6.94378 -0.440392 7.5592 0.354261 7.63215 0.83369C7.50484 3.83399 10.3422 4.49804 11.7767 4.45503Z" fill="var(--fill-0, #70B5FF)"/>
<path id="Vector_5" d="M13.5565 8.37179C13.2789 7.4918 14.9196 7.29189 15.7746 7.30196C16.4507 7.69976 16.3984 8.57275 16.2878 8.95953C15.9557 9.01974 13.9035 9.47182 13.5565 8.37179Z" fill="var(--fill-0, #3D7FE9)"/>
<path id="Vector_6" d="M13.5623 8.33525C13.3191 7.70206 14.306 7.36082 15.5977 7.30166C16.0986 7.54424 16.3384 8.24838 16.0009 8.37811C15.7578 8.47169 14.2312 8.63948 13.5623 8.33525Z" fill="var(--fill-0, #3D7FE9)"/>
<path id="Vector_7" d="M12.7425 5.99022C12.4511 5.06647 14.1734 4.85665 15.0709 4.86721C15.7806 5.28476 15.7256 6.20113 15.6095 6.60711C15.261 6.67038 13.1068 7.14489 12.7425 5.99022Z" fill="var(--fill-0, #3D7FE9)"/>
<path id="Vector_8" d="M12.7228 5.96415C12.4648 5.29258 13.5116 4.93062 14.8816 4.86787C15.4129 5.12521 15.6671 5.87196 15.3092 6.00964C15.0513 6.10881 13.4323 6.28682 12.7228 5.96415Z" fill="var(--fill-0, #3D7FE9)"/>
<path id="Vector_9" d="M2.9368 3.10591C4.42288 3.68034 7.28421 5.99856 7.8195 9.83725L7.81509 9.85441C8.31045 10.2055 13.4898 13.8676 14.5302 14.2402C15.623 14.6315 21.0459 15.0183 20.9171 12.3018C20.9171 12.3018 21.1355 12.9228 21.0864 13.3372C20.9826 14.2132 20.2875 15.5254 19.1042 16.081C17.9208 16.6366 13.455 17.3279 12.7015 17.0254C11.4263 16.5133 8.39658 13.9002 6.98719 12.7801C5.35451 11.5672 1.63407 8.81248 0.223383 7.18971C-0.230471 6.66755 0.0636281 5.97709 0.601822 5.54215C1.21714 5.04488 2.03406 4.25769 2.9368 3.10591Z" fill="var(--fill-0, #3D7FE9)"/>
<path id="Vector_10" d="M2.91998 3.09674C4.40607 3.67118 7.28423 5.99849 7.81952 9.83718L7.81511 9.85435C8.31047 10.2055 13.4898 13.8675 14.5302 14.2401C15.623 14.6315 18.3745 14.6506 19.6803 14.0546C19.4317 14.6777 19.1959 14.9815 18.5338 15.3643C17.3505 15.9199 13.7573 15.8049 13.0039 15.5024C11.7287 14.9904 8.7583 13.1315 7.34893 12.0114C5.41609 10.7403 2.07324 8.74991 0.662546 7.12704C0.208698 6.60497 0.238967 6.16206 0.777161 5.72712C1.39248 5.22985 2.01724 4.24854 2.91998 3.09674Z" fill="var(--fill-0, #3D7FE9)"/>
</g>
</svg>
