<svg preserveAspectRatio="none" width="100%" height="100%" overflow="visible" style="display: block;" viewBox="0 0 19.9997 19.9997" fill="none" xmlns="http://www.w3.org/2000/svg">
<g id="Earth icon">
<circle id="Base" cx="9.99984" cy="9.99984" r="9.99984" fill="var(--fill-0, #BDF2FF)"/>
<path id="Shadow" d="M6.49286 15.9316C12.0156 15.9316 16.4927 11.4545 16.4927 5.93172C16.4927 4.41023 16.1529 2.96811 15.5451 1.6771C18.2307 3.47006 19.9995 6.52834 19.9995 9.99977C19.9995 15.5225 15.5225 19.9996 9.99969 19.9996C5.99842 19.9996 2.54604 17.6496 0.947499 14.2544C2.53446 15.3139 4.44153 15.9316 6.49286 15.9316Z" fill="var(--fill-0, #76DEFF)"/>
<path id="Vector 281" d="M5.44623 8.52041C5.68058 7.74879 6.45266 6.40691 7.66034 6.40692C8.66685 6.40693 8.98464 6.85108 11.2834 7.16172C13.1452 7.41332 12.0382 8.21843 13.6484 9.92934C15.0989 11.4705 12.8936 11.8415 13.1452 13.2505C13.4082 14.7233 12.3459 15.933 11.2331 16.8232C10.2267 17.6283 9.71477 15.5819 9.27059 14.5085C8.66674 13.0492 9.67315 10.8854 7.71063 11.137C5.79773 11.3823 5.00743 9.96519 5.44623 8.52041Z" fill="var(--fill-0, #3DD8B0)"/>
<path id="Vector 282" d="M8.04131 2.32065C9.52744 2.24634 10.3868 0.752916 10.6191 0.0253296C16.5486 0.35562 19.3413 5.33061 19.813 8.07566C17.8624 9.70112 17.9798 7.80077 17.3296 7.19703C16.6794 6.59329 16.3544 6.87194 15.1933 8.40451C14.0323 9.93709 13.5214 6.77905 12.3139 5.66445C11.1064 4.54985 9.75965 4.96783 7.06603 5.3858C4.37241 5.80378 6.18364 2.41353 8.04131 2.32065Z" fill="var(--fill-0, #3DD8B0)"/>
<path id="Vector 283" d="M3.70927 5.18136C4.83838 4.0052 3.84649 3.06427 3.23881 2.65261C1.00248 4.62892 0.239592 7.41607 0.12198 8.53343C2.29788 11.3562 2.29787 6.65156 3.70927 5.18136Z" fill="var(--fill-0, #3DD8B0)"/>
<path id="Vector 284" d="M3.84852 17.8752C1.18988 16.0411 0.143457 12.4781 0.0908203 11.2061C2.12812 9.9375 2.30283 12.0382 3.77482 12.1948C5.51402 12.3798 4.88541 13.396 5.12548 13.9525C5.93957 15.8397 4.70276 14.9873 4.25588 16.0062C3.79332 17.0608 4.07532 17.2414 3.84852 17.8752Z" fill="var(--fill-0, #3DD8B0)"/>
<path id="Vector 285" d="M14.5147 16.444C15.2275 16.9379 15.8988 15.0224 16.1453 14.0029C16.605 11.8461 14.4265 12.8525 14.5473 14.113C14.6681 15.3735 13.6236 15.8266 14.5147 16.444Z" fill="var(--fill-0, #1FB18E)"/>
<path id="Vector 286" d="M16.4376 7.00825C16.6469 4 15.7979 2.10023 15.4688 1.5921C18.5211 3.71455 19.4597 6.37132 19.834 8.08273C19.3272 8.5732 18.2383 9.30564 17.9375 8.31161C17.6367 7.31758 16.9781 6.66796 16.4376 7.00825Z" fill="var(--fill-0, #1FB18E)"/>
<path id="Vector 287" d="M13.1747 13.3916C12.053 14.4704 10.3368 15.2008 9.61891 15.4312C10.0664 16.4666 10.3737 17.7739 11.6655 16.5054C12.7413 15.449 13.255 14.6349 13.1747 13.3916Z" fill="var(--fill-0, #1FB18E)"/>
<path id="Vector 288" d="M4.43398 15.7185C2.9636 15.4298 1.59408 14.6836 0.953125 14.2642C2.03607 16.5475 3.22558 17.3935 3.83884 17.874C3.91546 17.7098 3.93229 17.6174 3.97316 16.9871C3.99902 16.5884 4.23767 15.9417 4.43398 15.7185Z" fill="var(--fill-0, #1FB18E)"/>
</g>
</svg>
