<svg preserveAspectRatio="none" width="100%" height="100%" overflow="visible" style="display: block;" viewBox="0 0 20 21" fill="none" xmlns="http://www.w3.org/2000/svg">
<g id="Extra Chellenge Icon">
<circle id="Shadow" cx="10" cy="11" r="10" fill="var(--fill-0, #CC0D6E)"/>
<circle id="Bubble" cx="10" cy="10" r="10" fill="var(--fill-0, #F43E8E)"/>
<g id="Level">
<path id="Vector" d="M12.3568 7.75L11.7768 8.14C11.6868 8.21 11.5768 8.25 11.4468 8.25C11.1468 8.25 10.8968 8 10.8968 7.7C10.8968 7.5 10.9968 7.33 11.1368 7.24L12.5768 6.31C12.6868 6.24 12.7768 6.19 12.9268 6.19C13.2368 6.19 13.4968 6.45 13.4968 6.76V12.51C13.4968 12.82 13.2368 13.08 12.9268 13.08C12.6168 13.08 12.3568 12.82 12.3568 12.51V7.75Z" fill="var(--fill-0, #FFD600)"/>
<path id="Vector_2" d="M10.3481 10.82C10.3481 11.07 10.1381 11.28 9.88807 11.28H8.55807V12.6C8.55807 12.86 8.33807 13.08 8.07807 13.08C7.81807 13.08 7.59807 12.86 7.59807 12.6V11.28H6.26807C6.01807 11.28 5.80807 11.07 5.80807 10.82C5.80807 10.57 6.01807 10.36 6.26807 10.36H7.59807V9.03C7.59807 8.77 7.81807 8.55 8.07807 8.55C8.33807 8.55 8.55807 8.77 8.55807 9.03V10.36H9.88807C10.1381 10.36 10.3481 10.57 10.3481 10.82Z" fill="var(--fill-0, #FFD600)"/>
</g>
</g>
</svg>
