<svg preserveAspectRatio="none" width="100%" height="100%" overflow="visible" style="display: block;" viewBox="0 0 21 19.2939" fill="none" xmlns="http://www.w3.org/2000/svg">
<g id="FAQ icon">
<path id="Rectangle 10987" d="M1 8C1 3.58172 4.58172 0 9 0H13C17.4183 0 21 3.58172 21 8V8C21 12.4183 17.4183 16 13 16H9C4.58172 16 1 12.4183 1 8V8Z" fill="var(--fill-0, #F7B7D6)"/>
<path id="Union" d="M8 0C3.58172 0 0 3.58172 0 8C0 12.4183 3.58172 16 8 16H9L12.1464 19.1464C12.4614 19.4614 13 19.2383 13 18.7929V15.9381C16.9463 15.446 20 12.0796 20 8C20 3.58172 16.4183 0 12 0H8Z" fill="var(--fill-0, #FF65A9)"/>
<g id="?! (Stroke)">
<path d="M9.77584 9.85214C9.51942 9.85214 9.30317 9.75401 9.14018 9.59247C8.7775 9.24337 8.63902 8.82068 8.63902 8.43756C8.63902 7.55643 9.33599 7.10424 9.86101 6.76973L9.92656 6.72803C10.1824 6.56539 10.402 6.42583 10.5673 6.26612C10.7372 6.10206 10.8226 5.94188 10.8226 5.74484C10.8226 5.54915 10.753 5.41985 10.6357 5.33092C10.5076 5.23378 10.2917 5.16231 9.96719 5.16231C9.69497 5.16231 9.50294 5.23038 9.38352 5.33138C9.27118 5.4264 9.19055 5.57772 9.19055 5.82337C9.19055 6.31622 8.78233 6.72185 8.2901 6.72185C7.79787 6.72185 7.38965 6.31622 7.38965 5.82337C7.38965 5.118 7.62781 4.52547 8.09177 4.11254C8.55142 3.70345 9.19954 3.5 9.96719 3.5C10.7505 3.5 11.4108 3.68597 11.8802 4.07531C12.3572 4.47101 12.601 5.047 12.601 5.74484C12.601 6.79215 11.9633 7.35143 11.3963 7.71395C11.2606 7.80067 11.1256 7.87838 11.0044 7.94817L10.9904 7.95621C10.8626 8.02974 10.7539 8.09279 10.6627 8.15409C10.4567 8.29261 10.4512 8.35238 10.4512 8.35902C10.4512 8.3633 10.4515 8.36468 10.4515 8.36468C10.4515 8.36468 10.452 8.36719 10.4546 8.37306C10.4611 8.38795 10.4755 8.41377 10.5126 8.46658L10.5162 8.47186C10.6153 8.61991 10.665 8.78672 10.665 8.96488C10.665 9.53205 10.1805 9.85214 9.77584 9.85214Z" fill="var(--fill-0, white)"/>
<path d="M10.4815 12.2407C10.2869 12.4302 10.0216 12.5 9.74208 12.5C9.4626 12.5 9.1961 12.4303 8.99929 12.2428C8.80003 12.0531 8.71781 11.7863 8.71781 11.4893C8.71781 11.1886 8.79897 10.9178 8.99583 10.7237C9.19193 10.5304 9.45935 10.4562 9.74208 10.4562C10.0249 10.4562 10.2911 10.5305 10.4849 10.726C10.6784 10.921 10.7551 11.1917 10.7551 11.4893C10.7551 11.783 10.6775 12.0498 10.4815 12.2407Z" fill="var(--fill-0, white)"/>
</g>
</g>
</svg>
