<svg preserveAspectRatio="none" width="100%" height="100%" overflow="visible" style="display: block;" viewBox="0 0 16.9432 20.891" fill="none" xmlns="http://www.w3.org/2000/svg">
<g id="Flame">
<path id="Vector" d="M13.5772 5.6559C13.5772 5.6449 13.5662 5.6449 13.5772 5.6559C13.5332 5.6229 13.4892 5.5899 13.4562 5.5679C10.6512 3.5329 9.50719 3.2579 10.0132 0.8819C10.1452 0.2769 9.49619 -0.2071 8.95719 0.0899002C7.16419 1.0799 5.56919 2.6309 4.81019 4.7759C4.52419 5.5899 4.35919 6.4809 4.34819 7.4599C4.33719 8.2519 3.21519 8.3729 3.02819 7.6029C3.02819 7.5809 3.01719 7.5699 3.01719 7.5479C2.87419 6.9539 2.10419 6.7889 1.74119 7.2729C0.608187 8.7469 -0.051813 10.6059 0.00318698 12.6299C0.113187 17.2169 3.91919 20.9129 8.50619 20.8909C13.1702 20.8689 16.9432 17.0849 16.9432 12.4209C16.9432 9.6489 15.6232 7.1959 13.5772 5.6559Z" fill="var(--fill-0, #FFBF00)"/>
<path id="Vector_2" d="M13.0274 10.9798L13.0054 10.9468C12.9064 10.8258 12.7964 10.7048 12.6754 10.5948L12.6534 10.5728L9.06739 6.98683C8.73739 6.65683 8.18739 6.65683 7.85739 6.98683L4.55739 10.3308L4.53539 10.3528C4.31539 10.5398 4.11739 10.7378 3.93039 10.9578L3.90839 10.9798C2.98439 12.0578 2.43439 13.4658 2.46739 15.0058C2.53339 18.1628 5.08539 20.7588 8.24239 20.8798C11.6634 21.0118 14.4794 18.2728 14.4794 14.8848C14.4794 13.3998 13.9294 12.0358 13.0274 10.9798Z" fill="var(--fill-0, #FFE200)"/>
<path id="Vector_3" d="M8.4733 20.8908C8.4293 20.8908 8.3853 20.8908 8.3413 20.8908C6.6033 20.8248 5.2063 19.4058 5.1733 17.6568C5.1513 16.8428 5.4373 16.0618 5.9653 15.4458L5.9763 15.4348C6.0753 15.3138 6.1853 15.2038 6.3063 15.1048L6.3283 15.0938L7.8793 13.5428C8.2093 13.2128 8.7593 13.2018 9.0893 13.5428L10.7833 15.2258L10.7943 15.2368C10.8493 15.2918 10.9153 15.3578 10.9703 15.4238L10.9813 15.4458C11.4983 16.0398 11.7733 16.7988 11.7733 17.5908C11.7733 18.7348 11.2013 19.7798 10.1893 20.4178C9.6723 20.7368 9.0783 20.8908 8.4733 20.8908Z" fill="var(--fill-0, #FFF3DB)"/>
</g>
</svg>
