<svg preserveAspectRatio="none" width="100%" height="100%" overflow="visible" style="display: block;" viewBox="0 0 9.74032 8.83537" fill="none" xmlns="http://www.w3.org/2000/svg">
<g id="Group 4164">
<path id="Vector 2243" d="M9.6482 2.39501C9.0813 -0.999486 5.04846 -0.259425 4.16784 1.50268C0.780463 0.538509 -0.530411 3.19239 0.192465 5.13819C0.8725 6.96867 3.29442 9.7581 5.79753 8.14661C8.78072 8.36345 10.1185 5.21083 9.6482 2.39501Z" fill="var(--fill-0, #FF8686)"/>
<path id="Vector 2244" d="M9.64828 2.39479C9.46426 0.308576 7.4283 -0.123617 6.71715 0.0273148C7.43983 0.151808 7.86221 1.25103 7.27027 2.16042C6.5957 3.19675 4.30098 5.51985 0.108529 4.84518C0.867077 8.04632 4.9843 8.83536 4.9843 8.83536C4.9843 8.83536 10.2192 5.19263 9.64828 2.39479Z" fill="var(--fill-0, #FB4848)"/>
</g>
</svg>
