<svg preserveAspectRatio="none" width="100%" height="100%" overflow="visible" style="display: block;" viewBox="0 0 20.0043 12.3762" fill="none" xmlns="http://www.w3.org/2000/svg">
<g id="Group 4169">
<g id="Group 4158">
<path id="Rectangle 10704" d="M10.8776 0.139488H19.0121V10.754C19.0121 11.6499 18.3021 12.3762 17.4262 12.3762H12.4635C11.5876 12.3762 10.8776 11.6499 10.8776 10.754V0.139488Z" fill="var(--fill-0, #DA9A5E)"/>
<path id="Rectangle 10703" d="M0.992493 0.139487H15.6702V10.4136C15.6702 11.4975 14.8112 12.3762 13.7515 12.3762H2.91122C1.85154 12.3762 0.992493 11.4975 0.992493 10.4136V0.139487Z" fill="var(--fill-0, #F4BC87)"/>
</g>
<path id="donation" fill-rule="evenodd" clip-rule="evenodd" d="M8.34926 4.70973C7.56244 3.89349 6.27491 3.93059 5.52385 4.82104C4.84433 5.63728 4.95162 6.89874 5.66691 7.64077L7.95585 10.0524C8.17043 10.275 8.52808 10.275 8.7069 10.0524L10.9958 7.64077C11.7111 6.86164 11.8184 5.63728 11.1389 4.82104C10.4236 3.93059 9.13608 3.89349 8.34926 4.70973Z" fill="var(--fill-0, #FFE4CA)"/>
<path id="Rectangle 10706" d="M14.8389 1.0061C14.8389 0.450445 15.2524 0 15.7625 0H19.0807C19.5908 0 20.0043 0.450445 20.0043 1.0061C20.0043 1.56175 19.5908 2.01219 19.0807 2.01219H15.7625C15.2524 2.01219 14.8389 1.56175 14.8389 1.0061Z" fill="var(--fill-0, #BB793B)"/>
<path id="Rectangle 10705" d="M0 1.0061C0 0.450445 0.442554 0 0.988473 0H15.5115C16.0574 0 16.5 0.450445 16.5 1.0061C16.5 1.56175 16.0574 2.01219 15.5115 2.01219H0.988473C0.442554 2.01219 0 1.56175 0 1.0061Z" fill="var(--fill-0, #DA9A5E)"/>
</g>
</svg>
