<svg preserveAspectRatio="none" width="100%" height="100%" overflow="visible" style="display: block;" viewBox="0 0 13.2904 16.6211" fill="none" xmlns="http://www.w3.org/2000/svg">
<g id="Group 4170">
<path id="Rectangle 10706" d="M5.5404 2.03818C6.68716 0.0891354 9.22696 -0.578654 11.2132 0.546629C13.1995 1.67191 13.88 4.16415 12.7332 6.1132L7.74991 14.5829C6.60315 16.532 4.06335 17.1997 2.0771 16.0745C0.0908535 14.9492 -0.589685 12.4569 0.557075 10.5079L5.5404 2.03818Z" fill="var(--fill-0, #FFC42D)"/>
<path id="Rectangle 10707" d="M11.2756 5.08542C12.4224 3.13637 12.2145 1.38931 11.2133 0.546653C13.1996 1.67194 13.8801 4.16418 12.7333 6.11323L7.75003 14.5829C7.52398 14.9671 7.24382 15.3015 6.92444 15.5822C5.84902 16.5274 5.56876 14.8212 6.29061 13.5944L-nan -nanCnan nan nan nan nan nanLnan nanCnan nan nan nan nan nanL6.29061 13.5944L11.2756 5.08542Z" fill="var(--fill-0, #FFA41A)"/>
<g id="Vector">
<path fill-rule="evenodd" clip-rule="evenodd" d="M6.7385 5.70812C6.14102 5.77811 5.66797 5.91116 5.48327 5.97913C5.1345 6.10748 4.74575 5.93409 4.61495 5.59186C4.48416 5.24963 4.66086 4.86815 5.00962 4.73981C5.30362 4.63162 5.88287 4.47534 6.57862 4.39384C7.2744 4.31235 8.13409 4.29985 8.96629 4.51638C9.32633 4.61006 9.54081 4.9724 9.44535 5.3257C9.34988 5.679 8.98062 5.88946 8.62058 5.79578C8.01041 5.63702 7.33594 5.63814 6.7385 5.70812Z" fill="var(--fill-0, #FFE49E)"/>
<path fill-rule="evenodd" clip-rule="evenodd" d="M8.47239 3.06479C7.91475 3.07458 7.46184 3.15387 7.28462 3.22173C6.93762 3.3546 6.54655 3.18629 6.41115 2.84579C6.27574 2.50529 6.44727 2.12155 6.79427 1.98868C7.19219 1.83631 7.83276 1.75219 8.44826 1.74139C9.06862 1.7305 9.80063 1.79106 10.3708 2.015C10.7166 2.15081 10.8848 2.53599 10.7464 2.87533C10.6079 3.21467 10.2154 3.37965 9.8696 3.24384C9.54598 3.11674 9.02518 3.05508 8.47239 3.06479Z" fill="var(--fill-0, #FFE49E)"/>
</g>
</g>
</svg>
