<svg preserveAspectRatio="none" width="100%" height="100%" overflow="visible" style="display: block;" viewBox="0 0 24 19.0002" fill="none" xmlns="http://www.w3.org/2000/svg">
<g id="Leaves">
<path id="Vector" fill-rule="evenodd" clip-rule="evenodd" d="M9.16551 13.7395C9.14468 14.1858 9.08219 14.6108 9.0197 14.9721C6.14506 7.57676 0 7.66176 0 7.66176C0 7.66176 5.04103 5.94044 7.97816 8.93682C9.08219 10.0631 9.26966 12.1245 9.16551 13.7395Z" fill="var(--fill-0, #4EC28A)"/>
<path id="Vector_2" fill-rule="evenodd" clip-rule="evenodd" d="M12.47 9.80567C12.2611 10.0376 12.0522 10.2485 11.8642 10.4594C11.8224 10.5016 11.7807 10.5437 11.7389 10.5859L11.718 10.607C12.9713 1.32851 8.35508 0 8.35508 0C8.35508 0 12.9922 -4.02212e-07 14.2454 3.39508C15.248 6.32624 13.8903 8.2452 12.47 9.80567Z" fill="var(--fill-0, #4EC28A)"/>
<path id="Vector_3" fill-rule="evenodd" clip-rule="evenodd" d="M24 11.1552C21.201 12.1674 21.2846 13.264 18.0052 13.9599C15.624 14.4238 13.9112 13.5592 13.1593 13.0531C17.8172 8.75127 24 11.1552 24 11.1552Z" fill="var(--fill-0, #4EC28A)"/>
<path id="Vector_4" fill-rule="evenodd" clip-rule="evenodd" d="M24 11.1557C24 11.1557 17.8172 8.77281 13.1593 13.0536C13.0966 13.1168 13.0131 13.159 12.9504 13.2223C12.1149 13.9392 11.0705 15.0147 10.235 16.4697C10.2141 16.4908 10.2141 16.5119 10.1932 16.533C9.94256 17.3343 9.77546 18.0724 9.67102 18.7261C9.65013 18.8948 9.50392 19.0002 9.3577 19.0002H9.33681C9.16971 18.9791 9.0235 18.8315 9.04439 18.6628C9.12794 17.25 8.87728 16.1745 8.58486 15.4154C8.25065 15.2045 7.51958 14.9303 5.91123 14.8249C3.82245 14.6562 2.48564 12.927 2.02611 11.4298C2.00522 11.3455 1.98433 11.2611 1.94256 11.1557C1.69191 10.3122 1.25326 8.7728 0.334204 7.92931C0.229765 7.82387 0.125326 7.73952 0 7.67626C0 7.67626 6.16188 7.61299 9.0235 14.9514C9.04438 14.9725 9.04439 15.0147 9.06527 15.0569C9.10705 15.1412 9.12794 15.2256 9.16971 15.3099C9.29504 15.6684 9.42036 16.1112 9.50392 16.5963C9.5248 16.4908 9.56658 16.4065 9.58747 16.301V16.2799C10.4856 14.0868 10.9243 12.0835 11.1332 10.5231C10.7363 9.63739 10.1305 8.96259 9.5248 8.2878C8.31331 6.95929 7.16449 5.69404 7.97911 2.99484C8.45953 1.37111 8.39687 0.0215088 8.39687 0.0215088C8.39687 0.0215088 13.0131 1.37111 11.7598 10.6285C11.6136 11.704 11.3629 12.9692 10.9243 14.361C11.4674 13.7073 12.0104 13.1801 12.4909 12.7794C12.5744 12.7162 12.6371 12.6529 12.6997 12.5896C12.6997 12.5896 12.6997 12.5896 12.6997 12.5685C12.7833 12.3577 12.9504 11.957 13.1802 11.4931C13.2428 11.3455 13.3264 11.1979 13.4099 11.0503C14.5796 8.79389 17.0862 7.92931 19.5718 8.35106C22.4125 8.79389 24 11.1557 24 11.1557Z" fill="var(--fill-0, #30895E)"/>
</g>
</svg>
