<svg preserveAspectRatio="none" width="100%" height="100%" overflow="visible" style="display: block;" viewBox="0 0 18 16" fill="none" xmlns="http://www.w3.org/2000/svg">
<g id="Gift Box">
<path id="Rectangle 10624" d="M1 2H17V14C17 15.1046 16.1046 16 15 16H3C1.89543 16 1 15.1046 1 14V2Z" fill="var(--fill-0, #FAC118)"/>
<path id="Rectangle 10625" d="M1 2H16V14C16 15.1046 15.1046 16 14 16H3C1.89543 16 1 15.1046 1 14V2Z" fill="var(--fill-0, #FFE242)"/>
<path id="Vector" d="M17.1 2H0.9C0.402944 2 0 2.44772 0 3V5C0 5.55228 0.402944 6 0.9 6H17.1C17.5971 6 18 5.55228 18 5V3C18 2.44772 17.5971 2 17.1 2Z" fill="var(--fill-0, #FAC118)"/>
<path id="Vector_2" d="M16.15 2H0.85C0.380558 2 0 2.44772 0 3V5C0 5.55228 0.380558 6 0.85 6H16.15C16.6194 6 17 5.55228 17 5V3C17 2.44772 16.6194 2 16.15 2Z" fill="var(--fill-0, #FFE242)"/>
<path id="Vector_3" d="M7 6H1V7H7V6Z" fill="var(--fill-0, #FAC118)"/>
<path id="Vector_4" d="M17 6H10V7H17V6Z" fill="var(--fill-0, #FAC118)"/>
<path id="Vector_5" d="M7 2C7 1.46957 7.21071 0.960858 7.58578 0.585785C7.96086 0.210712 8.46957 0 9 0C9.53043 0 10.0391 0.210712 10.4142 0.585785C10.7893 0.960858 11 1.46957 11 2H7Z" fill="var(--fill-0, #E30D76)"/>
<path id="Vector_6" d="M11 2H7V6H11V2Z" fill="var(--fill-0, #F43E8E)"/>
<path id="Vector_7" d="M11 6H7V16H11V6Z" fill="var(--fill-0, #F43E8E)"/>
<path id="Vector_8" d="M11 6H7V7H11V6Z" fill="var(--fill-0, #E30D76)"/>
</g>
</svg>
