<svg preserveAspectRatio="none" width="100%" height="100%" overflow="visible" style="display: block;" viewBox="0 0 16.1231 5.72335" fill="none" xmlns="http://www.w3.org/2000/svg">
<g id="bow">
<path id="Vector" d="M8.01771 4.66929C7.73771 3.18929 10.8377 0.519286 13.1177 0.0892857C13.4784 -0.0128608 13.8583 -0.0275974 14.2258 0.0462864C14.5934 0.12017 14.938 0.280551 15.2313 0.514151C15.5245 0.747752 15.7578 1.04784 15.912 1.38958C16.0661 1.73132 16.1367 2.10487 16.1177 2.47929C16.2277 4.03928 14.6577 4.88928 12.3677 5.31928C10.0777 5.74928 8.29771 6.10929 8.01771 4.66929Z" fill="var(--fill-0, #F43E8E)"/>
<path id="Vector_2" d="M8.91734 5.23923C8.78734 4.54923 11.3574 3.09922 13.1574 2.75922C14.9574 2.41922 15.3873 3.13922 15.3873 3.75922C15.3873 4.37922 14.1074 4.98923 12.3074 5.32923C10.5074 5.66923 9.04734 5.93923 8.91734 5.23923Z" fill="var(--fill-0, #E30D76)"/>
<path id="Vector_3" d="M8.15543 4.68794C8.43543 3.19794 5.33542 0.537939 3.05542 0.107939C2.69235 -0.00607493 2.30702 -0.0301977 1.93256 0.0376263C1.5581 0.10545 1.2057 0.263197 0.905674 0.497313C0.605651 0.731429 0.366992 1.0349 0.210178 1.38165C0.0533651 1.7284 -0.0169028 2.10804 0.00543595 2.48794C-0.104564 4.04794 1.46544 4.89796 3.75544 5.32796C6.04544 5.75796 7.87543 6.15794 8.15543 4.68794Z" fill="var(--fill-0, #F43E8E)"/>
<path id="Vector_4" d="M7.25565 5.28792C7.38565 4.58792 4.81566 3.13792 3.01566 2.79792C1.21566 2.45792 0.785645 3.17792 0.785645 3.79792C0.785645 4.53792 2.06566 5.03792 3.86566 5.37792C5.66566 5.71792 7.12565 5.97792 7.25565 5.28792Z" fill="var(--fill-0, #E30D76)"/>
</g>
</svg>
