<svg preserveAspectRatio="none" width="100%" height="100%" overflow="visible" style="display: block;" viewBox="0 0 16.7997 19.9883" fill="none" xmlns="http://www.w3.org/2000/svg">
<g id="Glass">
<path id="Rectangle 10937" d="M2.68259 12.49C2.68259 12.49 5.25964 9.79283 8.50526 12.49C11.7509 15.1872 14.3279 12.49 14.3279 12.49L13.0076 18.7851H4.00288L2.68259 12.49Z" fill="var(--fill-0, #6BDCFF)"/>
<path id="Rectangle 10936 (Stroke)" fill-rule="evenodd" clip-rule="evenodd" d="M0.230535 4.25793C0.420519 4.02904 0.702543 3.89661 1.00001 3.89661H15.7997C16.0972 3.89661 16.3792 4.02904 16.5692 4.25793C16.7591 4.48682 16.8374 4.78841 16.7826 5.08079L14.142 19.1725C14.0534 19.6455 13.6404 19.9883 13.1591 19.9883H3.64058C3.15933 19.9883 2.74633 19.6455 2.65769 19.1725L0.0171156 5.08079C-0.0376713 4.78841 0.0405502 4.48682 0.230535 4.25793ZM2.2048 5.89661L4.4706 17.9883H12.3291L14.5949 5.89661H2.2048Z" fill="var(--fill-0, #6BDCFF)"/>
<path id="Subtract" d="M12.2436 5.95756C12.2436 8.07586 10.5264 9.79308 8.40808 9.79308C6.28978 9.79308 4.57256 8.07586 4.57256 5.95756C4.57256 3.83926 8.40808 1.57356e-05 8.40808 1.57356e-05C8.40808 1.57356e-05 12.2436 3.83926 12.2436 5.95756Z" fill="var(--fill-0, #2FBEFF)"/>
<path id="Ellipse 424" d="M7.6225 5.80319C7.42174 6.50746 6.87258 6.97141 6.39591 6.83946C5.91925 6.70752 5.69558 6.02963 5.89635 5.32536C6.09711 4.62109 6.64627 4.15714 7.12294 4.28909C7.5996 4.42104 7.82327 5.09892 7.6225 5.80319Z" fill="var(--fill-0, #FAFDFE)"/>
<g id="Vector">
<path d="M8.07365 14.4675C6.81789 12.3927 4.57285 12.8921 3.64002 13.5104L4.46824 17.9679H11.6395C10.3811 17.9679 9.26416 17.1793 8.78683 16.015C8.52995 15.3885 8.26095 14.7769 8.07365 14.4675Z" fill="#A3F5FF"/>
</g>
</g>
</svg>
