<svg preserveAspectRatio="none" width="100%" height="100%" overflow="visible" style="display: block;" viewBox="0 0 20.4043 21.2576" fill="none" xmlns="http://www.w3.org/2000/svg">
<g id="Gloves icon">
<path id="Vector 1766" d="M13.6431 2.12157C14.0725 3.15878 13.9454 3.94296 13.553 4.99473C13.1013 6.20539 11.349 10.0815 9.93672 13.3409C8.52449 16.6003 8.01345 17.4079 8.01345 17.4079L1.33537 14.0604L3.8679 9.3927C3.8679 9.3927 3.8194 6.55169 3.53018 4.24307C3.40051 3.20802 4.31893 1.64719 5.4827 3.15476C5.84581 4.05265 6.24521 5.13941 6.24521 5.13941C6.24521 5.13941 7.67301 2.12224 8.23587 1.23956C8.72309 0.475505 9.32337 0.164897 10.2205 0.0372686C10.9959 -0.0730337 11.5014 0.061102 12.184 0.445069C12.9405 0.870603 13.3111 1.31965 13.6431 2.12157Z" fill="var(--fill-0, #028989)"/>
<path id="Rectangle 10220" d="M10.4071 15.7747C10.6812 15.2068 10.4431 14.5241 9.87512 14.2499L2.97489 10.9188C2.40692 10.6446 1.72422 10.8828 1.45004 11.4508L0.113823 14.2187C-0.160362 14.7867 0.0777969 15.4694 0.645764 15.7435L7.54599 19.0746C8.11396 19.3488 8.79666 19.1106 9.07084 18.5427L10.4071 15.7747Z" fill="var(--fill-0, #D37132)"/>
<path id="Vector 1766_2" d="M19.5959 5.58037C19.7422 6.69338 19.4165 7.41793 18.7652 8.3323C18.0156 9.3848 15.3198 12.6753 13.1121 15.4581C10.9044 18.2409 10.2017 18.8888 10.2017 18.8888L4.61756 13.9269L8.27189 10.0737C8.27189 10.0737 8.96035 7.31698 9.2785 5.01217C9.42114 3.97883 10.7122 2.70888 11.4462 4.46629C11.5645 5.42757 11.669 6.58067 11.669 6.58067C11.669 6.58067 13.8291 4.03585 14.6012 3.32892C15.2696 2.717 15.9298 2.57234 16.8294 2.68126C17.6069 2.77539 18.0605 3.03581 18.6205 3.58336C19.241 4.19018 19.4827 4.71984 19.5959 5.58037Z" fill="var(--fill-0, #37C4A0)"/>
<path id="Rectangle 10220_2" d="M12.9364 17.9308C13.3483 17.4531 13.2949 16.732 12.8173 16.3202L7.01432 11.3167C6.53667 10.9049 5.8156 10.9582 5.40375 11.4359L3.39667 13.7637C2.98483 14.2413 3.03818 14.9624 3.51583 15.3742L9.31879 20.3777C9.79644 20.7895 10.5175 20.7362 10.9294 20.2585L12.9364 17.9308Z" fill="var(--fill-0, #DA8751)"/>
</g>
</svg>
