<svg preserveAspectRatio="none" width="100%" height="100%" overflow="visible" style="display: block;" viewBox="0 0 20 17" fill="none" xmlns="http://www.w3.org/2000/svg">
<g id="GP Details Active icon">
<path id="Rectangle 1084 (Stroke)" fill-rule="evenodd" clip-rule="evenodd" d="M6 1.86845C6 0.836535 6.89543 0 8 0H12C13.1046 0 14 0.836535 14 1.86845V5.06577C14 5.58173 13.5523 6 13 6C12.4477 6 12 5.58173 12 5.06577V2.86845C12 2.31617 11.5523 1.86845 11 1.86845L9 1.86845C8.44772 1.86845 8 2.31617 8 2.86845V5.06577C8 5.58173 7.55228 6 7 6C6.44772 6 6 5.58173 6 5.06577V1.86845Z" fill="var(--fill-0, #FF7A7A)"/>
<path id="Rectangle 10992" d="M2 6C2 4.89543 2.89543 4 4 4H18C19.1046 4 20 4.89543 20 6V15C20 16.1046 19.1046 17 18 17H4C2.89543 17 2 16.1046 2 15V6Z" fill="var(--fill-0, #FF7A7A)"/>
<path id="Rectangle 10991" d="M0 6C0 4.89543 0.895431 4 2 4H16C17.1046 4 18 4.89543 18 6V15C18 16.1046 17.1046 17 16 17H2C0.89543 17 0 16.1046 0 15V6Z" fill="var(--fill-0, #FAD4D4)"/>
<path id="Vector (Stroke)" fill-rule="evenodd" clip-rule="evenodd" d="M9.00026 6.5C8.43331 6.5 7.97371 6.9596 7.97371 7.52655V9.47312H6.02655C5.4596 9.47312 5 9.93272 5 10.4997C5 11.0666 5.4596 11.5262 6.02655 11.5262H7.97371V13.4735C7.97371 14.0404 8.43331 14.5 9.00026 14.5C9.56721 14.5 10.0268 14.0404 10.0268 13.4735V11.5262L11.9735 11.5262C12.5404 11.5262 13 11.0666 13 10.4997C13 9.93272 12.5404 9.47312 11.9735 9.47312L10.0268 9.47312V7.52655C10.0268 6.9596 9.56721 6.5 9.00026 6.5Z" fill="var(--fill-0, #FB4848)"/>
</g>
</svg>
