<svg preserveAspectRatio="none" width="100%" height="100%" overflow="visible" style="display: block;" viewBox="0 0 20 20" fill="none" xmlns="http://www.w3.org/2000/svg">
<g id="Height icon">
<g id="Group 6109">
<path id="Vector" d="M17.5001 1H13.0001V18H17.5001V1Z" fill="var(--fill-0, #FFD600)"/>
<path id="Vector (Stroke)" fill-rule="evenodd" clip-rule="evenodd" d="M13.0001 3H15.9379C16.2312 3 16.469 3.22386 16.469 3.5C16.469 3.77614 16.2312 4 15.9379 4H13.0001V3Z" fill="var(--fill-0, #FFB803)"/>
<path id="Vector (Stroke)_2" fill-rule="evenodd" clip-rule="evenodd" d="M13.0001 7H15.9379C16.2312 7 16.469 7.22386 16.469 7.5C16.469 7.77614 16.2312 8 15.9379 8H13.0001V7Z" fill="var(--fill-0, #FFB803)"/>
<path id="Vector (Stroke)_3" fill-rule="evenodd" clip-rule="evenodd" d="M13.0001 11H15.9379C16.2312 11 16.469 11.2239 16.469 11.5C16.469 11.7761 16.2312 12 15.9379 12H13.0001V11Z" fill="var(--fill-0, #FFB803)"/>
<path id="Vector (Stroke)_4" fill-rule="evenodd" clip-rule="evenodd" d="M13.0001 15H15.9379C16.2312 15 16.469 15.2239 16.469 15.5C16.469 15.7761 16.2312 16 15.9379 16H13.0001V15Z" fill="var(--fill-0, #FFB803)"/>
<path id="Vector (Stroke)_5" fill-rule="evenodd" clip-rule="evenodd" d="M13.0001 5H13.9379C14.2312 5 14.469 5.22386 14.469 5.5C14.469 5.77614 14.2312 6 13.9379 6H13.0001V5Z" fill="var(--fill-0, #FFB803)"/>
<path id="Vector (Stroke)_6" fill-rule="evenodd" clip-rule="evenodd" d="M13.0001 9H13.9379C14.2312 9 14.469 9.22386 14.469 9.5C14.469 9.77614 14.2312 10 13.9379 10H13.0001V9Z" fill="var(--fill-0, #FFB803)"/>
<path id="Vector (Stroke)_7" fill-rule="evenodd" clip-rule="evenodd" d="M13.0001 13H13.9379C14.2312 13 14.469 13.2239 14.469 13.5C14.469 13.7761 14.2312 14 13.9379 14H13.0001V13Z" fill="var(--fill-0, #FFB803)"/>
<path id="Vector (Stroke)_8" fill-rule="evenodd" clip-rule="evenodd" d="M13.0001 17H13.9379C14.2312 17 14.469 17.2239 14.469 17.5C14.469 17.7761 14.2312 18 13.9379 18H13.0001V17Z" fill="var(--fill-0, #FFB803)"/>
</g>
<path id="Vector_2" d="M17.2 0H13C12.4477 0 12 0.447715 12 1C12 1.55228 12.4477 2 13 2H17.2C17.7523 2 18.2 1.55228 18.2 1C18.2 0.447715 17.7523 0 17.2 0Z" fill="var(--fill-0, #956AFF)"/>
<path id="Vector_3" d="M8.05736 4.8232C8.02216 4.8232 7.72292 4.8232 7.72292 4.8232C8.39181 4.53036 8.90228 3.87579 9.0607 3.06618C9.09591 2.87669 9.11351 2.68721 9.11351 2.49773C9.11351 2.08431 9.0255 1.68812 8.86708 1.34361C8.70865 0.999092 8.47982 0.706254 8.21579 0.48232C7.84614 0.172257 7.40607 0 6.91321 0C6.19151 0 5.54022 0.396192 5.13536 1.01632C4.99454 1.24025 4.87133 1.51586 4.80092 1.8087C4.74811 2.03263 4.7129 2.25657 4.7129 2.49773C4.7129 2.65276 4.73051 2.80779 4.74811 2.96282C4.88893 3.82411 5.417 4.51314 6.1035 4.8232H5.94507H5.85706H5.82186C4.41366 4.8232 3.28711 5.92565 3.28711 7.3037V7.75157V9.99092C3.28711 10.7488 3.9208 11.369 4.6953 11.369L5.24098 14.2973V16.8812C5.24098 16.8812 3.58635 16.9673 3.58635 18.087H5.24098H5.417H6.93081H8.39181H8.56783H10.2225C10.2225 16.9673 8.56783 16.8812 8.56783 16.8812V14.2973L9.11351 11.369C9.88802 11.369 10.5217 10.7488 10.5217 9.99092V7.75157V7.3037C10.5393 5.94287 9.43035 4.85765 8.05736 4.8232Z" fill="var(--fill-0, #00ED9D)"/>
<path id="Rectangle 977" d="M0 19C0 18.4477 0.447715 18 1 18H19C19.5523 18 20 18.4477 20 19C20 19.5523 19.5523 20 19 20H1C0.447715 20 0 19.5523 0 19Z" fill="var(--fill-0, #956AFF)"/>
</g>
</svg>
