<svg preserveAspectRatio="none" width="100%" height="100%" overflow="visible" style="display: block;" viewBox="0 0 21 19.2939" fill="none" xmlns="http://www.w3.org/2000/svg">
<g id="Hints icon">
<path id="Rectangle 10987" d="M1 8C1 3.58172 4.58172 0 9 0H13C17.4183 0 21 3.58172 21 8C21 12.4183 17.4183 16 13 16H9C4.58172 16 1 12.4183 1 8Z" fill="var(--fill-0, #CFBCFF)"/>
<path id="Union" d="M8 0C3.58172 0 0 3.58172 0 8C0 12.4183 3.58172 16 8 16H9L12.1464 19.1464C12.4614 19.4614 13 19.2383 13 18.7929V15.9381C16.9463 15.446 20 12.0796 20 8C20 3.58172 16.4183 0 12 0H8Z" fill="var(--fill-0, #A380FF)"/>
<path id="i" d="M10.8295 6.792C10.8295 6.312 10.4574 5.928 9.99225 5.928C9.52713 5.928 9.15504 6.312 9.15504 6.792V12.584C9.15504 13.064 9.52713 13.448 9.99225 13.448C10.4574 13.448 10.8295 13.064 10.8295 12.584V6.792ZM9.99225 5.064C10.6434 5.064 11 4.68 11 4.056C11 3.32 10.6434 3 9.99225 3C9.35659 3 9 3.32 9 4.056C9 4.68 9.35659 5.064 9.99225 5.064Z" fill="var(--fill-0, white)"/>
</g>
</svg>
