<svg preserveAspectRatio="none" width="100%" height="100%" overflow="visible" style="display: block;" viewBox="0 0 14.7369 20" fill="none" xmlns="http://www.w3.org/2000/svg">
<g id="Lock">
<path id="Rectangle 10344" d="M1.05265 10.1947C1.05265 8.6338 2.41117 7.36843 4.087 7.36843H11.7025C13.3783 7.36843 14.7369 8.6338 14.7369 10.1947V17.1737C14.7369 18.7346 13.3783 20 11.7025 20H4.08699C2.41117 20 1.05265 18.7346 1.05265 17.1737V10.1947Z" fill="var(--fill-0, #692EFB)"/>
<path id="Intersect" d="M0 10.1947C0 8.6338 1.35852 7.36843 3.03434 7.36843H10.6499C12.3257 7.36843 13.6842 8.6338 13.6842 10.1947V17.1737C13.6842 18.7346 12.3257 20 10.6499 20H3.03434C1.35852 20 0 18.7346 0 17.1737V10.1947Z" fill="var(--fill-0, #956AFF)"/>
<path id="Rectangle 10346" d="M2.10525 10.6737C2.10525 10.011 2.70425 9.47369 3.44315 9.47369H10.241C10.9799 9.47369 11.5789 10.011 11.5789 10.6737V16.6947C11.5789 17.3575 10.9799 17.8947 10.241 17.8947H3.44315C2.70425 17.8947 2.10525 17.3575 2.10525 16.6947V10.6737Z" fill="var(--fill-0, #C7B4FD)"/>
<g id="Exclude">
<path d="M8.42104 12.6316C8.42104 13.5036 7.71412 14.2105 6.8421 14.2105C5.97007 14.2105 5.26315 13.5036 5.26315 12.6316C5.26315 11.7595 5.97007 11.0526 6.8421 11.0526C7.71412 11.0526 8.42104 11.7595 8.42104 12.6316Z" fill="var(--fill-0, #692EFB)"/>
<path d="M5.98812 13.5383C5.98812 13.0667 6.37046 12.6844 6.8421 12.6844C7.31373 12.6844 7.69607 13.0667 7.69607 13.5383V15.4618C7.69607 15.9334 7.31373 16.3158 6.8421 16.3158C6.37046 16.3158 5.98812 15.9334 5.98812 15.4618V13.5383Z" fill="var(--fill-0, #692EFB)"/>
</g>
<path id="Rectangle 10608 (Stroke)" fill-rule="evenodd" clip-rule="evenodd" d="M3.1579 4.21053C3.1579 1.88512 5.04302 0 7.36843 0C9.69384 0 11.579 1.88512 11.579 4.21053V7.36842H9.47369V4.21053C9.47369 3.04782 8.53113 2.10526 7.36843 2.10526C6.20572 2.10526 5.26316 3.04782 5.26316 4.21053V7.36842H3.1579V4.21053Z" fill="var(--fill-0, #FFD100)"/>
<path id="Rectangle 10608 (Stroke)_2" fill-rule="evenodd" clip-rule="evenodd" d="M7.3684 0C9.69381 0 11.5789 1.88512 11.5789 4.21053V7.36842H9.47366V4.21053C9.47366 3.04782 8.5311 2.10526 7.3684 2.10526V0Z" fill="var(--fill-0, #FFB803)"/>
</g>
</svg>
