<svg preserveAspectRatio="none" width="100%" height="100%" overflow="visible" style="display: block;" viewBox="0 0 23 15.6" fill="none" xmlns="http://www.w3.org/2000/svg">
<g id="Flower">
<path id="Vector" d="M10.3 15.0031C10 13.0031 8.70001 11.1031 6.70001 10.0031C4.70001 8.90308 2 8.29999 0 8.99999C0.3 11 1.90001 13.4031 3.90001 14.5031C5.90001 15.7031 8.30001 15.8031 10.3 15.0031Z" fill="var(--fill-0, #F44892)"/>
<path id="Vector_2" d="M10.5 13.2C10 11.4 8.7 9.79996 6.5 8.99996C4.4 8.19996 2 8.19996 1.49012e-08 8.99996C0.5 10.8 1.8 12.4 4 13.2C6.2 14.1 8.6 14 10.5 13.2Z" fill="var(--fill-0, #FF6CAC)"/>
<path id="Vector_3" d="M11.4 14.8C12.3 12.7 12.7 10 11.4 7.9C10.1 5.8 7.39999 3.8 4.99999 3.5C4.09999 5.6 4.00001 9.2 6.00001 11.6C7.50001 13.6 9.60001 15.1 11.4 14.8Z" fill="var(--fill-0, #F44892)"/>
<path id="Vector_4" d="M11.1096 13.2C12.0096 11.1 12.3096 9.3 11.0096 7.2C9.60955 5.1 7.40955 3.8 5.00955 3.5C4.20955 5.6 4.30955 8 5.60955 10C6.90955 12 9.20955 13.4 11.1096 13.2Z" fill="var(--fill-0, #FF6CAC)"/>
<path id="Vector_5" d="M19.2 14.5C21.2 13.4 22.7 11 23 9.00001C21 8.30001 18.4 8.89997 16.4 9.99997C14.4 11.1 13.1 13 12.8 15C14.8 15.7 17.2 15.6 19.2 14.5Z" fill="var(--fill-0, #F44892)"/>
<path id="Vector_6" d="M19 13.2C21.1 12.4 22.5 10.8 23 8.99999C21 8.19999 18.6 8.09999 16.5 8.99999C14.4 9.79999 13 11.4 12.5 13.2C14.5 14 16.9 14.1 19 13.2Z" fill="var(--fill-0, #FF6CAC)"/>
<path id="Vector_7" d="M17 11.6C19 9.2 18.7 5.50001 17.9 3.40001C15.5 3.70001 12.9 5.8 11.6 7.9C10.3 10 10.7 12.7 11.6 14.8C13.3 15.1 15.4 13.6 17 11.6Z" fill="var(--fill-0, #F44892)"/>
<path id="Vector_8" d="M17.4067 9.99996C18.7067 7.89996 18.8067 5.49996 17.9067 3.39996C15.5067 3.69996 13.3067 4.99996 12.0067 7.09996C10.7067 9.19996 11.0067 11 11.9067 13.1C13.8067 13.4 16.1067 12.1 17.4067 9.99996Z" fill="var(--fill-0, #FF6CAC)"/>
<path id="Vector_9" d="M10.625 15.2086C11.2083 15.7122 11.9861 15.7122 12.5694 15.3093C14.4167 13.8992 15 10.7767 15 7.95647C15 4.83402 13.6389 2.01374 11.5 0.0999756C9.36111 1.91301 8 4.73329 8 7.95647C8.09722 10.676 8.875 13.7985 10.625 15.2086Z" fill="var(--fill-0, #F44892)"/>
<path id="Vector_10" d="M10.5634 13.2044C11.1549 13.5985 11.9437 13.5985 12.5352 13.2044C14.4085 12.0219 15 9.26277 15 6.79927C15 4.04015 13.6197 1.57664 11.4507 0C9.38028 1.67518 8 4.13869 8 6.89781C8 9.26277 8.78873 12.0219 10.5634 13.2044Z" fill="var(--fill-0, #FF6CAC)"/>
</g>
</svg>
