<svg preserveAspectRatio="none" width="100%" height="100%" overflow="visible" style="display: block;" viewBox="0 0 17 8" fill="none" xmlns="http://www.w3.org/2000/svg">
<g id="Leaves">
<path id="Vector" d="M8.50002 6.91566C10.3 6.91566 11.6 5.2118 11.6 3.7084C11.6 2.20499 10.4 0.902043 8.50002 0C6.60002 0.902043 5.40002 2.20499 5.40002 3.7084C5.40002 5.2118 6.70002 6.91566 8.50002 6.91566Z" fill="var(--fill-0, #09B577)"/>
<path id="Vector_2" d="M8.29999 2.00452C9.69999 0.801792 12 2.20497 13.7 2.80633C15.3 3.40769 16.4 4.81087 17 6.51473C17 6.71518 17 6.81541 16.9 6.91564C15.5 7.91791 14.2 8.31881 12.6 7.71745C10.9 7.11609 8.79999 3.90883 8.29999 2.00452Z" fill="var(--fill-0, #09B577)"/>
<path id="Vector_3" d="M8.7 2.00452C7.3 0.801792 5 2.20497 3.3 2.80633C1.7 3.40769 0.6 4.81087 0 6.51473C0 6.71518 -9.68574e-08 6.81541 0.0999999 6.91564C1.5 7.91791 2.8 8.31881 4.4 7.71745C6.1 7.11609 8.2 3.90883 8.7 2.00452Z" fill="var(--fill-0, #09B577)"/>
<path id="Vector_4" d="M6.39997 3.00681C4.99997 2.30522 4.19997 2.90658 2.49997 3.20726C1.59997 3.40771 0.799973 4.51021 0.299973 5.61271C0.199973 5.81316 0.299973 6.01361 0.499973 6.01361C1.49997 6.3143 3.09997 6.01362 3.89997 5.71293C5.29997 5.2118 5.89997 4.20953 6.39997 3.00681Z" fill="var(--fill-0, #2DE4A3)"/>
<path id="Vector_5" d="M10.5 3.00681C11.9 2.30522 12.7 2.90658 14.4 3.20726C15.3 3.40771 16.1 4.51021 16.6 5.61271C16.7 5.81316 16.6 6.01361 16.4 6.01361C15.4 6.3143 13.8 6.01362 13 5.71293C11.6 5.2118 11 4.20953 10.5 3.00681Z" fill="var(--fill-0, #2DE4A3)"/>
</g>
</svg>
