<svg preserveAspectRatio="none" width="100%" height="100%" overflow="visible" style="display: block;" viewBox="0 0 21.8708 19.968" fill="none" xmlns="http://www.w3.org/2000/svg">
<g id="Map">
<path id="Fold Back" d="M14.4405 0.0121965L14.4748 3.85079L21.8708 3.89299L21.8706 1.90936C21.8705 0.862255 21.0129 0.0122687 19.9522 0.00799806L19.6635 0.00683594L14.4405 0.0121965Z" fill="var(--fill-0, #FAA525)"/>
<path id="Base" d="M3.35712 2.09325C3.45782 0.820206 4.03917 0.0074126 5.61612 0.0074126L20.4427 0L20.2415 0.00108338C19.2116 0.00662894 18.3708 0.79487 18.296 1.79262V18.0315C18.296 19.101 17.4177 19.968 16.3343 19.968H5.29884C4.21544 19.968 3.33717 19.101 3.33717 18.0315V2.40163C3.33717 2.29714 3.34396 2.19421 3.35712 2.09325Z" fill="var(--fill-0, #FFDE32)"/>
<g id="Markings">
<g id="Vector">
<path fill-rule="evenodd" clip-rule="evenodd" d="M12.0037 1.63043C12.1971 1.4395 12.5107 1.4395 12.7041 1.63043L15.0814 3.97718C15.2748 4.16811 15.2748 4.47767 15.0814 4.6686C14.8879 4.85953 14.5744 4.85953 14.381 4.6686L12.0037 2.32185C11.8103 2.13092 11.8103 1.82136 12.0037 1.63043Z" fill="var(--fill-0, #FA5825)"/>
<path fill-rule="evenodd" clip-rule="evenodd" d="M15.0814 1.63043C15.2748 1.82136 15.2748 2.13092 15.0814 2.32185L12.7041 4.6686C12.5107 4.85953 12.1971 4.85953 12.0037 4.6686C11.8103 4.47767 11.8103 4.16811 12.0037 3.97718L14.381 1.63043C14.5744 1.4395 14.8879 1.4395 15.0814 1.63043Z" fill="var(--fill-0, #FA5825)"/>
</g>
<path id="Vector (Stroke)" fill-rule="evenodd" clip-rule="evenodd" d="M11.4791 5.19218C11.6905 5.36353 11.7212 5.67161 11.5476 5.88029C11.4108 6.04481 11.321 6.22062 11.2621 6.41258C11.1829 6.67102 10.9065 6.81713 10.6447 6.73893C10.3829 6.66072 10.2349 6.38781 10.3141 6.12937C10.4072 5.82553 10.5552 5.53252 10.7821 5.25977C10.9557 5.05109 11.2677 5.02083 11.4791 5.19218ZM10.659 7.3682C10.9322 7.35447 11.1649 7.56194 11.1788 7.83161C11.1813 7.88034 11.184 7.92989 11.1867 7.9802C11.2114 8.4399 11.2396 8.96324 11.1845 9.50113C11.1569 9.76978 10.914 9.96552 10.6419 9.93834C10.3697 9.91115 10.1714 9.67134 10.199 9.40269C10.246 8.94412 10.2222 8.49625 10.1972 8.02707C10.1947 7.97873 10.1921 7.93016 10.1896 7.88133C10.1756 7.61166 10.3858 7.38192 10.659 7.3682ZM10.4673 10.542C10.7077 10.6707 10.797 10.9675 10.6666 11.2048C10.5305 11.4526 10.3637 11.6989 10.1609 11.9427C9.98731 12.1514 9.67523 12.1817 9.46384 12.0103C9.25245 11.839 9.22179 11.5309 9.39537 11.3222C9.55929 11.1251 9.69052 10.9305 9.79583 10.7387C9.9262 10.5014 10.2268 10.4133 10.4673 10.542Z" fill="var(--fill-0, #EC9109)"/>
<path id="Vector (Stroke)_2" fill-rule="evenodd" clip-rule="evenodd" d="M7.83462 13.221C7.45169 13.221 7.14126 13.5275 7.14126 13.9055C7.14126 14.2835 7.45169 14.5899 7.83462 14.5899C8.21755 14.5899 8.52798 14.2835 8.52798 13.9055C8.52798 13.5275 8.21756 13.221 7.83462 13.221ZM6.15074 13.9055C6.15074 12.9874 6.90464 12.2432 7.83462 12.2432C8.7646 12.2432 9.5185 12.9874 9.5185 13.9055C9.5185 14.8235 8.7646 15.5678 7.83462 15.5678C6.90464 15.5678 6.15074 14.8235 6.15074 13.9055Z" fill="var(--fill-0, #EC9109)"/>
</g>
<path id="Fold Front" d="M14.6991 16.5993L0 16.5993L0.00645275 17.8836C0.0121864 19.0247 0.948487 19.9481 2.10445 19.9525L16.739 19.96C15.6115 19.9493 14.7026 19.0449 14.701 17.9318L14.6991 16.5993Z" fill="var(--fill-0, #FAA525)"/>
</g>
</svg>
