<svg preserveAspectRatio="none" width="100%" height="100%" overflow="visible" style="display: block;" viewBox="0 0 20 20" fill="none" xmlns="http://www.w3.org/2000/svg">
<g id="Meal">
<circle id="Ellipse 1010" cx="10" cy="6.78564" r="3" fill="var(--fill-0, #42C9A6)"/>
<circle id="Ellipse 1011" cx="5" cy="9" r="3" fill="var(--fill-0, #42C9A6)"/>
<circle id="Ellipse 1012" cx="15.001" cy="9" r="3" fill="var(--fill-0, #42C9A6)"/>
<path id="Rectangle 10938" d="M7.70711 11.0909C7.31658 10.7004 7.31658 10.0672 7.70711 9.67671L16.6767 0.707106C17.0672 0.316582 17.7004 0.316583 18.0909 0.707107L19.1516 1.76777C19.5421 2.15829 19.5421 2.79146 19.1516 3.18198L10.182 12.1516C9.79146 12.5421 9.15829 12.5421 8.76777 12.1516L7.70711 11.0909Z" fill="var(--fill-0, #DA8752)"/>
<path id="Union" d="M13.8894 17.5172C17.2632 16.0032 19.613 12.6145 19.613 8.67704H0.243707C0.243707 12.566 2.53596 15.9196 5.84306 17.4604V19.1055C5.84306 19.5995 6.24357 20 6.73762 20H12.9948C13.4889 20 13.8894 19.5995 13.8894 19.1055V17.5172Z" fill="var(--fill-0, #FED403)"/>
<path id="Subtract" d="M5.84306 17.4871V19C5.84306 19.5523 6.29077 20 6.84306 20H12.8894C13.4417 20 13.8894 19.5523 13.8894 19V17.5172C17.2632 16.0032 19.613 12.6145 19.613 8.67704H16.1339C15.7018 13.626 11.5474 17.5081 6.48637 17.5081C6.27021 17.5081 6.05569 17.501 5.84306 17.4871Z" fill="var(--fill-0, #FFB901)"/>
<path id="Rectangle 10940" d="M0.522461 11.024H17.5941V12.6479H1.09324C1.09324 12.6479 0.87228 12.1487 0.763147 11.8181C0.661708 11.5107 0.522461 11.024 0.522461 11.024Z" fill="var(--fill-0, #FFB901)"/>
<path id="Rectangle 10939" d="M0 9.04383C0 8.71447 0.267004 8.44746 0.596371 8.44746H19.4036C19.733 8.44746 20 8.71447 20 9.04383V10.8511C20 11.1805 19.733 11.4475 19.4036 11.4475H0.596371C0.267004 11.4475 0 11.1805 0 10.8511V9.04383Z" fill="var(--fill-0, #FED403)"/>
</g>
</svg>
