<svg preserveAspectRatio="none" width="100%" height="100%" overflow="visible" style="display: block;" viewBox="0 0 19 24" fill="none" xmlns="http://www.w3.org/2000/svg">
<g id="Feather">
<path id="Vector" d="M1.38039 18.9134L0.461542 17.8852C0.739287 19.3662 1.22057 20.0516 1.52904 20.3858C12.9155 3.38788 18.8446 0.127434 19 0.0334778C16.147 0.762458 13.7594 1.83905 11.763 3.10668C11.6027 3.20852 11.763 5.2448 11.763 6.20185C11.6141 6.30176 10.9938 3.61669 10.8494 3.71865C3.1389 9.16259 1.84682 17.4205 1.81983 17.6061C1.58886 16.6609 1.19551 16.2479 1.19551 16.2479C0.990679 16.7406 1.38039 18.9134 1.38039 18.9134Z" fill="var(--fill-0, #A4A2FF)"/>
<path id="Vector_2" d="M1.50462 20.3779C1.71684 20.5751 1.8573 20.642 1.8573 20.642C2.5202 21.1307 4.24382 21.477 4.24382 21.477C3.58268 20.8787 2.94604 20.2873 2.94604 20.2873C4.14499 20.7339 5.37419 20.4461 5.37419 20.4461L3.62173 19.5966C9.87232 18.1596 14.126 13.8512 14.126 13.8512L10.8906 12.2277C12.9717 12.9219 14.9449 12.2927 14.9449 12.2927C12.087 12.0683 10.1809 11.2032 10.065 11.1431C10.2742 11.1468 15.1148 10.9098 15.5616 10.2924C17.9099 7.37492 18.9821 0 18.9821 0C18.8202 0.119625 12.8911 3.38007 1.50462 20.3779Z" fill="var(--fill-0, #6663FF)"/>
<path id="Vector_3" d="M17.8908 0.876797C17.8908 0.876797 11.5948 6.29026 3.94405 17.5137C1.45256 21.2988 0 24 0 24C0 24 0.485401 22.513 0.305673 21.0595C0.323611 21.092 10.8038 4.96774 17.8908 0.876797Z" fill="var(--fill-0, #5350FF)"/>
</g>
</svg>
