<svg preserveAspectRatio="none" width="100%" height="100%" overflow="visible" style="display: block;" viewBox="0 0 22 24" fill="none" xmlns="http://www.w3.org/2000/svg">
<g id="Jellyfish">
<path id="Vector" d="M19.9252 15.7384C19.1414 15.9426 18.1583 15.8533 18.9022 14.2326C19.6727 12.5737 18.6233 11.5401 16.976 10.6341C19.5798 11.4125 22.8743 13.8243 19.9252 15.7384Z" fill="var(--fill-0, #20AFFF)"/>
<path id="Vector_2" d="M16.6306 19.3499C16.5642 19.8603 15.6343 20.8173 14.0401 20.1155C12.2068 19.3116 11.1839 18.0738 11.7153 13.5437C11.7419 13.3012 11.7684 13.0716 11.7684 12.8419C11.7684 14.2073 12.3397 16.8615 14.7708 17.8951C14.7708 17.8951 14.7708 17.8951 14.784 17.8951C15.0232 18.0355 15.2756 18.1376 15.5014 18.1886C16.4978 18.4566 16.697 18.8394 16.6306 19.3499Z" fill="var(--fill-0, #20AFFF)"/>
<path id="Vector_3" d="M5.51134 14.0286C5.48477 14.1307 5.44492 14.2328 5.41835 14.3221C4.66112 16.4277 2.36289 20.0645 1.16727 19.7455C0.410047 19.5413 0.224062 18.7884 1.22041 17.5123C2.49573 16.1724 4.55485 16.568 5.51134 14.0286Z" fill="var(--fill-0, #20AFFF)"/>
<path id="Vector_4" d="M9.13804 23.5226C8.93878 23.9692 8.06199 24.1606 7.14535 23.8416C4.58142 22.2465 6.60068 19.4008 7.39776 17.8695C7.2782 18.1248 7.15864 18.3927 7.07893 18.6735C6.48112 20.5876 7.2782 21.5446 8.27454 22.0551C9.39045 22.6293 9.29746 23.1525 9.13804 23.5226Z" fill="var(--fill-0, #20AFFF)"/>
<path id="Vector_5" d="M17.5074 9.0391C17.3612 9.12842 17.1752 9.17946 16.9893 9.21775C15.6475 9.42192 13.3493 8.42658 11.2636 9.0391C8.87236 9.74094 4.75413 12.3569 1.89794 12.1017C-0.387018 11.8975 -0.201033 9.99615 0.370205 9.29431C2.16363 7.06118 0.635897 2.65871 5.75048 0.616984C5.94974 0.553181 6.14901 0.489377 6.34828 0.425573C13.0969 -1.5013 17.1354 3.65405 17.8395 5.14706C18.5701 6.67835 18.703 8.33725 17.5074 9.0391Z" fill="var(--fill-0, #20AFFF)"/>
<path id="Vector_6" d="M16.976 9.21772C16.9627 9.21772 16.9361 9.21772 16.9228 9.21772C16.0992 9.3198 14.9567 9.01355 13.7212 8.88594C13.2031 8.8349 12.6718 8.80937 12.1537 8.86042C11.8614 8.88594 11.5559 8.94974 11.2636 9.02631C11.2237 9.03907 11.1839 9.05183 11.1573 9.06459C10.5728 9.24324 9.89528 9.53674 9.15134 9.85576C8.71295 10.0472 8.26127 10.2513 7.79631 10.4683C7.1985 10.7363 6.57412 11.0042 5.96303 11.2467C5.51135 11.4253 5.05968 11.5785 4.608 11.7188C3.65151 11.9996 2.72158 12.1655 1.89794 12.1017C-0.387018 11.8975 -0.201034 9.99613 0.370205 9.29428C2.16363 7.06115 0.635898 2.65868 5.75048 0.616957C5.94975 0.553153 6.14901 0.489349 6.34828 0.425546L6.37485 0.451067C5.20581 0.99978 2.74815 2.92666 2.32304 6.19342C1.89794 9.46017 2.92085 11.0936 4.59471 10.8639C5.00654 10.8128 5.4715 10.6342 5.96303 10.3534L5.97631 10.3407C6.57412 9.98337 7.07894 9.58778 7.5439 9.20496C7.99558 8.82213 8.4074 8.45207 8.84579 8.09477C9.17791 7.8268 9.53659 7.55882 9.93513 7.32913C10.2008 7.176 10.4798 7.02287 10.7986 6.89526C11.2902 6.69109 11.8614 6.5252 12.5256 6.39759C12.5655 6.38483 12.5921 6.38483 12.6319 6.38483C13.1633 6.2955 13.6681 6.26998 14.1464 6.28274C16.7369 6.37207 18.3709 7.87784 16.976 9.21772Z" fill="var(--fill-0, #7ACFFF)"/>
<path id="Vector_7" d="M20.2307 15.6365C20.1377 15.6748 20.0314 15.7003 19.9251 15.7386C22.8743 13.8244 19.5797 11.4127 16.9759 10.6343C16.3516 10.3025 15.6475 9.98346 14.9301 9.65168L14.9168 9.63891C14.4386 9.42198 14.04 9.16677 13.7212 8.89879C12.6983 8.0183 12.4725 6.98467 12.5123 6.41044C12.5522 6.39768 12.5787 6.39768 12.6186 6.39768C13.15 6.30835 13.6548 6.28283 14.133 6.29559C14.1995 7.29093 14.3589 7.73756 15.8467 8.69462C16.1656 8.89879 16.5375 9.07744 16.9361 9.23057C18.6631 9.94517 20.8816 10.379 21.692 11.9359C22.6352 13.7479 21.2004 15.2026 20.2307 15.6365Z" fill="var(--fill-0, #008EDE)"/>
<path id="Vector_8" d="M14.7707 17.9078C12.3529 16.8614 11.7684 14.2072 11.7684 12.8545C11.8481 11.2722 11.5558 10.0216 11.1307 9.09008C10.7588 8.23511 10.2805 7.66088 9.90855 7.34186C10.1742 7.18873 10.4532 7.0356 10.7721 6.90799C11.0377 7.1632 11.5558 7.7502 12.1271 8.88591C12.1537 8.94971 12.1935 9.01352 12.2334 9.09008C13.4954 11.706 12.964 14.0668 13.3626 15.9809C13.5751 16.9124 14.1596 17.5505 14.7707 17.9078Z" fill="var(--fill-0, #008EDE)"/>
<path id="Vector_9" d="M5.9763 10.3534C5.9763 10.5704 5.96302 10.8894 5.94973 11.2594C5.90988 12.0634 5.79032 13.1225 5.51134 14.0285C4.54156 16.5679 2.49573 16.1851 1.22041 17.5122C1.52595 17.1166 1.93778 16.67 2.49573 16.1723C4.02346 14.7814 4.52828 13.097 4.60799 11.7316C4.62127 11.4253 4.62127 11.1318 4.60799 10.8639C5.01981 10.8128 5.48477 10.6342 5.9763 10.3534Z" fill="var(--fill-0, #008EDE)"/>
<path id="Vector_10" d="M9.27089 12.0379C9.16462 15.1898 8.18155 16.3383 7.50404 17.6654C7.50404 17.6654 7.50404 17.6781 7.49075 17.6781C7.46419 17.7292 7.43762 17.793 7.41105 17.844C7.41105 17.844 7.41105 17.8568 7.39776 17.8568C6.61397 19.3881 4.58142 22.2337 7.14535 23.8288C6.49441 23.5991 5.83018 23.127 5.41835 22.2975C4.42201 20.3196 5.48478 18.3417 7.07893 15.6619C7.99557 14.1179 8.00885 12.0251 7.7963 10.4683C7.72988 9.98339 7.63689 9.54952 7.54389 9.19222C7.99557 8.8094 8.40739 8.43933 8.84579 8.08203C8.93878 8.42657 9.05834 9.05185 9.15133 9.85578C9.21776 10.4938 9.27089 11.2339 9.27089 12.0379Z" fill="var(--fill-0, #008EDE)"/>
</g>
</svg>
