<svg preserveAspectRatio="none" width="100%" height="100%" overflow="visible" style="display: block;" viewBox="0 0 15.606 19.9356" fill="none" xmlns="http://www.w3.org/2000/svg">
<g id="Drop">
<path id="Subtract" d="M0.257044 10.6107C1.2166 9.88399 2.57048 9.33611 4.39706 9.52333C5.9719 9.68474 7.12239 10.4546 8.27961 11.229C10.1234 12.4628 11.9843 13.708 15.606 12.5217C15.4008 16.6508 11.9879 19.9356 7.8079 19.9356C3.49571 19.9356 0 16.4399 0 12.1277C0 11.6586 0.0923805 11.1481 0.257044 10.6107Z" fill="var(--fill-0, #DDCFFF)"/>
<path id="Subtract_2" d="M2.52344 17.8762C3.91383 19.1549 5.76935 19.9356 7.80721 19.9356C11.9873 19.9356 15.4001 16.6508 15.6053 12.5217C14.6525 12.8338 13.8216 12.9776 13.0808 12.9976C12.1012 16.1907 9.12926 18.5123 5.61513 18.5123C4.51685 18.5123 3.47153 18.2855 2.52344 17.8762Z" fill="var(--fill-0, #B9A2FF)"/>
<path id="Intersect" d="M1.57324 7.79477C2.4096 7.56938 3.37365 7.46762 4.45179 7.57812C6.02662 7.73954 7.17712 8.5094 8.33433 9.28376C10.1291 10.4848 11.9401 11.6966 15.3754 10.666C14.0617 6.25992 7.80787 0 7.80787 0C7.80787 0 3.85369 3.95801 1.57324 7.79477Z" fill="var(--fill-0, #A682FF)"/>
<path id="Ellipse 424" d="M3.39522 13.0604C2.82471 13.8212 1.87527 14.1726 1.27461 13.8453C0.673941 13.5181 0.649498 12.636 1.22001 11.8752C1.79053 11.1144 2.73996 10.7629 3.34063 11.0902C3.94129 11.4175 3.96574 12.2996 3.39522 13.0604Z" fill="var(--fill-0, #FAFDFE)"/>
</g>
</svg>
