<svg preserveAspectRatio="none" width="100%" height="100%" overflow="visible" style="display: block;" viewBox="0 0 24.2708 24.1433" fill="none" xmlns="http://www.w3.org/2000/svg">
<g id="Shell">
<path id="Vector" d="M0.202997 11.5139C-0.0279636 10.725 1.24232 9.73394 1.68499 8.80352C2.20465 7.69105 1.58876 6.33586 2.20465 5.06158C2.82055 3.76708 4.74521 3.72663 5.53433 3.18051C6.65063 2.37144 6.92009 0.652175 8.19037 0.207188C9.51839 -0.237798 11.0966 0.894894 12.0782 0.935348C13.002 0.975801 14.7342 -0.0355314 15.7928 0.0858285C16.8514 0.207188 17.679 2.41189 18.4873 3.03892C19.2765 3.64572 21.4128 3.88844 22.0672 4.81886C22.7216 5.74929 22.1057 7.61014 22.4137 8.45966C22.7024 9.28895 24.3191 10.2801 24.0881 11.5139C23.7224 13.3343 16.7359 14.8917 16.274 16.7121C16.274 16.7121 11.8665 18.9977 8.0364 16.7121C8.0364 16.7121 7.84393 15.7615 4.51425 14.2849C1.18458 12.8084 0.395463 12.1814 0.202997 11.5139Z" fill="var(--fill-0, #7ACFFF)"/>
<path id="Vector 98" d="M12.0692 6.22236C13.2331 6.16133 12.0692 12.5866 12.0692 12.5866C12.0692 12.5866 10.3836 5.74068 12.0692 6.22236Z" fill="var(--fill-0, #C3E9FF)"/>
<path id="Vector 100" d="M15.1932 7.98686C14.2499 7.47657 13.5156 12.6947 13.5156 12.6947C13.5156 12.6947 16.7417 8.30938 15.1932 7.98686Z" fill="var(--fill-0, #C3E9FF)"/>
<path id="Vector 105" d="M8.74903 7.9863C9.69291 7.47739 10.3653 12.5541 10.3653 12.5541C10.3653 12.5541 7.20523 8.31964 8.74903 7.9863Z" fill="var(--fill-0, #C3E9FF)"/>
<path id="Vector 101" d="M17.3619 11.319C16.8712 10.4374 14.7254 13.4769 14.7254 13.4769C14.7254 13.4769 18.3496 12.411 17.3619 11.319Z" fill="var(--fill-0, #C3E9FF)"/>
<path id="Vector 106" d="M6.65425 11.3196C7.14263 10.4365 9.50827 13.6226 9.50827 13.6226C9.50827 13.6226 5.64835 12.3995 6.65425 11.3196Z" fill="var(--fill-0, #C3E9FF)"/>
<path id="Vector 95" d="M1.31499 10.8564C0.847264 11.4463 1.3572 12.4092 1.56828 12.7198C1.27277 12.5423 0.301818 12.1208 0.175172 11.655C-0.0781203 10.7233 0.935049 9.92477 1.56828 8.99311C2.20151 8.06144 1.50496 6.19812 2.4548 4.86718C3.21468 3.80242 4.48114 3.66932 5.62096 3.13695C6.76077 2.60457 7.01407 0.60815 8.15388 0.208867C9.2937 -0.190417 11.0765 1.17252 12.3332 1.00743C13.3464 0.874339 14.7616 -0.0261267 15.8793 0.208826C17.1458 0.475056 17.5257 2.47149 18.5389 3.13695C19.2265 3.58861 21.0718 3.80244 22.085 4.86718C22.7182 5.53264 22.085 7.2629 22.3383 8.32763C22.5533 9.23148 23.858 9.92483 24.1113 10.9896C24.3139 11.8414 23.1826 12.498 22.7182 12.7198C23.6047 10.4572 21.0718 9.92479 21.1984 8.46075C21.705 3.93554 18.8079 5.7274 17.5257 3.80243C14.8661 -0.190359 13.3464 2.87077 11.8266 2.33841C7.6473 0.874372 7.26736 3.40317 6.0009 4.33483C4.73444 5.26649 2.7081 4.8672 2.96139 7.79528C3.12257 9.6586 1.94822 10.0579 1.31499 10.8564Z" fill="var(--fill-0, #20AFFF)" stroke="var(--stroke-0, #20AFFF)" stroke-width="0.270512"/>
<path id="Vector_2" d="M12.0782 23.5689C13.3099 23.5487 15.5041 24.3779 16.9283 23.8116C18.545 23.1643 19.084 21.3439 19.8731 20.6158C20.8354 19.7258 23.3952 19.0583 23.3952 16.8334C23.3952 14.5478 16.2739 16.712 16.2739 16.712H8.01711C8.01711 16.712 0.895838 14.4264 0.895838 16.9143C0.895838 19.0179 3.22469 19.7865 4.20627 20.4944C5.1686 21.2024 5.43805 23.043 7.45896 23.8318C8.86396 24.3982 10.9426 23.5891 12.0782 23.5689Z" fill="var(--fill-0, #20AFFF)"/>
<g id="Vector 94">
<path d="M2.45479 18.0435C1.44163 17.2981 1.52606 16.3132 1.69492 15.9139C1.48384 16.0027 1.03636 16.2866 0.935041 16.7125C0.428456 18.9751 3.6757 19.8299 4.48113 20.7053C5.21585 21.5039 5.87424 23.3672 7.39399 23.8996C8.99696 24.4611 11.0588 23.5003 12.0799 23.5003C13.9796 23.5003 15.791 24.5431 17.1457 23.7665C18.5389 22.968 18.6655 21.9032 19.8053 20.7053C20.379 20.1025 21.4517 19.5962 21.9583 19.2413C22.7182 18.7089 23.2248 18.0435 23.3514 17.2449C23.5231 16.1623 22.7182 15.9583 22.3382 15.9139C22.4227 16.3132 22.4396 17.2715 21.8317 17.9104C21.2238 18.5492 19.9506 18.553 19.1721 19.5075C16.1326 23.2341 14.9928 22.0363 11.8266 22.3025C6.98803 22.7093 7.28138 21.9179 4.98772 19.5075C4.22784 18.7089 3.46796 18.7888 2.45479 18.0435Z" fill="var(--fill-0, #008EDE)"/>
<path d="M1.69492 15.9139L1.7572 15.9403C1.76792 15.9149 1.76222 15.8856 1.74279 15.8662C1.72336 15.8467 1.69407 15.8409 1.66871 15.8516L1.69492 15.9139ZM2.45479 18.0435L2.49487 17.989V17.989L2.45479 18.0435ZM4.98772 19.5075L4.93872 19.5541V19.5541L4.98772 19.5075ZM11.8266 22.3025L11.8209 22.2351V22.2351L11.8266 22.3025ZM19.1721 19.5075L19.2245 19.5502V19.5502L19.1721 19.5075ZM21.8317 17.9104L21.8807 17.957V17.957L21.8317 17.9104ZM22.3382 15.9139L22.3461 15.8468L22.2526 15.8359L22.2721 15.9279L22.3382 15.9139ZM23.3514 17.2449L23.2846 17.2343V17.2343L23.3514 17.2449ZM21.9583 19.2413L21.9195 19.1859V19.1859L21.9583 19.2413ZM19.8053 20.7053L19.8543 20.752V20.752L19.8053 20.7053ZM17.1457 23.7665L17.1794 23.8252V23.8252L17.1457 23.7665ZM7.39399 23.8996L7.37164 23.9634V23.9634L7.39399 23.8996ZM4.48113 20.7053L4.5309 20.6596V20.6596L4.48113 20.7053ZM0.935041 16.7125L0.869243 16.6969L0.869047 16.6977L0.935041 16.7125ZM1.69492 15.9139L1.63263 15.8876C1.4541 16.3097 1.37145 17.3305 2.41472 18.0979L2.45479 18.0435L2.49487 17.989C1.5118 17.2658 1.59801 16.3167 1.7572 15.9403L1.69492 15.9139ZM2.45479 18.0435L2.41472 18.0979C2.92899 18.4762 3.3802 18.6456 3.79003 18.8179C4.19922 18.9899 4.56862 19.1652 4.93872 19.5541L4.98772 19.5075L5.03671 19.4609C4.64693 19.0513 4.25646 18.8672 3.84245 18.6932C3.42908 18.5194 2.99377 18.356 2.49487 17.989L2.45479 18.0435ZM4.98772 19.5075L4.93872 19.5541C5.51242 20.157 5.91907 20.6529 6.29352 21.0639C6.66559 21.4722 7.00122 21.7911 7.42032 22.0208C8.25854 22.48 9.41448 22.5731 11.8323 22.3699L11.8266 22.3025L11.8209 22.2351C9.40017 22.4386 8.28349 22.3395 7.48531 21.9021C7.08622 21.6835 6.76272 21.378 6.3935 20.9728C6.02664 20.5701 5.60985 20.0632 5.03671 19.4609L4.98772 19.5075ZM11.8266 22.3025L11.8323 22.3699C12.6194 22.3037 13.2805 22.3285 13.8808 22.3451C14.4797 22.3617 15.0209 22.3705 15.5594 22.2691C16.6426 22.0652 17.7002 21.4191 19.2245 19.5502L19.1721 19.5075L19.1197 19.4647C17.6044 21.3226 16.5724 21.9408 15.5343 22.1362C15.0121 22.2345 14.4847 22.2266 13.8845 22.2099C13.2856 22.1933 12.6169 22.1682 11.8209 22.2351L11.8266 22.3025ZM19.1721 19.5075L19.2245 19.5502C19.6022 19.0872 20.101 18.8528 20.5913 18.6532C20.8347 18.5541 21.079 18.4624 21.2986 18.3561C21.5191 18.2493 21.7207 18.125 21.8807 17.957L21.8317 17.9104L21.7827 17.8637C21.6386 18.0151 21.4532 18.1309 21.2396 18.2343C21.0252 18.3382 20.7886 18.4269 20.5404 18.5279C20.0475 18.7285 19.5205 18.9733 19.1197 19.4647L19.1721 19.5075ZM21.8317 17.9104L21.8807 17.957C22.1966 17.6249 22.3486 17.2116 22.4113 16.8334C22.4739 16.4554 22.4483 16.1075 22.4044 15.8999L22.3382 15.9139L22.2721 15.9279C22.3126 16.1196 22.3376 16.4505 22.2779 16.8113C22.2181 17.1717 22.0746 17.5569 21.7827 17.8637L21.8317 17.9104ZM22.3382 15.9139L22.3304 15.9811C22.5163 16.0028 22.7962 16.0629 23.0081 16.2418C23.2146 16.4161 23.3673 16.7127 23.2846 17.2343L23.3514 17.2449L23.4182 17.2555C23.5072 16.6945 23.3433 16.3478 23.0953 16.1384C22.8526 15.9335 22.5401 15.8694 22.3461 15.8468L22.3382 15.9139ZM23.3514 17.2449L23.2846 17.2343C23.1617 18.0092 22.6696 18.6604 21.9195 19.1859L21.9583 19.2413L21.9971 19.2967C22.7667 18.7575 23.2878 18.0777 23.4182 17.2555L23.3514 17.2449ZM21.9583 19.2413L21.9195 19.1859C21.6683 19.3619 21.2799 19.5733 20.8717 19.8226C20.468 20.0692 20.0498 20.3504 19.7563 20.6587L19.8053 20.7053L19.8543 20.752C20.1345 20.4575 20.5395 20.1841 20.9422 19.9381C21.3405 19.6948 21.7418 19.4756 21.9971 19.2967L21.9583 19.2413ZM19.8053 20.7053L19.7563 20.6587C19.1813 21.2631 18.8596 21.8368 18.5145 22.3478C18.1692 22.8591 17.7962 23.3157 17.1121 23.7078L17.1457 23.7665L17.1794 23.8252C17.8884 23.4188 18.2753 22.9437 18.6266 22.4235C18.978 21.9031 19.2896 21.3455 19.8543 20.752L19.8053 20.7053ZM17.1457 23.7665L17.1121 23.7078C16.458 24.0828 15.6889 24.0217 14.8298 23.8582C13.9779 23.6961 13.0382 23.4327 12.0799 23.4327V23.5003V23.568C13.0212 23.568 13.9371 23.826 14.8045 23.9911C15.6648 24.1548 16.4787 24.2268 17.1794 23.8252L17.1457 23.7665ZM12.0799 23.5003V23.4327C11.8162 23.4327 11.4892 23.4945 11.1276 23.5757C10.7629 23.6576 10.3628 23.7594 9.9418 23.8442C9.10009 24.0139 8.19947 24.1101 7.41635 23.8358L7.39399 23.8996L7.37164 23.9634C8.19148 24.2506 9.12329 24.1472 9.96853 23.9768C10.391 23.8917 10.798 23.7884 11.1572 23.7077C11.5195 23.6263 11.8331 23.568 12.0799 23.568V23.5003ZM7.39399 23.8996L7.41635 23.8358C6.67688 23.5767 6.14256 22.9923 5.69842 22.3633C5.47641 22.0489 5.2792 21.7268 5.08949 21.4301C4.90085 21.135 4.71909 20.8641 4.5309 20.6596L4.48113 20.7053L4.43137 20.7511C4.61054 20.9459 4.78659 21.2074 4.97553 21.5029C5.1634 21.7968 5.36354 22.1235 5.58793 22.4413C6.0366 23.0767 6.59135 23.6901 7.37164 23.9634L7.39399 23.8996ZM4.48113 20.7053L4.5309 20.6596C4.32127 20.4317 3.95745 20.2091 3.55006 19.9719C3.13866 19.7323 2.6767 19.4747 2.25536 19.1741C1.41124 18.5717 0.757211 17.8163 1.00103 16.7273L0.935041 16.7125L0.869047 16.6977C0.606286 17.8713 1.32259 18.6746 2.1768 19.2842C2.60463 19.5895 3.07384 19.8511 3.482 20.0888C3.89416 20.3288 4.23828 20.5413 4.43137 20.7511L4.48113 20.7053ZM0.935041 16.7125L1.00083 16.7282C1.04715 16.5335 1.17382 16.3673 1.31896 16.2371C1.46389 16.1072 1.62201 16.0179 1.72112 15.9763L1.69492 15.9139L1.66871 15.8516C1.55674 15.8987 1.38559 15.9957 1.22867 16.1364C1.07198 16.2769 0.924251 16.4656 0.869249 16.6969L0.935041 16.7125Z" fill="var(--stroke-0, #008EDE)"/>
</g>
<path id="Vector_3" d="M12.0799 18.1766C13.3389 18.1766 14.3595 17.104 14.3595 15.7809C14.3595 14.4578 13.3389 13.3852 12.0799 13.3852C10.8209 13.3852 9.80027 14.4578 9.80027 15.7809C9.80027 17.104 10.8209 18.1766 12.0799 18.1766Z" fill="var(--fill-0, white)"/>
<path id="Vector 104" d="M11.9032 17.3847C9.22933 17.2737 6.59106 18.5693 6.76932 18.9395C7.41106 19.1616 8.90846 18.5758 11.9032 18.5758C14.6841 18.5758 17.1441 19.1616 17.358 18.9395C17.7859 18.4953 14.7911 17.3847 11.9032 17.3847Z" fill="var(--fill-0, #7ACFFF)"/>
</g>
</svg>
