<svg preserveAspectRatio="none" width="100%" height="100%" overflow="visible" style="display: block;" viewBox="0 0 16 20" fill="none" xmlns="http://www.w3.org/2000/svg">
<g id="Payment History">
<path id="Vector" d="M14 20C15.1 20 16 19.1 16 18V2C16 0.9 15.1 0 14 0H5L0 5V18C0 19.1 0.9 20 2 20H14Z" fill="var(--fill-0, #D9EAFF)"/>
<path id="Vector_2" d="M5 0L0 5H3C4.1 5 5 4.1 5 3V0Z" fill="var(--fill-0, #70B2FF)"/>
<path id="Vector (Stroke)" fill-rule="evenodd" clip-rule="evenodd" d="M3.01626 10.0498C3.01626 9.69082 3.30727 9.39981 3.66626 9.39981H7.72009C8.07907 9.39981 8.37009 9.69082 8.37009 10.0498C8.37009 10.4088 8.07907 10.6998 7.72009 10.6998H3.66626C3.30727 10.6998 3.01626 10.4088 3.01626 10.0498Z" fill="var(--fill-0, #70B2FF)"/>
<path id="Vector (Stroke)_2" fill-rule="evenodd" clip-rule="evenodd" d="M3.01626 7.0498C3.01626 6.69082 3.30727 6.3998 3.66626 6.3998H12.5685C12.9275 6.3998 13.2185 6.69082 13.2185 7.0498C13.2185 7.40879 12.9275 7.6998 12.5685 7.6998H3.66626C3.30727 7.6998 3.01626 7.40879 3.01626 7.0498Z" fill="var(--fill-0, #70B2FF)"/>
<path id="Vector (Stroke)_3" fill-rule="evenodd" clip-rule="evenodd" d="M3.01626 12.9497C3.01626 12.5907 3.30727 12.2997 3.66626 12.2997H6.77148C7.13047 12.2997 7.42148 12.5907 7.42148 12.9497C7.42148 13.3087 7.13047 13.5997 6.77148 13.5997H3.66626C3.30727 13.5997 3.01626 13.3087 3.01626 12.9497Z" fill="var(--fill-0, #70B2FF)"/>
<path id="&#194;&#163;" d="M11.9306 15.3756C12.2287 15.3756 12.463 15.1414 12.463 14.8433C12.463 14.5452 12.2287 14.3109 11.9306 14.3109H10.408C10.1951 13.8957 10.0035 13.4804 10.0035 12.9907C10.0035 12.3731 10.4826 11.9153 11.2279 11.9153C11.9625 11.9153 12.3778 12.2347 12.6333 12.7032C12.7078 12.8416 12.8356 13.0546 13.155 13.0546C13.4638 13.0546 13.7193 12.799 13.7193 12.4903C13.7193 12.4264 13.7087 12.3518 13.6767 12.2667C13.3041 11.3936 12.431 10.8506 11.2279 10.8506C9.79051 10.8506 8.83226 11.7982 8.83226 12.9907C8.83226 13.4911 9.00262 13.917 9.19427 14.3109H9.03456C8.73644 14.3109 8.5022 14.5452 8.5022 14.8433C8.5022 15.1414 8.73644 15.3756 9.03456 15.3756H9.67339C9.72663 15.546 9.75857 15.7164 9.75857 15.8974C9.75857 16.5149 9.34333 16.9834 9.02391 17.2709C8.8642 17.4093 8.82161 17.5583 8.82161 17.7074C8.82161 18.0162 9.07715 18.2717 9.38592 18.2717C9.56692 18.2717 9.67339 18.1972 9.74792 18.1439C10.0354 17.9416 10.2164 17.8564 10.5784 17.8564C11.2385 17.8564 11.8028 18.3249 12.431 18.3249C13.1763 18.3249 13.7619 18.0907 14.1026 17.3773C14.1452 17.2921 14.1665 17.1963 14.1665 17.1111C14.1665 16.7917 13.911 16.5362 13.5916 16.5362C13.3893 16.5362 13.187 16.6214 13.0698 16.8556C12.9314 17.1537 12.6759 17.2496 12.3778 17.2496C11.8774 17.2496 11.5154 16.9195 10.9298 16.9195C10.6636 16.9195 10.4293 16.9834 10.2058 17.0899C10.5997 16.7811 10.8872 16.2913 10.8872 15.8122C10.8872 15.6631 10.8659 15.5141 10.8339 15.3756H11.9306Z" fill="var(--fill-0, #70B2FF)"/>
</g>
</svg>
