<svg preserveAspectRatio="none" width="100%" height="100%" overflow="visible" style="display: block;" viewBox="0 0 20 16" fill="none" xmlns="http://www.w3.org/2000/svg">
<g id="Payment Details Active icon">
<path id="Rectangle 10994" d="M0 2C0 0.89543 0.895431 0 2 0H16C17.1046 0 18 0.895431 18 2V11C18 12.1046 17.1046 13 16 13H2C0.89543 13 0 12.1046 0 11V2Z" fill="var(--fill-0, #FFC42D)"/>
<path id="Rectangle 10993" d="M2 5C2 3.89543 2.89543 3 4 3H18C19.1046 3 20 3.89543 20 5V14C20 15.1046 19.1046 16 18 16H4C2.89543 16 2 15.1046 2 14V5Z" fill="var(--fill-0, #FFDF8E)"/>
<rect id="Rectangle 1088" x="2" y="5" width="18" height="4" fill="var(--fill-0, #FFA41A)"/>
<path id="Rectangle 10995" d="M9 12.75C9 12.3358 9.33579 12 9.75 12H12.25C12.6642 12 13 12.3358 13 12.75V12.75C13 13.1642 12.6642 13.5 12.25 13.5H9.75C9.33579 13.5 9 13.1642 9 12.75V12.75Z" fill="var(--fill-0, #FFA41A)"/>
<path id="Rectangle 10996" d="M4 12.75C4 12.3358 4.33579 12 4.75 12H7.25C7.66421 12 8 12.3358 8 12.75V12.75C8 13.1642 7.66421 13.5 7.25 13.5H4.75C4.33579 13.5 4 13.1642 4 12.75V12.75Z" fill="var(--fill-0, #FFA41A)"/>
</g>
</svg>
