<svg preserveAspectRatio="none" width="100%" height="100%" overflow="visible" style="display: block;" viewBox="0 0 16 20" fill="none" xmlns="http://www.w3.org/2000/svg">
<g id="PDF icon">
<path id="Vector" d="M2 20C0.895431 20 0 19.1046 0 18V2C0 0.895431 0.895431 0 2 0H11L16 5V18C16 19.1046 15.1046 20 14 20H2Z" fill="var(--fill-0, #FCE9E9)"/>
<path id="Vector 73" d="M11 0L16 5H13C11.8954 5 11 4.10457 11 3V0Z" fill="var(--fill-0, #FB4848)"/>
<path id="PDF (Stroke)" fill-rule="evenodd" clip-rule="evenodd" d="M5.00128 10.7512C4.69678 11.0343 4.27965 11.1676 3.8237 11.1676H3.01775V12.5742C3.01775 12.8889 2.76671 13.15 2.45087 13.15C2.13504 13.15 1.884 12.8889 1.884 12.5742V8.42584C1.884 8.11108 2.13504 7.85 2.45087 7.85H3.8237C4.2713 7.85 4.68814 7.97712 4.99471 8.25618C5.30364 8.53738 5.48308 8.95698 5.48308 9.50514C5.48308 10.0455 5.3076 10.4663 5.00128 10.7512ZM4.1724 9.05797C4.0844 8.96873 3.94911 8.91358 3.75901 8.91358H3.01775V10.104H3.75901C3.95096 10.104 4.08595 10.0463 4.17358 9.9548C4.26201 9.86246 4.32058 9.71657 4.32058 9.50514C4.32058 9.2906 4.26057 9.14738 4.1724 9.05797ZM7.69352 8.91358H7.29008V12.0277H7.69352C8.13301 12.0277 8.45314 11.9259 8.6666 11.7016C8.88188 11.4755 9.01697 11.0954 9.01697 10.4743C9.01697 9.85325 8.8819 9.47102 8.66625 9.24292C8.45258 9.01691 8.13239 8.91358 7.69352 8.91358ZM6.15633 8.42584C6.15633 8.11108 6.40737 7.85 6.7232 7.85H7.69352C8.42901 7.85 9.05799 8.01969 9.50215 8.44926C9.94721 8.8797 10.1795 9.54456 10.1795 10.4743C10.1795 11.404 9.94721 12.0673 9.5019 12.4959C9.05761 12.9236 8.42863 13.0913 7.69352 13.0913H6.7232C6.40737 13.0913 6.15633 12.8302 6.15633 12.5154V8.42584ZM13.1931 11.0208H11.9846V12.5742C11.9846 12.8889 11.7336 13.15 11.4177 13.15C11.1019 13.15 10.8509 12.8889 10.8509 12.5742V8.42584C10.8509 8.11108 11.1019 7.85 11.4177 7.85H13.6602C13.9545 7.85 14.184 8.08905 14.184 8.38179C14.184 8.67453 13.9545 8.91358 13.6602 8.91358H11.9846V9.97188H13.1931C13.4801 9.97188 13.7096 10.2109 13.7096 10.4963C13.7096 10.7817 13.4801 11.0208 13.1931 11.0208Z" fill="var(--fill-0, #FB4848)"/>
</g>
</svg>
