<svg preserveAspectRatio="none" width="100%" height="100%" overflow="visible" style="display: block;" viewBox="0 0 20.1387 21" fill="none" xmlns="http://www.w3.org/2000/svg">
<g id="Phone icon">
<path id="body" d="M19.0234 14.883C17.6378 14.883 16.2972 14.6576 15.0468 14.2521C14.6525 14.1169 14.2132 14.2183 13.909 14.5225L12.1403 16.7417C8.95227 15.2209 5.96697 12.2469 4.37856 9.04753L6.57529 7.1775C6.87945 6.86207 6.96958 6.41146 6.84566 6.01717C6.42884 4.77799 6.20354 3.43742 6.20354 2.05179C6.20354 1.44347 5.6966 0.936528 5.07701 0.936528H1.20175C0.582159 0.936528 0.0752216 1.44347 0.0752216 2.05179C0.0752216 12.5172 8.55798 21 19.0234 21C19.6318 21 20.1387 20.4931 20.1387 19.8735V16.0095C20.1387 15.4012 19.6318 14.883 19.0234 14.883Z" fill="var(--fill-0, #3DBDBA)"/>
<ellipse id="earpiece-highlight" cx="15.351" cy="3.47122" rx="1.97142" ry="1.40816" fill="var(--fill-0, #B8EDE8)"/>
<path id="shadow" d="M18.8883 13.9023C17.507 13.9023 16.1707 13.6777 14.9242 13.2734C14.5312 13.1387 14.0932 13.2398 13.79 13.543L12.027 15.7552C8.84896 14.2392 5.8731 11.2746 4.28972 8.08535L6.47951 6.22122C6.78271 5.90679 6.87254 5.45761 6.74902 5.06457C6.33352 3.82931 6.10893 2.49298 6.10893 1.11173C6.10893 0.505334 5.60359 0 4.98596 0H1.12296C0.505334 0 0 0.505334 0 1.11173C0 11.5441 8.45592 20 18.8883 20C19.4947 20 20 19.4947 20 18.877V15.0253C20 14.4189 19.4947 13.9023 18.8883 13.9023Z" fill="var(--fill-0, #1A8C88)"/>
</g>
</svg>
