<svg preserveAspectRatio="none" width="100%" height="100%" overflow="visible" style="display: block;" viewBox="0 0 3.68182 5.08041" fill="none" xmlns="http://www.w3.org/2000/svg">
<g id="Group 6075">
<path id="Vector 2236 (Stroke)" fill-rule="evenodd" clip-rule="evenodd" d="M0.311017 0.696187C0.339041 0.284663 0.695666 -0.0262459 1.10756 0.00175188C1.49375 0.0280017 2.09402 0.151543 2.62366 0.49549C3.1862 0.860799 3.67203 1.48506 3.68167 2.42092C3.68836 3.07071 3.47202 3.60409 3.11181 4.01197C2.76562 4.40397 2.32065 4.64269 1.91335 4.79099C1.1107 5.08325 0.270299 5.09041 0 5.07638L0.0775636 3.58469C0.243748 3.59332 0.860677 3.58448 1.40142 3.38758C1.66582 3.29131 1.86406 3.16717 1.99075 3.02371C2.10342 2.89614 2.18963 2.72147 2.18669 2.4363C2.1831 2.08842 2.03123 1.89227 1.80889 1.74788C1.55364 1.58213 1.22186 1.50668 1.00608 1.49201C0.594186 1.46401 0.282994 1.10771 0.311017 0.696187Z" fill="var(--fill-0, #FE8CC3)"/>
<path id="Vector 2236 (Stroke)_2" fill-rule="evenodd" clip-rule="evenodd" d="M0.31088 0.696193C0.338903 0.28467 0.695529 -0.0262395 1.10743 0.00175822C1.49361 0.028008 2.09389 0.15155 2.62353 0.495496C3.18606 0.860805 3.69058 1.56319 3.68153 2.42093C3.67348 3.18429 2.77688 3.89939 2.07405 3.99842C1.70076 4.05102 1.30084 3.81328 1.40128 3.38759C1.66569 3.29132 1.86392 3.16717 1.99061 3.02372C2.10328 2.89615 2.18949 2.72148 2.18655 2.4363C2.18297 2.08843 2.03109 1.89228 1.80875 1.74789C1.55351 1.58214 1.22172 1.50668 1.00595 1.49202C0.594048 1.46402 0.282857 1.10772 0.31088 0.696193Z" fill="var(--fill-0, #FF9ACB)"/>
<path id="Vector 2242" d="M0.922099 1.06516C0.4935 0.989298 0.327568 0.639951 0.363094 0.468652C0.363094 0.468652 0.514943 0.0686996 0.955057 0.0120544C1.455 -0.052291 2.09621 0.229793 2.09621 0.229793C2.26331 0.302942 2.35373 0.605813 2.21616 0.802023C2.00933 1.09702 1.51067 1.16934 0.922099 1.06516Z" fill="var(--fill-0, #FFB5D9)"/>
</g>
</svg>
