<svg preserveAspectRatio="none" width="100%" height="100%" overflow="visible" style="display: block;" viewBox="0 0 11.9997 13" fill="none" xmlns="http://www.w3.org/2000/svg">
<g id="Group 6089">
<path id="Vector" d="M1.09375 3.62247C1.09375 3.02629 1.62286 2.56011 2.19381 2.46242C2.69039 2.37746 3.27351 2.1712 3.76067 1.70341C3.80584 1.66004 3.84518 1.6093 3.88025 1.55695C4.96447 -0.0618545 6.29023 -0.332394 6.95316 0.35039C8.05585 1.4861 9.31327 2.23204 11.0317 2.38766C11.5595 2.43546 11.9996 2.86522 11.9996 3.411V5.8705C11.9996 5.87966 11.9997 5.88826 11.9997 5.89741C12.0009 6.15425 11.9287 10.1102 6.48403 12.9144C6.48403 12.9144 5.46812 13.4647 4.37453 11.775C3.28094 10.0853 1.09375 9.16836 1.09375 6.1797C1.09375 4.97977 1.09375 4.16953 1.09375 3.62247Z" fill="var(--fill-0, #469BFF)"/>
<path id="Vector_2" d="M0 3.36236C0 2.86459 0.366024 2.44661 0.840103 2.35014C1.93417 2.1275 3.83108 1.57889 4.88617 0.335738C5.15712 0.0164924 5.81476 -0.0254598 6.09627 0.283948C6.75407 1.00696 7.98116 1.96504 10.0657 2.36303C10.539 2.45339 10.9058 2.86351 10.9058 3.35935V5.88421C10.9058 5.88421 11.1681 9.9076 5.67446 12.7876C5.53804 12.8592 5.37542 12.8574 5.24388 12.7767C4.24432 12.1638 0 9.37296 0 6.17968C0 4.77292 0 3.90175 0 3.36236Z" fill="var(--fill-0, #8CC1FF)"/>
<path id="Vector (Stroke)" fill-rule="evenodd" clip-rule="evenodd" d="M7.82762 4.71318C8.07936 4.94368 8.10204 5.34075 7.87827 5.60006L5.37626 8.49944C5.26053 8.63355 5.09464 8.71028 4.92044 8.71028C4.74624 8.71028 4.58036 8.63355 4.46463 8.49944L3.21362 7.04975C2.98985 6.79044 3.01253 6.39337 3.26427 6.16287C3.51601 5.93238 3.90149 5.95573 4.12526 6.21504L4.92044 7.13652L6.96663 4.76535C7.1904 4.50604 7.57588 4.48268 7.82762 4.71318Z" fill="var(--fill-0, #F4F9FF)"/>
</g>
</svg>
