<svg preserveAspectRatio="none" width="100%" height="100%" overflow="visible" style="display: block;" viewBox="0 0 20 20" fill="none" xmlns="http://www.w3.org/2000/svg">
<g id="Policy Schedule icon">
<path id="Rectangle 10705" d="M2 5C2 3.89543 2.89543 3 4 3L18 3C19.1046 3 20 3.89543 20 5L20 18C20 19.1046 19.1046 20 18 20L4 20C2.89543 20 2 19.1046 2 18L2 5Z" fill="var(--fill-0, #FFB0CD)"/>
<g id="Group 5424">
<path id="Rectangle 10568" d="M2 5C2 3.89543 2.89543 3 4 3L18 3C19.1046 3 20 3.89543 20 5V8L2 8L2 5Z" fill="var(--fill-0, #F43E8E)"/>
<path id="Rectangle 10567" d="M2 5C2 3.89543 2.89543 3 4 3L16 3C17.1046 3 18 3.89543 18 5V18C18 19.1046 17.1046 20 16 20L4 20C2.89543 20 2 19.1046 2 18L2 5Z" fill="var(--fill-0, #FFE8ED)"/>
<path id="Rectangle 10569" d="M2 5C2 3.89543 2.89543 3 4 3L16 3C17.1046 3 18 3.89543 18 5V8L2 8L2 5Z" fill="var(--fill-0, #F791BF)"/>
</g>
<rect id="Rectangle 10703" x="6" y="2" width="2" height="4" rx="1" fill="var(--fill-0, #F43E8E)"/>
<path id="Rectangle 10704" d="M13 3C13 2.44772 13.4477 2 14 2V2C14.5523 2 15 2.44772 15 3V5C15 5.55228 14.5523 6 14 6V6C13.4477 6 13 5.55228 13 5V3Z" fill="var(--fill-0, #F43E8E)"/>
<g id="Content">
<circle id="Ellipse 68" cx="5.20001" cy="4.8" r="4.5" fill="var(--fill-0, #F43E8E)"/>
<circle id="Ellipse 69" cx="4.5" cy="4.5" r="4.5" fill="var(--fill-0, #FF7DB6)"/>
<path id="Vector 52 (Stroke)" fill-rule="evenodd" clip-rule="evenodd" d="M4.16667 1.5C4.53486 1.5 4.83333 1.79848 4.83333 2.16667V4.16667H6.83333C7.20152 4.16667 7.5 4.46514 7.5 4.83333C7.5 5.20152 7.20152 5.5 6.83333 5.5H4.16667C3.79848 5.5 3.5 5.20152 3.5 4.83333V2.16667C3.5 1.79848 3.79848 1.5 4.16667 1.5Z" fill="var(--fill-0, white)"/>
</g>
<g id="time">
<path id="Vector (Stroke)" fill-rule="evenodd" clip-rule="evenodd" d="M5.34961 13.5467C5.34961 13.1877 5.64062 12.8967 5.99961 12.8967H7.49961C7.85859 12.8967 8.14961 13.1877 8.14961 13.5467C8.14961 13.9057 7.85859 14.1967 7.49961 14.1967H5.99961C5.64062 14.1967 5.34961 13.9057 5.34961 13.5467ZM9.34961 13.5467C9.34961 13.1877 9.64062 12.8967 9.99961 12.8967H14.9996C15.3586 12.8967 15.6496 13.1877 15.6496 13.5467C15.6496 13.9057 15.3586 14.1967 14.9996 14.1967H9.99961C9.64062 14.1967 9.34961 13.9057 9.34961 13.5467Z" fill="var(--fill-0, #FF7AAA)" fill-opacity="0.57"/>
<path id="Vector (Stroke)_2" fill-rule="evenodd" clip-rule="evenodd" d="M5.34961 16.4471C5.34961 16.0881 5.64062 15.7971 5.99961 15.7971H10.4996C10.8586 15.7971 11.1496 16.0881 11.1496 16.4471C11.1496 16.8061 10.8586 17.0971 10.4996 17.0971H5.99961C5.64062 17.0971 5.34961 16.8061 5.34961 16.4471ZM12.3496 16.4471C12.3496 16.0881 12.6406 15.7971 12.9996 15.7971H14.9996C15.3586 15.7971 15.6496 16.0881 15.6496 16.4471C15.6496 16.8061 15.3586 17.0971 14.9996 17.0971H12.9996C12.6406 17.0971 12.3496 16.8061 12.3496 16.4471Z" fill="var(--fill-0, #FF7AAA)" fill-opacity="0.57"/>
<path id="Vector 55 (Stroke)" fill-rule="evenodd" clip-rule="evenodd" d="M9.34863 10.65C9.34863 10.291 9.63965 10 9.99863 10H14.9986C15.3576 10 15.6486 10.291 15.6486 10.65C15.6486 11.009 15.3576 11.3 14.9986 11.3H9.99863C9.63965 11.3 9.34863 11.009 9.34863 10.65Z" fill="var(--fill-0, #FF7AAA)" fill-opacity="0.57"/>
</g>
</g>
</svg>
