<svg preserveAspectRatio="none" width="100%" height="100%" overflow="visible" style="display: block;" viewBox="0 0 16 20" fill="none" xmlns="http://www.w3.org/2000/svg">
<g id="Group 6090">
<path id="Vector" d="M2 20C0.895431 20 0 19.1046 0 18V4C0 1.79086 1.79086 0 4 0H11L16 5V18C16 19.1046 15.1046 20 14 20H2Z" fill="var(--fill-0, #D9EAFF)"/>
<path id="Vector 72" d="M11 0L16 5H13C11.8954 5 11 4.10457 11 3V0Z" fill="var(--fill-0, #8CC1FF)"/>
<path id="Vector (Stroke)" fill-rule="evenodd" clip-rule="evenodd" d="M8.26074 10C8.26074 9.64102 8.55176 9.35001 8.91074 9.35001L12.9107 9.35001C13.2697 9.35001 13.5607 9.64102 13.5607 10C13.5607 10.359 13.2697 10.65 12.9107 10.65L8.91074 10.65C8.55176 10.65 8.26074 10.359 8.26074 10Z" fill="var(--fill-0, #8CC1FF)"/>
<path id="Vector (Stroke)_2" fill-rule="evenodd" clip-rule="evenodd" d="M10.2607 7.00001C10.2607 6.64102 10.5518 6.35001 10.9107 6.35001L12.9107 6.35001C13.2697 6.35001 13.5607 6.64102 13.5607 7.00001C13.5607 7.35899 13.2697 7.65001 12.9107 7.65001L10.9107 7.65001C10.5518 7.65001 10.2607 7.35899 10.2607 7.00001Z" fill="var(--fill-0, #8CC1FF)"/>
<path id="Vector (Stroke)_3" fill-rule="evenodd" clip-rule="evenodd" d="M6.26074 13C6.26074 12.641 6.55176 12.35 6.91074 12.35L12.9107 12.35C13.2697 12.35 13.5607 12.641 13.5607 13C13.5607 13.359 13.2697 13.65 12.9107 13.65L6.91074 13.65C6.55176 13.65 6.26074 13.359 6.26074 13Z" fill="var(--fill-0, #8CC1FF)"/>
<path id="Vector (Stroke)_4" fill-rule="evenodd" clip-rule="evenodd" d="M2.26074 16C2.26074 15.641 2.55176 15.35 2.91074 15.35L12.9107 15.35C13.2697 15.35 13.5607 15.641 13.5607 16C13.5607 16.359 13.2697 16.65 12.9107 16.65L2.91074 16.65C2.55176 16.65 2.26074 16.359 2.26074 16Z" fill="var(--fill-0, #8CC1FF)"/>
</g>
</svg>
