<svg preserveAspectRatio="none" width="100%" height="100%" overflow="visible" style="display: block;" viewBox="0 0 22 17" fill="none" xmlns="http://www.w3.org/2000/svg">
<g id="Steps icon">
<path id="Vector" d="M6.02862 0.262252C4.71241 1.02046 4.24428 1.68544 2.98828 3.31428C6.19821 4.93184 7.75064 8.6314 8.12561 10.2789C8.12561 10.2789 14.2254 14.7223 15.2879 14.922C16.3504 15.1217 18.8428 15.3938 20.3128 14.8846C21.7827 14.3754 21.9252 13.2995 21.8127 12.8252L16.7879 10.0543L14.6129 3.20199C13.293 2.57293 12.488 3.91343 12.2505 4.66231C7.81062 4.45263 7.91718 1.39038 7.91779 0.869942C7.9184 0.349502 7.11278 -0.362288 6.02862 0.262252Z" fill="var(--fill-0, #86C0FF)"/>
<path id="Vector_2" d="M13.8995 9.8421L13.3462 8.0844C11.382 7.7672 7.71214 6.85522 6.79004 6.64816C7.45394 7.6325 7.87236 8.9214 7.96456 9.4404C10.0037 9.6243 12.5278 9.7569 13.8995 9.8421Z" fill="var(--fill-0, #D7E8FF)"/>
<path id="Vector_3" d="M8.23926 10.4914C11.3967 10.4503 13.3006 10.5323 16.7053 10.5507C17.4377 10.5546 20.036 12.3474 20.0728 12.7517C20.1101 13.1605 19.5862 14.0485 16.024 14.3873C13.3187 14.6445 10.4293 11.741 8.23926 10.4914Z" fill="var(--fill-0, #D7E8FF)"/>
<path id="Vector_4" d="M12.2828 4.64642L13.1241 7.3796C11.2164 6.87179 6.86293 5.72166 5.58299 5.08534C4.61668 4.13864 3.53904 3.5251 2.98828 3.31537C3.50973 2.6401 4.61503 1.01133 5.75587 0.318889C7.24214 -0.459361 7.88401 0.369439 7.96009 0.869469C7.82731 3.99869 10.7866 4.69128 12.2828 4.64642Z" fill="var(--fill-0, #D7E8FF)"/>
<path id="Vector_5" d="M14.139 8.7315C13.8494 7.8137 15.5606 7.6052 16.4524 7.6157C17.1575 8.0306 17.103 8.9411 16.9876 9.3445C16.6413 9.4073 14.5009 9.8788 14.139 8.7315Z" fill="var(--fill-0, #569DE9)"/>
<path id="Vector_6" d="M14.1451 8.6934C13.8914 8.033 14.9207 7.6771 16.268 7.6154C16.7904 7.8684 17.0405 8.6028 16.6885 8.7381C16.4349 8.8357 14.8427 9.0107 14.1451 8.6934Z" fill="var(--fill-0, #569DE9)"/>
<path id="Vector_7" d="M13.2901 6.24761C12.9861 5.28417 14.7824 5.06533 15.7185 5.07634C16.4587 5.51184 16.4014 6.46758 16.2803 6.89101C15.9168 6.957 13.67 7.4519 13.2901 6.24761Z" fill="var(--fill-0, #569DE9)"/>
<path id="Vector_8" d="M13.2694 6.22036C13.0004 5.51993 14.0921 5.14242 15.521 5.07697C16.0751 5.34537 16.3403 6.12421 15.967 6.2678C15.698 6.37123 14.0094 6.55689 13.2694 6.22036Z" fill="var(--fill-0, #569DE9)"/>
<path id="Vector_9" d="M3.06297 3.23941C4.61291 3.83853 7.59719 6.25636 8.15548 10.26L8.15088 10.2779C8.66753 10.6441 14.0694 14.4635 15.1545 14.8521C16.2943 15.2603 21.9502 15.6637 21.8159 12.8305C21.8159 12.8305 22.0437 13.4781 21.9925 13.9103C21.8842 14.824 21.2901 16.0295 20.0559 16.609C18.8217 17.1885 14.0485 17.0348 13.2627 16.7193C11.9327 16.1852 8.88281 14.218 7.41285 13.0498L7.41501 13.0411C5.39912 11.7153 1.70426 9.1912 0.232959 7.4987C-0.240398 6.9541 0.0663388 6.23397 0.627659 5.78034C1.26942 5.2617 2.12144 4.44069 3.06297 3.23941Z" fill="var(--fill-0, #569DE9)"/>
<path id="Vector_10" d="M3.04509 3.22992C4.59503 3.82904 7.59687 6.25636 8.15516 10.26L8.15056 10.2779C8.66721 10.6441 14.0691 14.4635 15.1542 14.8521C16.294 15.2603 19.1637 15.2802 20.5256 14.6586C20.2663 15.3085 20.0204 15.6254 19.3299 16.0246C18.0957 16.6041 14.3481 16.4842 13.5623 16.1687C12.2323 15.6346 9.13428 13.6959 7.66435 12.5276C5.64846 11.2019 2.16196 9.126 0.690653 7.4334C0.217303 6.8889 0.248873 6.42696 0.810193 5.97333C1.45195 5.45469 2.10356 4.43121 3.04509 3.22992Z" fill="var(--fill-0, #569DE9)"/>
<path id="Vector_11" d="M8.25 15.5H3.75C3.33579 15.5 3 15.8358 3 16.25C3 16.6642 3.33579 17 3.75 17H8.25C8.66421 17 9 16.6642 9 16.25C9 15.8358 8.66421 15.5 8.25 15.5Z" fill="var(--fill-0, #569DE9)"/>
<path id="Vector_12" d="M4.25 13H1.75C1.33579 13 1 13.3358 1 13.75C1 14.1642 1.33579 14.5 1.75 14.5H4.25C4.66421 14.5 5 14.1642 5 13.75C5 13.3358 4.66421 13 4.25 13Z" fill="var(--fill-0, #569DE9)"/>
</g>
</svg>
