<svg preserveAspectRatio="none" width="100%" height="100%" overflow="visible" style="display: block;" viewBox="0 0 14 22" fill="none" xmlns="http://www.w3.org/2000/svg">
<g id="Surge">
<path id="Vector" d="M13.4406 9.42881L10.7189 8.55908L13.8571 4.11048C14.1574 3.68062 13.9637 3.07081 13.4697 2.91086L5.58528 0.401652H5.5756L4.47139 0.0517621C3.88055 -0.138178 3.25096 0.211712 3.06692 0.82152L0.0352055 10.9583C-0.0907124 11.3682 0.132066 11.7981 0.529192 11.928L2.56325 12.5778L0.161124 20.6253C0.0255196 21.0951 0.306413 21.485 0.674481 21.605L1.82711 21.9749C2.05958 22.0348 2.3211 21.9948 2.53419 21.7749L13.7215 10.6084C14.0799 10.2386 13.9346 9.58876 13.4406 9.42881Z" fill="var(--fill-0, #F8A528)"/>
<path id="Vector_2" d="M12.317 9.06892L9.59528 8.19919L12.7335 3.7506C13.0338 3.32073 12.8401 2.71092 12.3461 2.55097L4.47139 0.0517621C3.88055 -0.138178 3.25096 0.211712 3.06692 0.82152L0.0352055 10.9583C-0.0907124 11.3682 0.132066 11.7981 0.529192 11.928L2.56325 12.5778L0.161124 20.6253C-0.0713403 21.395 0.848829 21.9749 1.41062 21.415L12.5979 10.2485C12.966 9.87867 12.811 9.22887 12.317 9.06892Z" fill="var(--fill-0, #FCE93D)"/>
<path id="Vector_3" d="M9.9056 9.30889L10.5354 9.50889C10.952 9.63889 11.078 10.1789 10.7679 10.4989L9.78933 11.4789C9.36301 11.8989 8.67509 11.4589 8.84949 10.8789L9.1983 9.70889C9.2855 9.38889 9.60524 9.20889 9.9056 9.30889Z" fill="var(--fill-0, #FBF5BA)"/>
</g>
</svg>
