<svg preserveAspectRatio="none" width="100%" height="100%" overflow="visible" style="display: block;" viewBox="0 0 18.828 19.3029" fill="none" xmlns="http://www.w3.org/2000/svg">
<g id="Tag">
<path id="Exclude" fill-rule="evenodd" clip-rule="evenodd" d="M7.50002 0L1.67578 8.13668L4.27044 17.8201C4.55633 18.887 5.653 19.5202 6.71993 19.2343L17.3451 16.3873C18.412 16.1014 19.0452 15.0047 18.7593 13.9378L16.1647 4.25439L7.50002 0ZM9.57374 8.63449C10.6407 8.34861 11.2738 7.25193 10.988 6.185C10.7021 5.11807 9.6054 4.48491 8.53847 4.77079C7.47153 5.05667 6.83837 6.15335 7.12425 7.22028C7.41014 8.28721 8.50681 8.92038 9.57374 8.63449Z" fill="var(--fill-0, #F7B7D6)"/>
<path id="Exclude_2" fill-rule="evenodd" clip-rule="evenodd" d="M7.5 0L0 6.475V16.5C0 17.6046 0.89543 18.5 2 18.5H13C14.1046 18.5 15 17.6046 15 16.5V6.475L7.5 0ZM7.5 9C8.60457 9 9.5 8.10457 9.5 7C9.5 5.89543 8.60457 5 7.5 5C6.39543 5 5.5 5.89543 5.5 7C5.5 8.10457 6.39543 9 7.5 9Z" fill="var(--fill-0, #F43E8E)"/>
</g>
</svg>
