<svg preserveAspectRatio="none" width="100%" height="100%" overflow="visible" style="display: block;" viewBox="0 0 11.3001 10.3012" fill="none" xmlns="http://www.w3.org/2000/svg">
<g id="Group 1380">
<g id="Group 981">
<path id="Vector (Stroke)" fill-rule="evenodd" clip-rule="evenodd" d="M0 3.65079C0 3.29181 0.291015 3.00079 0.65 3.00079H10.65C11.009 3.00079 11.3 3.29181 11.3 3.65079C11.3 4.00978 11.009 4.30079 10.65 4.30079H0.65C0.291015 4.30079 0 4.00978 0 3.65079Z" fill="var(--fill-0, #FFB13B)"/>
<path id="Vector (Stroke)_2" fill-rule="evenodd" clip-rule="evenodd" d="M0.0001297 0.65C0.0001297 0.291015 0.291145 0 0.65013 0H10.6501C11.0091 0 11.3001 0.291015 11.3001 0.65C11.3001 1.00899 11.0091 1.3 10.6501 1.3H0.65013C0.291145 1.3 0.0001297 1.00899 0.0001297 0.65Z" fill="var(--fill-0, #FFB13B)"/>
<path id="Vector (Stroke)_3" fill-rule="evenodd" clip-rule="evenodd" d="M0 6.65037C0 6.29138 0.291015 6.00037 0.65 6.00037H10.65C11.009 6.00037 11.3 6.29138 11.3 6.65037C11.3 7.00935 11.009 7.30037 10.65 7.30037H0.65C0.291015 7.30037 0 7.00935 0 6.65037Z" fill="var(--fill-0, #FFB13B)"/>
</g>
<path id="Vector (Stroke)_4" fill-rule="evenodd" clip-rule="evenodd" d="M6.81128 9.65116C6.81128 9.29217 7.10229 9.00116 7.46128 9.00116L9.46128 9.00116C9.82026 9.00116 10.1113 9.29217 10.1113 9.65116C10.1113 10.0101 9.82026 10.3012 9.46128 10.3012L7.46128 10.3012C7.10229 10.3012 6.81128 10.0101 6.81128 9.65116Z" fill="var(--fill-0, #FFB13B)"/>
</g>
</svg>
