<svg preserveAspectRatio="none" width="100%" height="100%" overflow="visible" style="display: block;" viewBox="0 0 21 20" fill="none" xmlns="http://www.w3.org/2000/svg">
<g id="Time icon">
<g id="Clock">
<circle id="Ellipse 68" cx="11" cy="10" r="10" fill="var(--fill-0, #7EACF0)"/>
<circle id="Ellipse 70" cx="10" cy="10" r="8.5" fill="var(--fill-0, #F1F7FF)"/>
</g>
<g id="Group 4103">
<path id="Rectangle 10503" d="M9.5 1.57141C9.5 1.29527 9.72386 1.07141 10 1.07141C10.2761 1.07141 10.5 1.29527 10.5 1.57141V2.57141C10.5 2.84755 10.2761 3.07141 10 3.07141C9.72386 3.07141 9.5 2.84755 9.5 2.57141V1.57141Z" fill="var(--fill-0, #7EACF0)"/>
<path id="Rectangle 10504" d="M9.5 17.3333C9.5 17.0572 9.72386 16.8333 10 16.8333C10.2761 16.8333 10.5 17.0572 10.5 17.3333V18.3333C10.5 18.6095 10.2761 18.8333 10 18.8333C9.72386 18.8333 9.5 18.6095 9.5 18.3333V17.3333Z" fill="var(--fill-0, #7EACF0)"/>
<path id="Rectangle 10505" d="M2.16699 9.5C2.44313 9.5 2.66699 9.72386 2.66699 10C2.66699 10.2761 2.44313 10.5 2.16699 10.5L1.16699 10.5C0.89085 10.5 0.666992 10.2761 0.666992 10C0.666992 9.72386 0.89085 9.5 1.16699 9.5L2.16699 9.5Z" fill="var(--fill-0, #7EACF0)"/>
<path id="Rectangle 10506" d="M18.5 9.5C18.7761 9.5 19 9.72386 19 10C19 10.2761 18.7761 10.5 18.5 10.5L17.5 10.5C17.2239 10.5 17 10.2761 17 10C17 9.72386 17.2239 9.5 17.5 9.5L18.5 9.5Z" fill="var(--fill-0, #7EACF0)"/>
</g>
<path id="Ellipse 70 (Stroke)" fill-rule="evenodd" clip-rule="evenodd" d="M10 18.5C14.6944 18.5 18.5 14.6944 18.5 10C18.5 5.30558 14.6944 1.5 10 1.5C5.30558 1.5 1.5 5.30558 1.5 10C1.5 14.6944 5.30558 18.5 10 18.5ZM10 20C15.5228 20 20 15.5228 20 10C20 4.47715 15.5228 0 10 0C4.47715 0 0 4.47715 0 10C0 15.5228 4.47715 20 10 20Z" fill="var(--fill-0, #B6DCFF)"/>
<path id="Vector 3434 (Stroke)" fill-rule="evenodd" clip-rule="evenodd" d="M10 5.25C10.4142 5.25 10.75 5.58579 10.75 6V9.25H14C14.4142 9.25 14.75 9.58579 14.75 10C14.75 10.4142 14.4142 10.75 14 10.75H10C9.58579 10.75 9.25 10.4142 9.25 10V6C9.25 5.58579 9.58579 5.25 10 5.25Z" fill="var(--fill-0, #7EACF0)"/>
</g>
</svg>
