<svg preserveAspectRatio="none" width="100%" height="100%" overflow="visible" style="display: block;" viewBox="0 0 15.9997 19" fill="none" xmlns="http://www.w3.org/2000/svg">
<g id="Tree icon">
<path id="Ellipse 1005" d="M15.6602 15.1838C15.6602 17.5625 12.4962 18.9999 8.42849 18.9999C4.36077 18.9999 0.929688 17.5625 0.929688 15.1838C0.929688 12.8051 4.13138 9.01171 8.1991 9.01171C12.2668 9.01171 15.6602 12.8051 15.6602 15.1838Z" fill="var(--fill-0, #DA8751)"/>
<path id="Subtract" d="M5.6035 17.5092C9.67122 17.5092 12.8352 16.0717 12.8352 13.6931C12.8352 12.3666 11.78 10.6002 10.141 9.297C13.292 10.2225 15.6599 13.1968 15.6599 15.1839C15.6599 17.5626 12.4959 19 8.4282 19C5.55074 19 2.99185 18.2807 1.7407 17.0177C2.87661 17.3386 4.20228 17.5092 5.6035 17.5092Z" fill="var(--fill-0, #D37132)"/>
<path id="Vector" d="M0 1.77779V0H3.11112C6.22225 0 9.33337 2.22223 9.33337 5.33336V8.00004H6.22225C2.78579 8.00004 0 5.21425 0 1.77779Z" fill="var(--fill-0, #37C4A0)"/>
<g id="Vector_2">
<path d="M8.99972 10C8.99972 10.5523 8.55201 11 7.99972 11C7.44744 11 6.99972 10.5523 6.99972 10C6.99972 9.44775 7.44744 9.00003 7.99972 9.00003C8.55201 9.00003 8.99972 9.44775 8.99972 10Z" fill="var(--fill-0, #028989)"/>
<path d="M15.9997 2.80003V1.00003H13.2997C9.82032 1.00003 6.99972 3.82063 6.99972 7.30003V10H8.99972V9.10003H9.69972C13.1791 9.10003 15.9997 6.27943 15.9997 2.80003Z" fill="var(--fill-0, #028989)"/>
</g>
</g>
</svg>
