<svg preserveAspectRatio="none" width="100%" height="100%" overflow="visible" style="display: block;" viewBox="0 0 21 20" fill="none" xmlns="http://www.w3.org/2000/svg">
<g id="Turns icon">
<g id="Clock">
<circle id="Ellipse 68" cx="11" cy="10" r="10" fill="var(--fill-0, #BADAFF)"/>
<circle id="Ellipse 69" cx="10" cy="10" r="10" fill="var(--fill-0, #70B2FF)"/>
</g>
<g id="Vector">
<path d="M11.9377 4.32152C10.5393 3.8443 9.01391 3.89991 7.6539 4.47769C6.82228 4.831 6.08826 5.36436 5.5 6.03136V5.625C5.5 5.21079 5.16421 4.875 4.75 4.875C4.33579 4.875 4 5.21079 4 5.625V8.70833H7.08333C7.49755 8.70833 7.83333 8.37255 7.83333 7.95833C7.83333 7.54412 7.49755 7.20833 7.08333 7.20833H6.47059C6.93482 6.62146 7.54168 6.15512 8.24043 5.85827C9.26043 5.42494 10.4045 5.38323 11.4533 5.74114C12.5022 6.09906 13.382 6.83142 13.9244 7.79789C14.4667 8.76436 14.6333 9.89697 14.3923 10.9787C14.1512 12.0604 13.5195 13.0151 12.6182 13.6599C11.7169 14.3047 10.6093 14.5942 9.5077 14.473C8.40612 14.3517 7.38801 13.8283 6.64848 13.0029C6.25281 12.5613 5.95177 12.0499 5.75736 11.5C5.61928 11.1095 5.19077 10.9048 4.80025 11.0429C4.40972 11.181 4.20507 11.6095 4.34315 12C4.60235 12.7331 5.00374 13.415 5.53131 14.0038C6.51735 15.1044 7.87482 15.8023 9.3436 15.964C10.8124 16.1256 12.2891 15.7396 13.4909 14.8799C14.6927 14.0201 15.535 12.7472 15.8564 11.3049C16.1777 9.86263 15.9556 8.35248 15.2325 7.06385C14.5094 5.77523 13.3362 4.79874 11.9377 4.32152Z" fill="var(--fill-0, white)"/>
<path d="M8.92308 11.5764V8.10658C8.92308 7.90111 9.15017 7.77683 9.32323 7.88759L12.034 9.62248C12.1938 9.72475 12.1938 9.95819 12.034 10.0605L9.32323 11.7954C9.15017 11.9061 8.92308 11.7818 8.92308 11.5764Z" fill="var(--fill-0, white)"/>
</g>
</g>
</svg>
