<svg preserveAspectRatio="none" width="100%" height="100%" overflow="visible" style="display: block;" viewBox="0 0 21.9027 21.9027" fill="none" xmlns="http://www.w3.org/2000/svg">
<g id="Unlink">
<path id="Subtract" fill-rule="evenodd" clip-rule="evenodd" d="M3.44571 18.4573C0.48849 15.5001 0.488493 10.7055 3.44572 7.74828L4.4921 6.7019L8.26121 10.471C8.19745 10.5222 8.13582 10.5774 8.07667 10.6366L6.59932 12.1139C5.71852 12.9947 5.71852 14.4228 6.59932 15.3036C7.48013 16.1844 8.90821 16.1844 9.78902 15.3036L11.2664 13.8263C11.3255 13.7671 11.3807 13.7055 11.4319 13.6417L15.2012 17.411L14.1548 18.4573C11.1975 21.4146 6.40294 21.4146 3.44571 18.4573Z" fill="var(--fill-0, #FABBBB)"/>
<path id="Rectangle 10538" d="M16.7603 21.9027C17.3407 21.9027 17.8113 21.4321 17.8113 20.8517L17.8113 18.8625C17.8113 18.282 17.3407 17.8115 16.7603 17.8115V17.8115C16.1798 17.8115 15.7092 18.282 15.7092 18.8625L15.7092 20.8517C15.7092 21.4322 16.1798 21.9027 16.7603 21.9027V21.9027Z" fill="var(--fill-0, #FABBBB)"/>
<path id="Rectangle 10540" d="M7.49119e-08 5.14227C9.93767e-08 4.56181 0.47056 4.09125 1.05103 4.09125L3.04023 4.09125C3.6207 4.09125 4.09126 4.56181 4.09126 5.14227V5.14227C4.09126 5.72274 3.6207 6.1933 3.04023 6.1933L1.05103 6.1933C0.47056 6.1933 5.04471e-08 5.72274 7.49119e-08 5.14227V5.14227Z" fill="var(--fill-0, #FABBBB)"/>
<path id="Rectangle 10539" d="M21.9027 16.7604C21.9027 17.3409 21.4321 17.8115 20.8517 17.8115L18.8625 17.8115C18.282 17.8115 17.8115 17.3409 17.8115 16.7604V16.7604C17.8115 16.18 18.282 15.7094 18.8625 15.7094L20.8517 15.7094C21.4322 15.7094 21.9027 16.18 21.9027 16.7604V16.7604Z" fill="var(--fill-0, #FB4848)"/>
<path id="Rectangle 10541" d="M5.14221 0C4.56175 2.44648e-08 4.09119 0.47056 4.09119 1.05103L4.09119 3.04023C4.09119 3.6207 4.56175 4.09126 5.14221 4.09126V4.09126C5.72268 4.09126 6.19324 3.6207 6.19324 3.04023L6.19324 1.05103C6.19324 0.47056 5.72268 -2.44648e-08 5.14221 0V0Z" fill="var(--fill-0, #FB4848)"/>
<path id="Subtract_2" fill-rule="evenodd" clip-rule="evenodd" d="M18.4672 3.43581C15.51 0.478588 10.7154 0.478591 7.75814 3.43582L6.71176 4.4822L10.4749 8.24531C10.5278 8.17887 10.585 8.11472 10.6465 8.05322L12.0389 6.66085C12.9235 5.77629 14.3576 5.77629 15.2422 6.66085C16.1268 7.54542 16.1268 8.97958 15.2422 9.86414L13.8498 11.2565C13.7883 11.318 13.7242 11.3752 13.6577 11.4282L17.4208 15.1912L18.4672 14.1449C21.4244 11.1876 21.4244 6.39304 18.4672 3.43581Z" fill="var(--fill-0, #FB4848)"/>
<path id="Rectangle 10533" d="M8.34282 13.5595C7.87445 13.0911 7.87445 12.3317 8.34282 11.8634L11.9647 8.24151C12.433 7.77314 13.1924 7.77314 13.6608 8.24151V8.24151C14.1292 8.70989 14.1292 9.46928 13.6608 9.93766L10.039 13.5595C9.57059 14.0279 8.8112 14.0279 8.34282 13.5595V13.5595Z" fill="var(--fill-0, #FB4848)"/>
</g>
</svg>
