<svg preserveAspectRatio="none" width="100%" height="100%" overflow="visible" style="display: block;" viewBox="0 0 20 16" fill="none" xmlns="http://www.w3.org/2000/svg">
<g id="Voucher icon">
<path id="Subtract" fill-rule="evenodd" clip-rule="evenodd" d="M1.98086 0C0.886862 0 0 0.909206 0 2.03077V5.4C0.828427 5.4 1.5 6.07157 1.5 6.9C1.5 7.72843 0.828427 8.4 0 8.4V11.1692C0 12.2908 0.886865 13.2 1.98086 13.2H16.0191C17.1131 13.2 18 12.2908 18 11.1692V8.4C17.1716 8.4 16.5 7.72843 16.5 6.9C16.5 6.07157 17.1716 5.4 18 5.4V2.03077C18 0.909207 17.1131 0 16.0191 0H1.98086ZM10.8 8.1C11.7941 8.1 12.6 7.29411 12.6 6.3C12.6 5.30589 11.7941 4.5 10.8 4.5C9.80589 4.5 9 5.30589 9 6.3C9 7.29411 9.80589 8.1 10.8 8.1Z" fill="var(--fill-0, #FFB803)"/>
<path id="Subtract_2" fill-rule="evenodd" clip-rule="evenodd" d="M3.98086 3C2.88686 3 2 3.90921 2 5.03077V8.4C2.82843 8.4 3.5 9.07157 3.5 9.9C3.5 10.7284 2.82843 11.4 2 11.4V13.9692C2 15.0908 2.88686 16 3.98086 16H18C19.094 16 19.9809 15.0908 19.9809 13.9692L20 11.4C19.1716 11.4 18.5 10.7284 18.5 9.9C18.5 9.07157 19.1716 8.4 20 8.4V5.03077C20 3.90921 19.1131 3 18.0191 3H3.98086ZM12.8 11.1C13.7941 11.1 14.6 10.2941 14.6 9.3C14.6 8.30589 13.7941 7.5 12.8 7.5C11.8059 7.5 11 8.30589 11 9.3C11 10.2941 11.8059 11.1 12.8 11.1Z" fill="var(--fill-0, #FFE200)"/>
<rect id="Rectangle 10141" x="6" y="3" width="1" height="13" fill="var(--fill-0, #FFD100)"/>
</g>
</svg>
