<svg preserveAspectRatio="none" width="100%" height="100%" overflow="visible" style="display: block;" viewBox="0 0 21 20.8615" fill="none" xmlns="http://www.w3.org/2000/svg">
<g id="Wallet icon">
<path id="Rectangle 994" d="M18.1406 3.49374C18.5791 3.69685 18.7699 4.21698 18.5668 4.65547L12.3145 18.1536C12.1114 18.5921 11.5913 18.7829 11.1528 18.5798L4.40408 15.4538C3.96558 15.2507 3.77476 14.7306 3.97787 14.2921L10.2301 0.793968C10.4333 0.355471 10.9534 0.164653 11.3919 0.367763L18.1406 3.49374Z" fill="var(--fill-0, #37C4A0)"/>
<path id="Rectangle 995" d="M12.6305 2.26372C13.1107 2.31773 13.4562 2.75081 13.4022 3.23103L11.7516 17.9075C11.6976 18.3878 11.2645 18.7333 10.7843 18.6793L3.39334 17.848C2.91312 17.794 2.5676 17.3609 2.62161 16.8807L4.27221 2.20422C4.32622 1.724 4.7593 1.37848 5.23953 1.43249L12.6305 2.26372Z" fill="var(--fill-0, #028989)"/>
<path id="Rectangle 10990" d="M0 7.86151C0 6.75694 0.895431 5.86151 2 5.86151H17.5C18.6046 5.86151 19.5 6.75694 19.5 7.86151V18.8615C19.5 19.9661 18.6046 20.8615 17.5 20.8615H2C0.89543 20.8615 0 19.9661 0 18.8615V7.86151Z" fill="var(--fill-0, #E59D40)"/>
<path id="Rectangle 993" d="M14.5 13.2365C14.5 11.6487 15.8944 10.3615 17.6146 10.3615H19.9618C20.5352 10.3615 21 10.7905 21 11.3198V15.4031C21 15.9324 20.5352 16.3615 19.9618 16.3615H17.6146C15.8944 16.3615 14.5 15.0743 14.5 13.4865V13.2365Z" fill="var(--fill-0, #F0BF58)"/>
<path id="Ellipse 212" d="M18.5 13.3615C18.5 13.9138 18.0523 14.3615 17.5 14.3615C16.9477 14.3615 16.5 13.9138 16.5 13.3615C16.5 12.8092 16.9477 12.3615 17.5 12.3615C18.0523 12.3615 18.5 12.8092 18.5 13.3615Z" fill="var(--fill-0, #D67A4D)"/>
</g>
</svg>
