<svg preserveAspectRatio="none" width="100%" height="100%" overflow="visible" style="display: block;" viewBox="0 0 16.9999 20" fill="none" xmlns="http://www.w3.org/2000/svg">
<g id="Water">
<path id="Ellipse 422" d="M16.9936 11.802C17.1499 15.6438 14.2958 20 8.72621 20C3.15663 20 -0.139337 16.2184 0.00452309 11.802C0.00452309 6.27914 8.72621 0 8.72621 0C8.72621 0 16.9936 6.27914 16.9936 11.802Z" fill="var(--fill-0, #A3F5FF)"/>
<path id="Ellipse 423" d="M16.9938 11.802C17.1502 15.6438 14.296 20 8.72643 20C6.92725 19.986 3.33525 19.5725 1.20984 16.2981C1.20984 16.2981 8.37488 21 12.4999 15.5C17.2811 9.125 8.72643 0 8.72643 0C10.1785 1.11774 16.9297 6.64372 16.9938 11.802Z" fill="var(--fill-0, #46D2FE)"/>
<path id="Ellipse 424" d="M5.50193 11.7906C5.11261 13.1563 4.04768 14.056 3.12333 13.8001C2.19899 13.5442 1.76526 12.2297 2.15458 10.864C2.5439 9.49827 3.60883 8.59857 4.53318 8.85445C5.45752 9.11032 5.89124 10.4249 5.50193 11.7906Z" fill="var(--fill-0, #FAFDFE)"/>
</g>
</svg>
