<svg preserveAspectRatio="none" width="100%" height="100%" overflow="visible" style="display: block;" viewBox="0 0 18 19" fill="none" xmlns="http://www.w3.org/2000/svg">
<g id="Weekly icon">
<path id="Rectangle 10705" d="M0 4C0 2.89543 0.895431 2 2 2L16 2C17.1046 2 18 2.89543 18 4L18 17C18 18.1046 17.1046 19 16 19L2 19C0.89543 19 0 18.1046 0 17L0 4Z" fill="var(--fill-0, #D9EAFF)"/>
<g id="Group 5424">
<path id="Rectangle 10568" d="M0 4C0 2.89543 0.895431 2 2 2L16 2C17.1046 2 18 2.89543 18 4V7L0 7L0 4Z" fill="var(--fill-0, #569DE9)"/>
<path id="Rectangle 10567" d="M0 4C0 2.89543 0.895431 2 2 2L14 2C15.1046 2 16 2.89543 16 4L16 17C16 18.1046 15.1046 19 14 19L2 19C0.895431 19 0 18.1046 0 17L0 4Z" fill="var(--fill-0, #F1F7FF)"/>
<path id="Union" fill-rule="evenodd" clip-rule="evenodd" d="M6.50333 15.2958C6.50333 15.7046 6.8352 16 7.22702 16C7.61884 16 7.95071 15.7046 7.95071 15.2958C7.95071 14.0112 8.58154 13.1582 9.24726 12.3491C9.29616 12.2897 9.34546 12.2303 9.39481 12.1709C10.0049 11.4362 10.6246 10.6899 10.6246 9.6749C10.6246 9.30379 10.3208 9 9.94965 9H6.37803C6.00691 9 5.70313 9.30379 5.70313 9.6749C5.70313 10.046 6.00691 10.3498 6.37803 10.3498H9.1218C9.10729 10.3896 9.0881 10.4326 9.06379 10.4791C8.99852 10.6038 8.90239 10.7424 8.78053 10.8982C8.65895 11.0537 8.51646 11.2205 8.36033 11.4031L8.35485 11.4095C8.20112 11.5893 8.03537 11.7832 7.8694 11.9903C7.19885 12.8273 6.50333 13.9066 6.50333 15.2958Z" fill="var(--fill-0, #569DE9)"/>
<path id="Rectangle 10569" d="M0 4C0 2.89543 0.895431 2 2 2L14 2C15.1046 2 16 2.89543 16 4V7L0 7L0 4Z" fill="var(--fill-0, #94DDF1)"/>
</g>
<path id="Rectangle 10703" d="M4 1C4 0.447715 4.44772 0 5 0C5.55228 0 6 0.447715 6 1V4C6 4.55228 5.55228 5 5 5C4.44772 5 4 4.55228 4 4V1Z" fill="var(--fill-0, #569DE9)"/>
<path id="Rectangle 10704" d="M11 1C11 0.447715 11.4477 0 12 0C12.5523 0 13 0.447715 13 1V4C13 4.55228 12.5523 5 12 5C11.4477 5 11 4.55228 11 4V1Z" fill="var(--fill-0, #569DE9)"/>
</g>
</svg>
