<svg preserveAspectRatio="none" width="100%" height="100%" overflow="visible" style="display: block;" viewBox="0 0 21.2073 21.2071" fill="none" xmlns="http://www.w3.org/2000/svg">
<g id="Weight">
<path id="Vector 2382 (Stroke)" fill-rule="evenodd" clip-rule="evenodd" d="M1.37883 18.3787C0.988307 17.9882 0.988306 17.355 1.37883 16.9645L16.9646 1.37871C17.3551 0.988184 17.9883 0.988184 18.3788 1.37871L19.793 2.79292C20.1836 3.18345 20.1836 3.81661 19.793 4.20714L4.20726 19.7929C3.81673 20.1834 3.18357 20.1834 2.79304 19.7929L1.37883 18.3787Z" fill="var(--fill-0, #766969)"/>
<path id="Vector 2382 (Stroke)_2" fill-rule="evenodd" clip-rule="evenodd" d="M19.0859 2.08582L19.793 2.79292C20.1836 3.18345 20.1836 3.81661 19.793 4.20714L4.20726 19.7929C3.81673 20.1834 3.18357 20.1834 2.79304 19.7929L2.08594 19.0858L19.0859 2.08582Z" fill="var(--fill-0, #5B4B4B)"/>
<path id="Vector 2384 (Stroke)" fill-rule="evenodd" clip-rule="evenodd" d="M8.79289 20.9142C8.40237 21.3047 7.7692 21.3047 7.37868 20.9142L0.292893 13.8284C-0.097631 13.4379 -0.0976311 12.8047 0.292893 12.4142L2.41421 10.2929C2.80474 9.90237 3.4379 9.90237 3.82843 10.2929L10.9142 17.3787C11.3047 17.7692 11.3047 18.4024 10.9142 18.7929L8.79289 20.9142Z" fill="var(--fill-0, #B99DFF)"/>
<path id="Vector 2384 (Stroke)_2" fill-rule="evenodd" clip-rule="evenodd" d="M8.79304 20.9142C8.40252 21.3048 7.76935 21.3048 7.37883 20.9142L3.83594 17.3713L7.37147 13.8358L10.9144 17.3787C11.3049 17.7692 11.3049 18.4024 10.9144 18.7929L8.79304 20.9142Z" fill="var(--fill-0, #976CFF)"/>
<path id="Vector 2384 (Stroke)_3" fill-rule="evenodd" clip-rule="evenodd" d="M18.7929 10.9142C18.4024 11.3047 17.7692 11.3047 17.3787 10.9142L10.2929 3.82843C9.90237 3.4379 9.90237 2.80474 10.2929 2.41421L12.4142 0.292893C12.8047 -0.0976312 13.4379 -0.0976309 13.8284 0.292893L20.9142 7.37868C21.3047 7.7692 21.3047 8.40237 20.9142 8.79289L18.7929 10.9142Z" fill="var(--fill-0, #B99DFF)"/>
<path id="Vector 2384 (Stroke)_4" fill-rule="evenodd" clip-rule="evenodd" d="M18.793 10.9142C18.4025 11.3048 17.7694 11.3048 17.3788 10.9142L13.8359 7.37135L17.3715 3.83582L20.9144 7.37871C21.3049 7.76923 21.3049 8.4024 20.9144 8.79292L18.793 10.9142Z" fill="var(--fill-0, #976CFF)"/>
</g>
</svg>
