<svg preserveAspectRatio="none" width="100%" height="100%" overflow="visible" style="display: block;" viewBox="0 0 20 21" fill="none" xmlns="http://www.w3.org/2000/svg">
<g id="YuCoin Icon">
<g id="Vector" filter="url(#filter0_d_0_3)">
<path d="M10 20C15.5228 20 20 15.5228 20 10C20 4.47715 15.5228 0 10 0C4.47715 0 0 4.47715 0 10C0 15.5228 4.47715 20 10 20Z" fill="url(#paint0_linear_0_3)"/>
</g>
<path id="CoinEngrave" d="M10.1814 8.47141C10.3675 8.23766 10.6719 8.08806 10.9405 8.24047C11.8129 8.78277 11.2022 7.24655 10.225 7.72621C9.8033 7.93378 9.82075 8.92302 10.1814 8.47141ZM9.74901 15.8879C8.70202 15.6672 8.43349 17.2717 9.42231 17.4307L9.75871 17.4961C9.78443 17.5012 9.81092 17.5013 9.83668 17.4964C9.86245 17.4916 9.88697 17.4819 9.90885 17.4679C9.93073 17.454 9.94953 17.436 9.96419 17.415C9.97885 17.394 9.98908 17.3704 9.99428 17.3456L10.8377 13.3531C10.8438 13.3282 10.8445 13.3024 10.8398 13.2773C10.8352 13.2522 10.8252 13.2282 10.8106 13.2069C10.796 13.1856 10.777 13.1675 10.7548 13.1535C10.7326 13.1396 10.7077 13.1302 10.6816 13.1259L10.541 13.0978C10.5153 13.0927 10.4888 13.0925 10.463 13.0972C10.4372 13.102 10.4126 13.1117 10.3907 13.1257C10.3688 13.1397 10.35 13.1577 10.3353 13.1788C10.3207 13.1999 10.3106 13.2235 10.3055 13.2484L9.74901 15.8879ZM15.0906 8.29563C14.1144 7.19232 12.2599 6.26199 10.5226 5.87209C10.6554 4.93709 11.2982 4.82769 11.8566 4.15822C12.002 3.93195 12.3995 3.88707 12.4092 3.56636C12.4479 3.35505 12.2928 3.18488 12.1406 3.05211C11.8343 2.74543 11.3961 2.98292 11.2584 3.32326C11.145 3.45977 10.9608 3.52242 10.8416 3.65706C10.8251 3.66921 10.3026 4.25079 10.2861 4.26481C10.1794 4.03667 9.94872 3.40461 9.77034 3.22509C9.67825 3.15029 9.65401 2.95954 9.62686 2.85108C9.50084 2.29008 8.61865 2.46118 8.50813 2.94458C8.44415 3.16712 8.61768 3.3616 8.76213 3.51494C8.86392 3.66734 8.86876 3.86089 8.96959 4.01704C9.47951 4.70614 9.61135 5.04555 9.52023 5.70753C9.12436 5.66397 8.72465 5.66397 8.32879 5.70753C7.5416 4.28351 5.7782 4.33401 4.4714 4.37141L4.16699 4.38076L4.21062 4.67248C4.44522 6.21524 4.79228 8.51817 7.12475 8.56211C7.10827 10.016 6.76605 11.3297 6.33659 12.9688C6.09811 13.8804 5.82958 14.908 5.58528 16.0973C5.58006 16.1223 5.58001 16.1481 5.58513 16.1731C5.59025 16.1981 5.60045 16.2219 5.61513 16.2431C5.62982 16.2643 5.6487 16.2825 5.67069 16.2966C5.69269 16.3108 5.71736 16.3206 5.7433 16.3255L5.88484 16.3517C5.93688 16.3613 5.99076 16.3507 6.03471 16.3221C6.07866 16.2935 6.10912 16.2494 6.11944 16.1993C6.22883 15.669 6.34809 15.1406 6.47716 14.6144C7.69865 15.1754 8.17949 13.1558 6.85524 13.1324C7.32348 11.3419 7.69478 9.9319 7.66957 8.29189V8.21896C7.66884 8.19317 7.66274 8.16779 7.65164 8.14431C7.64054 8.12084 7.62466 8.09975 7.60495 8.08231C7.58524 8.06487 7.56209 8.05142 7.53689 8.04278C7.51169 8.03413 7.48494 8.03045 7.45823 8.03196H7.38359C5.54844 8.13668 5.09184 6.69677 4.79713 4.8866C6.26389 4.85854 7.41461 4.9801 7.92259 6.10211L7.94586 6.1526C7.96392 6.19238 7.99538 6.22512 8.03515 6.24548C8.07493 6.26585 8.12067 6.27266 8.16495 6.2648L8.22118 6.25545C10.0806 5.92071 13.3398 7.12313 14.6776 8.63691C15.2399 9.27272 15.4173 9.89169 15.2011 10.4742C15.2011 10.4742 14.697 12.3068 12.541 12.3517H12.5265C12.4392 12.3564 10.4809 12.4545 9.36221 11.7346C9.32083 11.7072 9.27025 11.696 9.22062 11.7031C9.17099 11.7102 9.12599 11.7351 9.09464 11.7729L9.00449 11.8814C8.98736 11.9022 8.97484 11.9262 8.96768 11.9518C8.96053 11.9775 8.9589 12.0043 8.9629 12.0305C8.9669 12.0568 8.97643 12.082 8.99092 12.1046C9.00541 12.1272 9.02454 12.1467 9.04714 12.1619C10.2938 12.9735 12.32 12.8884 12.5507 12.8744C15.0421 12.822 15.6606 10.8379 15.7169 10.6397C15.9932 9.88982 15.777 9.07823 15.0916 8.30031L15.0906 8.29563Z" fill="var(--fill-0, #EA9E2F)"/>
</g>
<defs>
<filter id="filter0_d_0_3" x="0" y="0" width="20" height="21" filterUnits="userSpaceOnUse" color-interpolation-filters="sRGB">
<feFlood flood-opacity="0" result="BackgroundImageFix"/>
<feColorMatrix in="SourceAlpha" type="matrix" values="0 0 0 0 0 0 0 0 0 0 0 0 0 0 0 0 0 0 127 0" result="hardAlpha"/>
<feOffset dy="1"/>
<feComposite in2="hardAlpha" operator="out"/>
<feColorMatrix type="matrix" values="0 0 0 0 0.929412 0 0 0 0 0.717647 0 0 0 0 0.12549 0 0 0 1 0"/>
<feBlend mode="normal" in2="BackgroundImageFix" result="effect1_dropShadow_0_3"/>
<feBlend mode="normal" in="SourceGraphic" in2="effect1_dropShadow_0_3" result="shape"/>
</filter>
<linearGradient id="paint0_linear_0_3" x1="9.76605" y1="-0.185433" x2="10.2381" y2="20.2974" gradientUnits="userSpaceOnUse">
<stop stop-color="#FFF48E"/>
<stop offset="1" stop-color="#FFED44"/>
</linearGradient>
</defs>
</svg>
