<svg preserveAspectRatio="none" width="100%" height="100%" overflow="visible" style="display: block;" viewBox="0 0 18 18" fill="none" xmlns="http://www.w3.org/2000/svg">
<g id="Yudoku icon">
<path id="Rectangle 10567" d="M0 2C0 0.89543 0.895431 0 2 0H16C17.1046 0 18 0.895431 18 2V16C18 17.1046 17.1046 18 16 18H2C0.89543 18 0 17.1046 0 16V2Z" fill="var(--fill-0, #7EACF0)"/>
<path id="Rectangle 10566" d="M0 2C0 0.89543 0.895431 0 2 0H14C15.1046 0 16 0.895431 16 2V16C16 17.1046 15.1046 18 14 18H2C0.895431 18 0 17.1046 0 16V2Z" fill="var(--fill-0, #F1F7FF)"/>
<path id="Rectangle 10986" d="M0 2C0 0.89543 0.895431 0 2 0H8V9H0V2Z" fill="var(--fill-0, #CAEFF9)"/>
<circle id="Ellipse 475" cx="4" cy="4.5" r="2" fill="var(--fill-0, #00C0F3)"/>
<circle id="Ellipse 477" cx="12" cy="13.5" r="2" fill="var(--fill-0, #569DE9)"/>
<path id="Vector 3417 (Stroke)" fill-rule="evenodd" clip-rule="evenodd" d="M7.5 18V0H8.5V18H7.5Z" fill="var(--fill-0, #94DDF1)"/>
<path id="Vector 3418 (Stroke)" fill-rule="evenodd" clip-rule="evenodd" d="M16 9.5H0V8.5H16V9.5Z" fill="var(--fill-0, #94DDF1)"/>
</g>
</svg>
