<svg preserveAspectRatio="none" width="100%" height="100%" overflow="visible" style="display: block;" viewBox="0 0 59.5927 17.2089" fill="none" xmlns="http://www.w3.org/2000/svg">
<g id="Layer 1">
<path id="Vector" d="M22.4832 3.30771H27.3602C28.599 3.30771 29.5354 3.64772 30.0816 4.27914C30.2921 4.52266 30.4452 4.81005 30.5296 5.12019C30.614 5.43034 30.6276 5.75537 30.5693 6.07143V6.10057C30.506 6.63252 30.3013 7.138 29.9764 7.5649C29.6514 7.9918 29.2181 8.32465 28.7209 8.52914C29.9402 8.96143 30.7352 9.68514 30.5547 11.1569V11.1714C30.3206 13.1143 28.6039 14.1391 26.1654 14.1391H21.1469L22.4832 3.30771ZM26.6238 9.47629H23.6L23.2343 12.444H26.3995C27.7016 12.444 28.56 11.934 28.677 10.9626V10.9286C28.7892 10.0154 28.1259 9.47143 26.6189 9.47143L26.6238 9.47629ZM28.6332 6.36286C28.7404 5.51286 28.1454 4.98829 26.892 4.98829H24.1511L23.7951 7.86372H26.4043C27.6334 7.86372 28.5112 7.378 28.6332 6.40657V6.36286ZM31.8666 11.1714L32.5055 5.97914H34.3832L33.8126 10.6129C33.6565 11.8806 34.2027 12.5946 35.3196 12.5946C35.8625 12.5949 36.3844 12.3856 36.7756 12.0106C37.1667 11.6355 37.3965 11.1241 37.4167 10.5837L37.9825 5.97914H39.8796L38.8701 14.1294H36.9778L37.1339 12.8617C36.8258 13.3026 36.4172 13.6644 35.9417 13.9177C35.4661 14.171 34.937 14.3085 34.3978 14.3189C32.5494 14.3189 31.6325 13.0803 31.8666 11.1811V11.1714ZM41.6793 5.96943H43.5569L43.4057 7.32943C43.7518 6.8632 44.2011 6.48266 44.7187 6.21732C45.2363 5.95198 45.8084 5.80899 46.3905 5.79943C48.3413 5.79943 50.0044 7.31 49.6727 10.0349V10.064C49.3362 12.7694 47.2879 14.2994 45.3468 14.2994C44.8191 14.3168 44.2967 14.1903 43.836 13.9335C43.3752 13.6767 42.9937 13.2994 42.7327 12.8423L42.2694 16.5823H40.3673L41.6793 5.96943ZM47.7366 10.064V10.0349C47.9316 8.45629 46.9904 7.42172 45.7175 7.42172C45.0244 7.45777 44.3677 7.7421 43.8685 8.22231C43.3693 8.70252 43.0612 9.34625 43.0009 10.0349V10.064C42.8059 11.6231 43.7959 12.6771 45.0688 12.6771C46.3417 12.6771 47.5366 11.6717 47.7317 10.064H47.7366ZM50.6189 10.064V10.0349C50.9505 7.32943 52.9891 5.79943 54.9448 5.79943C55.4726 5.78147 55.9953 5.90778 56.4561 6.16465C56.9169 6.42152 57.2983 6.79915 57.5589 7.25657L57.715 5.98886H59.5927L58.588 14.1489H56.7201L56.8859 12.7889C56.5414 13.2555 56.0931 13.6365 55.5761 13.9019C55.0592 14.1673 54.4876 14.31 53.906 14.3189C51.9552 14.3189 50.2921 12.7889 50.6238 10.0834L50.6189 10.064ZM57.2517 10.0834V10.0543C57.4468 8.47572 56.4567 7.44114 55.1984 7.44114C53.9402 7.44114 52.716 8.41257 52.5161 10.0543V10.0834C52.3259 11.662 53.2818 12.6966 54.5547 12.6966C55.245 12.658 55.8981 12.3723 56.3937 11.8921C56.8893 11.412 57.194 10.7696 57.2517 10.0834V10.0834ZM0 17.2089H17.2794V0H0V17.2089ZM16.4161 0.859714V11.1714H15.0701C14.7482 11.1714 14.4946 10.6857 14.358 10.4234C14.3093 10.3094 14.2417 10.2043 14.1581 10.1126C14.1115 10.0694 14.0557 10.0374 13.9949 10.0188C13.934 10.0003 13.8698 9.99584 13.8069 10.0057C13.7438 10.0151 13.6839 10.0394 13.6321 10.0766C13.5804 10.1138 13.5383 10.1628 13.5094 10.2194L12.4511 12.4683L11.6074 3.15714C11.6014 3.03023 11.5482 2.91009 11.4579 2.82025C11.3677 2.73041 11.2471 2.67734 11.1197 2.67143C10.9974 2.66328 10.8762 2.69823 10.7772 2.77016C10.6782 2.84209 10.6078 2.94642 10.5783 3.06486L8.77869 10.8703L8.16418 9.73857C8.13712 9.68949 8.10021 9.64648 8.05574 9.61222C8.01127 9.57796 7.9602 9.55318 7.9057 9.53943C7.85053 9.52489 7.79289 9.52214 7.73658 9.53135C7.68026 9.54055 7.62654 9.56152 7.57893 9.59286C7.49202 9.65952 7.4205 9.74399 7.36922 9.84057C7.15859 10.2436 6.8405 10.5811 6.44989 10.8158C6.05929 11.0506 5.61127 11.1737 5.15504 11.1714H0.863238V0.859714H16.4161ZM0.863238 16.3491V11.9777H5.15504C5.65844 11.9902 6.15752 11.8825 6.61059 11.6637C7.06366 11.4448 7.45757 11.1211 7.75938 10.7197L8.55922 12.1769C8.59928 12.2494 8.66008 12.3084 8.73388 12.3465C8.80769 12.3845 8.89119 12.3999 8.97377 12.3906C9.05637 12.38 9.13377 12.3445 9.19563 12.289C9.2575 12.2334 9.3009 12.1604 9.32004 12.0797L10.9685 4.896L11.7439 13.6389C11.7572 13.7582 11.8144 13.8684 11.9044 13.9483C11.9945 14.0281 12.1111 14.0719 12.2316 14.0711C12.3195 14.0696 12.4054 14.0444 12.4801 13.9982C12.5547 13.952 12.6155 13.8866 12.6559 13.8089L13.9093 11.2297C14.0266 11.4413 14.196 11.6197 14.4017 11.748C14.6073 11.8763 14.8424 11.9503 15.0847 11.9631H16.4308V16.3346L0.863238 16.3491Z" fill="var(--fill-0, white)"/>
</g>
</svg>
