<svg preserveAspectRatio="none" width="100%" height="100%" overflow="visible" style="display: block;" viewBox="0 0 200.012 158.007" fill="none" xmlns="http://www.w3.org/2000/svg">
<g id="Vector">
<path d="M89.9671 86.0771C78.734 89.2652 67.2027 90.8592 55.572 90.9588C44.7365 90.9588 35.0939 88.9663 26.7436 84.9813C18.791 81.3947 12.0312 75.8156 7.06084 68.7422C2.38866 61.8679 -0.0965436 53.7982 0.00287072 45.5292C0.00287072 32.4782 5.37091 21.6189 16.0076 12.9514C26.6442 4.28395 39.4679 5.20868e-09 54.5779 5.20868e-09C66.5068 0.0997832 78.4358 1.79328 89.9671 5.08094V18.929C77.4417 14.4458 66.2086 12.1544 56.3672 12.1544C50.0051 12.1544 43.7424 13.4495 37.8773 16.0398C32.2111 18.5305 27.5389 22.7148 24.4572 28.0946C21.3756 33.1756 19.7851 39.0536 19.6857 45.0311C19.6857 52.7024 22.6679 60.0747 28.8312 67.0486C34.9945 74.0224 44.3388 77.6089 57.3613 77.6089C61.2382 77.6089 65.1151 77.4097 68.8926 76.9115C72.6701 76.5131 79.6287 74.919 89.8677 72.1295L89.9671 86.0771Z" fill="white"/>
<path d="M185.498 78.0074C194.743 69.4396 199.316 58.4806 199.316 45.33C199.316 32.1793 194.743 21.32 185.498 12.8518C176.253 4.28396 164.026 0 148.618 0C133.309 0 120.982 4.28396 111.638 12.8518C102.393 21.4197 97.8204 32.2789 97.8204 45.33C97.8204 58.381 102.393 69.2403 111.638 77.9078C120.883 86.5753 133.21 90.8592 148.618 90.8592C164.026 90.8592 176.353 86.5753 185.498 78.0074ZM125.953 69.9377C120.386 64.0598 117.603 55.8903 117.603 45.4296C117.603 35.1681 120.386 26.9987 125.953 21.1208C131.52 15.1432 139.075 12.254 148.618 12.254C158.062 12.254 165.617 15.2428 171.184 21.1208C176.75 27.0984 179.534 35.1681 179.534 45.4296C179.534 55.7907 176.75 63.9601 171.184 69.9377C165.617 75.9153 158.161 78.7048 148.618 78.7048C139.075 78.7048 131.52 75.8157 125.953 69.9377Z" fill="white"/>
<path d="M43.643 156.015H31.5152L0.102254 98.3311H13.1247L38.0761 144.159L63.2264 98.3311H75.2547L43.643 156.015Z" fill="var(--fill-0, white)"/>
<path d="M130.128 141.868C120.784 145.953 112.135 148.045 104.381 148.045C100.405 148.145 96.4287 147.248 92.7506 145.654C89.3707 144.06 86.4879 141.469 84.4997 138.281C82.4121 134.994 81.3186 131.208 81.3186 127.322H131.023V125.23C131.023 115.068 128.438 107.596 123.269 102.715C118.1 97.833 111.141 95.442 102.592 95.442C96.5281 95.3422 90.4642 96.7372 84.9967 99.5267C79.9269 102.017 75.6524 106.002 72.6701 110.884C69.7873 115.467 68.2962 120.647 68.2962 126.027C68.2962 131.507 69.8867 136.887 72.9684 141.37C75.9506 146.152 80.2251 149.938 85.295 152.428C90.7624 155.118 96.7269 156.413 102.791 156.314C112.135 156.114 121.38 154.321 130.128 150.735V141.868ZM89.5695 107.696C93.1482 104.907 97.6216 103.412 102.194 103.512C107.065 103.512 110.843 104.907 113.726 107.596C116.608 110.286 118.1 113.972 118.1 118.655V120.05H82.0145C83.5056 114.57 85.9908 110.486 89.5695 107.696Z" fill="var(--fill-0, white)"/>
<path d="M140.963 58.7795C147.524 55.4919 153.688 51.6065 159.453 47.0236C168.499 39.7509 172.476 34.3711 172.476 34.3711H152.395C152.395 34.3711 143.747 44.3337 136.888 49.9128C130.923 54.8941 124.959 58.7795 124.959 58.7795H140.963Z" fill="var(--fill-0, white)"/>
<path d="M187.586 156.413H200.012C198.421 152.03 197.626 146.351 197.626 139.377V98.7297H185.598C184.206 98.6299 183.212 98.5305 182.516 98.5305C177.943 98.132 174.464 98.0324 172.178 98.0324C164.324 98.0324 157.664 99.5267 152.395 102.615C147.127 105.604 142.753 109.888 139.671 115.068C136.49 120.448 134.8 126.625 134.9 132.902C134.9 141.37 137.285 147.646 142.057 151.831C146.53 155.816 152.296 158.007 158.26 158.007C163.131 157.808 168.002 156.613 172.376 154.321C177.546 151.831 182.118 148.045 185.498 143.362C185.896 147.746 186.592 152.129 187.586 156.413ZM173.669 144.06C169.195 147.049 165.12 148.543 161.342 148.543C157.863 148.444 154.483 146.949 152.197 144.259C149.513 141.37 148.22 137.086 148.22 131.407C148.22 123.537 150.705 117.36 155.576 112.877C160.447 108.294 166.611 106.003 173.967 106.003C177.943 106.003 181.92 106.501 185.796 107.397V132.005C182.516 136.687 178.341 140.772 173.669 144.06Z" fill="var(--fill-0, white)"/>
</g>
</svg>
