<svg width="375" height="812" viewBox="0 0 375 812" fill="none" xmlns="http://www.w3.org/2000/svg">
<mask id="mask0_2488_24095" style="mask-type:alpha" maskUnits="userSpaceOnUse" x="0" y="0" width="375" height="812">
<path d="M375 0H0V812H375V0Z" fill="url(#paint0_linear_2488_24095)"/>
</mask>
<g mask="url(#mask0_2488_24095)">
<path d="M375 0H0V812H375V0Z" fill="url(#paint1_linear_2488_24095)"/>
<g opacity="0.5" filter="url(#filter0_f_2488_24095)">
<path d="M89.3675 648.152C90.2018 650.59 92.8575 651.888 95.2992 651.052C96.4891 650.644 97.4086 649.805 97.942 648.77C98.6553 647.386 100.238 626.637 130.043 602.252C132.481 599.769 131.006 599.295 128.731 601.611C99.9415 620.979 90.0753 643.559 89.5563 644.668C89.0622 645.724 88.9606 646.964 89.3675 648.152Z" fill="url(#paint2_linear_2488_24095)"/>
</g>
<g filter="url(#filter1_f_2488_24095)">
<circle cx="1.24513" cy="1.24513" r="1.24513" transform="matrix(-0.961587 0.274501 0.274501 0.961587 339.153 36.8398)" fill="#EEBCFF"/>
</g>
<g filter="url(#filter2_f_2488_24095)">
<circle cx="2.13107" cy="2.13107" r="2.13107" transform="matrix(-0.961587 0.274501 0.274501 0.961587 339.768 35.811)" fill="#EEBCFF"/>
</g>
<g filter="url(#filter3_f_2488_24095)">
<path d="M336.106 38.7266C336.461 39.9719 337.761 40.6927 339.008 40.3366C339.617 40.163 340.1 39.7657 340.395 39.2597C340.789 38.5833 342.123 28.2064 357.722 16.738C359.011 15.5548 358.283 15.2785 357.081 16.382C342.122 25.358 336.58 36.4388 336.291 36.9819C336.016 37.4991 335.932 38.1191 336.106 38.7266Z" fill="url(#paint3_linear_2488_24095)"/>
</g>
<g filter="url(#filter4_f_2488_24095)">
<circle cx="329.128" cy="202.605" r="2.53" transform="rotate(-116.617 329.128 202.605)" fill="#FFBCF8"/>
</g>
<g filter="url(#filter5_f_2488_24095)">
<circle cx="329.236" cy="202.523" r="4.33017" transform="rotate(-116.617 329.236 202.523)" fill="#FFBCF8"/>
</g>
<g filter="url(#filter6_f_2488_24095)">
<circle cx="78.704" cy="125.893" r="2.53" transform="rotate(-116.617 78.704 125.893)" fill="#FFBCF8"/>
</g>
<g filter="url(#filter7_f_2488_24095)">
<circle cx="78.8114" cy="125.811" r="4.33017" transform="rotate(-116.617 78.8114 125.811)" fill="#FFBCF8"/>
</g>
<g filter="url(#filter8_f_2488_24095)">
<circle cx="165.704" cy="771.893" r="2.53" transform="rotate(-116.617 165.704 771.893)" fill="white"/>
</g>
<g filter="url(#filter9_f_2488_24095)">
<circle cx="165.811" cy="771.811" r="4.33017" transform="rotate(-116.617 165.811 771.811)" fill="white"/>
</g>
<g filter="url(#filter10_f_2488_24095)">
<circle cx="220.072" cy="36.8776" r="1.65349" transform="rotate(-116.617 220.072 36.8776)" fill="#FFBCF8"/>
</g>
<g filter="url(#filter11_f_2488_24095)">
<circle cx="220.142" cy="36.8241" r="2.83" transform="rotate(-116.617 220.142 36.8241)" fill="#FFBCF8"/>
</g>
<circle cx="333.172" cy="255.067" r="2.03" transform="rotate(-116.617 333.172 255.067)" fill="#FFBCF8"/>
<circle cx="329.726" cy="276.409" r="1.03" transform="rotate(-116.617 329.726 276.409)" fill="#FFBCF8"/>
<circle cx="118.382" cy="219.382" r="1.03" transform="rotate(-116.617 118.382 219.382)" fill="#FFBCF8"/>
<circle cx="363.382" cy="133.382" r="1.03" transform="rotate(-116.617 363.382 133.382)" fill="#FFBCF8"/>
<circle cx="27.3821" cy="254.382" r="1.03" transform="rotate(-116.617 27.3821 254.382)" fill="#FFBCF8"/>
<circle cx="284.382" cy="31.3823" r="1.03" transform="rotate(-116.617 284.382 31.3823)" fill="#FFBCF8"/>
<circle cx="345.382" cy="107.382" r="1.03" transform="rotate(-116.617 345.382 107.382)" fill="#FFBCF8"/>
<circle cx="52.7244" cy="250.724" r="2.03" transform="rotate(-116.617 52.7244 250.724)" fill="#FFBCF8"/>
<circle cx="207.724" cy="197.724" r="2.03" transform="rotate(-116.617 207.724 197.724)" fill="#FFBCF8"/>
<circle cx="275.724" cy="217.724" r="2.03" transform="rotate(-116.617 275.724 217.724)" fill="#FFBCF8"/>
<circle cx="297.724" cy="127.724" r="2.03" transform="rotate(-116.617 297.724 127.724)" fill="#FFBCF8"/>
<circle cx="301.724" cy="30.7244" r="2.03" transform="rotate(-116.617 301.724 30.7244)" fill="#FFBCF8"/>
<circle cx="362.724" cy="161.724" r="2.03" transform="rotate(-116.617 362.724 161.724)" fill="#FFBCF8"/>
<circle cx="340.395" cy="607.396" r="2.53" transform="rotate(-116.617 340.395 607.396)" fill="#D99FFD"/>
<circle cx="267.053" cy="639.053" r="1.53" transform="rotate(-116.617 267.053 639.053)" fill="#D99FFD"/>
<circle cx="340.053" cy="732.054" r="1.53" transform="rotate(-116.617 340.053 732.054)" fill="#D99FFD"/>
<circle cx="364.053" cy="725.054" r="1.53" transform="rotate(-116.617 364.053 725.054)" fill="#D99FFD"/>
<circle cx="350.053" cy="695.054" r="1.53" transform="rotate(-116.617 350.053 695.054)" fill="#D99FFD"/>
<circle cx="74.0534" cy="749.054" r="1.53" transform="rotate(-116.617 74.0534 749.054)" fill="#D99FFD"/>
<circle cx="91.0531" cy="765.054" r="1.53" transform="rotate(-116.617 91.0531 765.054)" fill="#D99FFD"/>
<circle cx="20.0532" cy="770.053" r="1.53" transform="rotate(-116.617 20.0532 770.053)" fill="#D99FFD"/>
<circle cx="146.053" cy="735.053" r="1.53" transform="rotate(-116.617 146.053 735.053)" fill="#D99FFD"/>
<circle cx="12.0532" cy="672.053" r="1.53" transform="rotate(-116.617 12.0532 672.053)" fill="#D99FFD"/>
<circle cx="16.0532" cy="515.053" r="1.53" transform="rotate(-116.617 16.0532 515.053)" fill="#D99FFD"/>
<circle cx="29.0533" cy="555.053" r="1.53" transform="rotate(-116.617 29.0533 555.053)" fill="#D99FFD"/>
<circle cx="157.726" cy="613.409" r="1.03" transform="rotate(-116.617 157.726 613.409)" fill="#D99FFD"/>
<circle cx="168.726" cy="640.409" r="1.03" transform="rotate(-116.617 168.726 640.409)" fill="#D99FFD"/>
<path d="M174.859 10.0824C180.821 -150.123 277.622 -272.882 325.277 -314.236L370.234 -307.396C347.502 -290.851 287.065 -233.947 227.168 -138.698C152.298 -19.6364 220.42 144.145 130.114 323.079C57.869 466.226 -89.5802 571.421 -154.274 606.125L-184.742 589.518C-122.774 551.841 17.6568 454.332 83.6265 365.706C165.733 255.401 167.395 210.725 174.764 12.6624L174.859 10.0824Z" fill="url(#paint4_linear_2488_24095)" fill-opacity="0.25"/>
<path d="M102.676 10.625C62.5809 -172.057 122.627 -290.576 157.662 -327L191.951 -313.896C101.827 -187.178 116.683 -20.9753 135.377 46.2866C121.032 -175.951 175.931 -254.66 220.348 -305.939L254.848 -297.718C161.573 -210.233 151.671 -66.343 146.89 20.49C141.46 315.253 -96.3835 512.013 -214.627 573.547L-234 569.038C-17.3102 451.228 152.796 238.978 102.676 10.625Z" fill="url(#paint5_linear_2488_24095)" fill-opacity="0.25"/>
<path d="M-183.87 400.758C-68.9487 392.566 -60.4487 329.566 -14.4487 148.566C-14.4487 252.066 -23.4487 409.066 -183.87 400.758Z" fill="url(#paint6_linear_2488_24095)" fill-opacity="0.25"/>
<path d="M41.5513 163.066C25.3038 66.5817 -9.94873 -62.4337 45.5902 -128.934C0.0512695 -52.9337 55.5513 87.5663 64.5513 159.066C82.5513 302.066 1.05127 393.566 -126.139 421.479C24.0513 372.566 57.7987 259.551 41.5513 163.066Z" fill="url(#paint7_linear_2488_24095)" fill-opacity="0.25"/>
<path d="M389.556 439.218C497.772 320.936 515.006 165.555 510.095 102.649L473.276 75.9617C477.851 103.703 480.948 186.655 456.743 296.537C426.487 433.89 262.998 502.713 201.706 693.542C152.672 846.205 183.839 1024.63 205.551 1094.76L238.909 1104.32C221.223 1033.99 189.659 865.963 204.89 756.535C223.847 620.338 254.025 587.353 387.814 441.122L389.556 439.218Z" fill="url(#paint8_linear_2488_24095)" fill-opacity="0.25"/>
<path d="M440.584 490.275C597.379 388.316 637.813 261.757 638.431 211.222L604.811 196.484C580.043 349.997 452.791 457.937 392.261 492.718C558.484 344.512 574.638 249.917 579.001 182.217L548.659 163.853C553.677 291.637 459.721 401.066 402.17 466.264C199.118 680.004 230.388 987.097 271.404 1113.93L288.366 1124.32C216.742 888.298 244.589 617.724 440.584 490.275Z" fill="url(#paint9_linear_2488_24095)" fill-opacity="0.25"/>
<path d="M370.794 969.276C294.698 882.769 332.869 831.934 427.167 670.736C354.512 744.448 250.71 862.58 370.794 969.276Z" fill="url(#paint10_linear_2488_24095)" fill-opacity="0.25"/>
<path d="M377.106 641.752C456.407 584.442 572.081 517.304 579.208 430.956C558.29 517.05 420.135 578.153 363.533 622.757C250.33 711.965 244.142 834.343 315.132 943.507C242.504 803.241 297.804 699.062 377.106 641.752Z" fill="url(#paint11_linear_2488_24095)" fill-opacity="0.25"/>
<path d="M174.859 10.0824C180.821 -150.123 277.622 -272.882 325.277 -314.236L370.234 -307.396C347.502 -290.851 287.065 -233.947 227.168 -138.698C152.298 -19.6364 220.42 144.145 130.114 323.079C57.869 466.226 -89.5802 571.421 -154.274 606.125L-184.742 589.518C-122.774 551.841 17.6568 454.332 83.6265 365.706C165.733 255.401 167.395 210.725 174.764 12.6624L174.859 10.0824Z" stroke="url(#paint12_linear_2488_24095)"/>
<path d="M102.676 10.625C62.5809 -172.057 122.627 -290.576 157.662 -327L191.951 -313.896C101.827 -187.178 116.683 -20.9753 135.377 46.2866C121.032 -175.951 175.931 -254.66 220.348 -305.939L254.848 -297.718C161.573 -210.233 151.671 -66.343 146.89 20.49C141.46 315.253 -96.3835 512.013 -214.627 573.547L-234 569.038C-17.3102 451.228 152.796 238.978 102.676 10.625Z" stroke="url(#paint13_linear_2488_24095)"/>
<path d="M-183.87 400.758C-68.9487 392.566 -60.4487 329.566 -14.4487 148.566C-14.4487 252.066 -23.4487 409.066 -183.87 400.758Z" stroke="url(#paint14_linear_2488_24095)"/>
<path d="M41.5513 163.066C25.3038 66.5817 -9.94873 -62.4337 45.5902 -128.934C0.0512695 -52.9337 55.5513 87.5663 64.5513 159.066C82.5513 302.066 1.05127 393.566 -126.139 421.479C24.0513 372.566 57.7987 259.551 41.5513 163.066Z" stroke="url(#paint15_linear_2488_24095)"/>
<path d="M389.556 439.218C497.772 320.936 515.006 165.555 510.095 102.649L473.276 75.9617C477.851 103.703 480.948 186.655 456.743 296.537C426.487 433.89 262.998 502.713 201.706 693.542C152.672 846.205 183.839 1024.63 205.551 1094.76L238.909 1104.32C221.223 1033.99 189.659 865.963 204.89 756.535C223.847 620.338 254.025 587.353 387.814 441.122L389.556 439.218Z" stroke="url(#paint16_linear_2488_24095)"/>
<path d="M440.584 490.275C597.379 388.316 637.813 261.757 638.431 211.222L604.811 196.484C580.043 349.997 452.791 457.937 392.261 492.718C558.484 344.512 574.638 249.917 579.001 182.217L548.659 163.853C553.677 291.637 459.721 401.066 402.17 466.264C199.118 680.004 230.388 987.097 271.404 1113.93L288.366 1124.32C216.742 888.298 244.589 617.724 440.584 490.275Z" stroke="url(#paint17_linear_2488_24095)"/>
<path d="M370.794 969.276C294.698 882.769 332.869 831.934 427.167 670.736C354.512 744.448 250.71 862.58 370.794 969.276Z" stroke="url(#paint18_linear_2488_24095)"/>
<path d="M377.106 641.752C456.407 584.442 572.081 517.304 579.208 430.956C558.29 517.05 420.135 578.153 363.533 622.757C250.33 711.965 244.142 834.343 315.132 943.507C242.504 803.241 297.804 699.062 377.106 641.752Z" stroke="url(#paint19_linear_2488_24095)"/>
</g>
<defs>
<filter id="filter0_f_2488_24095" x="85.1153" y="596.108" width="50.1846" height="59.1973" filterUnits="userSpaceOnUse" color-interpolation-filters="sRGB">
<feFlood flood-opacity="0" result="BackgroundImageFix"/>
<feBlend mode="normal" in="SourceGraphic" in2="BackgroundImageFix" result="shape"/>
<feGaussianBlur stdDeviation="2" result="effect1_foregroundBlur_2488_24095"/>
</filter>
<filter id="filter1_f_2488_24095" x="336.052" y="36.1333" width="4.49089" height="4.49121" filterUnits="userSpaceOnUse" color-interpolation-filters="sRGB">
<feFlood flood-opacity="0" result="BackgroundImageFix"/>
<feBlend mode="normal" in="SourceGraphic" in2="BackgroundImageFix" result="shape"/>
<feGaussianBlur stdDeviation="0.5" result="effect1_foregroundBlur_2488_24095"/>
</filter>
<filter id="filter2_f_2488_24095" x="332.172" y="32.3135" width="12.2632" height="12.2632" filterUnits="userSpaceOnUse" color-interpolation-filters="sRGB">
<feFlood flood-opacity="0" result="BackgroundImageFix"/>
<feBlend mode="normal" in="SourceGraphic" in2="BackgroundImageFix" result="shape"/>
<feGaussianBlur stdDeviation="2" result="effect1_foregroundBlur_2488_24095"/>
</filter>
<filter id="filter3_f_2488_24095" x="332.015" y="11.686" width="30.3876" height="32.7417" filterUnits="userSpaceOnUse" color-interpolation-filters="sRGB">
<feFlood flood-opacity="0" result="BackgroundImageFix"/>
<feBlend mode="normal" in="SourceGraphic" in2="BackgroundImageFix" result="shape"/>
<feGaussianBlur stdDeviation="2" result="effect1_foregroundBlur_2488_24095"/>
</filter>
<filter id="filter4_f_2488_24095" x="325.598" y="199.074" width="7.06111" height="7.06104" filterUnits="userSpaceOnUse" color-interpolation-filters="sRGB">
<feFlood flood-opacity="0" result="BackgroundImageFix"/>
<feBlend mode="normal" in="SourceGraphic" in2="BackgroundImageFix" result="shape"/>
<feGaussianBlur stdDeviation="0.5" result="effect1_foregroundBlur_2488_24095"/>
</filter>
<filter id="filter5_f_2488_24095" x="320.905" y="194.191" width="16.6622" height="16.6626" filterUnits="userSpaceOnUse" color-interpolation-filters="sRGB">
<feFlood flood-opacity="0" result="BackgroundImageFix"/>
<feBlend mode="normal" in="SourceGraphic" in2="BackgroundImageFix" result="shape"/>
<feGaussianBlur stdDeviation="2" result="effect1_foregroundBlur_2488_24095"/>
</filter>
<filter id="filter6_f_2488_24095" x="75.1734" y="122.363" width="7.0611" height="7.06104" filterUnits="userSpaceOnUse" color-interpolation-filters="sRGB">
<feFlood flood-opacity="0" result="BackgroundImageFix"/>
<feBlend mode="normal" in="SourceGraphic" in2="BackgroundImageFix" result="shape"/>
<feGaussianBlur stdDeviation="0.5" result="effect1_foregroundBlur_2488_24095"/>
</filter>
<filter id="filter7_f_2488_24095" x="70.4803" y="117.48" width="16.6622" height="16.6626" filterUnits="userSpaceOnUse" color-interpolation-filters="sRGB">
<feFlood flood-opacity="0" result="BackgroundImageFix"/>
<feBlend mode="normal" in="SourceGraphic" in2="BackgroundImageFix" result="shape"/>
<feGaussianBlur stdDeviation="2" result="effect1_foregroundBlur_2488_24095"/>
</filter>
<filter id="filter8_f_2488_24095" x="162.173" y="768.363" width="7.0611" height="7.06104" filterUnits="userSpaceOnUse" color-interpolation-filters="sRGB">
<feFlood flood-opacity="0" result="BackgroundImageFix"/>
<feBlend mode="normal" in="SourceGraphic" in2="BackgroundImageFix" result="shape"/>
<feGaussianBlur stdDeviation="0.5" result="effect1_foregroundBlur_2488_24095"/>
</filter>
<filter id="filter9_f_2488_24095" x="157.48" y="763.48" width="16.6622" height="16.6626" filterUnits="userSpaceOnUse" color-interpolation-filters="sRGB">
<feFlood flood-opacity="0" result="BackgroundImageFix"/>
<feBlend mode="normal" in="SourceGraphic" in2="BackgroundImageFix" result="shape"/>
<feGaussianBlur stdDeviation="2" result="effect1_foregroundBlur_2488_24095"/>
</filter>
<filter id="filter10_f_2488_24095" x="217.419" y="34.2236" width="5.30769" height="5.30762" filterUnits="userSpaceOnUse" color-interpolation-filters="sRGB">
<feFlood flood-opacity="0" result="BackgroundImageFix"/>
<feBlend mode="normal" in="SourceGraphic" in2="BackgroundImageFix" result="shape"/>
<feGaussianBlur stdDeviation="0.5" result="effect1_foregroundBlur_2488_24095"/>
</filter>
<filter id="filter11_f_2488_24095" x="213.312" y="29.9937" width="13.6612" height="13.6611" filterUnits="userSpaceOnUse" color-interpolation-filters="sRGB">
<feFlood flood-opacity="0" result="BackgroundImageFix"/>
<feBlend mode="normal" in="SourceGraphic" in2="BackgroundImageFix" result="shape"/>
<feGaussianBlur stdDeviation="2" result="effect1_foregroundBlur_2488_24095"/>
</filter>
<linearGradient id="paint0_linear_2488_24095" x1="6.92428" y1="831.595" x2="385.742" y2="-34.0178" gradientUnits="userSpaceOnUse">
<stop stop-color="#00CEBD"/>
<stop offset="0.0857639" stop-color="#36D8CB"/>
<stop offset="0.2311" stop-color="#8BE9E1"/>
<stop offset="0.3501" stop-color="#CAF5F1"/>
<stop offset="0.4366" stop-color="#F0FCFB"/>
<stop offset="0.4817" stop-color="white"/>
<stop offset="0.5274" stop-color="#F8FCFF"/>
<stop offset="0.5933" stop-color="#E5F4FF"/>
<stop offset="0.6715" stop-color="#C5E7FF"/>
<stop offset="0.7591" stop-color="#9AD4FF"/>
<stop offset="0.8545" stop-color="#62BCFF"/>
<stop offset="0.9551" stop-color="#1EA0FF"/>
<stop offset="0.9969" stop-color="#0093FF"/>
</linearGradient>
<linearGradient id="paint1_linear_2488_24095" x1="366.656" y1="-8.1928e-06" x2="-11.3289" y2="806.692" gradientUnits="userSpaceOnUse">
<stop stop-color="#0007AB"/>
<stop stop-color="#252875"/>
<stop offset="0.0001" stop-color="#4A0024"/>
<stop offset="0.303951" stop-color="#2D0049"/>
<stop offset="0.565608" stop-color="#080038"/>
<stop offset="0.691002" stop-color="#1A0150"/>
<stop offset="1" stop-color="#500096"/>
</linearGradient>
<linearGradient id="paint2_linear_2488_24095" x1="99.1644" y1="636.252" x2="123.446" y2="599.425" gradientUnits="userSpaceOnUse">
<stop stop-color="#D1BCFF" stop-opacity="0.67"/>
<stop offset="0.87829" stop-color="#CDBCFF" stop-opacity="0"/>
</linearGradient>
<linearGradient id="paint3_linear_2488_24095" x1="337.473" y1="38.0879" x2="356.462" y2="0.699069" gradientUnits="userSpaceOnUse">
<stop stop-color="#D1BCFF" stop-opacity="0.67"/>
<stop offset="0.916667" stop-color="#FFBCF0" stop-opacity="0"/>
</linearGradient>
<linearGradient id="paint4_linear_2488_24095" x1="202" y1="-119" x2="202" y2="855.5" gradientUnits="userSpaceOnUse">
<stop offset="0.0680993" stop-color="white" stop-opacity="0.28"/>
<stop offset="0.536526" stop-color="white" stop-opacity="0"/>
<stop offset="1" stop-color="white" stop-opacity="0.29"/>
</linearGradient>
<linearGradient id="paint5_linear_2488_24095" x1="202" y1="-119" x2="202" y2="855.5" gradientUnits="userSpaceOnUse">
<stop offset="0.0680993" stop-color="white" stop-opacity="0.28"/>
<stop offset="0.536526" stop-color="white" stop-opacity="0"/>
<stop offset="1" stop-color="white" stop-opacity="0.29"/>
</linearGradient>
<linearGradient id="paint6_linear_2488_24095" x1="202" y1="-119" x2="202" y2="855.5" gradientUnits="userSpaceOnUse">
<stop offset="0.0680993" stop-color="white" stop-opacity="0.28"/>
<stop offset="0.536526" stop-color="white" stop-opacity="0"/>
<stop offset="1" stop-color="white" stop-opacity="0.29"/>
</linearGradient>
<linearGradient id="paint7_linear_2488_24095" x1="202" y1="-119" x2="202" y2="855.5" gradientUnits="userSpaceOnUse">
<stop offset="0.0680993" stop-color="white" stop-opacity="0.28"/>
<stop offset="0.536526" stop-color="white" stop-opacity="0"/>
<stop offset="1" stop-color="white" stop-opacity="0.29"/>
</linearGradient>
<linearGradient id="paint8_linear_2488_24095" x1="202" y1="-119" x2="202" y2="855.5" gradientUnits="userSpaceOnUse">
<stop offset="0.0680993" stop-color="white" stop-opacity="0.28"/>
<stop offset="0.536526" stop-color="white" stop-opacity="0"/>
<stop offset="1" stop-color="white" stop-opacity="0.29"/>
</linearGradient>
<linearGradient id="paint9_linear_2488_24095" x1="202" y1="-119" x2="202" y2="855.5" gradientUnits="userSpaceOnUse">
<stop offset="0.0680993" stop-color="white" stop-opacity="0.28"/>
<stop offset="0.536526" stop-color="white" stop-opacity="0"/>
<stop offset="1" stop-color="white" stop-opacity="0.29"/>
</linearGradient>
<linearGradient id="paint10_linear_2488_24095" x1="202" y1="-119" x2="202" y2="855.5" gradientUnits="userSpaceOnUse">
<stop offset="0.0680993" stop-color="white" stop-opacity="0.28"/>
<stop offset="0.536526" stop-color="white" stop-opacity="0"/>
<stop offset="1" stop-color="white" stop-opacity="0.29"/>
</linearGradient>
<linearGradient id="paint11_linear_2488_24095" x1="202" y1="-119" x2="202" y2="855.5" gradientUnits="userSpaceOnUse">
<stop offset="0.0680993" stop-color="white" stop-opacity="0.28"/>
<stop offset="0.536526" stop-color="white" stop-opacity="0"/>
<stop offset="1" stop-color="white" stop-opacity="0.29"/>
</linearGradient>
<linearGradient id="paint12_linear_2488_24095" x1="182.5" y1="-35.5" x2="202" y2="864.5" gradientUnits="userSpaceOnUse">
<stop stop-color="white" stop-opacity="0.2"/>
<stop offset="0.363485" stop-color="white" stop-opacity="0"/>
<stop offset="0.740145" stop-color="white" stop-opacity="0.1"/>
<stop offset="1" stop-color="white" stop-opacity="0.24"/>
</linearGradient>
<linearGradient id="paint13_linear_2488_24095" x1="182.5" y1="-35.5" x2="202" y2="864.5" gradientUnits="userSpaceOnUse">
<stop stop-color="white" stop-opacity="0.2"/>
<stop offset="0.363485" stop-color="white" stop-opacity="0"/>
<stop offset="0.740145" stop-color="white" stop-opacity="0.1"/>
<stop offset="1" stop-color="white" stop-opacity="0.24"/>
</linearGradient>
<linearGradient id="paint14_linear_2488_24095" x1="182.5" y1="-35.5" x2="202" y2="864.5" gradientUnits="userSpaceOnUse">
<stop stop-color="white" stop-opacity="0.2"/>
<stop offset="0.363485" stop-color="white" stop-opacity="0"/>
<stop offset="0.740145" stop-color="white" stop-opacity="0.1"/>
<stop offset="1" stop-color="white" stop-opacity="0.24"/>
</linearGradient>
<linearGradient id="paint15_linear_2488_24095" x1="182.5" y1="-35.5" x2="202" y2="864.5" gradientUnits="userSpaceOnUse">
<stop stop-color="white" stop-opacity="0.2"/>
<stop offset="0.363485" stop-color="white" stop-opacity="0"/>
<stop offset="0.740145" stop-color="white" stop-opacity="0.1"/>
<stop offset="1" stop-color="white" stop-opacity="0.24"/>
</linearGradient>
<linearGradient id="paint16_linear_2488_24095" x1="182.5" y1="-35.5" x2="202" y2="864.5" gradientUnits="userSpaceOnUse">
<stop stop-color="white" stop-opacity="0.2"/>
<stop offset="0.363485" stop-color="white" stop-opacity="0"/>
<stop offset="0.740145" stop-color="white" stop-opacity="0.1"/>
<stop offset="1" stop-color="white" stop-opacity="0.24"/>
</linearGradient>
<linearGradient id="paint17_linear_2488_24095" x1="182.5" y1="-35.5" x2="202" y2="864.5" gradientUnits="userSpaceOnUse">
<stop stop-color="white" stop-opacity="0.2"/>
<stop offset="0.363485" stop-color="white" stop-opacity="0"/>
<stop offset="0.740145" stop-color="white" stop-opacity="0.1"/>
<stop offset="1" stop-color="white" stop-opacity="0.24"/>
</linearGradient>
<linearGradient id="paint18_linear_2488_24095" x1="182.5" y1="-35.5" x2="202" y2="864.5" gradientUnits="userSpaceOnUse">
<stop stop-color="white" stop-opacity="0.2"/>
<stop offset="0.363485" stop-color="white" stop-opacity="0"/>
<stop offset="0.740145" stop-color="white" stop-opacity="0.1"/>
<stop offset="1" stop-color="white" stop-opacity="0.24"/>
</linearGradient>
<linearGradient id="paint19_linear_2488_24095" x1="182.5" y1="-35.5" x2="202" y2="864.5" gradientUnits="userSpaceOnUse">
<stop stop-color="white" stop-opacity="0.2"/>
<stop offset="0.363485" stop-color="white" stop-opacity="0"/>
<stop offset="0.740145" stop-color="white" stop-opacity="0.1"/>
<stop offset="1" stop-color="white" stop-opacity="0.24"/>
</linearGradient>
</defs>
</svg>
