<svg width="375" height="812" viewBox="0 0 375 812" fill="none" xmlns="http://www.w3.org/2000/svg">
<mask id="mask0_2488_24147" style="mask-type:alpha" maskUnits="userSpaceOnUse" x="0" y="0" width="375" height="812">
<path d="M375 0H0V812H375V0Z" fill="url(#paint0_linear_2488_24147)"/>
</mask>
<g mask="url(#mask0_2488_24147)">
<path d="M375 0H0V812H375V0Z" fill="url(#paint1_linear_2488_24147)"/>
<g filter="url(#filter0_f_2488_24147)">
<path d="M-83.6677 516.028C-83.6677 516.028 -51.5777 562.481 12.8399 569.389C77.2575 576.297 130.226 548.608 145.281 542.201C160.335 535.794 293.321 476.127 387.81 505.124C387.81 505.124 447.207 522.236 485.522 557.689L487.459 538.346C487.459 538.346 408.878 468.618 300.884 479.217C192.895 489.774 156.965 541.996 72.8647 546.114C-11.2357 550.232 -45.8689 524.603 -68.9251 499.425L-83.6677 516.028Z" fill="url(#paint2_linear_2488_24147)"/>
<path d="M-83.6677 516.028C-83.6677 516.028 -51.5777 562.481 12.8399 569.389C77.2575 576.297 130.226 548.608 145.281 542.201C160.335 535.794 293.321 476.127 387.81 505.124C387.81 505.124 447.207 522.236 485.522 557.689L487.459 538.346C487.459 538.346 408.878 468.618 300.884 479.217C192.895 489.774 156.965 541.996 72.8647 546.114C-11.2357 550.232 -45.8689 524.603 -68.9251 499.425L-83.6677 516.028Z" stroke="white" stroke-miterlimit="10"/>
</g>
<g filter="url(#filter1_f_2488_24147)">
<path d="M314.572 416.549C314.572 416.549 420.517 396.488 488.991 421.772V444.445C488.991 444.445 407.087 405.441 304.376 435.492C201.664 465.542 141.977 504.961 98.4968 525.768C55.0164 546.576 -27.3434 543.799 -69 499.406V467.49C-69 467.49 -41.6849 504.049 46.6851 509.147C135.055 514.245 195.654 445.274 314.572 416.549Z" fill="url(#paint3_linear_2488_24147)"/>
<path d="M314.572 416.549C314.572 416.549 420.517 396.488 488.991 421.772V444.445C488.991 444.445 407.087 405.441 304.376 435.492C201.664 465.542 141.977 504.961 98.4968 525.768C55.0164 546.576 -27.3434 543.799 -69 499.406V467.49C-69 467.49 -41.6849 504.049 46.6851 509.147C135.055 514.245 195.654 445.274 314.572 416.549Z" stroke="white" stroke-miterlimit="10"/>
</g>
<g filter="url(#filter2_f_2488_24147)">
<path d="M-23.8095 264.244C-23.8095 264.244 0.729685 309.786 74.7651 312.374C148.8 314.962 230.652 286.575 304.306 300.73C377.959 314.885 420.098 348.115 438.636 367.538L437.565 382.296C437.565 382.296 367.813 326.991 270.792 327.888C173.768 328.826 104.312 358.778 54.3391 363.629C4.36639 368.481 -40.5195 366.803 -61.4973 355.223L-60.2013 337.364C-60.2013 337.364 -21.3809 364.784 86.1691 347.072C86.1691 347.072 22.9826 361.063 -39.2308 298.075L-23.8095 264.244Z" fill="url(#paint4_linear_2488_24147)"/>
<path d="M-23.8095 264.244C-23.8095 264.244 0.729685 309.786 74.7651 312.374C148.8 314.962 230.652 286.575 304.306 300.73C377.959 314.885 420.098 348.115 438.636 367.538L437.565 382.296C437.565 382.296 367.813 326.991 270.792 327.888C173.768 328.826 104.312 358.778 54.3391 363.629C4.36639 368.481 -40.5195 366.803 -61.4973 355.223L-60.2013 337.364C-60.2013 337.364 -21.3809 364.784 86.1691 347.072C86.1691 347.072 22.9826 361.063 -39.2308 298.075L-23.8095 264.244Z" stroke="white" stroke-miterlimit="10"/>
</g>
<g filter="url(#filter3_f_2488_24147)">
<path d="M416.394 305.373C416.394 305.373 348.92 270.484 264.055 293.042C179.19 315.6 152.936 356.695 33.1518 361.781C-86.6327 366.866 -100.502 220.412 -100.502 220.412L-74.0706 215.875C-74.0706 215.875 -61.7007 391.815 122.798 328.855C169.512 313.855 248.465 265.186 300.413 258.624C352.32 252.069 411.619 277.553 411.619 277.553L416.394 305.373Z" fill="url(#paint5_linear_2488_24147)"/>
<path d="M416.394 305.373C416.394 305.373 348.92 270.484 264.055 293.042C179.19 315.6 152.936 356.695 33.1518 361.781C-86.6327 366.866 -100.502 220.412 -100.502 220.412L-74.0706 215.875C-74.0706 215.875 -61.7007 391.815 122.798 328.855C169.512 313.855 248.465 265.186 300.413 258.624C352.32 252.069 411.619 277.553 411.619 277.553L416.394 305.373Z" stroke="white" stroke-miterlimit="10"/>
</g>
<g filter="url(#filter4_f_2488_24147)">
<path d="M416.167 419.718C416.167 419.718 348.693 384.829 263.828 407.387C178.963 429.946 152.709 471.041 32.9249 476.126C-86.8596 481.212 -100.729 334.758 -100.729 334.758L-74.2976 330.221C-74.2976 330.221 -61.9277 506.16 122.571 443.2C169.285 428.2 248.238 379.531 300.186 372.969C352.093 366.414 411.392 391.898 411.392 391.898L416.167 419.718Z" fill="url(#paint6_linear_2488_24147)"/>
<path d="M416.167 419.718C416.167 419.718 348.693 384.829 263.828 407.387C178.963 429.946 152.709 471.041 32.9249 476.126C-86.8596 481.212 -100.729 334.758 -100.729 334.758L-74.2976 330.221C-74.2976 330.221 -61.9277 506.16 122.571 443.2C169.285 428.2 248.238 379.531 300.186 372.969C352.093 366.414 411.392 391.898 411.392 391.898L416.167 419.718Z" stroke="white" stroke-miterlimit="10"/>
</g>
<g filter="url(#filter5_f_2488_24147)">
<path d="M-53.2903 434.222C-53.2903 434.222 -3.36849 449.793 41.6963 432.268C86.7675 414.784 171.956 361.581 272.769 346.02C373.582 330.459 444.033 380.398 444.033 380.398L447.055 399.979C447.055 399.979 368.904 340.911 263.047 365.094C163.996 387.723 82.1985 453.655 20.3896 462.692C-16.6547 468.326 -49.5723 458.309 -49.5723 458.309L-53.2903 434.222Z" fill="url(#paint7_linear_2488_24147)"/>
<path d="M-53.2903 434.222C-53.2903 434.222 -3.36849 449.793 41.6963 432.268C86.7675 414.784 171.956 361.581 272.769 346.02C373.582 330.459 444.033 380.398 444.033 380.398L447.055 399.979C447.055 399.979 368.904 340.911 263.047 365.094C163.996 387.723 82.1985 453.655 20.3896 462.692C-16.6547 468.326 -49.5723 458.309 -49.5723 458.309L-53.2903 434.222Z" stroke="white" stroke-miterlimit="10"/>
</g>
</g>
<defs>
<filter id="filter0_f_2488_24147" x="-85.3021" y="476.62" width="574.284" height="95.3667" filterUnits="userSpaceOnUse" color-interpolation-filters="sRGB">
<feFlood flood-opacity="0" result="BackgroundImageFix"/>
<feBlend mode="normal" in="SourceGraphic" in2="BackgroundImageFix" result="shape"/>
<feGaussianBlur stdDeviation="0.5" result="effect1_foregroundBlur_2488_24147"/>
</filter>
<filter id="filter1_f_2488_24147" x="-70.5" y="407.5" width="560.991" height="132.285" filterUnits="userSpaceOnUse" color-interpolation-filters="sRGB">
<feFlood flood-opacity="0" result="BackgroundImageFix"/>
<feBlend mode="normal" in="SourceGraphic" in2="BackgroundImageFix" result="shape"/>
<feGaussianBlur stdDeviation="0.5" result="effect1_foregroundBlur_2488_24147"/>
</filter>
<filter id="filter2_f_2488_24147" x="-63.0192" y="262.121" width="503.17" height="122.155" filterUnits="userSpaceOnUse" color-interpolation-filters="sRGB">
<feFlood flood-opacity="0" result="BackgroundImageFix"/>
<feBlend mode="normal" in="SourceGraphic" in2="BackgroundImageFix" result="shape"/>
<feGaussianBlur stdDeviation="0.5" result="effect1_foregroundBlur_2488_24147"/>
</filter>
<filter id="filter3_f_2488_24147" x="-102.043" y="214.289" width="520.1" height="149.121" filterUnits="userSpaceOnUse" color-interpolation-filters="sRGB">
<feFlood flood-opacity="0" result="BackgroundImageFix"/>
<feBlend mode="normal" in="SourceGraphic" in2="BackgroundImageFix" result="shape"/>
<feGaussianBlur stdDeviation="0.5" result="effect1_foregroundBlur_2488_24147"/>
</filter>
<filter id="filter4_f_2488_24147" x="-102.27" y="328.634" width="520.1" height="149.121" filterUnits="userSpaceOnUse" color-interpolation-filters="sRGB">
<feFlood flood-opacity="0" result="BackgroundImageFix"/>
<feBlend mode="normal" in="SourceGraphic" in2="BackgroundImageFix" result="shape"/>
<feGaussianBlur stdDeviation="0.5" result="effect1_foregroundBlur_2488_24147"/>
</filter>
<filter id="filter5_f_2488_24147" x="-54.9067" y="341.515" width="503.644" height="124.396" filterUnits="userSpaceOnUse" color-interpolation-filters="sRGB">
<feFlood flood-opacity="0" result="BackgroundImageFix"/>
<feBlend mode="normal" in="SourceGraphic" in2="BackgroundImageFix" result="shape"/>
<feGaussianBlur stdDeviation="0.5" result="effect1_foregroundBlur_2488_24147"/>
</filter>
<linearGradient id="paint0_linear_2488_24147" x1="6.92428" y1="831.595" x2="385.742" y2="-34.0178" gradientUnits="userSpaceOnUse">
<stop stop-color="#00CEBD"/>
<stop offset="0.0857639" stop-color="#36D8CB"/>
<stop offset="0.2311" stop-color="#8BE9E1"/>
<stop offset="0.3501" stop-color="#CAF5F1"/>
<stop offset="0.4366" stop-color="#F0FCFB"/>
<stop offset="0.4817" stop-color="white"/>
<stop offset="0.5274" stop-color="#F8FCFF"/>
<stop offset="0.5933" stop-color="#E5F4FF"/>
<stop offset="0.6715" stop-color="#C5E7FF"/>
<stop offset="0.7591" stop-color="#9AD4FF"/>
<stop offset="0.8545" stop-color="#62BCFF"/>
<stop offset="0.9551" stop-color="#1EA0FF"/>
<stop offset="0.9969" stop-color="#0093FF"/>
</linearGradient>
<linearGradient id="paint1_linear_2488_24147" x1="6.92428" y1="831.595" x2="385.742" y2="-34.0178" gradientUnits="userSpaceOnUse">
<stop offset="0.0720889" stop-color="#FCBD9E"/>
<stop offset="0.196" stop-color="#FDD4BF"/>
<stop offset="0.3862" stop-color="#FEF3ED"/>
<stop offset="0.4817" stop-color="white"/>
<stop offset="0.547" stop-color="#F7F5FB"/>
<stop offset="0.6564" stop-color="#E2DCF1"/>
<stop offset="0.7962" stop-color="#BFB2E0"/>
<stop offset="0.9596" stop-color="#9078C9"/>
<stop offset="0.9983" stop-color="#8469C3"/>
</linearGradient>
<linearGradient id="paint2_linear_2488_24147" x1="213.511" y1="408.631" x2="186.163" y2="681.766" gradientUnits="userSpaceOnUse">
<stop stop-color="white"/>
<stop offset="1" stop-color="white" stop-opacity="0"/>
</linearGradient>
<linearGradient id="paint3_linear_2488_24147" x1="422.5" y1="474" x2="-39" y2="490.5" gradientUnits="userSpaceOnUse">
<stop stop-color="white"/>
<stop offset="1" stop-color="white" stop-opacity="0.1"/>
</linearGradient>
<linearGradient id="paint4_linear_2488_24147" x1="194.469" y1="280.084" x2="187.201" y2="380.234" gradientUnits="userSpaceOnUse">
<stop stop-color="white"/>
<stop offset="1" stop-color="white" stop-opacity="0"/>
</linearGradient>
<linearGradient id="paint5_linear_2488_24147" x1="143.33" y1="178.557" x2="172.291" y2="347.275" gradientUnits="userSpaceOnUse">
<stop stop-color="white"/>
<stop offset="1" stop-color="white" stop-opacity="0"/>
</linearGradient>
<linearGradient id="paint6_linear_2488_24147" x1="386.5" y1="396" x2="-288.5" y2="587.5" gradientUnits="userSpaceOnUse">
<stop stop-color="white"/>
<stop offset="1" stop-color="white" stop-opacity="0"/>
</linearGradient>
<linearGradient id="paint7_linear_2488_24147" x1="-218.5" y1="456" x2="437.5" y2="407.5" gradientUnits="userSpaceOnUse">
<stop stop-color="white" stop-opacity="0.88"/>
<stop offset="0.491325" stop-color="white"/>
<stop offset="1" stop-color="white" stop-opacity="0"/>
</linearGradient>
</defs>
</svg>
