<svg width="375" height="812" viewBox="0 0 375 812" fill="none" xmlns="http://www.w3.org/2000/svg">
<g clip-path="url(#clip0_2488_15797)">
<rect width="375" height="812" fill="#FFEE95"/>
<path d="M375.085 588.133C431.124 588.133 476.553 542.707 476.553 486.671C476.553 430.636 431.124 385.21 375.085 385.21C319.045 385.21 273.617 430.636 273.617 486.671C273.617 542.707 319.045 588.133 375.085 588.133Z" fill="#FFDC82"/>
<path d="M-26.0439 587.006C11.0193 587.006 41.065 556.962 41.065 519.901C41.065 482.841 11.0193 452.797 -26.0439 452.797C-63.1071 452.797 -93.1528 482.841 -93.1528 519.901C-93.1528 556.962 -63.1071 587.006 -26.0439 587.006Z" fill="#FFDC82"/>
<path d="M138.743 691.048C167.104 691.048 190.096 668.058 190.096 639.698C190.096 611.339 167.104 588.348 138.743 588.348C110.381 588.348 87.3899 611.339 87.3899 639.698C87.3899 668.058 110.381 691.048 138.743 691.048Z" fill="#FFDC82"/>
<path d="M382.259 513.418C361.153 534.522 294.07 601.601 260.154 635.515C227.398 602.76 228.173 548.869 261.894 515.157C295.615 481.445 349.502 480.664 382.259 513.418Z" fill="#FFDC82"/>
<path d="M-45.4623 574.281C-10.3856 574.281 18.0498 545.848 18.0498 510.773C18.0498 475.699 -10.3856 447.265 -45.4623 447.265C-80.539 447.265 -108.974 475.699 -108.974 510.773C-108.974 545.848 -80.539 574.281 -45.4623 574.281Z" fill="#6FECA6"/>
<path d="M-34.2619 742.939C14.6915 742.939 54.3761 703.257 54.3761 654.307C54.3761 605.356 14.6915 565.674 -34.2619 565.674C-83.2153 565.674 -122.9 605.356 -122.9 654.307C-122.9 703.257 -83.2153 742.939 -34.2619 742.939Z" fill="#3CBD74"/>
<path d="M-46.6281 662.203C2.32529 662.203 42.0099 622.521 42.0099 573.57C42.0099 524.62 2.32529 484.938 -46.6281 484.938C-95.5815 484.938 -135.266 524.62 -135.266 573.57C-135.266 622.521 -95.5815 662.203 -46.6281 662.203Z" fill="#3CBD74"/>
<path d="M39.5356 679.221C86.1354 679.221 123.912 641.447 123.912 594.85C123.912 548.253 86.1354 510.479 39.5356 510.479C-7.06429 510.479 -44.8409 548.253 -44.8409 594.85C-44.8409 641.447 -7.06429 679.221 39.5356 679.221Z" fill="#6FECA6"/>
<path d="M100.523 696.463C131.393 696.463 156.418 671.44 156.418 640.572C156.418 609.704 131.393 584.68 100.523 584.68C69.6535 584.68 44.6285 609.704 44.6285 640.572C44.6285 671.44 69.6535 696.463 100.523 696.463Z" fill="#6FECA6"/>
<path d="M137.067 905.751C211.823 905.751 272.425 845.153 272.425 770.401C272.425 695.65 211.823 635.052 137.067 635.052C62.3104 635.052 1.7085 695.65 1.7085 770.401C1.7085 845.153 62.3104 905.751 137.067 905.751Z" fill="#3CBD74"/>
<path d="M339.036 715.229C402.415 715.229 453.794 670.272 453.794 614.815C453.794 559.358 402.415 514.402 339.036 514.402C275.657 514.402 224.277 559.358 224.277 614.815C224.277 670.272 275.657 715.229 339.036 715.229Z" fill="#6FECA6"/>
<path d="M395.381 732.69C444.335 732.69 484.019 693.008 484.019 644.057C484.019 595.107 444.335 555.425 395.381 555.425C346.428 555.425 306.743 595.107 306.743 644.057C306.743 693.008 346.428 732.69 395.381 732.69Z" fill="#3CBD74"/>
<path d="M-29.808 749.168C22.3051 749.168 64.5511 706.924 64.5511 654.815C64.5511 602.705 22.3051 560.461 -29.808 560.461C-81.9211 560.461 -124.167 602.705 -124.167 654.815C-124.167 706.924 -81.9211 749.168 -29.808 749.168Z" fill="#3CBD74"/>
<path d="M11.0312 915.512C77.4025 915.512 131.207 861.711 131.207 795.343C131.207 728.976 77.4025 675.175 11.0312 675.175C-55.34 675.175 -109.145 728.976 -109.145 795.343C-109.145 861.711 -55.34 915.512 11.0312 915.512Z" fill="#2B3E31"/>
<path d="M249.648 718.453C284.189 718.453 312.19 690.454 312.19 655.916C312.19 621.377 284.189 593.378 249.648 593.378C215.108 593.378 187.107 621.377 187.107 655.916C187.107 690.454 215.108 718.453 249.648 718.453Z" fill="#6FECA6"/>
<path d="M290.143 814.657C346.949 814.657 392.999 768.61 392.999 711.808C392.999 655.006 346.949 608.958 290.143 608.958C233.337 608.958 187.287 655.006 187.287 711.808C187.287 768.61 233.337 814.657 290.143 814.657Z" fill="#3CBD74"/>
<path d="M490.622 264.933C471.778 283.776 411.875 343.681 381.589 373.966C352.338 344.717 353.035 296.599 383.146 266.49C413.257 236.381 461.372 235.684 490.622 264.933Z" fill="#FFDC82"/>
<path d="M392.822 480.517C430.796 480.517 461.579 449.735 461.579 411.763C461.579 373.792 430.796 343.01 392.822 343.01C354.848 343.01 324.064 373.792 324.064 411.763C324.064 449.735 354.848 480.517 392.822 480.517Z" fill="#3CBD74"/>
<path d="M463.091 411.333C463.091 450.108 388.228 425.609 324.064 411.333C324.064 372.559 355.185 341.121 393.578 341.121C431.97 341.121 463.091 372.559 463.091 411.333Z" fill="#3CBD74"/>
<path d="M22.2022 786.373C60.5754 786.373 91.683 755.267 91.683 716.896C91.683 678.526 60.5754 647.42 22.2022 647.42C-16.171 647.42 -47.2786 678.526 -47.2786 716.896C-47.2786 755.267 -16.171 786.373 22.2022 786.373Z" fill="#3CBD74"/>
<path d="M64.242 878.62C102.615 878.62 133.723 847.515 133.723 809.144C133.723 770.773 102.615 739.667 64.242 739.667C25.8688 739.667 -5.23877 770.773 -5.23877 809.144C-5.23877 847.515 25.8688 878.62 64.242 878.62Z" fill="#3CBD74"/>
<path d="M288.408 692.553H22.918V786.379H288.408V692.553Z" fill="#3CBD74"/>
<path d="M400.9 906.059C467.271 906.059 521.076 852.258 521.076 785.891C521.076 719.524 467.271 665.723 400.9 665.723C334.529 665.723 280.724 719.524 280.724 785.891C280.724 852.258 334.529 906.059 400.9 906.059Z" fill="#2B3E31"/>
<path d="M187.617 905.43C262.44 905.43 323.096 856.906 323.096 797.047C323.096 737.189 262.44 688.665 187.617 688.665C112.795 688.665 52.1388 737.189 52.1388 797.047C52.1388 856.906 112.795 905.43 187.617 905.43Z" fill="#3CBD74"/>
<path d="M407.393 846.056C473.764 846.056 527.569 792.255 527.569 725.888C527.569 659.521 473.764 605.72 407.393 605.72C341.022 605.72 287.217 659.521 287.217 725.888C287.217 792.255 341.022 846.056 407.393 846.056Z" fill="#3CBD74"/>
<path d="M431.501 540.939C226.695 523.862 67.4747 480.578 67.4747 480.578L77.6398 475.086C77.6398 475.086 207.896 511.202 429.051 496.535C430.38 520.65 431.188 535.225 431.501 540.939Z" fill="#FFA9A9"/>
<path d="M431.501 540.939C226.695 523.862 67.4747 480.578 67.4747 480.578L74.069 477.594C74.069 477.594 178.743 516.642 429.97 513.182C431.299 537.303 431.188 535.225 431.501 540.939Z" fill="#A65563"/>
<path d="M172.362 494.646C171.163 496.45 160.346 512.29 152.514 516.193C145.594 519.64 6.78882 525.771 6.78882 525.771L20.0229 531.068C20.0229 531.068 149.901 527.908 160.411 522.22C170.557 516.727 186.482 501.233 188.691 498.184C188.795 498.027 172.421 494.561 172.362 494.646Z" fill="#FFA9A9"/>
<path d="M186.328 500.875C185.129 502.68 168.037 517.543 160.199 521.445C153.279 524.892 13.2679 528.371 13.2679 528.371L20.0251 531.076C20.0251 531.076 151.878 533.284 162.388 527.596C169.966 523.498 185.996 511.691 192.108 503.755C188.804 502.107 186.38 500.791 186.328 500.875Z" fill="#A65563"/>
<path d="M313.011 441.657C339.962 441.657 361.81 419.81 361.81 392.861C361.81 365.912 339.962 344.066 313.011 344.066C286.06 344.066 264.212 365.912 264.212 392.861C264.212 419.81 286.06 441.657 313.011 441.657Z" fill="#3CBD74"/>
<path d="M428.014 449.834C328.104 421.198 157.617 350.412 157.617 350.412L168.649 347.916C168.649 347.916 360.085 408.101 428.001 414.649C428.001 429.199 428.014 441.566 428.014 449.834Z" fill="#FFA9A9"/>
<path d="M428.014 449.834C328.104 421.198 157.617 350.411 157.617 350.411L164.518 348.854C164.518 348.854 360.091 426.286 428.008 432.834C428.001 447.384 428.014 441.565 428.014 449.834Z" fill="#A65563"/>
<path d="M271.876 385.329L231.138 400.374L237.686 404.244L285.351 388.209L271.876 385.329Z" fill="#FFA9A9"/>
<path d="M277.63 390.789L233.314 401.657L237.686 404.244L284.732 394.79L277.63 390.789Z" fill="#A65563"/>
<path d="M87.9669 567.024C87.9669 579.645 77.7402 588.133 65.119 588.133C52.4979 588.133 42.2712 579.645 42.2712 567.024C42.2712 557.64 48.1106 552.427 50.8836 544.865C55.0391 533.512 57.5494 527.734 65.119 527.734C72.7041 527.734 75.2221 533.55 79.3777 544.927C82.1352 552.473 87.9669 557.949 87.9669 567.024Z" fill="#FFE147"/>
<path d="M59.513 578.144C73.1209 578.144 84.1471 568.992 84.1471 555.385C84.1471 555.021 84.1384 554.663 84.1215 554.309C86.1828 558.086 87.9671 562.005 87.9671 567.024C87.9671 579.645 77.7404 588.133 65.1193 588.133C54.4743 588.133 45.5326 582.095 42.9935 572.632C47.3628 576.147 53.1562 578.144 59.513 578.144Z" fill="#FFD230"/>
<path d="M97.7402 560.808C97.7402 560.854 97.7402 560.893 97.7402 560.939C97.6939 560.939 97.6553 560.939 97.6089 560.939C79.3415 560.939 64.5267 546.133 64.5267 527.859C64.5267 527.813 64.5267 527.774 64.5267 527.728C64.5731 527.728 64.6117 527.728 64.658 527.728C82.9255 527.735 97.7402 542.541 97.7402 560.808Z" fill="#3CBD74"/>
<path d="M265.804 417.655C265.817 417.69 265.828 417.719 265.841 417.754C265.806 417.767 265.777 417.778 265.743 417.791C252.051 422.965 236.753 416.063 231.578 402.367C231.565 402.332 231.554 402.303 231.54 402.268C231.575 402.255 231.604 402.244 231.639 402.231C245.333 397.063 260.63 403.965 265.804 417.655Z" fill="#3CBD74"/>
<path d="M252.344 432.897C252.344 443.009 244.15 449.81 234.038 449.81C223.925 449.81 215.731 443.009 215.731 432.897C215.731 425.378 220.41 421.201 222.631 415.142C225.961 406.045 227.972 401.416 234.038 401.416C240.115 401.416 242.133 406.076 245.462 415.192C247.672 421.238 252.344 425.626 252.344 432.897Z" fill="#FFD600"/>
<path d="M229.546 441.807C240.449 441.807 249.284 434.474 249.284 423.572C249.284 423.28 249.277 422.992 249.263 422.709C250.915 425.735 252.345 428.875 252.345 432.897C252.345 443.009 244.15 449.81 234.038 449.81C225.508 449.81 218.344 444.972 216.31 437.39C219.81 440.207 224.452 441.807 229.546 441.807Z" fill="#FCC80E"/>
<path d="M339.063 294.082C360.215 315.119 354.692 341.503 344.896 350.27C329.13 333.815 319.522 340.509 319.766 358.058C320.221 383.03 298.958 391.175 286.987 388.779C308.854 370.831 299.53 349.465 292.134 341.025C278.067 323.535 281.92 304.821 285.614 297.702C298.256 272.862 327.684 281.405 339.063 294.082Z" fill="#FFA35F"/>
<path d="M319.773 309.287C338.638 307.178 347.955 340.581 344.887 350.333C341.966 346.664 333.41 339.649 327.695 340.903C320.541 342.474 319.52 353.214 319.872 358.249C321.442 375.729 310.92 390.715 277.87 391.21C299.862 385.455 314.897 375.822 308.89 350.824C304.079 330.801 299.909 311.508 319.773 309.287Z" fill="#FB833F"/>
<path d="M287.05 326.833C275.957 315.424 272.913 310.203 272.001 305.071C268.856 287.367 247.681 307.784 245.678 317.954C245.678 317.954 245 337.497 251.119 363.951C256.46 387.041 262.861 379.116 261.088 387.707C270.189 395.556 293.253 391.09 300.266 380.241C313.187 360.248 301.607 341.802 287.05 326.833Z" fill="#FB833F"/>
<path d="M245.873 319.334C245.873 319.334 245.404 325.046 244.591 327.345C241.528 337.475 236.808 385.526 271.884 386.997C284.922 378.159 293.126 364.126 281.261 348.636C274.901 340.334 254.044 321.15 245.873 319.334Z" fill="white"/>
<path d="M252.466 376.084C254.019 387.24 256.561 391.562 270.704 392.037C283.088 391.137 296.142 381.498 295.335 370.395C294.528 359.292 283.835 351.021 271.451 351.921C259.067 352.821 250.913 364.928 252.466 376.084Z" fill="#FB833F"/>
<path d="M282.487 386.189C282.335 384.108 280.617 382.499 278.555 382.505L242.137 382.627C239.865 382.634 238.078 384.587 238.245 386.879L238.5 390.399C238.659 392.585 240.539 394.229 242.7 394.072L278.936 391.439C281.096 391.282 282.719 389.382 282.56 387.196L282.487 386.189Z" fill="#FB833F"/>
<path fill-rule="evenodd" clip-rule="evenodd" d="M240.509 337.735C247.413 339.997 261.084 334.946 260.689 331.613C258.992 325.804 255.428 328.696 249.034 329.107L262.169 320.414L291.146 333.268C291.146 333.268 289.299 349.157 283.84 351.31C282.258 349.25 276.576 343.38 271.807 343.485C250.362 355.087 239.743 349.653 235.535 345.201C230.057 339.406 234.278 335.285 237.273 336.738C238.269 337.216 239.356 337.56 240.509 337.735Z" fill="#FB833F"/>
<path d="M236.654 292.825C243.194 287.546 251.613 287.347 256.947 288.701C271.456 292.385 278.538 312.738 264.537 322.711C253.538 330.547 232.33 336.628 224.808 325.599C218.661 316.585 228.756 299.201 236.654 292.825Z" fill="#FB833F"/>
<path d="M251.101 283.453C253.93 291.974 259.86 298.313 264.347 297.611C268.834 296.909 270.179 289.433 267.35 280.912C264.522 272.391 258.592 266.052 254.105 266.754C249.618 267.455 248.273 274.932 251.101 283.453Z" fill="#FB833F"/>
<path d="M267.332 280.685C254.217 265.479 257.071 283.575 260.222 288.756C262.095 291.837 263.887 293.728 267.408 295.474C269.924 291.443 268.55 284.129 267.332 280.685Z" fill="#FFA35F"/>
<path d="M237.406 303.922C232.994 306.945 231.248 312.121 233.506 315.483C235.764 318.844 241.172 319.118 245.584 316.094C249.996 313.071 251.742 307.895 249.484 304.534C247.226 301.172 241.818 300.899 237.406 303.922Z" fill="white"/>
<path fill-rule="evenodd" clip-rule="evenodd" d="M243.028 307.326C243.497 308.09 243.265 309.084 242.504 309.562C241.75 310.031 240.75 309.799 240.28 309.035C239.811 308.271 240.043 307.277 240.805 306.807C241.559 306.33 242.559 306.562 243.028 307.326Z" fill="white"/>
<path d="M239.189 311.878C239.942 311.026 240.984 310.439 242.082 310.488C243.083 310.526 243.988 310.93 244.655 311.565C245.337 312.242 246.533 311.69 246.352 310.727L246.336 310.686C245.989 308.803 244.505 307.26 242.64 306.803C239.485 306.042 236.619 308.36 236.477 311.416C236.455 311.847 236.514 312.246 236.574 312.646C236.78 313.552 238.023 313.732 238.458 312.909C238.691 312.538 238.899 312.224 239.189 311.878Z" fill="#3E3E3D"/>
<path d="M309.295 644.966C309.256 644.974 309.218 644.983 309.173 644.993C309.181 645.032 309.19 645.071 309.2 645.116C312.976 661.717 329.494 672.114 346.095 668.339C346.134 668.33 346.173 668.321 346.218 668.311C346.209 668.273 346.2 668.234 346.19 668.189C342.413 651.581 325.896 641.19 309.295 644.966Z" fill="#6FECA6"/>
<path d="M214.446 742.803C214.41 742.784 214.374 742.764 214.332 742.742C214.352 742.706 214.371 742.67 214.394 742.628C222.718 727.28 241.907 721.585 257.256 729.909C257.292 729.928 257.327 729.947 257.369 729.97C257.35 730.006 257.33 730.042 257.308 730.083C248.981 745.438 229.794 751.127 214.446 742.803Z" fill="#6FECA6"/>
<path d="M236.261 703.501C236.25 703.464 236.233 703.424 236.225 703.382C236.188 703.393 236.146 703.4 236.106 703.417C219.369 708.384 209.827 725.978 214.794 742.715C214.805 742.751 214.822 742.791 214.83 742.834C214.866 742.823 214.909 742.815 214.949 742.799C231.686 737.832 241.227 720.238 236.261 703.501Z" fill="#2AA861"/>
<path d="M66.7646 701.776C66.8104 701.775 66.8561 701.773 66.9095 701.772C66.911 701.818 66.9125 701.863 66.9143 701.917C67.5534 721.58 52.1321 738.037 32.469 738.677C32.4232 738.678 32.3775 738.68 32.3241 738.681C32.3226 738.636 32.3211 738.59 32.3194 738.536C31.6802 718.873 47.1015 702.416 66.7646 701.776Z" fill="#2AA861"/>
<path d="M66.945 701.916C66.9436 701.87 66.9421 701.824 66.9403 701.771C66.9861 701.769 67.0319 701.768 67.0853 701.766C86.7483 701.127 103.206 716.548 103.845 736.211C103.847 736.257 103.848 736.303 103.85 736.356C103.804 736.358 103.758 736.359 103.705 736.361C84.0416 736.993 67.584 721.571 66.945 701.916Z" fill="#6FECA6"/>
<path d="M327.93 555.481C327.93 568.102 317.703 576.59 305.082 576.59C292.461 576.59 282.234 568.102 282.234 555.481C282.234 546.097 288.074 540.884 290.847 533.323C295.002 521.969 297.513 516.192 305.082 516.192C312.667 516.192 315.185 522.008 319.341 533.384C322.098 540.93 327.93 546.406 327.93 555.481Z" fill="#FFE147"/>
<path d="M299.476 566.602C313.084 566.602 324.11 557.45 324.11 543.843C324.11 543.479 324.102 543.12 324.085 542.766C326.146 546.543 327.93 550.462 327.93 555.482C327.93 568.102 317.704 576.59 305.082 576.59C294.437 576.59 285.496 570.552 282.957 561.089C287.326 564.604 293.119 566.602 299.476 566.602Z" fill="#FFD230"/>
<path d="M272.933 549.265C272.933 549.311 272.933 549.35 272.933 549.396C272.979 549.396 273.018 549.396 273.064 549.396C291.331 549.396 306.146 534.59 306.146 516.316C306.146 516.27 306.146 516.231 306.146 516.185C306.1 516.185 306.061 516.185 306.015 516.185C287.748 516.193 272.933 530.999 272.933 549.265Z" fill="#3CBD74"/>
</g>
<defs>
<clipPath id="clip0_2488_15797">
<rect width="375" height="812" fill="white"/>
</clipPath>
</defs>
</svg>
