<svg width="375" height="812" viewBox="0 0 375 812" fill="none" xmlns="http://www.w3.org/2000/svg">
<g clip-path="url(#clip0_6093_44448)">
<rect width="375" height="812" fill="white"/>
<path d="M375 0H0V812H375V0Z" fill="url(#paint0_linear_6093_44448)"/>
<path d="M13.3868 469.979H17.3151L18.7258 535.804H12.2516L13.3868 469.979Z" fill="#CA974C"/>
<path d="M-4.85429 472.817C-4.85429 484.052 4.2536 493.16 15.4887 493.16C26.7239 493.16 35.8318 484.052 35.8318 472.817C35.4466 446.174 18.6452 401.871 15.4887 401.871C12.3323 401.871 -3.46255 446.944 -4.85429 472.817Z" fill="#91E151"/>
<path d="M-4.85455 472.817C-4.85455 484.052 4.25335 493.16 15.4885 493.16C19.4928 491.356 23.1438 483.538 24.4037 475.307C26.9027 458.981 18.645 401.871 15.4885 401.871C12.332 401.871 -3.46281 446.944 -4.85455 472.817Z" fill="#BAF76D"/>
<path d="M12.5738 446.701C12.5757 446.708 12.5776 446.716 12.5798 446.725C12.5722 446.727 12.5645 446.729 12.5556 446.731C9.27458 447.552 5.94915 445.558 5.12793 442.277C5.12601 442.269 5.1241 442.262 5.12187 442.253C5.12951 442.251 5.13715 442.249 5.14606 442.247C8.42838 441.425 11.7525 443.419 12.5738 446.701Z" fill="#91E151"/>
<path d="M12.5914 446.702C12.5877 446.709 12.584 446.716 12.5798 446.725C12.5728 446.721 12.5658 446.717 12.5577 446.713C9.56198 445.143 8.40637 441.442 9.97653 438.446C9.98018 438.439 9.98384 438.432 9.9881 438.424C9.99508 438.427 10.0021 438.431 10.0102 438.435C13.0071 440.006 14.1615 443.707 12.5914 446.702Z" fill="#91E151"/>
<path d="M47.9372 448.757H53.6909L55.7573 545.171H46.2745L47.9372 448.757Z" fill="#CA974C"/>
<path d="M21.2198 452.913C21.2198 469.369 34.56 482.709 51.016 482.709C67.472 482.709 80.8122 469.369 80.8122 452.913C80.2481 413.889 55.6393 349 51.016 349C46.3928 349 23.2583 415.018 21.2198 452.913Z" fill="#91E151"/>
<path d="M21.2195 452.913C21.2195 469.369 34.5597 482.709 51.0156 482.709C56.8808 480.068 62.2283 468.617 64.0737 456.561C67.734 432.648 55.6389 349 51.0156 349C46.3924 349 23.2579 415.018 21.2195 452.913Z" fill="#BAF76D"/>
<path d="M46.7464 414.661C46.7492 414.672 46.752 414.684 46.7553 414.697C46.7441 414.7 46.7329 414.702 46.7198 414.706C41.9141 415.908 37.0434 412.988 35.8406 408.182C35.8378 408.171 35.835 408.16 35.8317 408.147C35.8429 408.144 35.8541 408.141 35.8672 408.138C40.6747 406.935 45.5436 409.856 46.7464 414.661Z" fill="#91E151"/>
<path d="M46.7723 414.664C46.7669 414.675 46.7616 414.685 46.7553 414.697C46.7451 414.691 46.7349 414.686 46.723 414.68C42.3352 412.38 40.6426 406.959 42.9424 402.571C42.9477 402.561 42.9531 402.551 42.9593 402.539C42.9695 402.544 42.9797 402.549 42.9917 402.556C47.3811 404.856 49.072 410.277 46.7723 414.664Z" fill="#91E151"/>
<path d="M64.4706 453.447C64.4594 453.444 64.4483 453.441 64.4352 453.438C64.438 453.427 64.4408 453.416 64.4441 453.403C65.647 448.597 70.5178 445.676 75.3235 446.879C75.3347 446.882 75.3458 446.885 75.3589 446.888C75.3561 446.899 75.3533 446.911 75.35 446.924C74.1466 451.731 69.2763 454.65 64.4706 453.447Z" fill="#74CA2F"/>
<path d="M64.0896 453.596C64.0792 453.601 64.0688 453.606 64.0566 453.612C64.0517 453.602 64.0467 453.591 64.0409 453.579C61.9144 449.105 63.8176 443.754 68.2919 441.627C68.3023 441.622 68.3128 441.618 68.3249 441.612C68.3299 441.622 68.3348 441.633 68.3406 441.645C70.4679 446.121 68.5639 451.47 64.0896 453.596Z" fill="#BAF76D"/>
<path d="M289.269 488.843H293.96L295.645 567.452H287.913L289.269 488.843Z" fill="#CA974C"/>
<path d="M267.486 492.232C267.486 505.649 278.362 516.526 291.779 516.526C305.196 516.526 316.073 505.649 316.073 492.232C315.613 460.415 295.549 407.509 291.779 407.509C288.01 407.509 269.148 461.335 267.486 492.232Z" fill="#91E151"/>
<path d="M267.485 492.232C267.485 505.649 278.362 516.526 291.779 516.526C296.561 514.372 300.921 505.036 302.425 495.206C305.41 475.709 295.548 407.509 291.779 407.509C288.009 407.509 269.147 461.335 267.485 492.232Z" fill="#BAF76D"/>
<path d="M283.412 461.044C283.409 461.053 283.407 461.062 283.404 461.073C283.414 461.075 283.423 461.077 283.433 461.08C287.352 462.06 291.323 459.679 292.303 455.761C292.306 455.752 292.308 455.743 292.311 455.732C292.302 455.73 292.292 455.728 292.282 455.725C288.362 454.744 284.392 457.125 283.412 461.044Z" fill="#91E151"/>
<path d="M283.391 461.047C283.395 461.055 283.399 461.063 283.404 461.073C283.413 461.069 283.421 461.064 283.431 461.059C287.008 459.184 288.388 454.764 286.513 451.187C286.509 451.178 286.505 451.17 286.499 451.16C286.491 451.165 286.483 451.169 286.473 451.174C282.894 453.05 281.516 457.469 283.391 461.047Z" fill="#91E151"/>
<path d="M302.749 492.667C302.74 492.665 302.731 492.663 302.72 492.66C302.722 492.651 302.725 492.642 302.727 492.631C303.708 488.713 307.679 486.332 311.598 487.313C311.607 487.315 311.616 487.317 311.626 487.32C311.624 487.329 311.622 487.338 311.619 487.349C310.638 491.269 306.667 493.648 302.749 492.667Z" fill="#74CA2F"/>
<path d="M302.438 492.789C302.43 492.793 302.421 492.797 302.412 492.801C302.408 492.793 302.403 492.784 302.399 492.775C300.665 489.127 302.217 484.764 305.865 483.03C305.873 483.026 305.882 483.022 305.892 483.017C305.896 483.026 305.9 483.034 305.904 483.044C307.639 486.694 306.086 491.055 302.438 492.789Z" fill="#BAF76D"/>
<path d="M323.899 456.329H329.389L331.36 548.317H322.313L323.899 456.329Z" fill="#CA974C"/>
<path d="M298.408 460.294C298.408 475.995 311.136 488.723 326.837 488.723C342.537 488.723 355.265 475.995 355.265 460.294C354.727 423.062 331.248 361.151 326.837 361.151C322.426 361.151 300.353 424.139 298.408 460.294Z" fill="#91E151"/>
<path d="M298.408 460.294C298.408 475.995 311.136 488.723 326.836 488.723C332.432 486.203 337.534 475.277 339.295 463.775C342.787 440.96 331.247 361.151 326.836 361.151C322.425 361.151 300.353 424.139 298.408 460.294Z" fill="#BAF76D"/>
<path d="M317.045 423.798C317.043 423.809 317.04 423.819 317.037 423.832C317.047 423.834 317.058 423.837 317.071 423.84C321.656 424.988 326.303 422.201 327.45 417.616C327.453 417.606 327.456 417.595 327.459 417.582C327.448 417.58 327.438 417.577 327.425 417.574C322.838 416.426 318.193 419.213 317.045 423.798Z" fill="#81CB46"/>
<path d="M317.021 423.802C317.026 423.811 317.031 423.821 317.037 423.832C317.047 423.827 317.056 423.822 317.068 423.816C321.254 421.622 322.869 416.45 320.675 412.263C320.67 412.254 320.665 412.244 320.659 412.233C320.649 412.238 320.639 412.243 320.628 412.249C316.44 414.444 314.826 419.615 317.021 423.802Z" fill="#91E151"/>
<path d="M363.015 472.307H367.145L368.628 541.511H361.822L363.015 472.307Z" fill="#CA974C"/>
<path d="M343.838 475.29C343.838 487.101 353.413 496.677 365.225 496.677C377.037 496.677 386.613 487.101 386.613 475.29C386.208 447.279 368.544 400.702 365.225 400.702C361.907 400.702 345.301 448.089 343.838 475.29Z" fill="#91E151"/>
<path d="M343.838 475.29C343.838 487.101 353.413 496.677 365.225 496.677C369.435 494.781 373.273 486.562 374.598 477.908C377.225 460.744 368.543 400.702 365.225 400.702C361.906 400.702 345.301 448.089 343.838 475.29Z" fill="#BAF76D"/>
<path d="M357.859 447.833C357.857 447.841 357.855 447.849 357.853 447.858C357.861 447.86 357.869 447.862 357.878 447.864C361.327 448.728 364.824 446.631 365.687 443.182C365.689 443.174 365.691 443.166 365.693 443.157C365.685 443.155 365.677 443.153 365.668 443.15C362.217 442.286 358.722 444.383 357.859 447.833Z" fill="#91E151"/>
<path d="M357.84 447.835C357.844 447.843 357.848 447.85 357.853 447.859C357.86 447.855 357.867 447.851 357.876 447.846C361.025 446.196 362.24 442.304 360.589 439.155C360.586 439.148 360.582 439.14 360.577 439.132C360.57 439.136 360.563 439.139 360.554 439.144C357.403 440.795 356.19 444.686 357.84 447.835Z" fill="#91E151"/>
<path d="M131.573 470.212H134.938L136.146 526.594H130.6L131.573 470.212Z" fill="#CA974C"/>
<path d="M115.949 472.642C115.949 482.265 123.75 490.067 133.373 490.067C142.997 490.067 150.798 482.265 150.798 472.642C150.468 449.822 136.077 411.875 133.373 411.875C130.67 411.875 117.141 450.482 115.949 472.642Z" fill="#91E151"/>
<path d="M115.949 472.642C115.949 482.265 123.75 490.067 133.373 490.067C136.803 488.522 139.93 481.826 141.009 474.776C143.15 460.791 136.077 411.875 133.373 411.875C130.669 411.875 117.141 450.482 115.949 472.642Z" fill="#BAF76D"/>
<path d="M141.241 472.955C141.235 472.953 141.228 472.952 141.221 472.95C141.222 472.943 141.224 472.937 141.226 472.929C141.929 470.119 144.778 468.411 147.588 469.114C147.594 469.116 147.601 469.117 147.609 469.119C147.607 469.126 147.605 469.132 147.603 469.14C146.9 471.951 144.052 473.658 141.241 472.955Z" fill="#74CA2F"/>
<path d="M141.019 473.042C141.012 473.045 141.006 473.047 140.999 473.051C140.996 473.045 140.993 473.039 140.99 473.032C139.747 470.415 140.86 467.286 143.476 466.042C143.482 466.039 143.488 466.037 143.495 466.033C143.498 466.039 143.501 466.045 143.504 466.052C144.749 468.67 143.635 471.798 141.019 473.042Z" fill="#BAF76D"/>
<path d="M249.404 472.979H252.769L253.977 529.36H248.432L249.404 472.979Z" fill="#CA974C"/>
<path d="M233.78 475.409C233.78 485.032 241.581 492.833 251.204 492.833C260.828 492.833 268.629 485.032 268.629 475.409C268.299 452.588 253.908 414.642 251.204 414.642C248.501 414.642 234.972 453.248 233.78 475.409Z" fill="#91E151"/>
<path d="M233.78 475.409C233.78 485.032 241.581 492.833 251.204 492.833C254.634 491.289 257.761 484.592 258.84 477.542C260.981 463.558 253.908 414.642 251.204 414.642C248.5 414.642 234.972 453.248 233.78 475.409Z" fill="#BAF76D"/>
<path d="M259.072 475.721C259.066 475.72 259.059 475.718 259.052 475.716C259.053 475.71 259.055 475.703 259.057 475.695C259.76 472.885 262.609 471.177 265.419 471.881C265.426 471.882 265.432 471.884 265.44 471.886C265.438 471.893 265.436 471.899 265.435 471.907C264.731 474.718 261.883 476.425 259.072 475.721Z" fill="#74CA2F"/>
<path d="M258.85 475.808C258.844 475.811 258.837 475.814 258.83 475.817C258.827 475.811 258.825 475.805 258.821 475.798C257.578 473.182 258.691 470.053 261.307 468.809C261.313 468.806 261.319 468.803 261.326 468.8C261.329 468.806 261.332 468.812 261.336 468.819C262.58 471.437 261.466 474.565 258.85 475.808Z" fill="#BAF76D"/>
<path d="M89.4954 466.907H93.1932L94.5212 528.871H88.4268L89.4954 466.907Z" fill="#CA974C"/>
<path d="M72.3247 469.579C72.3247 480.155 80.8982 488.728 91.4741 488.728C102.05 488.728 110.624 480.155 110.624 469.579C110.261 444.499 94.4454 402.796 91.4741 402.796C88.5028 402.796 73.6348 445.224 72.3247 469.579Z" fill="#91E151"/>
<path d="M72.3245 469.579C72.3245 480.155 80.898 488.728 91.4739 488.728C95.2433 487.031 98.6801 479.671 99.8661 471.923C102.218 456.555 94.4452 402.796 91.4739 402.796C88.5026 402.796 73.6346 445.224 72.3245 469.579Z" fill="#BAF76D"/>
<path d="M100.121 469.921C100.114 469.92 100.107 469.918 100.098 469.916C100.1 469.909 100.102 469.901 100.104 469.893C100.877 466.804 104.007 464.928 107.096 465.701C107.103 465.702 107.11 465.704 107.119 465.706C107.117 465.714 107.115 465.721 107.113 465.729C106.34 468.819 103.21 470.695 100.121 469.921Z" fill="#74CA2F"/>
<path d="M99.8762 470.018C99.8695 470.021 99.8628 470.024 99.855 470.028C99.8519 470.021 99.8487 470.014 99.845 470.006C98.4783 467.131 99.7014 463.692 102.577 462.325C102.584 462.322 102.59 462.319 102.598 462.315C102.601 462.322 102.605 462.329 102.608 462.336C103.975 465.213 102.752 468.651 99.8762 470.018Z" fill="#BAF76D"/>
<path d="M160.782 471.303H165.168L166.743 544.792H159.515L160.782 471.303Z" fill="#CA974C"/>
<path d="M140.418 474.47C140.418 487.013 150.586 497.182 163.129 497.182C175.672 497.182 185.84 487.013 185.84 474.47C185.41 444.726 166.653 395.266 163.129 395.266C159.605 395.266 141.971 445.586 140.418 474.47Z" fill="#91E151"/>
<path d="M140.417 474.47C140.417 487.013 150.586 497.182 163.129 497.182C167.599 495.168 171.675 486.44 173.082 477.251C175.872 459.024 166.653 395.266 163.129 395.266C159.605 395.266 141.971 445.586 140.417 474.47Z" fill="#BAF76D"/>
<path d="M159.874 445.314C159.877 445.323 159.879 445.331 159.881 445.341C159.873 445.343 159.864 445.345 159.854 445.348C156.191 446.265 152.479 444.038 151.562 440.375C151.56 440.367 151.558 440.358 151.555 440.348C151.564 440.346 151.572 440.344 151.582 440.342C155.247 439.424 158.958 441.651 159.874 445.314Z" fill="#91E151"/>
<path d="M159.894 445.316C159.89 445.324 159.886 445.332 159.881 445.341C159.873 445.337 159.866 445.333 159.857 445.328C156.512 443.575 155.222 439.443 156.975 436.099C156.979 436.091 156.983 436.083 156.988 436.074C156.996 436.078 157.003 436.082 157.013 436.087C160.358 437.84 161.647 441.972 159.894 445.316Z" fill="#91E151"/>
<path d="M-19.6775 496.804H71.6222C71.6222 471.592 51.1841 451.154 25.9723 451.154C0.760635 451.154 -19.6775 471.592 -19.6775 496.804Z" fill="#81CB46"/>
<path d="M-19.6776 496.804H47.3448C52.4512 486.863 51.184 451.154 25.9723 451.154C0.760567 451.154 -19.6776 471.592 -19.6776 496.804Z" fill="#A6E852"/>
<path d="M233.909 496.804H311.07C311.07 475.497 293.797 458.224 272.49 458.224C251.182 458.224 233.909 475.497 233.909 496.804Z" fill="#81CB46"/>
<path d="M233.909 496.804H290.552C294.868 488.403 293.797 458.224 272.49 458.224C251.182 458.224 233.909 475.497 233.909 496.804Z" fill="#A6E852"/>
<circle cx="2.44807" cy="2.44807" r="2.44807" transform="matrix(-1 0 0 1 254.881 481.041)" fill="#D0FD71"/>
<path fill-rule="evenodd" clip-rule="evenodd" d="M214.35 451.154C239.561 451.154 260 471.592 260 496.804H168.7C168.7 496.804 168.7 496.804 168.7 496.804H123.158C123.158 478.172 138.262 463.067 156.895 463.067C164.604 463.067 171.709 465.653 177.391 470.004C185.688 458.581 199.151 451.154 214.35 451.154Z" fill="#81CB46"/>
<path d="M233.925 496.804H123.157C123.157 478.172 138.262 463.067 156.895 463.067C164.604 463.067 171.709 465.653 177.39 470.004C185.688 458.581 199.151 451.154 214.349 451.154C230.417 455.341 234.426 481.396 233.925 496.804Z" fill="#A6E852"/>
<circle cx="2.89663" cy="2.89663" r="2.89663" transform="matrix(-1 0 0 1 220.495 472.025)" fill="#81CB46"/>
<circle cx="2.89663" cy="2.89663" r="2.89663" transform="matrix(-1 0 0 1 209.427 462.297)" fill="#D0FD71"/>
<circle cx="2.89663" cy="2.89663" r="2.89663" transform="matrix(-1 0 0 1 189.072 481.182)" fill="#D0FD71"/>
<path d="M303.783 496.804H380.944C380.944 475.497 363.671 458.224 342.363 458.224C321.056 458.224 303.783 475.497 303.783 496.804Z" fill="#81CB46"/>
<path d="M303.783 496.804H360.426C364.742 488.403 363.671 458.224 342.363 458.224C321.056 458.224 303.783 475.497 303.783 496.804Z" fill="#A6E852"/>
<circle cx="2.44807" cy="2.44807" r="2.44807" transform="matrix(-1 0 0 1 355.247 481.041)" fill="#81CB46"/>
<circle cx="2.44807" cy="2.44807" r="2.44807" transform="matrix(-1 0 0 1 341.266 463.194)" fill="#D0FD71"/>
<circle cx="2.44807" cy="2.44807" r="2.44807" transform="matrix(-1 0 0 1 327.049 474.39)" fill="#D0FD71"/>
<path d="M59.2342 496.804H136.396C136.396 475.497 119.122 458.224 97.8149 458.224C76.5074 458.224 59.2342 475.497 59.2342 496.804Z" fill="#81CB46"/>
<path d="M59.2343 496.804H115.878C120.194 488.403 119.123 458.224 97.815 458.224C76.5075 458.224 59.2343 475.497 59.2343 496.804Z" fill="#A6E852"/>
<circle cx="2.44807" cy="2.44807" r="2.44807" transform="matrix(-1 0 0 1 103.276 476.145)" fill="#81CB46"/>
<circle cx="2.44807" cy="2.44807" r="2.44807" transform="matrix(-1 0 0 1 90.2208 477.257)" fill="#81CB46"/>
<circle cx="2.44807" cy="2.44807" r="2.44807" transform="matrix(-1 0 0 1 93.9222 467.923)" fill="#D0FD71"/>
<path d="M280.174 472.026C273.998 479.388 270.982 488.411 271.685 497.434L275.189 498.131C273.283 489.166 275.049 479.893 280.174 472.026Z" fill="#81CB46"/>
<path d="M273.727 488.519C273.263 489.214 272.812 489.944 272.395 490.697C270.529 485.356 267.992 480.189 264.806 475.288C268.305 479.459 271.271 483.896 273.727 488.519Z" fill="#81CB46"/>
<path d="M149.066 472.026C155.242 479.388 158.258 488.411 157.555 497.434L154.051 498.131C155.957 489.166 154.191 479.893 149.066 472.026Z" fill="#81CB46"/>
<path d="M155.513 488.519C155.977 489.214 156.428 489.944 156.845 490.697C158.711 485.356 161.248 480.189 164.434 475.288C160.935 479.459 157.969 483.896 155.513 488.519Z" fill="#81CB46"/>
<path d="M15.0368 462.297C23.5147 472.402 27.6539 484.787 26.6889 497.173L21.8797 498.13C24.4956 485.824 22.0711 473.096 15.0368 462.297Z" fill="#81CB46"/>
<path d="M23.8861 484.936C24.5222 485.89 25.1424 486.892 25.7149 487.926C28.2754 480.594 31.7583 473.502 36.1318 466.774C31.3289 472.5 27.2576 478.591 23.8861 484.936Z" fill="#81CB46"/>
<rect x="-44" y="493.957" width="427.84" height="328.119" fill="url(#paint1_linear_6093_44448)"/>
<g opacity="0.5">
<mask id="mask0_6093_44448" style="mask-type:alpha" maskUnits="userSpaceOnUse" x="-15" y="498" width="414" height="130">
<rect x="-14.7704" y="498.402" width="413.425" height="129.027" fill="#D9D9D9"/>
</mask>
<g mask="url(#mask0_6093_44448)">
<path d="M-4.62205 490.801C-4.62205 479.566 4.48584 470.458 15.721 470.458C26.9561 470.458 36.064 479.566 36.064 490.801C35.6789 517.445 18.8775 561.747 15.721 561.747C12.5645 561.747 -3.23031 516.674 -4.62205 490.801Z" fill="#91E151"/>
<path d="M-4.62231 490.801C-4.62231 479.566 4.48558 470.458 15.7207 470.458C19.7251 472.262 23.3761 480.08 24.636 488.311C27.135 504.637 18.8772 561.747 15.7207 561.747C12.5642 561.747 -3.23057 516.674 -4.62231 490.801Z" fill="#BAF76D"/>
<path d="M12.806 516.918C12.8079 516.91 12.8098 516.902 12.8121 516.893C12.8044 516.892 12.7968 516.89 12.7879 516.887C9.50682 516.066 6.18139 518.06 5.36016 521.341C5.35825 521.349 5.35634 521.356 5.35411 521.365C5.36175 521.367 5.36939 521.369 5.3783 521.371C8.66062 522.193 11.9848 520.199 12.806 516.918Z" fill="#91E151"/>
<path d="M12.8236 516.916C12.8199 516.909 12.8163 516.902 12.812 516.894C12.805 516.897 12.7981 516.901 12.7899 516.905C9.79422 518.475 8.63861 522.177 10.2088 525.172C10.2124 525.179 10.2161 525.186 10.2203 525.194C10.2273 525.191 10.2343 525.187 10.2424 525.183C13.2393 523.612 14.3937 519.911 12.8236 516.916Z" fill="#91E151"/>
<path d="M48.1695 514.861H53.9232L55.9895 418.447H46.5068L48.1695 514.861Z" fill="#CA974C"/>
<path d="M21.4521 510.705C21.4521 494.249 34.7923 480.909 51.2482 480.909C67.7042 480.909 81.0444 494.249 81.0444 510.705C80.4803 549.729 55.8715 614.618 51.2482 614.618C46.625 614.618 23.4905 548.6 21.4521 510.705Z" fill="#91E151"/>
<path d="M21.4517 510.705C21.4517 494.249 34.7919 480.909 51.2479 480.909C57.113 483.55 62.4606 495.001 64.3059 507.057C67.9662 530.97 55.8711 614.618 51.2479 614.618C46.6246 614.618 23.4902 548.6 21.4517 510.705Z" fill="#BAF76D"/>
<path d="M46.9787 548.957C46.9815 548.946 46.9843 548.934 46.9875 548.921C46.9763 548.919 46.9651 548.916 46.9521 548.913C42.1464 547.71 37.2757 550.63 36.0728 555.436C36.07 555.447 36.0672 555.458 36.064 555.471C36.0752 555.474 36.0863 555.477 36.0994 555.48C40.907 556.684 45.7758 553.763 46.9787 548.957Z" fill="#91E151"/>
<path d="M47.0045 548.954C46.9991 548.944 46.9938 548.933 46.9875 548.921C46.9773 548.927 46.9671 548.932 46.9552 548.938C42.5674 551.238 40.8748 556.659 43.1746 561.047C43.18 561.057 43.1853 561.068 43.1915 561.079C43.2018 561.074 43.212 561.069 43.2239 561.062C47.6134 558.762 49.3043 553.342 47.0045 548.954Z" fill="#91E151"/>
<path d="M64.7029 510.171C64.6917 510.174 64.6805 510.177 64.6674 510.18C64.6702 510.191 64.673 510.203 64.6763 510.216C65.8793 515.021 70.75 517.942 75.5557 516.739C75.5669 516.736 75.5781 516.733 75.5911 516.73C75.5883 516.719 75.5855 516.708 75.5823 516.694C74.3788 511.887 69.5085 508.968 64.7029 510.171Z" fill="#66AF2B"/>
<path d="M64.3218 510.022C64.3114 510.017 64.301 510.012 64.2889 510.006C64.2839 510.016 64.279 510.027 64.2732 510.039C62.1467 514.513 64.0499 519.864 68.5242 521.991C68.5346 521.996 68.545 522.001 68.5571 522.006C68.5621 521.996 68.567 521.986 68.5728 521.973C70.7002 517.497 68.7962 512.148 64.3218 510.022Z" fill="#BAF76D"/>
<path d="M267.718 471.386C267.718 457.969 278.594 447.093 292.011 447.093C305.428 447.093 316.305 457.969 316.305 471.386C315.845 503.203 295.781 556.109 292.011 556.109C288.242 556.109 269.38 502.283 267.718 471.386Z" fill="#91E151"/>
<path d="M267.717 471.386C267.717 457.969 278.594 447.093 292.011 447.093C296.793 449.246 301.153 458.582 302.658 468.412C305.642 487.909 295.781 556.109 292.011 556.109C288.242 556.109 269.379 502.283 267.717 471.386Z" fill="#BAF76D"/>
<path d="M283.644 502.575C283.642 502.565 283.639 502.556 283.637 502.546C283.646 502.543 283.655 502.541 283.666 502.538C287.584 501.558 291.555 503.939 292.536 507.857C292.538 507.866 292.54 507.875 292.543 507.886C292.534 507.888 292.525 507.891 292.514 507.893C288.594 508.874 284.625 506.493 283.644 502.575Z" fill="#91E151"/>
<path d="M283.623 502.571C283.627 502.563 283.632 502.555 283.637 502.545C283.645 502.549 283.653 502.554 283.663 502.559C287.241 504.434 288.621 508.854 286.745 512.431C286.741 512.44 286.737 512.448 286.732 512.458C286.723 512.453 286.715 512.449 286.705 512.444C283.126 510.568 281.748 506.149 283.623 502.571Z" fill="#91E151"/>
<path d="M324.132 507.289H329.621L331.593 415.301H322.545L324.132 507.289Z" fill="#CA974C"/>
<path d="M298.641 503.324C298.641 487.623 311.368 474.895 327.069 474.895C342.77 474.895 355.497 487.623 355.497 503.324C354.959 540.556 331.48 602.467 327.069 602.467C322.658 602.467 300.585 539.479 298.641 503.324Z" fill="#91E151"/>
<path d="M298.64 503.324C298.64 487.623 311.368 474.895 327.069 474.895C332.664 477.415 337.767 488.341 339.527 499.843C343.019 522.659 331.48 602.467 327.069 602.467C322.658 602.467 300.585 539.479 298.64 503.324Z" fill="#BAF76D"/>
<path d="M317.277 539.82C317.275 539.809 317.272 539.799 317.269 539.786C317.28 539.784 317.29 539.781 317.303 539.778C321.888 538.63 326.535 541.417 327.683 546.002C327.685 546.013 327.688 546.023 327.691 546.036C327.68 546.038 327.67 546.041 327.657 546.044C323.07 547.192 318.425 544.405 317.277 539.82Z" fill="#91E151"/>
<path d="M317.253 539.817C317.258 539.807 317.263 539.797 317.269 539.786C317.279 539.791 317.289 539.796 317.3 539.802C321.486 541.996 323.101 547.168 320.907 551.355C320.902 551.364 320.897 551.374 320.891 551.386C320.881 551.38 320.871 551.375 320.86 551.369C316.672 549.174 315.059 544.003 317.253 539.817Z" fill="#91E151"/>
<path d="M344.07 488.329C344.07 476.517 353.646 466.941 365.458 466.941C377.269 466.941 386.845 476.517 386.845 488.329C386.44 516.339 368.776 562.916 365.458 562.916C362.139 562.916 345.533 515.529 344.07 488.329Z" fill="#91E151"/>
<path d="M344.07 488.329C344.07 476.517 353.645 466.941 365.457 466.941C369.667 468.837 373.505 477.057 374.83 485.71C377.457 502.875 368.776 562.916 365.457 562.916C362.139 562.916 345.533 515.529 344.07 488.329Z" fill="#BAF76D"/>
<path d="M358.091 515.786C358.089 515.778 358.087 515.769 358.085 515.76C358.093 515.758 358.101 515.756 358.11 515.754C361.56 514.89 365.056 516.987 365.919 520.436C365.921 520.444 365.923 520.452 365.926 520.462C365.918 520.464 365.91 520.466 365.9 520.468C362.449 521.332 358.955 519.235 358.091 515.786Z" fill="#91E151"/>
<path d="M358.073 515.783C358.077 515.775 358.08 515.768 358.085 515.76C358.092 515.763 358.1 515.767 358.108 515.772C361.258 517.423 362.472 521.314 360.822 524.463C360.818 524.471 360.814 524.478 360.81 524.486C360.802 524.483 360.795 524.479 360.786 524.474C357.636 522.823 356.422 518.932 358.073 515.783Z" fill="#91E151"/>
<path d="M116.181 490.976C116.181 481.353 123.982 473.552 133.606 473.552C143.229 473.552 151.03 481.353 151.03 490.976C150.7 513.797 136.309 551.743 133.606 551.743C130.902 551.743 117.373 513.137 116.181 490.976Z" fill="#91E151"/>
<path d="M116.181 490.976C116.181 481.353 123.982 473.552 133.605 473.552C137.035 475.096 140.162 481.792 141.241 488.843C143.382 502.827 136.309 551.743 133.605 551.743C130.902 551.743 117.373 513.137 116.181 490.976Z" fill="#BAF76D"/>
<path d="M234.012 488.21C234.012 478.587 241.813 470.786 251.437 470.786C261.06 470.786 268.861 478.587 268.861 488.21C268.531 511.031 254.14 548.978 251.437 548.978C248.733 548.978 235.204 510.371 234.012 488.21Z" fill="#91E151"/>
<path d="M234.012 488.21C234.012 478.587 241.813 470.786 251.436 470.786C254.866 472.33 257.993 479.027 259.073 486.077C261.213 500.061 254.14 548.978 251.436 548.978C248.733 548.978 235.204 510.371 234.012 488.21Z" fill="#BAF76D"/>
<path d="M72.5569 494.039C72.5569 483.463 81.1304 474.89 91.7064 474.89C102.282 474.89 110.856 483.463 110.856 494.039C110.493 519.119 94.6776 560.822 91.7064 560.822C88.7351 560.822 73.867 518.394 72.5569 494.039Z" fill="#91E151"/>
<path d="M72.5567 494.039C72.5567 483.463 81.1302 474.89 91.7062 474.89C95.4756 476.587 98.9123 483.947 100.098 491.695C102.451 507.063 94.6774 560.822 91.7062 560.822C88.7349 560.822 73.8668 518.394 72.5567 494.039Z" fill="#BAF76D"/>
<path d="M100.353 493.697C100.346 493.699 100.339 493.7 100.331 493.702C100.332 493.71 100.334 493.717 100.336 493.725C101.109 496.814 104.24 498.691 107.328 497.918C107.335 497.916 107.343 497.914 107.351 497.912C107.349 497.905 107.347 497.897 107.345 497.889C106.572 494.799 103.442 492.924 100.353 493.697Z" fill="#66AF2B"/>
<path d="M100.108 493.601C100.102 493.597 100.095 493.594 100.087 493.591C100.084 493.597 100.081 493.604 100.077 493.612C98.7105 496.487 99.9337 499.926 102.809 501.293C102.816 501.296 102.823 501.299 102.83 501.303C102.834 501.296 102.837 501.29 102.841 501.282C104.208 498.405 102.984 494.967 100.108 493.601Z" fill="#BAF76D"/>
<path d="M140.65 489.148C140.65 476.605 150.818 466.437 163.361 466.437C175.904 466.437 186.072 476.605 186.072 489.148C185.642 518.892 166.885 568.353 163.361 568.353C159.837 568.353 142.204 518.032 140.65 489.148Z" fill="#91E151"/>
<path d="M140.65 489.148C140.65 476.605 150.818 466.437 163.361 466.437C167.831 468.45 171.907 477.178 173.314 486.367C176.104 504.594 166.885 568.353 163.361 568.353C159.837 568.353 142.203 518.032 140.65 489.148Z" fill="#BAF76D"/>
<path d="M160.107 518.304C160.109 518.296 160.111 518.287 160.113 518.277C160.105 518.275 160.096 518.273 160.086 518.27C156.423 517.354 152.711 519.58 151.794 523.243C151.792 523.251 151.79 523.26 151.787 523.27C151.796 523.272 151.804 523.274 151.814 523.276C155.479 524.194 159.19 521.967 160.107 518.304Z" fill="#91E151"/>
<path d="M160.126 518.302C160.122 518.294 160.118 518.286 160.114 518.277C160.106 518.281 160.098 518.285 160.089 518.29C156.744 520.043 155.454 524.175 157.207 527.52C157.211 527.527 157.215 527.535 157.22 527.544C157.228 527.54 157.236 527.536 157.245 527.531C160.591 525.778 161.879 521.646 160.126 518.302Z" fill="#91E151"/>
</g>
</g>
<path d="M-19.6775 495.586H71.6222C71.6222 520.797 51.1841 541.235 25.9723 541.235C0.760635 541.235 -19.6775 520.797 -19.6775 495.586Z" fill="#81CB46"/>
<path d="M-19.6776 495.586H47.3448C52.4512 505.527 51.184 541.235 25.9723 541.235C0.760567 541.235 -19.6776 520.797 -19.6776 495.586Z" fill="#A6E852"/>
<path d="M233.909 495.585H311.07C311.07 516.893 293.797 534.166 272.49 534.166C251.182 534.166 233.909 516.893 233.909 495.585Z" fill="#81CB46"/>
<path d="M233.909 495.585H290.552C294.868 503.987 293.797 534.166 272.49 534.166C251.182 534.166 233.909 516.893 233.909 495.585Z" fill="#A6E852"/>
<circle cx="252.433" cy="508.901" r="2.44807" transform="rotate(180 252.433 508.901)" fill="#D0FD71"/>
<path fill-rule="evenodd" clip-rule="evenodd" d="M214.35 541.235C239.561 541.235 260 520.797 260 495.586H168.7C168.7 495.586 168.7 495.586 168.7 495.586H123.158C123.158 514.218 138.262 529.323 156.895 529.323C164.604 529.323 171.709 526.737 177.391 522.385C185.688 533.808 199.151 541.235 214.35 541.235Z" fill="#81CB46"/>
<path d="M233.925 495.586H123.157C123.157 514.218 138.262 529.323 156.895 529.323C164.604 529.323 171.709 526.737 177.39 522.386C185.688 533.808 199.151 541.235 214.349 541.235C230.417 537.049 234.426 510.993 233.925 495.586Z" fill="#A6E852"/>
<circle cx="217.598" cy="517.468" r="2.89663" transform="rotate(180 217.598 517.468)" fill="#81CB46"/>
<circle cx="206.531" cy="527.196" r="2.89663" transform="rotate(180 206.531 527.196)" fill="#D0FD71"/>
<circle cx="186.175" cy="508.311" r="2.89663" transform="rotate(180 186.175 508.311)" fill="#D0FD71"/>
<path d="M303.783 495.585H380.944C380.944 516.893 363.671 534.166 342.363 534.166C321.056 534.166 303.783 516.893 303.783 495.585Z" fill="#81CB46"/>
<path d="M303.783 495.585H360.426C364.742 503.987 363.671 534.166 342.363 534.166C321.056 534.166 303.783 516.893 303.783 495.585Z" fill="#A6E852"/>
<circle cx="352.799" cy="508.901" r="2.44807" transform="rotate(180 352.799 508.901)" fill="#81CB46"/>
<circle cx="338.818" cy="526.747" r="2.44807" transform="rotate(180 338.818 526.747)" fill="#D0FD71"/>
<circle cx="324.601" cy="515.552" r="2.44807" transform="rotate(180 324.601 515.552)" fill="#D0FD71"/>
<path d="M59.2342 495.585H136.396C136.396 516.893 119.122 534.166 97.8149 534.166C76.5074 534.166 59.2342 516.893 59.2342 495.585Z" fill="#81CB46"/>
<path d="M59.2343 495.585H115.878C120.194 503.987 119.123 534.166 97.815 534.166C76.5075 534.166 59.2343 516.893 59.2343 495.585Z" fill="#A6E852"/>
<circle cx="100.828" cy="513.797" r="2.44807" transform="rotate(180 100.828 513.797)" fill="#81CB46"/>
<circle cx="87.7728" cy="512.685" r="2.44807" transform="rotate(180 87.7728 512.685)" fill="#81CB46"/>
<circle cx="91.4741" cy="522.019" r="2.44807" transform="rotate(180 91.4741 522.019)" fill="#D0FD71"/>
<path d="M273.727 503.871C273.263 503.175 272.812 502.446 272.395 501.693C270.529 507.034 267.992 512.201 264.806 517.102C268.305 512.931 271.271 508.493 273.727 503.871Z" fill="#81CB46"/>
<path d="M155.513 503.871C155.977 503.175 156.428 502.446 156.845 501.693C158.711 507.034 161.248 512.201 164.434 517.102C160.935 512.931 157.969 508.493 155.513 503.871Z" fill="#81CB46"/>
<path d="M23.8861 507.453C24.5222 506.499 25.1424 505.497 25.7149 504.464C28.2754 511.795 31.7583 518.888 36.1318 525.615C31.3289 519.89 27.2576 513.799 23.8861 507.453Z" fill="#81CB46"/>
<path d="M389.139 494H-11.8816V661.72H389.139V494Z" fill="url(#paint2_linear_6093_44448)"/>
<path d="M108.235 231.692C115.668 247.595 114.467 261.538 103.459 273.685C92.4508 285.831 74.7242 292.812 58.4965 286.584L108.235 231.692Z" fill="white"/>
<path d="M48.8727 313.439C52.5063 308.375 92.8538 252.31 92.8538 252.31C92.8538 252.31 59.454 285.501 52.8474 292.819C37.9711 309.211 27.8809 318.818 27.8809 318.818C27.8809 318.818 39.4886 326.728 48.8727 313.439Z" fill="#4C5D6C"/>
<path d="M108.235 231.691C110.878 244.074 105.504 260.594 93.2494 274.125C80.9944 287.655 61.1517 295.087 52.8238 292.841C63.4035 281.162 69.8039 266.224 84.8717 249.587C91.6204 242.351 99.5132 236.305 108.235 231.691Z" fill="#FFAEAE"/>
<path d="M92.7462 251.702C93.3828 263.311 87.4514 274.753 76.5926 280.539C65.7369 286.333 52.8185 284.972 43.6818 277.87C57.3296 273.452 92.7462 251.702 92.7462 251.702Z" fill="#4C5D6C"/>
<path d="M92.7524 251.682C91.6455 262.881 81.3002 271.814 69.4505 274.168C57.6007 276.523 46.9168 272.115 39.1979 262.326C55.5564 259.194 93.8468 240.639 92.7524 251.682Z" fill="#FF8787"/>
<path d="M92.5232 252.388C88.2844 262.783 75.8268 268.371 63.7781 267.228C51.7325 266.093 42.714 258.812 38.0775 247.232C54.6773 248.924 96.6992 242.13 92.5232 252.388Z" fill="white"/>
<path d="M112.85 248.053C112.988 249.923 112.971 251.8 112.801 253.662C111.846 254.616 110.607 255.225 109.269 255.397C107.932 255.569 106.569 255.294 105.387 254.614C102.607 253.068 112.338 247.141 112.85 248.053Z" fill="#FFAEAE"/>
<path d="M109.064 235.946C109.064 235.946 119.789 233.342 126.938 231.504C130.107 230.681 130.861 231.781 128.075 233.779C123.8 236.848 113.297 244.744 113.297 244.744L109.064 235.946Z" fill="#4C5D6C"/>
<path d="M94.554 247.156C97.9646 254.154 103.164 256.668 110.018 253.305C116.872 249.943 122.784 241.978 119.364 234.984C115.944 227.99 107.048 229.108 100.198 232.479C93.3482 235.851 91.1297 240.153 94.554 247.156Z" fill="white"/>
<path d="M110.277 240.961C109.418 240.909 108.548 241.155 107.991 241.772C107.48 242.331 107.216 243.035 107.205 243.736C107.207 244.466 106.274 244.814 105.852 244.199L105.838 244.169C105.007 242.97 104.964 241.342 105.709 240.092C106.975 237.985 109.746 237.688 111.469 239.254C111.713 239.473 111.896 239.719 112.08 239.966C112.458 240.564 111.896 241.33 111.221 241.121C110.897 241.048 110.617 240.991 110.277 240.961Z" fill="#3E3E3D"/>
<path d="M94.5538 247.156C91.5033 240.932 91.3671 235.109 97.1613 231.185C103.472 226.89 114.232 227.15 118.555 233.611C114.018 234.582 110.338 232.058 104.53 234.012C95.6461 236.998 94.5538 247.156 94.5538 247.156Z" fill="#FF8787"/>
<path d="M101.452 229.194L85.9654 233.887C85.9654 233.887 89.2126 240.124 92.7514 242.061C96.4534 240.107 101.452 229.194 101.452 229.194Z" fill="#FF8787"/>
</g>
<defs>
<linearGradient id="paint0_linear_6093_44448" x1="187.5" y1="0" x2="187.5" y2="812" gradientUnits="userSpaceOnUse">
<stop offset="0.125" stop-color="white"/>
<stop offset="0.699366" stop-color="#FFE349"/>
<stop offset="0.961707" stop-color="#FFF8CF"/>
</linearGradient>
<linearGradient id="paint1_linear_6093_44448" x1="169.92" y1="493.957" x2="169.92" y2="822.076" gradientUnits="userSpaceOnUse">
<stop offset="0.457371" stop-color="#FFF8CF"/>
<stop offset="1" stop-color="#FFF8CF" stop-opacity="0"/>
</linearGradient>
<linearGradient id="paint2_linear_6093_44448" x1="188.627" y1="494.44" x2="188.627" y2="656.87" gradientUnits="userSpaceOnUse">
<stop offset="0.0153" stop-color="white"/>
<stop offset="0.0842777" stop-color="#FFE765"/>
<stop offset="0.425037" stop-color="#FFF7CC" stop-opacity="0"/>
</linearGradient>
<clipPath id="clip0_6093_44448">
<rect width="375" height="812" fill="white"/>
</clipPath>
</defs>
</svg>
